<svg width="600" height="600" viewBox="0 0 600 600" fill="none" xmlns="http://www.w3.org/2000/svg">
<rect width="600" height="600" rx="50" fill="#F6F5FC"/>
<path d="M364.394 392.849H352.494V334.007C358.585 331.664 365.05 330.353 371.609 330.353C385.944 330.353 395.782 338.504 395.782 352.371C395.782 367.644 386.6 376.171 371.421 376.171H370.859V365.864C378.261 365.864 383.789 361.741 383.789 352.84C383.789 345.251 378.823 341.034 371.515 341.034C369.079 340.94 366.736 341.315 364.394 342.159V392.849ZM508.125 365.77C503.066 365.77 500.442 363.334 500.442 358.368V341.222H515.808V331.571H500.442V315.267H488.636V359.211C488.636 372.142 495.851 376.358 507.282 376.358C510.28 376.358 513.372 376.077 516.371 375.608V364.739C513.653 365.395 510.936 365.864 508.125 365.77ZM125.841 333.632C122.093 331.383 117.783 330.259 113.38 330.353C100.075 330.353 90.3301 339.441 90.3301 353.308C90.3301 367.176 99.325 376.077 113.473 376.077C117.971 376.171 122.374 375.046 126.216 372.797V361.835C123.03 364.365 119.189 365.77 115.16 365.77C108.507 366.239 102.698 361.273 102.23 354.62C102.23 354.152 102.23 353.683 102.23 353.215C101.855 346.843 106.633 341.315 113.098 340.847C113.661 340.847 114.223 340.847 114.691 340.847C118.814 340.753 122.749 342.159 125.935 344.876V333.632H125.841ZM132.213 375.14H143.925V342.346C146.548 341.409 149.359 341.034 152.17 341.034C157.23 341.034 159.947 343.564 159.947 348.53V375.14H171.753V347.78C171.753 334.85 164.163 330.54 154.7 330.54C151.046 330.54 147.392 331.196 143.925 332.414V311.613H132.213V375.14ZM205.859 353.402C205.859 366.051 216.072 376.264 228.721 376.264C241.37 376.264 251.583 366.051 251.583 353.402C251.583 340.753 241.37 330.54 228.721 330.54C216.072 330.446 205.859 340.753 205.859 353.402ZM239.683 353.402C239.683 361.273 235.092 366.051 228.721 366.051C222.349 366.051 217.758 361.179 217.758 353.402C217.758 345.625 222.349 340.753 228.721 340.753C235.092 340.753 239.683 345.438 239.683 353.402ZM257.111 375.14H268.917V342.346C271.54 341.503 274.351 341.034 277.162 341.034C282.222 341.034 284.939 343.564 284.939 348.53V375.14H296.838V347.78C296.838 334.756 289.624 330.54 278.099 330.54C270.978 330.634 263.951 331.946 257.205 334.382L257.111 375.14ZM301.617 353.402C301.617 366.051 311.83 376.264 324.479 376.264C337.128 376.264 347.341 366.051 347.341 353.402C347.341 340.753 337.128 330.54 324.479 330.54C311.924 330.446 301.617 340.753 301.617 353.402ZM335.535 353.402C335.535 361.273 330.944 366.051 324.573 366.051C318.201 366.051 313.61 361.179 313.61 353.402C313.61 345.625 318.201 340.753 324.573 340.753C330.944 340.753 335.442 345.438 335.535 353.402ZM197.426 330.54C186.088 330.54 178.686 334.756 178.686 347.78V375.234H190.586V348.624C190.586 343.751 193.209 341.128 198.363 341.128C201.174 341.128 203.891 341.503 206.608 342.252V331.196C203.516 330.727 200.424 330.446 197.426 330.54ZM451.064 372.142C455.374 374.578 460.34 375.796 465.306 375.702C475.519 375.702 482.64 371.392 482.64 361.835C482.64 353.964 478.798 349.748 467.554 347.593C463.432 346.562 461.839 345.438 461.839 343.189C461.839 340.94 463.525 339.441 467.461 339.441C471.958 339.535 476.268 341.034 479.922 343.658V333.164C475.987 330.915 471.583 329.791 467.086 329.884C457.716 329.884 450.408 334.288 450.408 343.939C450.408 351.903 454.53 355.838 464.462 357.619C469.335 358.649 471.115 359.68 471.115 362.303C471.115 364.927 468.679 366.145 465.025 366.145C459.965 365.958 455.186 364.271 451.064 361.273V372.142ZM400.936 353.308C400.936 365.958 411.149 376.171 423.798 376.171C436.447 376.171 446.66 365.958 446.66 353.308C446.66 340.659 436.447 330.446 423.798 330.446C411.149 330.446 400.936 340.659 400.936 353.308ZM434.76 353.308C434.76 361.179 430.169 365.958 423.798 365.958C417.426 365.958 412.835 361.085 412.835 353.308C412.835 345.532 417.426 340.659 423.798 340.659C430.169 340.659 434.76 345.438 434.76 353.308Z" fill="#3C3C3B"/>
<path d="M329.245 223.672C328.529 224.029 327.695 224.029 326.979 223.672L323.402 221.528C323.045 221.29 322.806 221.051 322.687 220.694C322.448 220.337 322.329 219.979 322.329 219.503V215.334C322.329 214.619 322.687 213.904 323.402 213.428L366.446 188.413L305.994 155.536C304.444 154.821 302.655 154.821 301.105 155.536L240.772 188.294L308.259 227.603C308.975 227.96 309.333 228.675 309.333 229.509V286.805C309.333 287.639 308.856 288.234 308.14 288.711L304.563 290.736C304.205 290.855 303.848 290.974 303.49 290.974C303.132 290.974 302.655 290.855 302.298 290.736L298.721 288.711C298.005 288.353 297.647 287.639 297.528 286.805V235.703C297.528 235.346 297.29 234.869 296.932 234.631L237.434 200.086V267.746C237.553 269.414 238.387 270.962 239.818 271.915L301.105 308.127C302.655 308.842 304.325 308.842 305.875 308.127L367.162 272.034C368.593 271.081 369.427 269.533 369.546 267.865V200.206L329.245 223.672Z" fill="url(#paint0_linear_5050_587)"/>
<defs>
<linearGradient id="paint0_linear_5050_587" x1="238.107" y1="285.481" x2="304.901" y2="229.365" gradientUnits="userSpaceOnUse">
<stop stop-color="#0067AA"/>
<stop offset="0.35" stop-color="#0082C1"/>
<stop offset="0.75" stop-color="#009AD5"/>
<stop offset="1" stop-color="#00A3DD"/>
</linearGradient>
</defs>
</svg>
