<svg width="600" height="600" viewBox="0 0 600 600" fill="none" xmlns="http://www.w3.org/2000/svg">
<rect width="600" height="600" rx="50" fill="#F6F5FC"/>
<path d="M51.2016 287V252.05H57.1016V267.2H74.4516V252.05H80.3516V287H74.4516V272.7H57.1016V287H51.2016ZM115.169 260.3C112.802 257.833 109.885 256.6 106.419 256.6C102.952 256.6 100.019 257.833 97.6188 260.3C95.2521 262.767 94.0688 265.767 94.0688 269.3C94.0688 272.8 95.2521 275.783 97.6188 278.25C100.019 280.717 102.952 281.95 106.419 281.95C109.885 281.95 112.802 280.717 115.169 278.25C117.569 275.783 118.769 272.8 118.769 269.3C118.769 265.767 117.569 262.767 115.169 260.3ZM119.519 282.2C115.985 285.633 111.619 287.35 106.419 287.35C101.219 287.35 96.8521 285.633 93.3188 282.2C89.7854 278.733 88.0188 274.433 88.0188 269.3C88.0188 264.133 89.7854 259.833 93.3188 256.4C96.8521 252.933 101.219 251.2 106.419 251.2C111.619 251.2 115.985 252.933 119.519 256.4C123.052 259.833 124.819 264.133 124.819 269.3C124.819 274.433 123.052 278.733 119.519 282.2ZM103.719 242.45H108.919L115.019 249.15H110.169L106.319 246.35L102.469 249.15H97.6188L103.719 242.45ZM145.661 257.45V287H139.761V257.45H129.161V252.05H156.261V257.45H145.661ZM187.387 252.05V257.6H168.737V266.85H185.487V272.1H168.737V281.45H187.987V287H162.837V252.05H187.387ZM195.752 287V252.05H201.652V281.4H217.602V287H195.752ZM248.972 252.05C255.239 252.05 260.055 253.583 263.422 256.65C266.789 259.683 268.472 263.917 268.472 269.35C268.472 274.783 266.839 279.083 263.572 282.25C260.305 285.417 255.305 287 248.572 287H236.972V252.05H248.972ZM262.522 269.5C262.522 261.5 257.939 257.5 248.772 257.5H242.872V281.45H249.422C253.655 281.45 256.889 280.45 259.122 278.45C261.389 276.417 262.522 273.433 262.522 269.5ZM300.833 252.05V257.6H282.183V266.85H298.933V272.1H282.183V281.45H301.433V287H276.283V252.05H300.833ZM319.748 256.65C318.048 256.65 316.648 257 315.548 257.7C314.448 258.4 313.898 259.467 313.898 260.9C313.898 262.3 314.448 263.383 315.548 264.15C316.648 264.883 318.981 265.683 322.548 266.55C326.148 267.417 328.848 268.633 330.648 270.2C332.481 271.767 333.398 274.083 333.398 277.15C333.398 280.183 332.248 282.65 329.948 284.55C327.648 286.45 324.631 287.4 320.898 287.4C315.431 287.4 310.581 285.517 306.348 281.75L310.048 277.3C313.581 280.367 317.248 281.9 321.048 281.9C322.948 281.9 324.448 281.5 325.548 280.7C326.681 279.867 327.248 278.783 327.248 277.45C327.248 276.083 326.715 275.033 325.648 274.3C324.615 273.533 322.815 272.85 320.248 272.25C317.681 271.617 315.731 271.05 314.398 270.55C313.065 270.017 311.881 269.333 310.848 268.5C308.781 266.933 307.748 264.533 307.748 261.3C307.748 258.067 308.915 255.583 311.248 253.85C313.615 252.083 316.531 251.2 319.998 251.2C322.231 251.2 324.448 251.567 326.648 252.3C328.848 253.033 330.748 254.067 332.348 255.4L329.198 259.85C328.165 258.917 326.765 258.15 324.998 257.55C323.231 256.95 321.481 256.65 319.748 256.65ZM369.542 287H362.942L348.892 252.05H355.492L366.242 278.15L376.992 252.05H383.592L369.542 287ZM413.352 252.05V257.6H394.702V266.85H411.452V272.1H394.702V281.45H413.952V287H388.802V252.05H413.352ZM447.917 252.05H453.817V287H447.417L427.617 261.5V287H421.717V252.05H427.617L447.917 278.15V252.05ZM476.914 257.45V287H471.014V257.45H460.414V252.05H487.514V257.45H476.914ZM518.639 252.05V257.6H499.989V266.85H516.739V272.1H499.989V281.45H519.239V287H494.089V252.05H518.639ZM537.554 256.65C535.854 256.65 534.454 257 533.354 257.7C532.254 258.4 531.704 259.467 531.704 260.9C531.704 262.3 532.254 263.383 533.354 264.15C534.454 264.883 536.788 265.683 540.354 266.55C543.954 267.417 546.654 268.633 548.454 270.2C550.288 271.767 551.204 274.083 551.204 277.15C551.204 280.183 550.054 282.65 547.754 284.55C545.454 286.45 542.438 287.4 538.704 287.4C533.238 287.4 528.388 285.517 524.154 281.75L527.854 277.3C531.388 280.367 535.054 281.9 538.854 281.9C540.754 281.9 542.254 281.5 543.354 280.7C544.488 279.867 545.054 278.783 545.054 277.45C545.054 276.083 544.521 275.033 543.454 274.3C542.421 273.533 540.621 272.85 538.054 272.25C535.488 271.617 533.538 271.05 532.204 270.55C530.871 270.017 529.688 269.333 528.654 268.5C526.588 266.933 525.554 264.533 525.554 261.3C525.554 258.067 526.721 255.583 529.054 253.85C531.421 252.083 534.338 251.2 537.804 251.2C540.038 251.2 542.254 251.567 544.454 252.3C546.654 253.033 548.554 254.067 550.154 255.4L547.004 259.85C545.971 258.917 544.571 258.15 542.804 257.55C541.038 256.95 539.288 256.65 537.554 256.65Z" fill="#C50019"/>
<path d="M218.853 325.05C225.12 325.05 229.936 326.583 233.303 329.65C236.67 332.683 238.353 336.917 238.353 342.35C238.353 347.783 236.72 352.083 233.453 355.25C230.186 358.417 225.186 360 218.453 360H206.853V325.05H218.853ZM232.403 342.5C232.403 334.5 227.82 330.5 218.653 330.5H212.753V354.45H219.303C223.536 354.45 226.77 353.45 229.003 351.45C231.27 349.417 232.403 346.433 232.403 342.5ZM270.714 325.05V330.6H252.064V339.85H268.814V345.1H252.064V354.45H271.314V360H246.164V325.05H270.714ZM303.779 325.05C309.079 325.05 312.946 326.067 315.379 328.1C317.812 330.133 319.029 333.267 319.029 337.5C319.029 341.733 317.779 344.833 315.279 346.8C312.812 348.767 309.012 349.75 303.879 349.75H297.679V360H291.779V325.05H303.779ZM304.529 344.4C307.796 344.4 310.012 343.783 311.179 342.55C312.379 341.283 312.979 339.45 312.979 337.05C312.979 334.617 312.229 332.9 310.729 331.9C309.229 330.9 306.879 330.4 303.679 330.4H297.679V344.4H304.529ZM331.109 352.05L327.609 360H321.309L336.709 325.05H343.009L358.409 360H352.109L348.609 352.05H331.109ZM346.209 346.6L339.859 332.2L333.509 346.6H346.209ZM371.318 352C372.918 353.867 375.085 354.8 377.818 354.8C380.551 354.8 382.718 353.867 384.318 352C385.918 350.133 386.718 347.6 386.718 344.4V325.05H392.618V344.65C392.618 349.683 391.235 353.567 388.468 356.3C385.701 359 382.151 360.35 377.818 360.35C373.485 360.35 369.935 359 367.168 356.3C364.401 353.567 363.018 349.683 363.018 344.65V325.05H368.918V344.4C368.918 347.6 369.718 350.133 371.318 352Z" fill="#C50019"/>
</svg>
