<svg width="600" height="600" viewBox="0 0 600 600" fill="none" xmlns="http://www.w3.org/2000/svg">
<rect width="600" height="600" rx="50" fill="#F6F5FC"/>
<path d="M273.348 259.178C267.406 258.762 262.938 257.04 259.167 253.708C258.742 253.371 258.354 252.99 258.008 252.572C258.019 252.504 259.392 251.041 261.069 249.308L264.108 246.156L264.952 246.865C266.679 248.338 268.737 249.37 270.951 249.87C275.926 251.086 280.968 250.478 283.354 248.362C285.571 246.404 285.718 241.767 283.613 239.808C282.184 238.469 281.295 238.188 275.937 237.389C271.908 236.792 269.916 236.376 268.385 235.802C263.658 234.023 260.9 230.692 260.034 225.74C259.788 223.66 259.807 221.557 260.09 219.482C261.733 211.119 269.162 206.358 279.381 207.101C285.121 207.529 288.948 209.037 292.505 212.279L293.236 212.954L290.163 216.038L287.08 219.133L286.438 218.57C284.266 216.657 281.373 215.756 277.389 215.756C274.193 215.756 272.516 216.263 270.974 217.692C270.304 218.295 269.787 219.048 269.464 219.889C269.141 220.73 269.022 221.636 269.117 222.532C269.207 224.592 269.904 225.796 271.604 226.809C272.977 227.619 274.17 227.934 278.132 228.531C283.872 229.397 285.583 229.836 287.856 231.007C291.57 232.943 293.698 236.376 294.227 241.283C294.812 246.719 293.529 250.94 290.321 254.147C286.573 257.895 280.552 259.685 273.348 259.178Z" fill="#414445" stroke="#414445" stroke-width="0.12"/>
<path d="M115.35 225.099C114.309 223.801 113.535 222.31 113.073 220.711C112.612 219.113 112.471 217.439 112.659 215.786C112.847 214.132 113.361 212.533 114.171 211.079C114.98 209.626 116.07 208.347 117.376 207.316C122.891 202.814 130.769 203.489 135.159 208.892C136.2 210.19 136.973 211.681 137.435 213.279C137.897 214.878 138.038 216.552 137.85 218.205C137.661 219.858 137.148 221.458 136.338 222.911C135.528 224.365 134.439 225.644 133.133 226.675C127.73 231.177 119.739 230.389 115.35 225.099Z" fill="#00AFE6"/>
<path d="M206.516 361.622C206.966 361.622 207.191 361.96 207.191 362.297C207.191 362.747 206.853 362.973 206.516 362.973C206.066 362.973 205.728 362.635 205.728 362.297C205.728 361.96 206.066 361.622 206.516 361.622ZM206.516 358.921C206.966 358.921 207.191 359.258 207.191 359.596C207.191 360.046 206.853 360.271 206.516 360.271C206.066 360.271 205.728 359.934 205.728 359.596C205.728 359.258 206.066 358.921 206.516 358.921ZM206.516 356.332C206.966 356.332 207.191 356.67 207.191 357.007C207.191 357.458 206.853 357.683 206.516 357.683C206.066 357.683 205.728 357.345 205.728 357.007C205.728 356.557 206.066 356.332 206.516 356.332ZM206.516 353.631C206.966 353.631 207.191 353.968 207.191 354.306C207.191 354.756 206.853 354.981 206.516 354.981C206.066 354.981 205.728 354.644 205.728 354.306C205.728 353.968 206.066 353.631 206.516 353.631ZM206.516 350.93C206.966 350.93 207.191 351.267 207.191 351.605C207.191 352.055 206.853 352.28 206.516 352.28C206.066 352.28 205.728 351.943 205.728 351.605C205.728 351.267 206.066 350.93 206.516 350.93ZM206.516 348.228C206.966 348.228 207.191 348.566 207.191 348.904C207.191 349.241 206.853 349.579 206.516 349.579C206.066 349.579 205.728 349.241 205.728 348.904C205.728 348.566 206.066 348.228 206.516 348.228ZM206.516 345.64C206.966 345.64 207.191 345.977 207.191 346.315C207.191 346.765 206.853 346.99 206.516 346.99C206.066 346.99 205.728 346.653 205.728 346.315C205.728 345.977 206.066 345.64 206.516 345.64ZM206.516 342.939C206.966 342.939 207.191 343.276 207.191 343.614C207.191 344.064 206.853 344.289 206.516 344.289C206.066 344.289 205.728 343.951 205.728 343.614C205.728 343.276 206.066 342.939 206.516 342.939ZM206.516 340.237C206.966 340.237 207.191 340.575 207.191 340.913C207.191 341.25 206.853 341.588 206.516 341.588C206.066 341.588 205.728 341.25 205.728 340.913C205.728 340.575 206.066 340.237 206.516 340.237ZM206.516 337.649C206.966 337.649 207.191 337.986 207.191 338.324C207.191 338.774 206.853 338.999 206.516 338.999C206.066 338.999 205.728 338.662 205.728 338.324C205.728 337.986 206.066 337.649 206.516 337.649ZM206.516 334.947C206.966 334.947 207.191 335.285 207.191 335.623C207.191 336.073 206.853 336.298 206.516 336.298C206.066 336.298 205.728 335.96 205.728 335.623C205.728 335.285 206.066 334.947 206.516 334.947ZM206.516 332.246C206.966 332.246 207.191 332.584 207.191 332.922C207.191 333.372 206.853 333.597 206.516 333.597C206.066 333.597 205.728 333.259 205.728 332.922C205.728 332.584 206.066 332.246 206.516 332.246ZM206.516 329.658C206.966 329.658 207.191 329.995 207.191 330.333C207.191 330.783 206.853 331.008 206.516 331.008C206.066 331.008 205.728 330.671 205.728 330.333C205.728 329.883 206.066 329.658 206.516 329.658ZM206.516 326.956C206.966 326.956 207.191 327.294 207.191 327.632C207.191 328.082 206.853 328.307 206.516 328.307C206.066 328.307 205.728 327.969 205.728 327.632C205.728 327.294 206.066 326.956 206.516 326.956ZM206.516 324.255C206.966 324.255 207.191 324.593 207.191 324.93C207.191 325.381 206.853 325.606 206.516 325.606C206.066 325.606 205.728 325.268 205.728 324.93C205.728 324.593 206.066 324.255 206.516 324.255ZM206.516 321.667C206.966 321.667 207.191 322.004 207.191 322.342C207.191 322.792 206.853 323.017 206.516 323.017C206.066 323.017 205.728 322.679 205.728 322.342C205.728 321.892 206.066 321.667 206.516 321.667ZM206.516 318.965C206.966 318.965 207.191 319.303 207.191 319.641C207.191 320.091 206.853 320.316 206.516 320.316C206.066 320.316 205.728 319.978 205.728 319.641C205.728 319.303 206.066 318.965 206.516 318.965ZM206.516 316.264C206.966 316.264 207.191 316.602 207.191 316.939C207.191 317.39 206.853 317.615 206.516 317.615C206.066 317.615 205.728 317.277 205.728 316.939C205.728 316.602 206.066 316.264 206.516 316.264ZM187.832 299.494C187.832 299.044 188.17 298.819 188.508 298.819C188.958 298.819 189.183 299.156 189.183 299.494C189.183 299.944 188.845 300.282 188.508 300.282C188.17 300.282 187.832 299.944 187.832 299.494ZM185.131 299.494C185.131 299.044 185.469 298.819 185.806 298.819C186.257 298.819 186.482 299.156 186.482 299.494C186.482 299.944 186.144 300.282 185.806 300.282C185.469 300.282 185.131 299.944 185.131 299.494ZM182.542 299.494C182.542 299.044 182.88 298.819 183.218 298.819C183.668 298.819 183.893 299.156 183.893 299.494C183.893 299.944 183.555 300.282 183.218 300.282C182.88 300.282 182.542 299.944 182.542 299.494ZM179.841 299.494C179.841 299.044 180.179 298.819 180.517 298.819C180.967 298.819 181.192 299.156 181.192 299.494C181.192 299.944 180.854 300.282 180.517 300.282C180.179 300.282 179.841 299.944 179.841 299.494ZM177.14 299.494C177.14 299.044 177.478 298.819 177.815 298.819C178.153 298.819 178.491 299.156 178.491 299.494C178.491 299.944 178.153 300.282 177.815 300.282C177.478 300.282 177.14 299.944 177.14 299.494ZM174.551 299.494C174.551 299.044 174.889 298.819 175.227 298.819C175.677 298.819 175.902 299.156 175.902 299.494C175.902 299.944 175.564 300.282 175.227 300.282C174.777 300.282 174.551 299.944 174.551 299.494ZM171.85 299.494C171.85 299.044 172.188 298.819 172.525 298.819C172.976 298.819 173.313 299.156 173.313 299.494C173.313 299.944 172.976 300.282 172.525 300.282C172.188 300.282 171.85 299.944 171.85 299.494ZM169.149 299.494C169.149 299.044 169.487 298.819 169.824 298.819C170.274 298.819 170.612 299.156 170.612 299.494C170.612 299.944 170.274 300.282 169.824 300.282C169.487 300.282 169.149 299.944 169.149 299.494ZM166.56 299.494C166.56 299.044 166.898 298.819 167.236 298.819C167.686 298.819 167.911 299.156 167.911 299.494C167.911 299.944 167.573 300.282 167.236 300.282C166.785 300.282 166.56 299.944 166.56 299.494ZM163.859 299.494C163.859 299.044 164.197 298.819 164.534 298.819C164.985 298.819 165.21 299.156 165.21 299.494C165.21 299.944 164.872 300.282 164.534 300.282C164.197 300.282 163.859 299.944 163.859 299.494ZM161.158 299.494C161.158 299.044 161.496 298.819 161.833 298.819C162.283 298.819 162.509 299.156 162.509 299.494C162.509 299.944 162.171 300.282 161.833 300.282C161.496 300.282 161.158 299.944 161.158 299.494ZM158.457 299.494C158.457 299.044 158.794 298.819 159.132 298.819C159.582 298.819 159.807 299.156 159.807 299.494C159.807 299.944 159.47 300.282 159.132 300.282C158.794 300.282 158.457 299.944 158.457 299.494ZM155.868 299.494C155.868 299.044 156.206 298.819 156.543 298.819C156.994 298.819 157.219 299.156 157.219 299.494C157.219 299.944 156.881 300.282 156.543 300.282C156.206 300.282 155.868 299.944 155.868 299.494ZM153.167 299.494C153.167 299.044 153.504 298.819 153.842 298.819C154.292 298.819 154.63 299.156 154.63 299.494C154.63 299.944 154.292 300.282 153.842 300.282C153.504 300.282 153.167 299.944 153.167 299.494ZM150.466 299.494C150.466 299.044 150.803 298.819 151.141 298.819C151.591 298.819 151.816 299.156 151.816 299.494C151.816 299.944 151.479 300.282 151.141 300.282C150.803 300.282 150.466 299.944 150.466 299.494ZM147.877 299.494C147.877 299.044 148.215 298.819 148.552 298.819C149.002 298.819 149.228 299.156 149.228 299.494C149.228 299.944 148.89 300.282 148.552 300.282C148.215 300.282 147.877 299.944 147.877 299.494ZM188.845 304.221C188.508 303.996 188.508 303.546 188.733 303.208C188.958 302.871 189.408 302.871 189.746 303.096C190.083 303.321 190.083 303.771 189.858 304.109C189.633 304.446 189.183 304.446 188.845 304.221ZM187.157 306.247C186.819 306.022 186.819 305.572 187.044 305.234C187.27 304.897 187.72 304.897 188.057 305.122C188.395 305.347 188.395 305.797 188.17 306.135C187.945 306.472 187.495 306.585 187.157 306.247ZM185.469 308.386C185.131 308.16 185.131 307.71 185.356 307.373C185.581 307.035 186.032 307.035 186.369 307.26C186.707 307.485 186.707 307.935 186.482 308.273C186.257 308.611 185.694 308.611 185.469 308.386ZM183.781 310.411C183.443 310.186 183.443 309.736 183.668 309.399C183.893 309.061 184.343 309.061 184.681 309.286C185.019 309.511 185.019 309.961 184.793 310.299C184.456 310.637 184.006 310.637 183.781 310.411ZM182.092 312.437C181.755 312.212 181.755 311.762 181.98 311.424C182.205 311.087 182.655 311.087 182.993 311.312C183.33 311.537 183.33 311.987 183.105 312.325C182.768 312.662 182.317 312.775 182.092 312.437ZM180.404 314.576C180.066 314.351 180.066 313.901 180.291 313.563C180.517 313.225 180.967 313.225 181.304 313.45C181.642 313.675 181.642 314.126 181.417 314.463C181.079 314.801 180.629 314.801 180.404 314.576ZM178.603 316.602C178.266 316.377 178.266 315.926 178.491 315.589C178.716 315.251 179.166 315.251 179.504 315.476C179.841 315.701 179.841 316.152 179.616 316.489C179.391 316.827 178.941 316.827 178.603 316.602ZM176.915 318.628C176.577 318.403 176.577 317.952 176.802 317.615C177.028 317.277 177.478 317.277 177.815 317.502C178.153 317.727 178.153 318.177 177.928 318.515C177.703 318.853 177.253 318.965 176.915 318.628ZM175.227 320.766C174.889 320.541 174.889 320.091 175.114 319.753C175.339 319.416 175.789 319.416 176.127 319.641C176.465 319.866 176.465 320.316 176.24 320.654C176.015 320.879 175.564 320.991 175.227 320.766ZM173.538 322.792C173.201 322.567 173.201 322.117 173.426 321.779C173.651 321.441 174.101 321.441 174.439 321.667C174.777 321.892 174.777 322.342 174.551 322.679C174.326 323.017 173.876 323.017 173.538 322.792ZM171.85 324.818C171.513 324.593 171.513 324.143 171.738 323.805C171.963 323.467 172.413 323.467 172.751 323.692C173.088 323.918 173.088 324.368 172.863 324.705C172.638 325.043 172.188 325.043 171.85 324.818ZM170.162 326.844C169.824 326.619 169.824 326.169 170.049 325.831C170.274 325.493 170.725 325.493 171.062 325.718C171.4 325.943 171.4 326.394 171.175 326.731C170.95 327.069 170.5 327.181 170.162 326.844ZM168.474 328.982C168.136 328.757 168.136 328.307 168.361 327.969C168.586 327.632 169.036 327.632 169.374 327.857C169.712 328.082 169.712 328.532 169.487 328.87C169.262 329.207 168.811 329.207 168.474 328.982ZM166.785 331.008C166.448 330.783 166.448 330.333 166.673 329.995C166.898 329.658 167.348 329.658 167.686 329.883C168.023 330.108 168.023 330.558 167.798 330.896C167.573 331.233 167.123 331.233 166.785 331.008ZM165.097 333.034C164.76 332.809 164.76 332.359 164.985 332.021C165.21 331.684 165.66 331.684 165.998 331.909C166.335 332.134 166.335 332.584 166.11 332.922C165.885 333.259 165.435 333.372 165.097 333.034ZM163.409 335.173C163.071 334.947 163.071 334.497 163.296 334.16C163.521 333.822 163.972 333.822 164.309 334.047C164.647 334.272 164.647 334.722 164.422 335.06C164.197 335.398 163.747 335.398 163.409 335.173ZM161.721 337.198C161.383 336.973 161.383 336.523 161.608 336.186C161.833 335.848 162.283 335.848 162.621 336.073C162.959 336.298 162.959 336.748 162.734 337.086C162.509 337.424 162.058 337.424 161.721 337.198ZM188.845 294.767C188.508 294.992 188.508 295.442 188.733 295.78C188.958 296.118 189.408 296.118 189.746 295.892C190.083 295.667 190.083 295.217 189.858 294.88C189.633 294.542 189.183 294.429 188.845 294.767ZM187.157 292.629C186.819 292.854 186.819 293.304 187.044 293.641C187.27 293.979 187.72 293.979 188.057 293.754C188.395 293.529 188.395 293.079 188.17 292.741C187.945 292.403 187.495 292.403 187.157 292.629ZM185.469 290.603C185.131 290.828 185.131 291.278 185.356 291.616C185.581 291.953 186.032 291.953 186.369 291.728C186.707 291.503 186.707 291.053 186.482 290.715C186.257 290.378 185.694 290.378 185.469 290.603ZM183.781 288.577C183.443 288.802 183.443 289.252 183.668 289.59C183.893 289.927 184.343 289.927 184.681 289.702C185.019 289.477 185.019 289.027 184.793 288.689C184.456 288.352 184.006 288.239 183.781 288.577ZM182.092 286.438C181.755 286.663 181.755 287.114 181.98 287.451C182.205 287.789 182.655 287.789 182.993 287.564C183.33 287.339 183.33 286.888 183.105 286.551C182.768 286.213 182.317 286.213 182.092 286.438ZM180.291 284.412C179.954 284.637 179.954 285.088 180.179 285.425C180.404 285.763 180.854 285.763 181.192 285.538C181.53 285.313 181.53 284.863 181.304 284.525C181.079 284.187 180.629 284.187 180.291 284.412ZM178.603 282.386C178.266 282.612 178.266 283.062 178.491 283.399C178.716 283.737 179.166 283.737 179.504 283.512C179.841 283.287 179.841 282.837 179.616 282.499C179.391 282.161 178.941 282.049 178.603 282.386ZM176.915 280.248C176.577 280.473 176.577 280.923 176.802 281.261C177.028 281.599 177.478 281.599 177.815 281.373C178.153 281.148 178.153 280.698 177.928 280.361C177.703 280.135 177.253 280.023 176.915 280.248ZM175.227 278.222C174.889 278.447 174.889 278.897 175.114 279.235C175.339 279.573 175.789 279.573 176.127 279.348C176.465 279.122 176.465 278.672 176.24 278.335C176.015 277.997 175.564 277.997 175.227 278.222ZM173.538 276.196C173.201 276.421 173.201 276.871 173.426 277.209C173.651 277.547 174.101 277.547 174.439 277.322C174.777 277.097 174.777 276.646 174.551 276.309C174.326 275.971 173.876 275.971 173.538 276.196ZM171.85 274.17C171.513 274.395 171.513 274.846 171.738 275.183C171.963 275.521 172.413 275.521 172.751 275.296C173.088 275.071 173.088 274.62 172.863 274.283C172.638 273.945 172.188 273.833 171.85 274.17ZM170.162 272.032C169.824 272.257 169.824 272.707 170.049 273.045C170.274 273.382 170.725 273.382 171.062 273.157C171.4 272.932 171.4 272.482 171.175 272.144C170.95 271.807 170.5 271.807 170.162 272.032ZM168.474 270.006C168.136 270.231 168.136 270.681 168.361 271.019C168.586 271.356 169.036 271.356 169.374 271.131C169.712 270.906 169.712 270.456 169.487 270.118C169.262 269.781 168.811 269.781 168.474 270.006ZM166.785 267.98C166.448 268.205 166.448 268.655 166.673 268.993C166.898 269.331 167.348 269.331 167.686 269.105C168.023 268.88 168.023 268.43 167.798 268.093C167.573 267.755 167.123 267.642 166.785 267.98ZM165.097 265.842C164.76 266.067 164.76 266.517 164.985 266.854C165.21 267.192 165.66 267.192 165.998 266.967C166.335 266.742 166.335 266.292 166.11 265.954C165.885 265.616 165.435 265.616 165.097 265.842ZM163.409 263.816C163.071 264.041 163.071 264.491 163.296 264.829C163.521 265.166 163.972 265.166 164.309 264.941C164.647 264.716 164.647 264.266 164.422 263.928C164.197 263.591 163.747 263.59 163.409 263.816ZM161.721 261.79C161.383 262.015 161.383 262.465 161.608 262.803C161.833 263.14 162.283 263.14 162.621 262.915C162.959 262.69 162.959 262.24 162.734 261.902C162.509 261.565 162.058 261.565 161.721 261.79Z" fill="#414445"/>
<path d="M106.907 299.494C106.907 288.352 116.024 279.348 127.166 279.348C138.309 279.348 147.313 288.464 147.313 299.607C147.313 310.749 138.196 319.753 127.054 319.753C115.799 319.641 106.795 310.637 106.907 299.494ZM190.307 379.855C190.307 375.557 192.015 371.434 195.054 368.395C198.094 365.355 202.216 363.648 206.514 363.648C210.813 363.648 214.935 365.355 217.975 368.395C221.014 371.434 222.722 375.557 222.722 379.855C222.722 384.153 221.014 388.276 217.975 391.315C214.935 394.355 210.813 396.062 206.514 396.062C202.216 396.062 198.094 394.355 195.054 391.315C192.015 388.276 190.307 384.153 190.307 379.855ZM190.307 219.133C190.307 210.242 197.51 202.926 206.402 202.926C215.293 202.926 222.609 210.129 222.609 219.02C222.609 227.912 215.406 235.228 206.514 235.228C197.623 235.228 190.307 228.025 190.307 219.133Z" fill="#114B98"/>
<path d="M222.612 299.494C222.612 301.623 222.193 303.73 221.378 305.697C220.564 307.663 219.37 309.45 217.865 310.955C216.36 312.46 214.573 313.653 212.607 314.468C210.64 315.282 208.533 315.702 206.405 315.702C204.276 315.702 202.169 315.282 200.202 314.468C198.236 313.653 196.449 312.46 194.944 310.955C193.439 309.45 192.245 307.663 191.431 305.697C190.616 303.73 190.197 301.623 190.197 299.494C190.197 295.196 191.905 291.074 194.944 288.034C197.984 284.995 202.106 283.287 206.405 283.287C210.703 283.287 214.825 284.995 217.865 288.034C220.904 291.074 222.612 295.196 222.612 299.494Z" fill="#EA1C60"/>
<path d="M143.714 259.427C139.437 254.025 140.45 246.034 145.965 241.644C151.48 237.255 159.471 238.043 163.748 243.445C168.025 248.847 167.012 256.838 161.497 261.228C155.87 265.617 147.991 264.83 143.714 259.427Z" fill="#114B98"/>
<path d="M77.1953 299.495C77.1953 294.88 80.9095 291.166 85.4115 291.166C90.0261 291.166 93.7402 294.88 93.7402 299.495C93.7402 304.109 90.0261 307.711 85.4115 307.711C80.9095 307.711 77.1953 303.997 77.1953 299.495V299.495ZM115.35 373.891C114.309 375.189 113.535 376.68 113.073 378.278C112.612 379.877 112.471 381.551 112.659 383.204C112.847 384.857 113.361 386.457 114.171 387.91C114.98 389.364 116.07 390.643 117.376 391.674C122.891 396.176 130.769 395.5 135.159 390.098C136.2 388.8 136.973 387.309 137.435 385.71C137.897 384.112 138.038 382.438 137.85 380.784C137.661 379.131 137.147 377.532 136.338 376.078C135.528 374.624 134.439 373.345 133.133 372.315C127.618 367.925 119.739 368.601 115.35 373.891Z" fill="#00AFE6"/>
<path d="M143.599 339.562C139.322 344.965 140.335 352.956 145.85 357.345C151.365 361.735 159.356 360.947 163.633 355.544C167.91 350.142 166.897 342.151 161.382 337.761C155.867 333.372 147.989 334.16 143.599 339.562Z" fill="#114B98"/>
<path d="M206.516 425.1C205.427 425.1 204.35 424.884 203.345 424.464C202.341 424.044 201.43 423.429 200.666 422.654C199.901 421.879 199.299 420.96 198.892 419.95C198.486 418.94 198.285 417.86 198.3 416.771C198.41 414.652 199.33 412.656 200.869 411.195C202.409 409.734 204.45 408.919 206.572 408.919C208.694 408.919 210.736 409.734 212.275 411.195C213.814 412.656 214.734 414.652 214.845 416.771C214.732 421.386 211.018 425.1 206.516 425.1ZM206.516 174C204.396 174.111 202.4 175.03 200.939 176.57C199.478 178.109 198.664 180.15 198.664 182.272C198.664 184.395 199.478 186.436 200.939 187.975C202.4 189.515 204.396 190.434 206.516 190.545C211.13 190.545 214.845 186.831 214.845 182.216C214.732 177.714 211.018 174 206.516 174Z" fill="#EA1C60"/>
<path d="M261.035 351.1V396.266H264.22V375.782H284.119V372.788H264.22V354.026H287.507V351.1H274.271H261.035ZM357.896 365.281C356.363 365.238 354.839 365.528 353.428 366.13C352.018 366.733 350.754 367.633 349.725 368.77C349.477 369.04 349.252 369.254 349.23 369.254C349.196 369.254 349.173 368.466 349.173 367.498V365.731H346.112V396.266H349.173V386.924C349.173 381.803 349.196 377.099 349.23 376.468C349.398 373.621 350.186 371.595 351.706 370.154C352.784 369.156 354.136 368.506 355.589 368.286C356.343 368.128 358.583 368.117 359.348 368.252C363.175 368.928 365.257 371.347 365.73 375.726C365.775 376.142 365.797 379.834 365.797 386.317V396.266H368.937L368.903 385.765C368.881 374.848 368.881 374.927 368.588 373.452C368.251 371.436 367.287 369.579 365.831 368.144C364.376 366.709 362.505 365.77 360.485 365.461C359.719 365.326 358.808 365.258 357.896 365.27V365.281ZM304.232 365.292C303.399 365.292 302.544 365.326 302.037 365.427C301.182 365.585 299.944 365.99 299.178 366.361C297.806 367.025 296.61 368.005 295.689 369.22L295.318 369.749L295.307 367.746L295.284 365.731H292.167V396.266H295.296V386.137C295.329 375.084 295.296 375.771 295.701 374.319C295.989 373.129 296.534 372.016 297.299 371.06C298.063 370.103 299.027 369.325 300.124 368.781C301.312 368.271 302.605 368.055 303.894 368.151C304.711 368.14 305.522 368.294 306.278 368.603C307.034 368.913 307.72 369.371 308.295 369.952L308.847 370.447L309.95 369.288L311.053 368.14L310.501 367.633C309.676 366.828 308.693 366.205 307.613 365.802C306.534 365.398 305.382 365.225 304.232 365.292ZM327.462 365.382C326.978 365.382 326.483 365.382 325.999 365.405C322.364 365.574 320.113 366.418 318.166 368.387C317.631 368.88 317.162 369.44 316.77 370.053C316.77 370.087 318.841 371.966 318.92 372C318.942 372.011 319.134 371.798 319.348 371.516C319.919 370.821 320.573 370.197 321.295 369.659C322.295 369.021 323.419 368.599 324.592 368.421C325.133 368.309 325.594 368.297 327.147 368.297C329.128 368.297 329.455 368.32 330.681 368.635C331.654 368.817 332.563 369.247 333.32 369.884C334.078 370.521 334.657 371.343 335.003 372.27C335.408 373.373 335.532 374.465 335.532 377.065V379.091L329.826 379.125C324.817 379.147 324.041 379.158 323.456 379.26C320.912 379.699 319.212 380.498 317.828 381.893C316.32 383.447 315.622 385.315 315.633 387.881C315.633 390.751 316.601 392.968 318.548 394.533C320.034 395.726 321.779 396.334 324.367 396.525C325.403 396.604 327.35 396.604 328.352 396.525C330.821 396.444 333.174 395.454 334.958 393.745C335.228 393.486 335.465 393.272 335.487 393.272C335.51 393.272 335.532 393.948 335.532 394.769V396.266H338.594V385.202C338.594 376.041 338.571 374.026 338.492 373.452C337.93 369.299 335.6 366.789 331.402 365.799C330.332 365.551 328.914 365.405 327.462 365.382ZM415.758 365.382C415.06 365.382 414.351 365.427 413.89 365.495C408.825 366.249 405.516 369.851 404.323 375.906C403.963 377.65 403.884 378.641 403.884 381.027C403.884 383.289 403.963 384.291 404.256 385.911C404.875 389.389 406.304 392.192 408.307 393.903C410.142 395.478 412.235 396.277 415.15 396.559C415.769 396.615 418.268 396.536 418.932 396.435C420.958 396.131 422.523 395.535 424.087 394.477C425 393.832 425.858 393.113 426.653 392.327L427.07 391.899L425.922 390.965L424.762 390.031L424.267 390.492C422.297 392.316 420.699 393.193 418.685 393.531C416.469 393.944 414.181 393.701 412.1 392.833C410.413 392.006 409.062 390.623 408.274 388.917C407.486 387.228 407.036 384.898 407.036 382.512V381.758H427.677L427.644 380.048C427.587 377.785 427.418 376.333 427.025 374.724C426.522 372.443 425.428 370.335 423.851 368.612C422.21 366.882 420.016 365.78 417.649 365.495C417.165 365.427 416.467 365.393 415.758 365.382ZM388.341 365.394C387.621 365.394 386.9 365.416 386.518 365.461C384.673 365.636 382.897 366.251 381.339 367.256C379.782 368.261 378.489 369.626 377.57 371.235C375.611 374.51 374.812 379.564 375.488 384.392C376.467 391.483 380.631 395.951 386.788 396.525C387.654 396.604 389.005 396.604 389.849 396.525C392.911 396.244 394.936 395.253 397.266 392.901L398.032 392.135L396.996 391.145L395.961 390.155L395.128 390.965C393.451 392.586 392.134 393.374 390.434 393.745C389.545 393.948 387.26 393.97 386.281 393.779C385.048 393.549 383.873 393.074 382.826 392.383C381.923 391.695 381.12 390.884 380.44 389.975C379.967 389.265 379.348 387.994 379.101 387.217C378.605 385.709 378.425 384.358 378.391 381.725C378.324 377.74 378.662 375.647 379.742 373.486C380.592 371.607 382.073 370.086 383.929 369.186C385.185 368.559 386.577 368.25 387.981 368.286C391.211 368.196 393.113 368.995 395.342 371.381L395.961 372.034L396.974 371.066C397.536 370.537 397.987 370.076 397.987 370.042C397.987 369.896 395.972 367.971 395.308 367.476C393.812 366.351 392.037 365.654 390.176 365.461C389.566 365.408 388.953 365.385 388.341 365.394ZM415.623 368.151C416.703 368.116 417.779 368.305 418.782 368.706C419.785 369.107 420.695 369.711 421.453 370.481C422.264 371.291 422.77 372.056 423.254 373.159C423.997 374.904 424.155 375.647 424.425 378.821L424.447 379.102H406.968V378.629C406.968 376.784 407.497 374.285 408.206 372.732C408.773 371.556 409.601 370.524 410.626 369.715C411.604 369.019 412.715 368.532 413.89 368.286C414.295 368.196 414.959 368.151 415.623 368.151ZM335.679 381.623L335.645 384.336C335.611 387.104 335.566 387.656 335.318 388.714C335.115 389.822 334.568 390.838 333.754 391.618C332.325 392.991 330.524 393.677 328.115 393.767L326.821 393.824C325.805 393.837 324.789 393.773 323.782 393.632C320.462 393.07 318.864 391.359 318.717 388.252C318.582 384.966 319.955 382.884 322.792 382.062C324.153 381.668 324.108 381.668 330.141 381.646L335.679 381.623Z" fill="#414445" stroke="#414445" stroke-width="0.06"/>
<path d="M398.47 272.438V279.956H407.688V272.438H403.073H398.47ZM337.411 272.719V323.986H346.258V320.474L347.102 321.296C348.87 323.042 351.189 324.12 353.664 324.346C356.973 324.683 360.158 324.008 362.578 322.466C363.478 321.903 364.874 320.519 365.436 319.652C366.677 317.607 367.436 315.305 367.654 312.922C368.104 309.388 368.104 301.554 367.654 297.93C367.057 293.203 365.493 290.085 362.803 288.307C360.757 286.93 358.347 286.197 355.881 286.202C352.02 286.067 349.466 286.945 347.215 289.162C346.843 289.534 346.505 289.838 346.483 289.838C346.46 289.838 346.449 285.989 346.449 281.284V272.719H341.925H337.411ZM375.037 272.719L375.071 293.912L375.093 315.094L375.318 316.04C376.309 320.406 379.111 323.13 383.366 323.896C384.154 324.031 384.874 324.064 387.575 324.076H390.839V316.197L388.521 316.163C386.326 316.13 386.157 316.118 385.718 315.916C385.091 315.633 384.596 315.122 384.334 314.486L384.12 313.969L384.097 293.338L384.075 272.719H379.55H375.037ZM506.034 286.056C503.047 286.022 500.117 286.876 497.616 288.51C496.513 289.23 494.554 291.211 493.778 292.381C492.515 294.355 491.604 296.534 491.088 298.819C490.131 303.029 490.21 308.634 491.268 312.776C493.069 319.81 497.818 323.749 505.19 324.357C507.194 324.515 509.355 324.436 511.155 324.132C514.551 323.551 517.674 321.903 520.069 319.427L521.049 318.482L518.325 315.769L515.601 313.046L514.858 313.721C513.189 315.372 510.969 316.35 508.623 316.467C504.11 316.861 500.947 315.038 499.687 311.301C499.473 310.66 499.214 309.129 499.214 308.487V308.093H522.095L522.05 304.83C522.08 303.325 522.001 301.821 521.814 300.327C521.429 297.49 520.422 294.773 518.865 292.37C517.796 290.904 516.505 289.613 515.038 288.543C512.772 287.058 510.148 286.21 507.441 286.09C506.973 286.064 506.504 286.052 506.034 286.056ZM427.395 286.056C423.794 286.079 420.687 287.204 418.662 289.241C416.467 291.459 415.364 294.531 414.914 299.675C414.761 303.372 414.761 307.075 414.914 310.772C415.285 315.218 416.152 318.077 417.784 320.249C419.945 323.13 424.345 324.773 428.791 324.368C431.257 324.26 433.598 323.256 435.375 321.543C435.803 321.127 436.186 320.789 436.219 320.789C436.253 320.789 436.287 324.593 436.287 329.253V337.717H445.313V286.36H436.467V289.962L435.589 289.117C433.282 286.911 430.986 286.056 427.395 286.067V286.056ZM278.93 286.169C275.306 286.169 272.999 287.024 270.737 289.208L269.87 290.052V286.45H261.023V337.818H270.05V329.298C270.05 324.616 270.095 320.789 270.129 320.789C270.174 320.789 270.421 321.014 270.669 321.273C271.995 322.58 273.634 323.526 275.43 324.019C276.589 324.323 278.48 324.492 279.707 324.413C285.053 324.076 288.7 321.543 290.287 317.075C291.052 314.892 291.378 312.686 291.525 308.622C291.637 305.111 291.502 300.114 291.221 297.941C290.703 293.935 289.668 291.391 287.799 289.5C285.661 287.362 282.509 286.169 278.93 286.169ZM298.852 286.45V299.078C298.852 306.867 298.885 312.112 298.942 312.742C299.189 315.466 299.898 317.593 301.193 319.517C301.845 320.474 303.219 321.881 304.063 322.477C305.597 323.502 307.344 324.164 309.173 324.413C310.309 324.582 312.515 324.526 313.596 324.323C314.684 324.08 315.743 323.726 316.758 323.265C317.75 322.734 318.679 322.092 319.527 321.352C319.944 320.992 320.315 320.699 320.338 320.699C320.36 320.699 320.383 321.431 320.383 322.342V323.986H329.038V286.45H320.011L319.989 298.605C319.955 312.325 320.011 311.279 319.201 312.956C318.886 313.608 318.638 313.969 318.188 314.419C317.029 315.477 315.516 316.065 313.947 316.067C312.377 316.069 310.863 315.485 309.701 314.43C309.251 313.98 309.004 313.631 308.689 312.967C307.878 311.279 307.934 312.325 307.901 298.605L307.867 286.45H303.365H298.852ZM398.56 286.45V323.986H407.587V286.45H403.085H398.56ZM453.034 286.45V298.898C453.034 311.751 453.057 312.967 453.417 314.723C454.52 320.226 458.482 323.907 463.941 324.481C464.661 324.56 466.102 324.548 466.901 324.447C469.602 324.109 471.943 323.018 474.003 321.104L474.565 320.575V323.986H483.322V286.45H474.295L474.261 298.707C474.228 312.46 474.295 311.346 473.519 312.967C473.019 314.038 472.158 314.898 471.088 315.398C470.649 315.612 470.075 315.826 469.827 315.893C468.139 316.298 466.113 315.995 464.796 315.139C463.299 314.182 462.421 312.618 462.162 310.491C462.095 309.917 462.05 305.887 462.05 298.043V286.45H457.548H453.034ZM506.226 293.755C507.554 293.755 508.229 293.901 509.332 294.441C511.482 295.499 512.911 297.93 513.103 300.856L513.17 301.791H499.203L499.259 301.149C499.403 299.665 499.827 298.221 500.508 296.895C501.123 295.863 502.011 295.022 503.074 294.464C504.04 293.944 505.13 293.699 506.226 293.755ZM429.917 294.419C430.592 294.419 431.256 294.475 431.672 294.576C434.542 295.308 435.837 297.604 436.186 302.488C436.364 305.079 436.281 307.681 435.938 310.254C435.375 313.631 433.867 315.499 431.323 315.949C429.027 316.355 426.844 315.769 425.673 314.441C424.447 313.057 423.963 311.245 423.76 307.418C423.625 305.088 423.749 301.633 423.996 300.136C424.548 296.872 425.82 295.184 428.195 294.576C428.6 294.464 429.264 294.419 429.928 294.419H429.917ZM352.707 294.419C355.239 294.419 356.815 295.319 357.772 297.311C358.548 298.887 358.841 300.631 358.92 304.143C359.077 310.007 358.357 313.271 356.579 314.813C356.016 315.319 354.958 315.792 354.103 315.938C351.919 316.332 349.814 315.826 348.621 314.599C347.631 313.586 347.046 312.134 346.731 309.928C346.404 307.666 346.449 302.173 346.821 300.069C347.496 296.084 349.229 294.419 352.696 294.419H352.707ZM276.364 294.419C278.851 294.43 280.393 295.319 281.35 297.311C282.228 299.123 282.476 300.913 282.487 305.122C282.487 308.105 282.397 309.422 282.093 310.952C281.53 313.687 280.27 315.285 278.199 315.848C277.523 316.028 275.768 316.107 275.047 315.995C272.267 315.544 270.815 313.631 270.298 309.782C270.084 308.206 270.005 304.402 270.14 302.432C270.376 298.943 270.962 297.12 272.245 295.825C273.213 294.846 274.496 294.407 276.364 294.419Z" fill="#414445" stroke="#414445" stroke-width="0.08"/>
<path d="M206.234 362.905C205.851 362.77 205.66 362.399 205.784 362.083C205.884 361.905 206.043 361.766 206.234 361.69C206.684 361.532 207.112 361.768 207.168 362.207C207.224 362.725 206.74 363.085 206.234 362.905Z" fill="#414445" stroke="#414445" stroke-width="0.03"/>
<path d="M148.136 300.047C147.967 299.878 147.934 299.799 147.934 299.518C147.934 299.225 147.967 299.169 148.159 299.011C148.328 298.854 148.406 298.831 148.631 298.865C149.014 298.91 149.172 299.101 149.172 299.518C149.172 299.811 149.138 299.878 148.947 300.047C148.665 300.306 148.384 300.306 148.136 300.047Z" fill="#414445" stroke="#414445" stroke-width="0.06"/>
<path d="M206.246 282.51C205.638 282.296 205.604 281.61 206.189 281.373C206.685 281.159 207.135 281.441 207.135 281.936C207.135 282.409 206.73 282.667 206.246 282.499V282.51Z" fill="#414445" stroke="#414445" stroke-width="0.06"/>
<path d="M206.123 279.775C205.943 279.673 205.74 279.369 205.74 279.178C205.74 279.122 205.853 278.964 205.965 278.84C206.157 278.649 206.247 278.615 206.506 278.615C206.922 278.615 207.136 278.829 207.136 279.223C207.136 279.752 206.607 280.045 206.123 279.786V279.775Z" fill="#414445" stroke="#414445" stroke-width="0.06"/>
<path d="M205.965 276.928C205.853 276.815 205.74 276.658 205.74 276.602C205.74 276.23 206.123 275.893 206.528 275.893C207.068 275.893 207.35 276.635 206.967 276.996C206.832 277.108 206.708 277.153 206.494 277.153C206.247 277.153 206.157 277.119 205.965 276.928Z" fill="#414445" stroke="#414445" stroke-width="0.06"/>
<path d="M205.964 274.339C205.717 274.08 205.694 273.979 205.852 273.698C206.178 273.056 207.135 273.247 207.135 273.956C207.135 274.35 206.91 274.564 206.505 274.564C206.246 274.564 206.167 274.53 205.964 274.339Z" fill="#414445" stroke="#414445" stroke-width="0.06"/>
<path d="M206.155 271.807C206.012 271.733 205.897 271.615 205.828 271.469C205.671 271.132 205.794 270.861 206.188 270.681C206.436 270.58 206.515 270.569 206.706 270.636C206.999 270.738 207.134 270.929 207.134 271.244C207.134 271.739 206.639 272.032 206.155 271.807Z" fill="#414445" stroke="#414445" stroke-width="0.06"/>
<path d="M206.177 269.105C205.727 268.937 205.648 268.408 205.997 268.092C206.458 267.687 207.145 267.946 207.134 268.543C207.134 268.689 207.1 268.858 207.055 268.914C206.875 269.15 206.492 269.24 206.177 269.105Z" fill="#414445" stroke="#414445" stroke-width="0.06"/>
<path d="M205.963 266.348C205.715 266.111 205.693 265.943 205.839 265.661C206.03 265.29 206.593 265.2 206.931 265.492C207.1 265.627 207.133 265.706 207.133 265.954C207.133 266.359 206.908 266.584 206.492 266.584C206.244 266.584 206.154 266.539 205.963 266.359V266.348Z" fill="#414445" stroke="#414445" stroke-width="0.06"/>
<path d="M206.313 263.873C206.201 263.846 206.097 263.793 206.01 263.719C205.922 263.644 205.852 263.551 205.807 263.445C205.548 262.826 206.583 262.297 207 262.837C207.073 262.947 207.118 263.074 207.13 263.206C207.142 263.338 207.12 263.47 207.067 263.591C207 263.727 206.662 263.929 206.527 263.907L206.302 263.873H206.313Z" fill="#414445" stroke="#414445" stroke-width="0.06"/>
<path d="M206.09 261.057C205.991 260.996 205.908 260.912 205.849 260.812C205.79 260.712 205.757 260.599 205.752 260.483C205.752 260.426 205.842 260.28 205.977 260.145C206.157 259.965 206.247 259.92 206.506 259.92C206.934 259.92 207.136 260.134 207.136 260.55C207.136 260.798 207.103 260.877 206.934 261.023C206.686 261.226 206.393 261.248 206.09 261.057Z" fill="#414445" stroke="#414445" stroke-width="0.06"/>
<path d="M205.964 258.233C205.717 257.985 205.694 257.884 205.852 257.591C206.178 256.95 207.135 257.141 207.135 257.861C207.135 258.255 206.91 258.458 206.505 258.458C206.246 258.458 206.167 258.424 205.964 258.233Z" fill="#414445" stroke="#414445" stroke-width="0.06"/>
<path d="M206.292 255.859C206.067 255.802 205.74 255.465 205.74 255.296C205.74 255.082 205.965 254.789 206.19 254.699C206.686 254.485 207.136 254.767 207.136 255.262C207.136 255.712 206.753 255.982 206.292 255.859Z" fill="#414445" stroke="#414445" stroke-width="0.06"/>
<path d="M206.123 253.101C205.943 252.999 205.74 252.695 205.74 252.504C205.74 252.448 205.853 252.29 205.965 252.167C206.157 251.975 206.247 251.941 206.506 251.941C206.922 251.941 207.136 252.155 207.136 252.549C207.136 253.078 206.607 253.371 206.123 253.112V253.101Z" fill="#414445" stroke="#414445" stroke-width="0.06"/>
<path d="M205.965 250.252C205.853 250.14 205.74 249.982 205.74 249.926C205.74 249.566 206.123 249.217 206.528 249.217C207.068 249.217 207.35 249.96 206.967 250.32C206.832 250.432 206.708 250.477 206.494 250.477C206.247 250.477 206.157 250.444 205.965 250.252Z" fill="#414445" stroke="#414445" stroke-width="0.06"/>
<path d="M205.965 247.664C205.853 247.541 205.74 247.394 205.74 247.327C205.74 246.967 206.123 246.629 206.528 246.629C207.057 246.629 207.35 247.349 206.978 247.721C206.854 247.856 206.753 247.889 206.506 247.889C206.247 247.889 206.168 247.856 205.965 247.664Z" fill="#414445" stroke="#414445" stroke-width="0.06"/>
<path d="M206.155 245.131C206.012 245.057 205.897 244.939 205.828 244.793C205.671 244.456 205.794 244.186 206.188 244.006C206.436 243.904 206.515 243.893 206.706 243.961C206.999 244.062 207.134 244.253 207.134 244.568C207.134 245.064 206.639 245.356 206.155 245.131Z" fill="#414445" stroke="#414445" stroke-width="0.06"/>
<path d="M206.177 242.432C205.727 242.263 205.648 241.745 205.997 241.419C206.458 241.013 207.145 241.272 207.134 241.869C207.134 242.015 207.1 242.184 207.055 242.24C206.875 242.477 206.492 242.567 206.177 242.432Z" fill="#414445" stroke="#414445" stroke-width="0.06"/>
<path d="M205.954 239.673C205.762 239.471 205.729 239.403 205.774 239.223C205.83 238.908 206.078 238.694 206.415 238.66C206.674 238.627 206.753 238.66 206.922 238.807C207.372 239.189 207.09 239.91 206.471 239.91C206.246 239.91 206.156 239.865 205.965 239.673H205.954Z" fill="#414445" stroke="#414445" stroke-width="0.06"/>
<path d="M206.313 237.197C206.201 237.17 206.097 237.117 206.01 237.043C205.922 236.969 205.852 236.875 205.807 236.769C205.548 236.15 206.583 235.621 207 236.162C207.075 236.273 207.121 236.402 207.133 236.536C207.145 236.669 207.122 236.804 207.067 236.927C206.992 237.028 206.891 237.106 206.775 237.152C206.538 237.253 206.527 237.253 206.313 237.197Z" fill="#414445" stroke="#414445" stroke-width="0.06"/>
<path d="M310.805 259.122C306.618 258.559 303.805 256.702 302.229 253.495C301.286 251.71 300.85 249.702 300.968 247.687C300.98 245.279 301.216 244.198 302.083 242.521C303.658 239.505 306.472 237.614 310.344 236.984C311.312 236.826 312.775 236.781 316.838 236.781H322.071L322.004 234.823C321.925 232.437 321.666 231.547 320.766 230.546C319.652 229.308 318.053 228.801 315.251 228.801C312.302 228.801 310.693 229.364 309.128 230.94L308.228 231.829L305.358 228.936L302.465 226.055L303.523 225.053C306.663 222.048 309.646 221.046 315.386 221.035C319.494 221.035 322.094 221.508 324.638 222.746C327.992 224.367 329.781 226.719 330.715 230.737C330.997 231.896 331.008 232.256 331.053 245.402L331.098 258.863H322.308V257.276C322.308 256.387 322.263 255.678 322.195 255.678C322.139 255.678 321.891 255.892 321.633 256.151C320.225 257.504 318.486 258.463 316.59 258.931C314.676 259.225 312.734 259.289 310.805 259.122ZM317.896 251.356C318.989 251.122 319.99 250.574 320.777 249.781C321.79 248.756 322.049 247.845 322.139 245.065L322.207 242.904H318.301C313.867 242.904 313.011 242.994 311.807 243.602C310.287 244.367 309.556 245.74 309.702 247.631C309.86 249.589 310.906 250.805 312.899 251.345C313.855 251.604 316.804 251.604 317.885 251.345L317.896 251.356Z" fill="#414445" stroke="#414445" stroke-width="0.12"/>
<path d="M340 240.1V221.36H348.779V224.85L349.646 224.05C351.913 221.979 354.893 220.863 357.963 220.933C362.42 220.933 365.763 222.689 368.093 226.245C368.835 227.404 369.454 228.946 369.848 230.612C370.107 231.771 370.118 232.188 370.163 245.345L370.209 258.874H361.148V246.718C361.148 233.55 361.171 233.865 360.417 232.312C359.539 230.511 357.873 229.43 355.611 229.239C354.411 229.083 353.192 229.31 352.129 229.888C351.065 230.466 350.212 231.366 349.691 232.458C348.937 234.079 348.925 234.281 348.914 247.123V258.862H340V240.1Z" fill="#414445" stroke="#414445" stroke-width="0.12"/>
<path d="M391.358 258.863C390.218 258.794 389.096 258.54 388.038 258.109C385.134 256.961 383.176 254.62 382.275 251.243C381.994 250.174 381.983 249.937 381.938 239.808L381.893 229.465H378.055V222.43H381.904V211.254H390.953V222.43H397.346V229.611H390.953V239.088C390.953 245.03 391.009 248.744 391.088 249.048C391.291 249.791 391.763 250.399 392.427 250.759C392.979 251.074 393.159 251.097 395.174 251.142L397.335 251.187V259.009L394.915 258.998C393.575 258.987 391.977 258.93 391.358 258.874V258.863Z" fill="#414445" stroke="#414445" stroke-width="0.12"/>
<path d="M418.627 259.179C409.105 258.234 404.355 252.483 403.905 241.363C403.68 235.431 405.019 230.198 407.721 226.573C409.724 223.872 412.673 221.993 416.027 221.272C419.568 220.519 423.255 220.893 426.573 222.342C428.34 223.197 429.308 223.895 430.658 225.268C432.656 227.347 434.059 229.924 434.722 232.73C435.296 234.981 435.397 235.915 435.476 239.539L435.554 242.905H412.639V243.332C412.639 244.086 412.909 245.471 413.236 246.416C413.637 247.558 414.314 248.584 415.208 249.401C416.101 250.218 417.183 250.801 418.357 251.098C419.482 251.402 422.262 251.413 423.669 251.098C425.417 250.699 427.021 249.827 428.306 248.577L429.015 247.902L431.739 250.625L434.474 253.349L433.472 254.295C430.717 257.104 427.04 258.823 423.118 259.134C421.947 259.247 419.64 259.281 418.616 259.179H418.627ZM426.663 235.938C426.123 231.244 423.545 228.509 419.64 228.532C418.491 228.515 417.358 228.8 416.355 229.359C415.351 229.918 414.512 230.731 413.922 231.717C413.359 232.674 412.909 234.238 412.808 235.499L412.718 236.635H426.742L426.663 235.938Z" fill="#414445" stroke="#414445" stroke-width="0.12"/>
<path d="M416.232 215.127C416.232 215.082 417.223 212.369 418.416 209.116L420.588 203.196L425.27 203.162C428.163 203.14 429.941 203.162 429.919 203.252C429.885 203.32 428.129 206.044 426.013 209.296L422.153 215.228H419.192C418.205 215.26 417.216 215.227 416.232 215.127Z" fill="#414445" stroke="#414445" stroke-width="0.12"/>
</svg>
