<svg width="600" height="600" viewBox="0 0 600 600" fill="none" xmlns="http://www.w3.org/2000/svg">
<rect width="600" height="600" rx="50" fill="#F6F5FC"/>
<path d="M360.543 196H239.647C231.337 196 224.461 202.57 224.461 211.062V286.561C224.461 295.049 231.337 301.783 239.647 301.783H360.543C368.7 301.783 375.579 295.049 375.579 286.561V211.062C375.579 202.57 368.7 196 360.543 196Z" fill="#ED1C24"/>
<path d="M364.54 286.559C364.54 288.965 362.942 290.891 360.543 290.891H239.643C237.248 290.891 235.49 288.965 235.49 286.559V211.06C235.49 208.658 237.248 206.736 239.643 206.736H360.543C362.942 206.736 364.54 208.658 364.54 211.06V286.559Z" fill="white"/>
<path d="M339.115 263.152C339.115 256.101 334.638 254.5 328.083 254.5H322.004V272.288H327.923C333.841 272.288 339.115 270.366 339.115 263.152ZM322.004 241.68H327.766C333.2 241.68 337.193 239.274 337.193 233.345C337.193 226.771 332.076 225.006 326.641 225.006H322.004V241.68ZM332.4 283.514H305.537V214.268H333.681C346.956 214.268 354.145 219.72 354.145 232.704C354.145 239.438 348.55 244.243 342.471 247.289C350.952 249.688 356.707 254.827 356.707 263.476C356.707 277.584 344.874 283.514 332.4 283.514Z" fill="#ED1C24"/>
<path d="M281.711 250.01C281.711 236.062 280.266 225.171 265.24 225.171H261.877V272.29H267.792C276.589 272.29 281.711 265.239 281.711 250.01ZM270.675 283.512H245.246V214.27H270.675C288.583 214.27 298.174 225.488 298.174 248.569C298.174 268.606 291.779 283.352 270.675 283.512Z" fill="#ED1C24"/>
<path d="M429.117 390.922V378.626H449.29V367.281H429.117V356.012H454.662V344.116H413.986V402.828H455.885L456.948 390.922H429.117Z" fill="black"/>
<path d="M480.292 355.449H487.197C493.09 355.449 494.975 357.116 494.975 362.285C494.975 367.425 492.868 369.339 487.197 369.339H480.292V355.449ZM503.853 381.664C502.186 378.956 500.457 377.26 498.561 376.109C506.266 373.591 509.721 369.205 509.721 361.492C509.721 349.796 502.503 344.118 487.666 344.118H465.143V402.83H480.292V379.666H482.221C485.628 379.666 486.862 380.568 489.526 385.06L500.064 402.83H516.593L503.853 381.664Z" fill="black"/>
<path d="M108.676 367.649C108.687 367.653 107.73 367.249 107.73 367.249C101.629 364.635 101.385 364.54 99.9438 363.518C97.9419 362.113 97.2758 361.028 97.2758 359.204C97.2758 355.987 99.962 354.345 105.28 354.345C109.979 354.345 113.415 355.146 118.879 357.545L119.734 357.912V345.635L119.33 345.482C114.081 343.585 109.688 342.766 104.647 342.766C91.0915 342.766 83.324 349.275 83.324 360.617C83.324 369.163 87.1968 374.066 97.1374 378.106C107.708 382.493 108.709 383.592 108.709 386.795C108.709 390.529 105.553 392.437 99.3469 392.437C93.9853 392.437 89.934 391.374 83.8845 388.389L83 387.952V400.233L83.3531 400.405C88.9767 402.971 93.8797 404.012 100.297 404.012C115.122 404.012 123.294 397.504 123.294 385.688C123.294 376.734 119.599 372.181 108.676 367.649Z" fill="black"/>
<path d="M172.143 389.545C166.548 391.623 162.905 392.351 158.191 392.351C148.389 392.351 144.571 387.121 144.571 373.671C144.571 359.636 148.28 354.427 158.275 354.427C162.905 354.427 166.956 355.246 171.808 357.146L172.642 357.477V345.327L172.245 345.174C167.695 343.526 163.134 342.768 157.878 342.768C149.714 342.768 142.769 345.058 137.782 349.408C131.543 354.831 128.639 362.559 128.639 373.751C128.639 383.244 130.619 390.036 134.867 395.1C139.81 400.934 147.599 404.014 157.398 404.014C162.883 404.014 168.143 402.903 172.609 400.796L172.962 400.636V389.239L172.143 389.545Z" fill="black"/>
<path d="M217.607 344.118V366.886H196.689V344.118H181.543V402.83H196.689V378.628H217.607V402.83H232.753V344.118H217.607Z" fill="black"/>
<path d="M259.162 390.924V378.628H279.334V367.283H259.162V356.013H284.707V344.118H244.02V402.83H285.922L286.974 390.924H259.162Z" fill="black"/>
<path d="M332.28 344.118V376.204C330.282 373.572 307.893 344.118 307.893 344.118H295.189V402.83H308.035V367.337C310.055 369.987 335.047 402.83 335.047 402.83H345.129V344.118H332.28Z" fill="black"/>
<path d="M384.445 371.778C385.023 371.05 406.615 344.118 406.615 344.118H390.88C390.88 344.118 373.499 366.653 371.541 369.183V344.118H356.406V402.83H371.541V377.999C373.499 380.554 390.567 402.83 390.567 402.83H408.559C408.559 402.83 385.02 372.513 384.445 371.778Z" fill="black"/>
</svg>
