<svg xmlns="http://www.w3.org/2000/svg" width="43.36" height="33.23" viewBox="0 0 43.36 33.23">
  <g id="Calque_2" data-name="Calque 2">
    <g id="Calque_1-2" data-name="Calque 1">
      <g id="ACtualiser">
        <path id="Tracé_438" data-name="Tracé 438" d="M20.71,33.23A17.68,17.68,0,0,1,14,31.87a1.84,1.84,0,1,1,1.25-3.46l.15.07A14,14,0,0,0,34,11.12,1.86,1.86,0,0,1,37.48,10,17.63,17.63,0,0,1,26.41,32.3,17.87,17.87,0,0,1,20.71,33.23Z" style="fill: #140a82"/>
        <path id="Tracé_439" data-name="Tracé 439" d="M41.53,18.61A1.84,1.84,0,0,1,40.18,18l-4.56-4.9-4.9,4.57A1.84,1.84,0,0,1,28.21,15l6.25-5.83a1.92,1.92,0,0,1,1.31-.49,1.83,1.83,0,0,1,1.28.59l5.82,6.24a1.85,1.85,0,0,1-.11,2.61,1.79,1.79,0,0,1-1.23.48Z" style="fill: #140a82"/>
        <path id="Tracé_440" data-name="Tracé 440" d="M7.66,24.52a1.83,1.83,0,0,1-1.74-1.25A17.63,17.63,0,0,1,29.4,1.35,1.83,1.83,0,1,1,28.15,4.8.76.76,0,0,1,28,4.74,14,14,0,0,0,9.4,22.11a1.83,1.83,0,0,1-1.15,2.32h0a2,2,0,0,1-.59.1Z" style="fill: #140a82"/>
        <path id="Tracé_441" data-name="Tracé 441" d="M7.66,24.53A1.86,1.86,0,0,1,6.31,24L.49,17.7a1.84,1.84,0,0,1,2.69-2.5l4.57,4.89,4.9-4.56a1.84,1.84,0,1,1,2.62,2.57l-.12.11L8.91,24a1.82,1.82,0,0,1-1.25.49Z" style="fill: #140a82"/>
      </g>
    </g>
  </g>
</svg>
