<svg width="847" height="774" viewBox="0 0 847 774" fill="none" xmlns="http://www.w3.org/2000/svg">
<path d="M809.82 276.356C800.337 276.356 791.24 272.928 784.517 266.821C777.793 260.714 773.99 252.424 773.939 243.764V66.9107H580.492C575.571 67.2427 570.628 66.6441 565.971 65.1522C561.315 63.6602 557.045 61.3071 553.43 58.2399C549.814 55.1727 546.93 51.4573 544.958 47.326C542.986 43.1947 541.968 38.7363 541.968 34.2294C541.968 29.7225 542.986 25.264 544.958 21.1327C546.93 17.0014 549.814 13.286 553.43 10.2188C557.045 7.15161 561.315 4.7985 565.971 3.30658C570.628 1.81467 575.571 1.21601 580.492 1.54804H809.82C814.522 1.52457 819.184 2.35027 823.536 3.97767C827.888 5.60508 831.845 8.00209 835.18 11.0309C838.514 14.0597 841.16 17.6606 842.966 21.6265C844.771 25.5924 845.701 29.8452 845.701 34.1403V34.1403V243.764C845.701 248.059 844.771 252.312 842.966 256.278C841.16 260.244 838.514 263.845 835.18 266.873C831.845 269.902 827.888 272.299 823.536 273.927C819.184 275.554 814.522 276.38 809.82 276.356V276.356Z" fill="#140A82"/>
<path d="M809.819 773.789H580.492C575.78 773.789 571.114 772.941 566.76 771.294C562.407 769.648 558.452 767.234 555.12 764.191C551.788 761.148 549.145 757.535 547.342 753.559C545.538 749.583 544.61 745.322 544.61 741.019C544.61 736.715 545.538 732.454 547.342 728.478C549.145 724.502 551.788 720.889 555.12 717.846C558.452 714.803 562.407 712.39 566.76 710.743C571.114 709.096 575.78 708.248 580.492 708.248H773.938V531.573C773.938 522.882 777.718 514.547 784.447 508.401C791.176 502.255 800.303 498.803 809.819 498.803C819.335 498.803 828.462 502.255 835.191 508.401C841.92 514.547 845.7 522.882 845.7 531.573V741.019C845.7 749.71 841.92 758.045 835.191 764.191C828.462 770.336 819.335 773.789 809.819 773.789Z" fill="#140A82"/>
<path d="M293.833 303.249C289.12 303.264 284.451 302.421 280.098 300.77C275.746 299.119 271.797 296.692 268.482 293.632L10.4887 57.2935C4.21016 51.0726 0.80925 42.8751 0.997665 34.4164C1.18608 25.9576 4.94922 17.8932 11.4996 11.9107C18.05 5.92826 26.8799 2.49137 36.1416 2.31929C45.4033 2.14721 54.379 5.25327 61.1904 10.9875L319.184 246.614C325.853 252.781 329.592 261.099 329.592 269.767C329.592 278.434 325.853 286.753 319.184 292.92C315.876 295.988 311.928 298.42 307.574 300.071C303.22 301.723 298.548 302.562 293.833 302.537V303.249Z" fill="#140A82"/>
<path d="M809.82 773.609C805.117 773.667 800.45 772.861 796.095 771.24C791.74 769.618 787.786 767.214 784.469 764.17L526.67 528.543C520.392 522.323 516.991 514.125 517.179 505.666C517.368 497.208 521.131 489.143 527.681 483.161C534.232 477.178 543.062 473.741 552.323 473.569C561.585 473.397 570.561 476.503 577.372 482.237L835.17 717.864C841.839 724.03 845.579 732.349 845.579 741.017C845.579 749.684 841.839 758.003 835.17 764.17C831.853 767.214 827.899 769.618 823.544 771.24C819.189 772.861 814.522 773.667 809.82 773.609V773.609Z" fill="#140A82"/>
<path d="M35.8392 773.788C28.7487 773.78 21.8196 771.854 15.9267 768.253C10.0338 764.652 5.44126 759.537 2.72895 753.553C0.0166495 747.57 -0.693844 740.987 0.687173 734.635C2.06819 728.283 5.4788 722.448 10.4884 717.865L784.469 10.9862C787.65 7.76258 791.502 5.14834 795.799 3.29527C800.096 1.44219 804.754 0.387197 809.501 0.191525C814.249 -0.00414628 818.991 0.663406 823.454 2.15543C827.916 3.64745 832.01 5.93422 835.497 8.88297C838.984 11.8317 841.795 15.3837 843.766 19.3327C845.738 23.2818 846.831 27.5491 846.982 31.8871C847.133 36.2251 846.339 40.5473 844.646 44.6027C842.953 48.6582 840.395 52.3661 837.12 55.5112L835.17 57.2922L61.1901 764.171C57.882 767.239 53.9344 769.671 49.5803 771.322C45.2262 772.974 40.5539 773.813 35.8392 773.788Z" fill="#140A82"/>
</svg>
