<svg width="911" height="911" viewBox="0 0 911 911" fill="none" xmlns="http://www.w3.org/2000/svg">
<path d="M383.557 911C281.831 911 184.272 870.58 112.341 798.633C40.4103 726.685 0 629.104 0 527.355C0 425.606 40.4103 328.024 112.341 256.077C184.272 184.129 281.831 143.71 383.557 143.71V143.71C388.605 143.682 393.609 144.649 398.283 146.556C402.957 148.462 407.21 151.271 410.799 154.822C414.388 158.373 417.243 162.596 419.2 167.25C421.157 171.905 422.179 176.899 422.207 181.948V488.906H728.674C733.722 488.879 738.726 489.846 743.4 491.752C748.074 493.659 752.327 496.468 755.916 500.019C759.505 503.57 762.36 507.793 764.317 512.447C766.274 517.101 767.296 522.095 767.324 527.145V527.145C767.212 628.915 726.744 726.486 654.798 798.448C582.852 870.411 485.304 910.889 383.557 911V911ZM345.117 223.338C288.302 230.557 234.648 253.566 190.25 289.753C145.852 325.94 112.488 373.854 93.9469 428.055C75.4059 482.255 72.4309 540.569 85.3598 596.376C98.2888 652.182 126.603 703.245 167.088 743.764C207.574 784.283 258.607 812.636 314.392 825.602C370.178 838.568 428.481 835.628 482.68 817.116C536.879 798.604 584.803 765.262 621.008 720.875C657.214 676.489 680.251 622.838 687.503 566.013H383.557C373.362 566.013 363.585 561.963 356.376 554.752C349.167 547.542 345.117 537.762 345.117 527.565V223.338Z" fill="#140A82"/>
<path d="M872.35 422.094H527.443C522.405 422.121 517.411 421.153 512.749 419.244C508.086 417.334 503.847 414.522 500.275 410.968C496.702 407.415 493.868 403.19 491.933 398.537C489.999 393.884 489.003 388.895 489.003 383.855V383.855V38.6587C488.948 33.6019 489.896 28.5843 491.792 23.8964C493.688 19.2084 496.495 14.9433 500.051 11.3479C503.606 7.75254 507.84 4.89828 512.505 2.9504C517.171 1.00251 522.177 -0.000305283 527.233 6.97128e-08V6.97128e-08C628.944 0.111109 726.46 40.5597 798.4 112.477C870.34 184.394 910.833 281.911 911 383.645C911.028 388.702 910.052 393.714 908.13 398.392C906.209 403.069 903.378 407.319 899.803 410.894C896.228 414.47 891.98 417.301 887.303 419.224C882.627 421.146 877.616 422.122 872.56 422.094H872.35ZM567.143 344.986H831.39C822.725 277.816 792.123 215.389 744.339 167.403C696.554 119.418 634.263 88.5617 567.143 79.6284V344.986Z" fill="#140A82"/>
</svg>
