<svg width="997" height="895" viewBox="0 0 997 895" fill="none" xmlns="http://www.w3.org/2000/svg">
<path d="M445.682 893.144C440.157 893.218 434.673 892.182 429.556 890.097C424.44 888.012 419.795 884.921 415.897 881.006C408.061 873.077 403.667 862.381 403.667 851.236C403.667 840.091 408.061 829.395 415.897 821.465L893.146 344.677C899.249 338.593 904.091 331.365 907.395 323.407C910.699 315.45 912.4 306.919 912.4 298.303C912.4 289.688 910.699 281.157 907.395 273.199C904.091 265.241 899.249 258.014 893.146 251.93V251.93L744.908 103.534C732.404 91.5266 715.737 84.8204 698.397 84.8204C681.057 84.8204 664.39 91.5266 651.886 103.534L174.408 580.552C162.124 592.908 155.229 609.62 155.229 627.04C155.229 644.459 162.124 661.171 174.408 673.528V673.528L322.646 821.694C326.648 825.483 329.864 830.023 332.11 835.055C334.356 840.086 335.589 845.511 335.738 851.018C335.887 856.526 334.949 862.009 332.978 867.154C331.007 872.3 328.041 877.007 324.25 881.006C320.459 885.006 315.917 888.22 310.883 890.466C305.849 892.711 300.422 893.943 294.912 894.092C289.401 894.241 283.916 893.303 278.768 891.333C273.62 889.363 268.911 886.399 264.909 882.609L263.305 881.235L114.838 732.84C86.9662 704.673 71.334 666.656 71.334 627.04C71.334 587.424 86.9662 549.406 114.838 521.239L592.774 43.993C606.693 30.0477 623.228 18.9838 641.431 11.4348C659.634 3.88577 679.148 0 698.855 0C718.563 0 738.077 3.88577 756.28 11.4348C774.483 18.9838 791.017 30.0477 804.936 43.993L953.174 192.159C981.241 220.316 996.999 258.442 996.999 298.189C996.999 337.935 981.241 376.061 953.174 404.218L474.779 881.464C467.011 889.056 456.546 893.257 445.682 893.144V893.144Z" fill="#140A82"/>
<path d="M546.494 793.071C535.295 792.947 524.595 788.422 516.708 780.475L215.879 480.937C209.466 472.824 206.262 462.637 206.876 452.317C207.49 441.996 211.879 432.261 219.207 424.964C226.536 417.667 236.292 413.318 246.621 412.745C256.949 412.171 267.128 415.413 275.22 421.853L576.05 721.163C581.826 727.097 585.737 734.593 587.299 742.724C588.86 750.855 588.003 759.265 584.835 766.915C581.666 774.565 576.324 781.119 569.469 785.767C562.614 790.416 554.547 792.955 546.264 793.071H546.494Z" fill="#140A82"/>
<path d="M693.586 893.144H45.4155C39.6334 893.571 33.8253 892.801 28.3544 890.883C22.8834 888.964 17.8671 885.938 13.619 881.995C9.37098 878.051 5.9825 873.273 3.66539 867.961C1.34828 862.649 0.152344 856.916 0.152344 851.121C0.152344 845.326 1.34828 839.593 3.66539 834.281C5.9825 828.969 9.37098 824.192 13.619 820.248C17.8671 816.304 22.8834 813.278 28.3544 811.36C33.8253 809.442 39.6334 808.672 45.4155 809.099H693.586C699.368 808.672 705.176 809.442 710.647 811.36C716.118 813.278 721.134 816.304 725.382 820.248C729.63 824.192 733.019 828.969 735.336 834.281C737.653 839.593 738.849 845.326 738.849 851.121C738.849 856.916 737.653 862.649 735.336 867.961C733.019 873.273 729.63 878.051 725.382 881.995C721.134 885.938 716.118 888.964 710.647 890.883C705.176 892.801 699.368 893.571 693.586 893.144Z" fill="#140A82"/>
</svg>
