<svg width="193" height="150" viewBox="0 0 193 193" fill="none" xmlns="http://www.w3.org/2000/svg">
<path d="M191.986 8.07087C191.871 6.11508 191.042 4.26954 189.657 2.88419C188.272 1.49885 186.426 0.670018 184.47 0.554875C108.157 -3.93913 47.0542 19.0709 20.9982 62.0949C11.9641 76.8447 7.51393 93.9453 8.21221 111.228C8.78121 127.185 13.4352 143.292 22.0362 159.191L2.3432 178.884C0.842875 180.384 0 182.419 0 184.541C0 186.663 0.842875 188.698 2.3432 190.198C3.84353 191.698 5.87842 192.541 8.00021 192.541C10.122 192.541 12.1569 191.698 13.6572 190.198L33.3502 170.505C49.2492 179.105 65.3562 183.761 81.3132 184.329C82.4302 184.369 83.5402 184.389 84.6482 184.389C100.81 184.435 116.667 179.988 130.447 171.544C173.469 145.487 196.475 84.3749 191.987 8.07087H191.986ZM122.158 157.858C99.3382 171.68 72.3312 171.864 45.2282 158.628L133.657 70.1979C135.158 68.6975 136 66.6627 136 64.5409C136 62.4191 135.158 60.3842 133.657 58.8839C132.157 57.3835 130.122 56.5407 128 56.5407C125.878 56.5407 123.844 57.3835 122.343 58.8839L33.9132 147.314C20.6782 120.211 20.8612 93.2039 34.6832 70.3839C56.8262 33.8229 109.48 13.7929 176.353 16.1869C178.746 83.0619 158.716 135.717 122.158 157.858V157.858Z" fill="#140A82"/>
</svg>
