<svg width="1244" height="1018" viewBox="0 0 1244 1018" fill="none" xmlns="http://www.w3.org/2000/svg">
<path d="M730.482 1016.54H118.601C100.561 1016.76 82.7127 1012.82 66.4475 1005.01C50.1823 997.201 35.9388 985.744 24.8263 971.531C14.0856 958.011 6.5447 942.235 2.76881 925.385C-1.00707 908.536 -0.919956 891.05 3.02362 874.239C25.4221 779.556 79.1231 695.203 155.432 634.84C231.741 574.477 326.19 541.637 423.487 541.637C520.784 541.637 615.233 574.477 691.542 634.84C767.851 695.203 821.552 779.556 843.95 874.239C847.932 891.064 848.016 908.575 844.197 925.437C840.377 942.299 832.756 958.064 821.913 971.531C811.044 985.432 797.177 996.699 781.345 1004.49C765.514 1012.29 748.128 1016.41 730.482 1016.54ZM425.714 627.611C347.478 627.045 271.375 653.099 209.901 701.494C148.427 749.889 105.237 817.75 87.421 893.932C86.6576 898.016 86.7641 902.215 87.7336 906.254C88.7031 910.294 90.5139 914.084 93.0475 917.376C96.0792 921.309 99.9411 924.525 104.358 926.794C108.775 929.063 113.638 930.33 118.601 930.504H730.482C735.351 930.524 740.16 929.437 744.546 927.325C748.932 925.213 752.781 922.132 755.802 918.314C758.349 915.028 760.167 911.239 761.138 907.197C762.108 903.155 762.207 898.953 761.428 894.87C743.897 818.769 701.039 750.879 639.875 702.323C578.712 653.767 502.87 627.424 424.776 627.611H425.714Z" fill="#140A82"/>
<path d="M424.774 458.559C379.427 458.559 335.098 445.112 297.393 419.919C259.688 394.725 230.301 358.917 212.947 317.021C195.593 275.126 191.053 229.025 199.9 184.549C208.747 140.074 230.583 99.2199 262.649 67.1546C294.714 35.0892 335.568 13.2525 380.044 4.40565C424.52 -4.44116 470.62 0.0993436 512.515 17.453C554.411 34.8066 590.219 64.194 615.413 101.899C640.607 139.604 654.054 183.933 654.054 229.28C654.054 290.088 629.897 348.407 586.899 391.405C543.901 434.403 485.583 458.559 424.774 458.559ZM424.774 86.0386C396.443 86.0386 368.749 94.4395 345.193 110.179C321.637 125.919 303.278 148.29 292.436 174.464C281.595 200.638 278.758 229.439 284.285 257.225C289.812 285.011 303.454 310.534 323.487 330.567C343.52 350.599 369.043 364.242 396.829 369.769C424.615 375.296 453.416 372.459 479.59 361.617C505.764 350.776 528.135 332.416 543.875 308.86C559.614 285.304 568.015 257.61 568.015 229.28C568.015 191.29 552.924 154.856 526.061 127.993C499.198 101.13 462.764 86.0386 424.774 86.0386Z" fill="#140A82"/>
<path d="M1149.63 1017.32H654.057C639.446 1017.49 624.99 1014.3 611.817 1007.97C598.643 1001.65 587.107 992.372 578.107 980.86C569.408 969.91 563.301 957.133 560.243 943.486C557.184 929.84 557.255 915.678 560.449 902.062C578.59 825.376 622.083 757.058 683.887 708.169C745.691 659.279 822.187 632.682 900.989 632.682C979.792 632.682 1056.29 659.279 1118.09 708.169C1179.9 757.058 1223.39 825.376 1241.53 902.062C1244.75 915.689 1244.82 929.871 1241.73 943.528C1238.64 957.185 1232.46 969.954 1223.68 980.86C1214.88 992.119 1203.65 1001.24 1190.83 1007.56C1178 1013.87 1163.92 1017.21 1149.63 1017.32ZM902.793 702.314C839.429 701.856 777.792 722.957 728.003 762.153C678.214 801.349 643.233 856.31 628.804 918.012C628.185 921.319 628.272 924.72 629.057 927.992C629.842 931.263 631.309 934.333 633.361 936.999C635.816 940.185 638.944 942.789 642.521 944.627C646.099 946.465 650.038 947.491 654.057 947.632H1149.63C1153.57 947.648 1157.47 946.768 1161.02 945.057C1164.57 943.347 1167.69 940.851 1170.14 937.759C1172.2 935.098 1173.67 932.029 1174.46 928.755C1175.24 925.482 1175.32 922.078 1174.69 918.771C1160.5 857.136 1125.78 802.151 1076.25 762.824C1026.71 723.498 965.283 702.163 902.034 702.314H902.793Z" fill="#140A82"/>
<path d="M902.032 565.395C865.304 565.395 829.401 554.504 798.864 534.1C768.326 513.695 744.524 484.693 730.469 450.761C716.414 416.829 712.737 379.492 719.902 343.47C727.067 307.448 744.753 274.36 770.724 248.39C796.694 222.419 829.782 204.733 865.804 197.568C901.826 190.403 939.163 194.08 973.095 208.135C1007.03 222.19 1036.03 245.992 1056.43 276.53C1076.84 307.067 1087.73 342.97 1087.73 379.698C1087.73 428.948 1068.16 476.181 1033.34 511.006C998.515 545.831 951.282 565.395 902.032 565.395ZM902.032 263.684C879.086 263.684 856.656 270.488 837.578 283.236C818.5 295.984 803.63 314.103 794.849 335.301C786.068 356.5 783.771 379.826 788.247 402.331C792.724 424.835 803.773 445.507 819.998 461.732C836.222 477.956 856.894 489.006 879.398 493.482C901.903 497.958 925.229 495.661 946.428 486.88C967.627 478.099 985.746 463.23 998.493 444.151C1011.24 425.073 1018.05 402.643 1018.05 379.698C1018.05 348.929 1005.82 319.42 984.066 297.664C962.309 275.907 932.8 263.684 902.032 263.684Z" fill="#140A82"/>
</svg>
