<svg width="847" height="717" viewBox="0 0 847 1017" fill="none" xmlns="http://www.w3.org/2000/svg">
<path d="M730.482 1016.54H118.601C100.561 1016.76 82.7127 1012.82 66.4475 1005.01C50.1823 997.201 35.9388 985.744 24.8263 971.531C14.0856 958.011 6.5447 942.235 2.76881 925.385C-1.00707 908.536 -0.919956 891.05 3.02362 874.239C25.4221 779.556 79.1231 695.203 155.432 634.84C231.741 574.477 326.19 541.637 423.487 541.637C520.784 541.637 615.233 574.477 691.542 634.84C767.851 695.203 821.552 779.556 843.95 874.239C847.932 891.064 848.016 908.575 844.197 925.437C840.377 942.299 832.756 958.064 821.913 971.531C811.044 985.432 797.177 996.699 781.345 1004.49C765.514 1012.29 748.128 1016.41 730.482 1016.54ZM425.714 627.611C347.478 627.045 271.375 653.099 209.901 701.494C148.427 749.889 105.237 817.75 87.421 893.932C86.6576 898.016 86.7641 902.215 87.7336 906.254C88.7031 910.294 90.5139 914.084 93.0475 917.376C96.0792 921.309 99.9411 924.525 104.358 926.794C108.775 929.063 113.638 930.33 118.601 930.504H730.482C735.351 930.524 740.16 929.437 744.546 927.325C748.932 925.213 752.781 922.132 755.802 918.314C758.349 915.028 760.167 911.239 761.138 907.197C762.108 903.155 762.207 898.953 761.428 894.87C743.897 818.769 701.039 750.879 639.875 702.323C578.712 653.767 502.87 627.424 424.776 627.611H425.714Z" fill="#140A82"/>
<path d="M424.774 458.559C379.427 458.559 335.098 445.112 297.393 419.919C259.688 394.725 230.301 358.917 212.947 317.021C195.593 275.126 191.053 229.025 199.9 184.549C208.747 140.074 230.583 99.2199 262.649 67.1546C294.714 35.0892 335.568 13.2525 380.044 4.40565C424.52 -4.44116 470.62 0.0993436 512.515 17.453C554.411 34.8066 590.219 64.194 615.413 101.899C640.607 139.604 654.054 183.933 654.054 229.28C654.054 290.088 629.897 348.407 586.899 391.405C543.901 434.403 485.583 458.559 424.774 458.559ZM424.774 86.0386C396.443 86.0386 368.749 94.4395 345.193 110.179C321.637 125.919 303.278 148.29 292.436 174.464C281.595 200.638 278.758 229.439 284.285 257.225C289.812 285.011 303.454 310.534 323.487 330.567C343.52 350.599 369.043 364.242 396.829 369.769C424.615 375.296 453.416 372.459 479.59 361.617C505.764 350.776 528.135 332.416 543.875 308.86C559.614 285.304 568.015 257.61 568.015 229.28C568.015 191.29 552.924 154.856 526.061 127.993C499.198 101.13 462.764 86.0386 424.774 86.0386Z" fill="#140A82"/>
</svg>
