<svg width="823" height="820" viewBox="0 0 823 820" fill="none" xmlns="http://www.w3.org/2000/svg">
<path d="M674.402 819.59H146.083C107.339 819.59 70.1824 804.227 42.7866 776.881C15.3908 749.534 0 712.445 0 673.772L0 146.408C0 107.735 15.3908 70.6453 42.7866 43.299C70.1824 15.9528 107.339 0.589844 146.083 0.589844H674.402C713.146 0.589844 750.303 15.9528 777.698 43.299C805.094 70.6453 820.485 107.735 820.485 146.408V673.772C820.485 712.445 805.094 749.534 777.698 776.881C750.303 804.227 713.146 819.59 674.402 819.59ZM146.083 69.9102C125.953 70.2556 106.759 78.4556 92.6113 92.7539C78.4639 107.052 70.4881 126.312 70.3922 146.408V673.772C70.7382 693.865 78.953 713.024 93.2773 727.146C107.602 741.268 126.896 749.229 147.029 749.325H674.402C694.37 748.985 713.425 740.916 727.547 726.82C741.668 712.724 749.752 693.703 750.093 673.772V146.408C749.8 126.461 741.731 107.413 727.599 93.3074C713.468 79.2013 694.385 71.1473 674.402 70.8546L146.083 69.9102Z" fill="#140A82"/>
<path d="M34.8176 687.94C25.5834 687.94 16.7274 684.279 10.1978 677.761C3.66828 671.243 0 662.403 0 653.186C0.101088 644.046 3.76652 635.306 10.2182 628.82L242.02 397.248C245.224 394.01 249.039 391.439 253.246 389.684C257.452 387.93 261.966 387.026 266.525 387.026C271.084 387.026 275.598 387.93 279.804 389.684C284.011 391.439 287.827 394.01 291.03 397.248V397.248L381.291 487.346L560.299 308.662C563.519 305.418 567.35 302.843 571.572 301.086C575.795 299.329 580.324 298.424 584.898 298.424C589.473 298.424 594.002 299.329 598.224 301.086C602.447 302.843 606.278 305.418 609.498 308.662V308.662L810.078 508.878C813.76 511.916 816.777 515.677 818.941 519.928C821.105 524.179 822.369 528.829 822.656 533.589C822.942 538.348 822.244 543.116 820.605 547.595C818.966 552.074 816.421 556.168 813.129 559.623C809.837 563.078 805.868 565.82 801.468 567.678C797.069 569.536 792.334 570.471 787.557 570.424C782.78 570.377 778.064 569.349 773.703 567.405C769.341 565.46 765.427 562.641 762.203 559.122L760.879 557.799L584.898 382.137L405.89 561.01C399.338 567.47 390.5 571.092 381.291 571.092C372.082 571.092 363.244 567.47 356.692 561.01L266.431 470.913L59.2278 678.685C56.002 681.905 52.1643 684.449 47.9401 686.168C43.7158 687.887 39.19 688.747 34.6284 688.696L34.8176 687.94Z" fill="#140A82"/>
<path d="M379.398 304.128C410.123 304.128 435.031 279.266 435.031 248.596C435.031 217.927 410.123 193.064 379.398 193.064C348.673 193.064 323.766 217.927 323.766 248.596C323.766 279.266 348.673 304.128 379.398 304.128Z" fill="#140A82"/>
</svg>
