<svg width="735" height="541" viewBox="0 0 735 941" fill="none" xmlns="http://www.w3.org/2000/svg">
<path d="M43.2907 904.446C37.8159 904.851 32.3166 904.122 27.1364 902.306C21.9563 900.49 17.2066 897.626 13.1844 893.892C9.16219 890.159 5.95383 885.636 3.75989 880.607C1.56595 875.578 0.433594 870.151 0.433594 864.666C0.433594 859.18 1.56595 853.753 3.75989 848.724C5.95383 843.695 9.16219 839.173 13.1844 835.439C17.2066 831.706 21.9563 828.841 27.1364 827.025C32.3166 825.209 37.8159 824.481 43.2907 824.885C121.023 824.77 195.536 793.846 250.481 738.898C305.426 683.95 336.315 609.465 336.373 531.786V358.354C336.373 347.775 340.578 337.629 348.064 330.148C355.55 322.667 365.703 318.465 376.289 318.465C386.876 318.465 397.028 322.667 404.514 330.148C412 337.629 416.205 347.775 416.205 358.354V531.786C416.148 630.604 376.84 725.358 306.918 795.233C236.995 865.108 142.176 904.389 43.2907 904.446V904.446Z" fill="#140A82"/>
<path d="M369.998 940C364.365 940.047 358.789 938.87 353.657 936.549C348.525 934.228 343.96 930.819 340.278 926.559C336.79 922.664 334.107 918.119 332.382 913.186C330.658 908.252 329.925 903.026 330.228 897.809C330.53 892.591 331.861 887.485 334.144 882.783C336.427 878.081 339.618 873.876 343.532 870.41C391.358 827.901 429.621 775.741 455.797 717.371C481.973 659.001 495.467 595.748 495.388 531.785V358.354C496.37 342.091 494.012 325.799 488.46 310.481C482.907 295.162 474.278 281.141 463.102 269.278C451.926 257.416 438.44 247.964 423.474 241.503C408.507 235.042 392.376 231.709 376.072 231.709C359.769 231.709 343.638 235.042 328.671 241.503C313.704 247.964 300.218 257.416 289.043 269.278C277.867 281.141 269.237 295.162 263.685 310.481C258.133 325.799 255.775 342.091 256.757 358.354V531.785C256.729 559.827 251.173 587.589 240.408 613.486C229.643 639.383 213.88 662.907 194.017 682.716C174.155 702.524 150.583 718.229 124.647 728.934C98.7104 739.639 70.9183 745.134 42.8571 745.106C37.3823 745.51 31.883 744.781 26.7029 742.965C21.5227 741.149 16.7731 738.285 12.7508 734.552C8.72859 730.818 5.52024 726.296 3.3263 721.267C1.13236 716.238 0 710.811 0 705.325C0 699.839 1.13236 694.412 3.3263 689.383C5.52024 684.355 8.72859 679.832 12.7508 676.099C16.7731 672.365 21.5227 669.501 26.7029 667.685C31.883 665.869 37.3823 665.14 42.8571 665.544C60.4608 665.601 77.9023 662.182 94.1798 655.483C110.457 648.784 125.25 638.937 137.708 626.508C150.165 614.078 160.043 599.312 166.773 583.057C173.503 566.801 176.953 549.377 176.924 531.785V358.354C178.631 306.681 200.371 257.694 237.553 221.744C274.734 185.794 324.444 165.695 376.181 165.695C427.917 165.695 477.627 185.794 514.809 221.744C551.991 257.694 573.731 306.681 575.438 358.354V531.785C575.476 607.079 559.5 681.521 528.571 750.178C497.641 818.835 452.463 880.139 396.031 930.027C388.899 936.475 379.616 940.031 369.998 940V940Z" fill="#140A82"/>
<path d="M581.078 939.999C573.845 940.028 566.743 938.082 560.536 934.372C554.33 930.661 549.255 925.327 545.861 918.945C542.467 912.563 540.882 905.376 541.277 898.159C541.672 890.942 544.033 883.971 548.103 877.997C617.701 776.138 654.695 655.555 654.185 532.218V365.507C652.134 291.061 621.098 220.352 567.681 168.421C514.263 116.49 442.679 87.4343 368.154 87.4343C293.629 87.4343 222.045 116.49 168.627 168.421C115.21 220.352 84.1743 291.061 82.1225 365.507V437.914C83.0748 443.629 82.7703 449.481 81.2301 455.066C79.69 460.651 76.9511 465.833 73.204 470.253C69.4568 474.673 64.7913 478.224 59.5319 480.66C54.2724 483.095 48.5452 484.357 42.7484 484.357C36.9517 484.357 31.2245 483.095 25.965 480.66C20.7056 478.224 16.0401 474.673 12.2929 470.253C8.54579 465.833 5.80692 460.651 4.26674 455.066C2.72657 449.481 2.42206 443.629 3.37438 437.914V365.507C3.37438 268.568 41.9093 175.6 110.502 107.054C179.094 38.5086 272.126 0 369.13 0C466.135 0 559.166 38.5086 627.759 107.054C696.351 175.6 734.886 268.568 734.886 365.507V531.784C735.108 671.121 692.886 807.226 613.835 922.005C610.237 927.395 605.367 931.816 599.654 934.879C593.941 937.941 587.561 939.551 581.078 939.565V939.999Z" fill="#140A82"/>
</svg>
