<svg xmlns="http://www.w3.org/2000/svg" width="33.08" height="33.36" viewBox="0 0 33.08 43.36">
  <g id="Calque_2" data-name="Calque 2">
    <g id="Calque_1-2" data-name="Calque 1">
      <g id="Sablier">
        <path id="Tracé_1121" data-name="Tracé 1121" d="M31.23,3.68H1.84A1.84,1.84,0,0,1,1.84,0h29.4a1.84,1.84,0,0,1,0,3.68h0Z" style="fill: #140a82"/>
        <path id="Tracé_1122" data-name="Tracé 1122" d="M16.71,23.52a1.82,1.82,0,0,1-1-.31L9.28,19a11.22,11.22,0,0,1-5-9.35V1.84A1.84,1.84,0,0,1,8,1.84V9.61a7.5,7.5,0,0,0,3.37,6.29l5.39,3.58,5.4-3.58a7.54,7.54,0,0,0,3.37-6.29V1.84a1.84,1.84,0,0,1,3.68,0V9.61a11.21,11.21,0,0,1-5,9.35l-6.41,4.25A1.85,1.85,0,0,1,16.71,23.52Z" style="fill: #140a82"/>
        <path id="Tracé_1123" data-name="Tracé 1123" d="M31.23,43.36H1.84a1.84,1.84,0,1,1,0-3.67h29.4a1.84,1.84,0,1,1,0,3.67Z" style="fill: #140a82"/>
        <path id="Tracé_1124" data-name="Tracé 1124" d="M27.32,43.36a1.84,1.84,0,0,1-1.84-1.84h0V33.75a7.54,7.54,0,0,0-3.37-6.29l-5.4-3.57-5.39,3.57A7.52,7.52,0,0,0,8,33.75v7.77a1.84,1.84,0,0,1-3.68,0V33.75a11.22,11.22,0,0,1,5-9.35l6.42-4.25a1.83,1.83,0,0,1,2,0l6.41,4.25a11.2,11.2,0,0,1,5,9.35v7.77a1.84,1.84,0,0,1-1.84,1.84Z" style="fill: #140a82"/>
      </g>
    </g>
  </g>
</svg>
