<svg width="863" height="864" viewBox="0 0 863 864" fill="none" xmlns="http://www.w3.org/2000/svg">
<path d="M146.65 431.399C146.65 403.85 154.82 376.92 170.125 354.014C185.43 331.108 207.185 313.255 232.636 302.712C258.088 292.17 286.095 289.411 313.115 294.786C340.134 300.16 364.953 313.426 384.433 332.907C403.913 352.387 417.179 377.206 422.554 404.225C427.929 431.245 425.17 459.251 414.628 484.703C404.085 510.155 386.232 531.909 363.326 547.215C340.42 562.52 313.489 570.689 285.94 570.689V570.689C248.998 570.689 213.569 556.014 187.447 529.892C161.326 503.77 146.65 468.341 146.65 431.399V431.399ZM351.407 431.399C351.367 418.364 347.461 405.634 340.182 394.821C332.903 384.007 322.579 375.597 310.517 370.654C298.455 365.711 285.198 364.459 272.424 367.055C259.65 369.651 247.934 375.979 238.759 385.238C229.583 394.497 223.362 406.271 220.882 419.068C218.402 431.865 219.774 445.11 224.826 457.126C229.878 469.143 238.382 479.39 249.261 486.57C260.14 493.751 272.906 497.541 285.94 497.463C303.34 497.305 319.969 490.269 332.198 477.891C344.427 465.513 351.261 448.799 351.208 431.399L351.407 431.399Z" fill="#140A82"/>
<path d="M0.198493 431.4C0.198493 421.69 4.056 412.377 10.9223 405.511C17.7887 398.645 27.1014 394.787 36.8119 394.787L183.066 394.787C192.777 394.787 202.09 398.645 208.956 405.511C215.822 412.377 219.68 421.69 219.68 431.4C219.68 441.111 215.822 450.424 208.956 457.29C202.09 464.156 192.777 468.014 183.066 468.014L36.8119 468.014C32.0037 468.014 27.2427 467.067 22.8006 465.227C18.3584 463.387 14.3222 460.69 10.9223 457.29C7.52247 453.89 4.82549 449.854 2.98549 445.412C1.1455 440.97 0.198493 436.209 0.198493 431.4V431.4Z" fill="#140A82"/>
<path d="M351.21 431.4C351.183 426.602 352.106 421.845 353.924 417.404C355.742 412.963 358.421 408.925 361.805 405.523C365.189 402.12 369.212 399.42 373.643 397.578C378.074 395.735 382.825 394.787 387.624 394.787L825.392 394.787C835.103 394.787 844.416 398.645 851.282 405.511C858.148 412.377 862.006 421.69 862.006 431.4C862.006 441.111 858.148 450.424 851.282 457.29C844.416 464.156 835.103 468.014 825.392 468.014L387.624 468.014C382.825 468.014 378.074 467.065 373.643 465.223C369.212 463.381 365.189 460.681 361.805 457.278C358.421 453.876 355.742 449.838 353.924 445.397C352.106 440.956 351.183 436.199 351.21 431.4V431.4Z" fill="#140A82"/>
<path d="M438.96 139.29C438.96 111.741 447.129 84.8108 462.435 61.9047C477.74 38.9985 499.494 21.1454 524.946 10.6029C550.398 0.0603459 578.405 -2.69806 605.424 2.67648C632.444 8.05101 657.263 21.3171 676.743 40.7971C696.223 60.2772 709.489 85.0963 714.864 112.116C720.238 139.136 717.48 167.142 706.937 192.594C696.395 218.046 678.541 239.8 655.635 255.105C632.729 270.411 605.799 278.58 578.25 278.58C541.308 278.58 505.879 263.905 479.757 237.783C453.635 211.661 438.96 176.232 438.96 139.29V139.29ZM644.114 139.29C644.114 126.255 640.246 113.513 633 102.677C625.754 91.8416 615.456 83.3998 603.409 78.4206C591.362 73.4414 578.109 72.1487 565.327 74.7063C552.545 77.2638 540.81 83.5566 531.607 92.7878C522.403 102.019 516.146 113.773 513.627 126.563C511.108 139.352 512.441 152.602 517.457 164.633C522.472 176.665 530.945 186.938 541.803 194.151C552.66 201.364 565.414 205.194 578.449 205.154V205.154C595.883 205.102 612.585 198.139 624.893 185.793C637.202 173.447 644.114 156.724 644.114 139.29V139.29Z" fill="#140A82"/>
<path d="M644.116 139.291C644.009 129.614 647.738 120.289 654.487 113.353C661.236 106.418 670.456 102.436 680.132 102.279L826.387 102.279C836.097 102.279 845.41 106.137 852.276 113.003C859.143 119.869 863 129.182 863 138.893C863 148.603 859.143 157.916 852.276 164.782C845.41 171.649 836.097 175.506 826.387 175.506L680.132 175.506C670.578 175.402 661.448 171.546 654.71 164.772C647.972 157.997 644.167 148.845 644.116 139.291Z" fill="#140A82"/>
<path d="M0.198894 139.289C0.198752 129.613 4.02893 120.33 10.8523 113.47C17.6757 106.609 26.9374 102.728 36.6133 102.676L474.382 102.676C484.092 102.676 493.405 106.533 500.271 113.4C507.138 120.266 510.995 129.579 510.995 139.289C510.995 149 507.138 158.312 500.271 165.179C493.405 172.045 484.092 175.903 474.382 175.903L36.6133 175.902C26.9374 175.85 17.6756 171.969 10.8523 165.109C4.02893 158.248 0.198751 148.965 0.198894 139.289V139.289Z" fill="#140A82"/>
<path d="M438.96 723.909C438.96 696.36 447.129 669.43 462.435 646.524C477.74 623.618 499.494 605.765 524.946 595.222C550.398 584.679 578.405 581.921 605.424 587.296C632.444 592.67 657.263 605.936 676.743 625.416C696.223 644.896 709.489 669.715 714.864 696.735C720.238 723.755 717.48 751.761 706.937 777.213C696.395 802.665 678.541 824.419 655.635 839.724C632.729 855.03 605.799 863.199 578.25 863.199V863.199C541.308 863.199 505.879 848.524 479.757 822.402C453.635 796.28 438.96 760.851 438.96 723.909V723.909ZM643.517 723.909C643.517 710.874 639.649 698.132 632.403 687.296C625.157 676.461 614.859 668.019 602.812 663.04C590.765 658.061 577.512 656.768 564.73 659.325C551.948 661.883 540.213 668.176 531.01 677.407C521.806 686.638 515.549 698.393 513.03 711.182C510.511 723.972 511.844 737.221 516.86 749.252C521.875 761.284 530.348 771.557 541.206 778.77C552.063 785.983 564.817 789.813 577.852 789.773V789.773C586.535 789.826 595.142 788.161 603.179 784.874C611.216 781.588 618.524 776.745 624.683 770.623C630.841 764.502 635.728 757.224 639.063 749.207C642.398 741.189 644.114 732.592 644.114 723.909L643.517 723.909Z" fill="#140A82"/>
<path d="M644.116 723.91C644.09 719.111 645.012 714.355 646.83 709.914C648.649 705.473 651.327 701.435 654.711 698.033C658.095 694.63 662.118 691.93 666.549 690.088C670.98 688.245 675.731 687.297 680.53 687.297V687.297L826.387 687.297C836.097 687.297 845.41 691.154 852.276 698.021C859.143 704.887 863 714.2 863 723.91C863 733.621 859.143 742.933 852.276 749.8C845.41 756.666 836.097 760.524 826.387 760.524L680.132 760.524C670.526 760.367 661.365 756.44 654.628 749.591C647.89 742.741 644.115 733.518 644.116 723.91V723.91Z" fill="#140A82"/>
<path d="M0.198943 723.91C0.17272 719.111 1.09528 714.355 2.91353 709.914C4.73178 705.473 7.40989 701.435 10.7939 698.033C14.1779 694.63 18.201 691.93 22.632 690.088C27.0631 688.245 31.8146 687.297 36.6134 687.297L474.382 687.297C484.092 687.297 493.405 691.154 500.271 698.021C507.138 704.887 510.995 714.2 510.995 723.91C510.995 733.621 507.138 742.933 500.271 749.8C493.405 756.666 484.092 760.524 474.382 760.524L36.6134 760.524C31.8052 760.524 27.0441 759.576 22.602 757.736C18.1598 755.896 14.1236 753.2 10.7238 749.8C7.32389 746.4 4.62699 742.364 2.78699 737.921C0.946998 733.479 -9.44991e-06 728.718 -9.23974e-06 723.91L0.198943 723.91Z" fill="#140A82"/>
</svg>
