<svg width="851" height="852" viewBox="0 0 851 852" fill="none" xmlns="http://www.w3.org/2000/svg">
<path d="M425.304 706.815C398.144 706.815 371.595 698.761 349.012 683.672C326.43 668.583 308.829 647.136 298.435 622.044C288.042 596.952 285.323 569.341 290.621 542.703C295.92 516.065 308.998 491.597 328.203 472.392C347.408 453.188 371.876 440.109 398.514 434.811C425.152 429.512 452.762 432.231 477.854 442.625C502.947 453.018 524.393 470.619 539.482 493.202C554.571 515.784 562.625 542.334 562.625 569.493V569.493C562.625 605.913 548.157 640.841 522.405 666.594C496.652 692.347 461.724 706.815 425.304 706.815V706.815ZM425.304 504.952C412.453 504.991 399.903 508.843 389.242 516.019C378.581 523.195 370.29 533.373 365.417 545.264C360.544 557.155 359.309 570.225 361.869 582.818C364.428 595.412 370.667 606.963 379.795 616.008C388.923 625.054 400.53 631.187 413.146 633.633C425.763 636.078 438.821 634.724 450.667 629.744C462.514 624.763 472.616 616.379 479.695 605.654C486.774 594.929 490.511 582.344 490.433 569.493C490.278 552.34 483.341 535.945 471.138 523.889C458.935 511.833 442.458 505.096 425.304 505.148V504.952Z" fill="#140A82"/>
<path d="M425.304 851.196C415.731 851.196 406.55 847.393 399.78 840.623C393.011 833.854 389.208 824.673 389.208 815.1V670.912C389.208 661.339 393.011 652.158 399.78 645.389C406.55 638.619 415.731 634.816 425.304 634.816C434.877 634.816 444.058 638.619 450.828 645.389C457.597 652.158 461.4 661.339 461.4 670.912V815.1C461.4 819.84 460.466 824.534 458.652 828.913C456.838 833.292 454.179 837.272 450.828 840.623C447.476 843.975 443.497 846.634 439.117 848.448C434.738 850.262 430.044 851.196 425.304 851.196V851.196Z" fill="#140A82"/>
<path d="M425.304 505.147C420.573 505.173 415.884 504.264 411.505 502.471C407.127 500.679 403.146 498.038 399.792 494.702C396.438 491.366 393.776 487.4 391.959 483.031C390.143 478.663 389.208 473.979 389.208 469.248V37.6662C389.208 28.093 393.011 18.9119 399.78 12.1426C406.55 5.37326 415.731 1.57031 425.304 1.57031C434.877 1.57031 444.058 5.37326 450.828 12.1426C457.597 18.9119 461.4 28.093 461.4 37.6662V469.248C461.4 473.979 460.465 478.663 458.648 483.031C456.832 487.4 454.17 491.366 450.816 494.702C447.461 498.038 443.481 500.679 439.102 502.471C434.724 504.264 430.035 505.173 425.304 505.147V505.147Z" fill="#140A82"/>
<path d="M137.321 418.637C110.162 418.637 83.6121 410.583 61.0298 395.494C38.4474 380.405 20.8466 358.958 10.453 333.866C0.0595002 308.774 -2.65992 281.163 2.63865 254.525C7.93723 227.888 21.0158 203.419 40.2206 184.215C59.4253 165.01 83.8936 151.931 110.531 146.633C137.169 141.334 164.78 144.054 189.872 154.447C214.964 164.841 236.411 182.442 251.5 205.024C266.589 227.606 274.643 254.156 274.643 281.316C274.643 317.735 260.175 352.664 234.422 378.416C208.67 404.169 173.741 418.637 137.321 418.637V418.637ZM137.321 216.382C124.47 216.382 111.909 220.196 101.226 227.339C90.5436 234.483 82.2211 244.636 77.3122 256.512C72.4034 268.389 71.129 281.455 73.6504 294.056C76.1718 306.657 82.3757 318.227 91.4764 327.3C100.577 336.373 112.165 342.542 124.774 345.025C137.383 347.508 150.445 346.194 162.307 341.25C174.168 336.305 184.296 327.952 191.407 317.248C198.518 306.544 202.294 293.97 202.255 281.119V281.119C202.203 263.932 195.339 247.466 183.167 235.331C170.995 223.196 154.509 216.382 137.321 216.382V216.382Z" fill="#140A82"/>
<path d="M137.321 216.381C127.781 216.485 118.588 212.809 111.751 206.156C104.913 199.502 100.988 190.412 100.833 180.873V36.6857C100.833 27.1125 104.636 17.9314 111.405 11.1621C118.175 4.39279 127.356 0.589844 136.929 0.589844C146.502 0.589844 155.683 4.39279 162.453 11.1621C169.222 17.9314 173.025 27.1125 173.025 36.6857V180.873C172.922 190.292 169.121 199.294 162.442 205.936C155.763 212.578 146.741 216.33 137.321 216.381Z" fill="#140A82"/>
<path d="M137.321 851.196C127.782 851.196 118.631 847.42 111.867 840.693C105.103 833.966 101.277 824.836 101.226 815.296V383.715C101.226 374.142 105.029 364.961 111.798 358.191C118.567 351.422 127.748 347.619 137.321 347.619C146.895 347.619 156.076 351.422 162.845 358.191C169.614 364.961 173.417 374.142 173.417 383.715V815.296C173.366 824.836 169.54 833.966 162.776 840.693C156.012 847.42 146.861 851.196 137.321 851.196V851.196Z" fill="#140A82"/>
<path d="M713.679 418.637C686.519 418.637 659.97 410.583 637.387 395.494C614.805 380.405 597.204 358.958 586.81 333.866C576.417 308.774 573.698 281.163 578.996 254.525C584.295 227.888 597.373 203.419 616.578 184.215C635.783 165.01 660.251 151.931 686.889 146.633C713.526 141.334 741.137 144.054 766.229 154.447C791.322 164.841 812.768 182.442 827.857 205.024C842.946 227.606 851 254.156 851 281.316V281.316C851 317.735 836.532 352.664 810.78 378.416C785.027 404.169 750.099 418.637 713.679 418.637V418.637ZM713.679 216.971C700.828 216.971 688.266 220.784 677.583 227.928C666.901 235.071 658.579 245.224 653.67 257.101C648.761 268.977 647.486 282.043 650.008 294.644C652.529 307.245 658.733 318.815 667.834 327.888C676.934 336.962 688.523 343.13 701.132 345.614C713.74 348.097 726.802 346.783 738.664 341.838C750.525 336.893 760.653 328.54 767.764 317.836C774.876 307.132 778.651 294.559 778.612 281.708V281.708C778.664 273.148 777.023 264.662 773.782 256.738C770.542 248.815 765.768 241.61 759.733 235.539C753.698 229.468 746.522 224.65 738.619 221.362C730.715 218.074 722.239 216.382 713.679 216.382V216.971Z" fill="#140A82"/>
<path d="M713.679 216.381C708.948 216.406 704.259 215.497 699.88 213.704C695.502 211.912 691.521 209.272 688.167 205.935C684.813 202.599 682.151 198.633 680.334 194.264C678.518 189.896 677.583 185.212 677.583 180.481V180.481V36.6857C677.583 27.1125 681.386 17.9314 688.155 11.1621C694.924 4.39279 704.106 0.589844 713.679 0.589844C723.252 0.589844 732.433 4.39279 739.202 11.1621C745.972 17.9314 749.775 27.1125 749.775 36.6857V180.873C749.62 190.344 745.749 199.375 738.997 206.017C732.244 212.66 723.151 216.382 713.679 216.381V216.381Z" fill="#140A82"/>
<path d="M713.679 851.196C708.948 851.222 704.259 850.312 699.88 848.52C695.502 846.727 691.521 844.087 688.167 840.751C684.813 837.415 682.151 833.449 680.334 829.08C678.518 824.712 677.583 820.027 677.583 815.296V383.715C677.583 374.142 681.386 364.961 688.155 358.191C694.924 351.422 704.106 347.619 713.679 347.619C723.252 347.619 732.433 351.422 739.202 358.191C745.972 364.961 749.775 374.142 749.775 383.715V815.296C749.775 820.037 748.841 824.73 747.027 829.11C745.213 833.489 742.554 837.468 739.202 840.82C735.851 844.172 731.871 846.831 727.492 848.645C723.113 850.459 718.419 851.392 713.679 851.392V851.196Z" fill="#140A82"/>
</svg>
