<svg width="888" height="789" viewBox="0 0 888 889" fill="none" xmlns="http://www.w3.org/2000/svg">
<path d="M444 662.317C400.822 662.317 358.613 649.513 322.712 625.524C286.81 601.536 258.828 567.44 242.305 527.548C225.781 487.657 221.458 443.761 229.881 401.412C238.305 359.064 259.097 320.164 289.629 289.632C320.161 259.1 359.061 238.308 401.409 229.884C443.758 221.461 487.654 225.784 527.545 242.308C567.437 258.831 601.533 286.813 625.521 322.715C649.51 358.616 662.314 400.825 662.314 444.003C662.314 501.904 639.313 557.433 598.371 598.374C557.43 639.316 501.901 662.317 444 662.317V662.317ZM444 301.055C415.647 301.055 387.93 309.463 364.355 325.215C340.78 340.967 322.405 363.357 311.555 389.552C300.704 415.747 297.865 444.572 303.397 472.381C308.928 500.189 322.582 525.733 342.631 545.782C362.68 565.831 388.224 579.485 416.033 585.016C443.841 590.548 472.666 587.709 498.861 576.858C525.056 566.008 547.446 547.633 563.198 524.058C578.95 500.483 587.358 472.766 587.358 444.413C587.358 406.392 572.254 369.928 545.37 343.043C518.485 316.159 482.021 301.055 444 301.055V301.055Z" fill="#140A82"/>
<path d="M444 165.476C434.041 165.476 424.488 161.534 417.427 154.512C410.366 147.489 406.372 137.957 406.317 127.998V37.6827C406.317 27.6886 410.288 18.1039 417.354 11.037C424.421 3.97012 434.006 0 444 0C453.994 0 463.579 3.97012 470.646 11.037C477.713 18.1039 481.683 27.6886 481.683 37.6827V127.998C481.683 132.937 480.707 137.827 478.81 142.388C476.914 146.948 474.135 151.089 470.633 154.572C467.131 158.054 462.976 160.811 458.405 162.682C453.834 164.554 448.939 165.503 444 165.476V165.476Z" fill="#140A82"/>
<path d="M444 888.003C434.006 888.003 424.421 884.033 417.354 876.966C410.288 869.899 406.317 860.314 406.317 850.32V760.005C406.317 750.011 410.288 740.426 417.354 733.359C424.421 726.292 434.006 722.322 444 722.322C453.994 722.322 463.579 726.292 470.646 733.359C477.713 740.426 481.683 750.011 481.683 760.005V850.32C481.683 860.314 477.713 869.899 470.646 876.966C463.579 884.033 453.994 888.003 444 888.003Z" fill="#140A82"/>
<path d="M850.317 481.68H760.002C750.008 481.68 740.423 477.71 733.356 470.643C726.289 463.576 722.319 453.991 722.319 443.997C722.319 434.003 726.289 424.418 733.356 417.351C740.423 410.285 750.008 406.314 760.002 406.314H850.317C860.312 406.314 869.896 410.285 876.963 417.351C884.03 424.418 888 434.003 888 443.997C888 453.991 884.03 463.576 876.963 470.643C869.896 477.71 860.312 481.68 850.317 481.68V481.68Z" fill="#140A82"/>
<path d="M127.998 481.68H37.6827C27.6886 481.68 18.1039 477.71 11.037 470.643C3.97013 463.576 0 453.991 0 443.997C0 434.003 3.97013 424.418 11.037 417.351C18.1039 410.285 27.6886 406.314 37.6827 406.314H127.998C137.992 406.314 147.577 410.285 154.644 417.351C161.711 424.418 165.681 434.003 165.681 443.997C165.681 453.991 161.711 463.576 154.644 470.643C147.577 477.71 137.992 481.68 127.998 481.68V481.68Z" fill="#140A82"/>
<path d="M667.434 258.046C659.986 258.095 652.692 255.923 646.483 251.808C640.274 247.694 635.433 241.822 632.576 234.944C629.719 228.065 628.976 220.491 630.443 213.189C631.909 205.886 635.519 199.186 640.81 193.944L683.408 151.346C690.496 144.204 700.131 140.17 710.194 140.131C720.257 140.093 729.922 144.053 737.065 151.141C744.207 158.23 748.241 167.865 748.28 177.927C748.318 187.99 744.358 197.656 737.27 204.798L694.672 247.396C691.07 250.968 686.781 253.772 682.064 255.638C677.347 257.504 672.3 258.392 667.229 258.25L667.434 258.046Z" fill="#140A82"/>
<path d="M177.968 747.713C167.974 747.713 158.39 743.743 151.323 736.676C144.256 729.609 140.286 720.025 140.286 710.031C140.258 705.079 141.222 700.172 143.121 695.6C145.02 691.027 147.817 686.881 151.345 683.407L193.943 640.809C197.189 636.817 201.219 633.532 205.784 631.157C210.349 628.782 215.352 627.366 220.485 626.999C225.617 626.631 230.771 627.318 235.628 629.018C240.484 630.718 244.942 633.395 248.724 636.884C252.507 640.372 255.535 644.599 257.622 649.302C259.709 654.006 260.811 659.087 260.859 664.233C260.907 669.378 259.901 674.479 257.902 679.221C255.903 683.963 252.955 688.245 249.238 691.804L247.19 694.056L204.797 737.269C197.589 744.164 187.941 747.92 177.968 747.713V747.713Z" fill="#140A82"/>
<path d="M220.567 258.042C215.628 258.108 210.727 257.182 206.153 255.317C201.58 253.453 197.428 250.688 193.943 247.188L151.345 204.795C143.959 198.032 139.56 188.613 139.119 178.608C138.677 168.603 142.228 158.832 148.99 151.445C155.753 144.058 165.172 139.66 175.177 139.218C185.182 138.777 194.953 142.328 202.34 149.09L204.593 151.343L247.19 193.94C252.452 199.21 256.033 205.921 257.484 213.225C258.934 220.529 258.188 228.098 255.34 234.979C252.491 241.859 247.668 247.741 241.479 251.882C235.29 256.023 228.013 258.238 220.567 258.247V258.042Z" fill="#140A82"/>
<path d="M710.031 747.716C700.165 747.879 690.621 744.209 683.407 737.476L640.81 694.878C637.103 691.536 634.097 687.492 631.966 682.979C629.835 678.466 628.622 673.574 628.397 668.589C628.172 663.603 628.939 658.622 630.655 653.936C632.371 649.249 635 644.95 638.391 641.288C641.782 637.626 645.866 634.674 650.407 632.603C654.948 630.533 659.855 629.385 664.843 629.226C669.832 629.067 674.802 629.901 679.465 631.679C684.129 633.457 688.392 636.144 692.009 639.583L694.057 641.631L737.474 682.59C741.199 686.11 744.163 690.355 746.183 695.066C748.203 699.776 749.235 704.85 749.215 709.975C749.196 715.1 748.126 720.166 746.071 724.861C744.017 729.556 741.021 733.78 737.269 737.271C733.795 740.799 729.649 743.595 725.076 745.495C720.504 747.394 715.597 748.358 710.645 748.33L710.031 747.716Z" fill="#140A82"/>
</svg>
