<svg width="941" height="940" viewBox="0 0 941 940" fill="none" xmlns="http://www.w3.org/2000/svg">
<path d="M536.279 939.999C531.033 940.017 525.836 938.99 520.991 936.977C516.146 934.965 511.751 932.008 508.061 928.279L63.5339 483.751C59.3546 479.638 56.1663 474.627 54.2108 469.099C52.2553 463.571 51.5837 457.67 52.247 451.844L86.7587 121.921C87.6646 112.904 91.6604 104.477 98.0688 98.0683C104.477 91.6599 112.904 87.6642 121.922 86.7582L451.627 52.0295C457.467 51.4418 463.365 52.17 468.886 54.1608C474.408 56.1516 479.413 59.3542 483.534 63.5334L928.496 508.061C935.919 515.577 940.081 525.715 940.081 536.278C940.081 546.841 935.919 556.979 928.496 564.495L564.279 928.279C560.615 931.982 556.255 934.924 551.449 936.936C546.644 938.947 541.488 939.988 536.279 939.999V939.999ZM133.425 440.774L536.279 844.278L844.279 536.278L440.992 133.425L162.294 162.293L133.425 440.774Z" fill="#140A82"/>
<path d="M359.379 439.039C403.373 439.039 439.038 403.374 439.038 359.38C439.038 315.385 403.373 279.721 359.379 279.721C315.384 279.721 279.72 315.385 279.72 359.38C279.72 403.374 315.384 439.039 359.379 439.039Z" fill="#140A82"/>
<path d="M231.751 271.689C221.234 271.746 211.11 267.696 203.534 260.402L10.5724 67.0066C3.58399 59.4251 -0.201448 49.4346 0.00827099 39.1257C0.21799 28.8169 4.40661 18.9886 11.6976 11.6976C18.9886 4.40661 28.8169 0.21799 39.1257 0.00827099C49.4346 -0.201448 59.4251 3.58399 67.0066 10.5724L260.402 203.534C264.196 207.234 267.21 211.656 269.269 216.539C271.327 221.423 272.388 226.669 272.388 231.968C272.388 237.267 271.327 242.513 269.269 247.396C267.21 252.28 264.196 256.702 260.402 260.402C256.648 264.137 252.169 267.064 247.242 269.005C242.315 270.946 237.044 271.859 231.751 271.689V271.689Z" fill="#140A82"/>
</svg>
