<svg width="600" height="600" viewBox="0 0 600 600" fill="none" xmlns="http://www.w3.org/2000/svg">
<rect width="600" height="600" rx="50" fill="#F6F5FC"/>
<path d="M137.92 377.788H129.727V339.131H137.92V371.016" fill="#1E4782"/>
<path d="M164.561 377.786L162.995 373.766H162.786C161.427 375.472 160.035 376.658 158.595 377.322C157.161 377.987 155.29 378.316 152.979 378.316C150.144 378.316 147.904 377.505 146.276 375.885C144.647 374.257 143.83 371.955 143.83 368.955C143.83 365.818 144.926 363.504 147.123 362.013C149.317 360.525 152.628 359.699 157.05 359.543L162.184 359.384V358.085C162.184 355.088 160.642 353.595 157.577 353.595C155.215 353.595 152.434 354.304 149.246 355.735L146.578 350.287C149.979 348.505 153.751 347.613 157.891 347.613C161.864 347.613 164.899 348.478 167.013 350.203C169.129 351.93 170.189 354.559 170.189 358.082V377.786H164.561V377.786ZM162.184 364.09L159.065 364.192C156.715 364.27 154.972 364.689 153.826 365.461C152.679 366.243 152.105 367.419 152.105 369.006C152.105 371.281 153.41 372.422 156.014 372.422C157.885 372.422 159.382 371.88 160.499 370.805C161.618 369.727 162.184 368.305 162.184 366.527V364.09Z" fill="#1E4782"/>
<path d="M208.901 354.279H201.917V377.791H193.849V354.279H189.412V350.39L193.849 348.222V346.058C193.849 342.69 194.681 340.232 196.339 338.679C197.998 337.125 200.644 336.35 204.294 336.35C207.084 336.35 209.556 336.766 211.73 337.595L209.667 343.519C208.048 343.005 206.548 342.75 205.171 342.75C204.033 342.75 203.201 343.091 202.686 343.771C202.174 344.447 201.917 345.319 201.917 346.375V348.225H208.901V354.279Z" fill="#1E4782"/>
<path d="M226.91 378.317C222.15 378.317 218.432 377.003 215.75 374.374C213.071 371.752 211.732 368.028 211.732 363.217C211.732 358.259 212.969 354.433 215.442 351.727C217.923 349.021 221.345 347.668 225.716 347.668C229.895 347.668 233.155 348.856 235.481 351.239C237.807 353.619 238.975 356.906 238.975 361.1V365.013H219.902C219.992 367.303 220.671 369.096 221.938 370.384C223.207 371.671 224.988 372.312 227.278 372.312C229.066 372.312 230.745 372.126 232.329 371.758C233.912 371.39 235.574 370.797 237.304 369.986V376.227C235.894 376.931 234.385 377.458 232.784 377.799C231.176 378.14 229.218 378.317 226.91 378.317ZM225.77 353.404C224.063 353.404 222.722 353.949 221.749 355.029C220.779 356.116 220.228 357.652 220.088 359.642H231.407C231.368 357.652 230.847 356.116 229.847 355.029C228.838 353.951 227.476 353.404 225.77 353.404ZM221.118 344.968V344.261C224.15 340.729 226.228 338.079 227.332 336.295H236.373V336.855C235.46 337.774 233.891 339.133 231.679 340.941C229.47 342.749 227.736 344.087 226.485 344.971H221.118V344.968Z" fill="#1E4782"/>
<path d="M254.887 378.317C251.414 378.317 248.687 376.97 246.705 374.27C244.72 371.57 243.727 367.833 243.727 363.059C243.727 358.206 244.738 354.431 246.753 351.725C248.771 349.018 251.555 347.665 255.102 347.665C258.824 347.665 261.656 349.108 263.616 352H263.883C263.476 349.797 263.269 347.833 263.269 346.103V336.643H271.361V377.79H265.176L263.616 373.955H263.269C261.434 376.862 258.641 378.317 254.887 378.317ZM257.713 371.89C259.776 371.89 261.29 371.294 262.248 370.094C263.209 368.896 263.736 366.855 263.826 363.981V363.109C263.826 359.939 263.329 357.658 262.353 356.287C261.374 354.916 259.788 354.221 257.584 354.221C255.788 354.221 254.39 354.985 253.39 356.508C252.393 358.041 251.893 360.257 251.893 363.16C251.893 366.073 252.399 368.256 253.399 369.708C254.414 371.165 255.845 371.89 257.713 371.89Z" fill="#1E4782"/>
<path d="M293.18 378.317C288.42 378.317 284.702 377.003 282.022 374.374C279.34 371.752 278.002 368.028 278.002 363.217C278.002 358.259 279.235 354.433 281.714 351.727C284.187 349.021 287.612 347.668 291.982 347.668C296.161 347.668 299.416 348.856 301.748 351.239C304.077 353.619 305.238 356.906 305.238 361.1V365.013H286.166C286.255 367.303 286.938 369.096 288.204 370.384C289.477 371.671 291.258 372.312 293.551 372.312C295.329 372.312 297.012 372.126 298.601 371.758C300.182 371.39 301.843 370.797 303.571 369.986V376.227C302.161 376.931 300.655 377.458 299.05 377.799C297.446 378.14 295.485 378.317 293.18 378.317ZM292.036 353.404C290.327 353.404 288.986 353.949 288.016 355.029C287.046 356.116 286.492 357.652 286.354 359.642H297.673C297.637 357.652 297.116 356.116 296.114 355.029C295.102 353.951 293.746 353.404 292.036 353.404ZM287.384 344.968V344.261C290.417 340.729 292.491 338.079 293.602 336.295H302.646V336.855C301.73 337.774 300.158 339.133 297.949 340.941C295.739 342.749 294.006 344.087 292.755 344.971H287.384V344.968Z" fill="#1E4782"/>
<path d="M328.292 347.67C329.388 347.67 330.295 347.754 331.016 347.909L330.408 355.474C329.759 355.298 328.962 355.205 328.028 355.205C325.457 355.205 323.448 355.867 322.011 357.193C320.577 358.513 319.862 360.363 319.862 362.743V377.789H311.797V348.227H317.904L319.092 353.199H319.485C320.407 351.541 321.643 350.203 323.203 349.191C324.762 348.179 326.46 347.67 328.292 347.67Z" fill="#1E4782"/>
<path d="M355.161 377.786L353.601 373.766H353.389C352.029 375.472 350.637 376.658 349.194 377.322C347.763 377.987 345.889 378.316 343.581 378.316C340.74 378.316 338.501 377.505 336.876 375.885C335.244 374.257 334.43 371.955 334.43 368.955C334.43 365.818 335.528 363.504 337.72 362.013C339.923 360.525 343.228 359.699 347.653 359.543L352.781 359.384V358.085C352.781 355.088 351.242 353.595 348.18 353.595C345.818 353.595 343.036 354.304 339.848 355.735L337.178 350.287C340.576 348.505 344.354 347.613 348.494 347.613C352.454 347.613 355.499 348.478 357.616 350.203C359.729 351.93 360.789 354.559 360.789 358.082V377.786H355.161V377.786ZM352.781 364.09L349.658 364.192C347.314 364.27 345.566 364.689 344.423 365.461C343.279 366.243 342.698 367.419 342.698 369.006C342.698 371.281 344.006 372.422 346.614 372.422C348.488 372.422 349.982 371.88 351.098 370.805C352.218 369.727 352.781 368.305 352.781 366.527V364.09Z" fill="#1E4782"/>
<path d="M381.552 371.89C382.956 371.89 384.65 371.585 386.629 370.965V376.97C384.614 377.866 382.148 378.318 379.223 378.318C375.993 378.318 373.646 377.5 372.17 375.878C370.703 374.243 369.966 371.797 369.966 368.534V354.279H366.102V350.866L370.55 348.171L372.876 341.93H378.034V348.225H386.306V354.279H378.034V368.534C378.034 369.681 378.355 370.525 378.992 371.073C379.648 371.615 380.489 371.89 381.552 371.89Z" fill="#1E4782"/>
<path d="M392.258 340.582C392.258 337.957 393.722 336.643 396.656 336.643C399.577 336.643 401.035 337.957 401.035 340.582C401.035 341.831 400.667 342.81 399.946 343.501C399.203 344.202 398.116 344.552 396.656 344.552C393.722 344.549 392.258 343.226 392.258 340.582ZM400.67 377.787H392.605V348.225H400.67V377.787Z" fill="#1E4782"/>
<path d="M436.002 362.955C436.002 367.763 434.73 371.523 432.194 374.241C429.647 376.962 426.111 378.312 421.591 378.312C418.744 378.312 416.241 377.69 414.074 376.444C411.903 375.205 410.239 373.415 409.077 371.094C407.919 368.762 407.332 366.05 407.332 362.952C407.332 358.114 408.595 354.363 411.116 351.681C413.637 348.998 417.178 347.66 421.749 347.66C424.587 347.66 427.096 348.28 429.258 349.51C431.422 350.744 433.092 352.519 434.257 354.83C435.416 357.144 436.002 359.847 436.002 362.955ZM415.559 362.955C415.559 365.874 416.038 368.089 416.999 369.583C417.96 371.083 419.522 371.834 421.693 371.834C423.845 371.834 425.387 371.088 426.33 369.601C427.279 368.107 427.749 365.889 427.749 362.952C427.749 360.018 427.273 357.827 426.318 356.366C425.369 354.896 423.806 354.168 421.639 354.168C419.489 354.168 417.936 354.896 416.981 356.348C416.038 357.806 415.559 360.003 415.559 362.955Z" fill="#1E4782"/>
<path d="M469.948 377.789H461.886V360.522C461.886 358.39 461.509 356.786 460.749 355.72C459.988 354.651 458.782 354.118 457.129 354.118C454.875 354.118 453.241 354.876 452.238 356.378C451.235 357.881 450.729 360.384 450.729 363.875V377.783H442.664V348.227H448.825L449.909 352.008H450.355C451.253 350.58 452.489 349.502 454.079 348.766C455.654 348.038 457.447 347.67 459.452 347.67C462.889 347.67 465.5 348.601 467.284 350.46C469.062 352.319 469.951 355.001 469.951 358.513V377.789H469.948Z" fill="#1E4782"/>
<path d="M105.483 424.27C102.013 424.27 99.2857 422.92 97.3009 420.22C95.3161 417.529 94.3223 413.784 94.3223 409.012C94.3223 404.162 95.3371 400.384 97.3518 397.675C99.3725 394.971 102.151 393.621 105.695 393.621C109.413 393.621 112.251 395.064 114.212 397.956H114.47C114.068 395.753 113.871 393.786 113.871 392.062V382.596H121.963V423.743H115.772L114.212 419.909H113.871C112.036 422.812 109.24 424.27 105.483 424.27ZM108.318 417.846C110.38 417.846 111.892 417.247 112.853 416.047C113.811 414.843 114.335 412.811 114.422 409.934V409.063C114.422 405.889 113.931 403.617 112.952 402.243C111.976 400.866 110.386 400.177 108.183 400.177C106.384 400.177 104.986 400.938 103.992 402.468C102.995 403.991 102.501 406.21 102.501 409.113C102.501 412.026 103.001 414.206 104.004 415.658C105.01 417.116 106.45 417.846 108.318 417.846Z" fill="#1E4782"/>
<path d="M143.78 424.269C139.021 424.269 135.299 422.955 132.617 420.327C129.935 417.695 128.6 413.98 128.6 409.166C128.6 404.215 129.839 400.38 132.318 397.671C134.79 394.967 138.218 393.617 142.589 393.617C146.768 393.617 150.016 394.806 152.345 397.186C154.671 399.569 155.839 402.856 155.839 407.05V410.962H136.772C136.862 413.253 137.536 415.046 138.808 416.333C140.077 417.617 141.859 418.261 144.152 418.261C145.93 418.261 147.618 418.072 149.202 417.704C150.792 417.339 152.447 416.746 154.177 415.935V422.177C152.767 422.877 151.256 423.407 149.651 423.748C148.04 424.096 146.089 424.269 143.78 424.269ZM142.643 399.356C140.936 399.356 139.595 399.901 138.622 400.985C137.655 402.062 137.096 403.604 136.952 405.598H148.271C148.238 403.604 147.717 402.065 146.714 400.985C145.714 399.901 144.352 399.356 142.643 399.356Z" fill="#1E4782"/>
<path d="M183.019 414.959C183.019 417.995 181.968 420.303 179.864 421.889C177.756 423.476 174.607 424.269 170.41 424.269C168.26 424.269 166.425 424.117 164.907 423.835C163.39 423.536 161.971 423.111 160.65 422.545V415.878C162.15 416.585 163.836 417.177 165.713 417.653C167.59 418.129 169.248 418.369 170.673 418.369C173.598 418.369 175.065 417.525 175.065 415.83C175.065 415.192 174.87 414.678 174.481 414.279C174.095 413.884 173.424 413.432 172.472 412.932C171.517 412.426 170.251 411.84 168.664 411.178C166.389 410.226 164.719 409.343 163.653 408.532C162.584 407.72 161.809 406.789 161.327 405.741C160.842 404.694 160.6 403.403 160.6 401.868C160.6 399.242 161.617 397.213 163.656 395.773C165.692 394.336 168.578 393.617 172.314 393.617C175.879 393.617 179.34 394.396 182.708 395.943L180.274 401.763C178.792 401.128 177.412 400.607 176.125 400.203C174.84 399.793 173.526 399.59 172.182 399.59C169.805 399.59 168.617 400.236 168.617 401.523C168.617 402.245 169 402.868 169.769 403.403C170.533 403.93 172.215 404.718 174.807 405.753C177.116 406.687 178.807 407.559 179.888 408.37C180.962 409.184 181.753 410.115 182.262 411.178C182.768 412.238 183.019 413.498 183.019 414.959Z" fill="#1E4782"/>
<path d="M216.764 424.269C212.004 424.269 208.28 422.955 205.6 420.327C202.921 417.695 201.586 413.98 201.586 409.166C201.586 404.215 202.822 400.38 205.304 397.671C207.774 394.967 211.202 393.617 215.572 393.617C219.754 393.617 223 394.806 225.332 397.186C227.658 399.569 228.822 402.856 228.822 407.05V410.962H209.759C209.845 413.253 210.519 415.046 211.788 416.333C213.061 417.617 214.842 418.261 217.135 418.261C218.913 418.261 220.602 418.072 222.188 417.704C223.775 417.339 225.43 416.746 227.161 415.935V422.177C225.754 422.877 224.239 423.407 222.637 423.748C221.021 424.096 219.069 424.269 216.764 424.269ZM215.626 399.356C213.917 399.356 212.573 399.901 211.606 400.985C210.636 402.062 210.082 403.604 209.938 405.598H221.248C221.218 403.604 220.694 402.065 219.695 400.985C218.689 399.901 217.336 399.356 215.626 399.356Z" fill="#1E4782"/>
<path d="M262.668 423.739H254.603V406.472C254.603 404.34 254.223 402.736 253.469 401.67C252.705 400.604 251.505 400.069 249.852 400.069C247.589 400.069 245.96 400.826 244.952 402.335C243.949 403.841 243.449 406.334 243.449 409.828V423.736H235.381V394.171H241.545L242.629 397.952H243.075C243.976 396.527 245.212 395.446 246.793 394.713C248.37 393.982 250.167 393.617 252.172 393.617C255.615 393.617 258.222 394.551 260.004 396.407C261.785 398.269 262.671 400.949 262.671 404.46V423.739H262.668Z" fill="#1E4782"/>
<path d="M283.421 417.844C284.837 417.844 286.528 417.533 288.498 416.913V422.919C286.492 423.814 284.026 424.269 281.101 424.269C277.868 424.269 275.521 423.455 274.048 421.82C272.578 420.192 271.841 417.746 271.841 414.477V400.227H267.977V396.82L272.419 394.12L274.751 387.875H279.903V394.171H288.181V400.227H279.903V414.477C279.903 415.629 280.224 416.473 280.87 417.021C281.514 417.569 282.361 417.844 283.421 417.844Z" fill="#1E4782"/>
<path d="M310.981 393.621C312.073 393.621 312.98 393.705 313.705 393.861L313.094 401.426C312.444 401.252 311.651 401.159 310.714 401.159C308.143 401.159 306.137 401.824 304.7 403.147C303.263 404.467 302.541 406.32 302.541 408.697V423.746H294.477V394.181H300.587L301.778 399.156H302.176C303.092 397.498 304.329 396.166 305.894 395.148C307.451 394.13 309.145 393.621 310.981 393.621Z" fill="#1E4782"/>
<path d="M332.448 424.269C327.691 424.269 323.967 422.955 321.288 420.327C318.606 417.695 317.268 413.98 317.268 409.166C317.268 404.215 318.504 400.38 320.983 397.671C323.461 394.967 326.889 393.617 331.263 393.617C335.439 393.617 338.69 394.806 341.016 397.186C343.348 399.569 344.51 402.856 344.51 407.05V410.962H325.44C325.533 413.253 326.21 415.046 327.476 416.333C328.745 417.617 330.529 418.261 332.823 418.261C334.601 418.261 336.289 418.072 337.873 417.704C339.46 417.339 341.115 416.746 342.842 415.935V422.177C341.429 422.877 339.927 423.407 338.325 423.748C336.714 424.096 334.76 424.269 332.448 424.269ZM331.308 399.356C329.601 399.356 328.26 399.901 327.293 400.985C326.32 402.062 325.767 403.604 325.626 405.598H336.945C336.909 403.604 336.388 402.065 335.385 400.985C334.382 399.901 333.023 399.356 331.308 399.356Z" fill="#1E4782"/>
<path d="M367.299 424.27C363.832 424.27 361.111 423.007 359.129 420.483H358.707C358.989 422.956 359.129 424.378 359.129 424.77V436.748H351.07V394.175H357.623L358.761 398.016H359.129C361.018 395.085 363.814 393.621 367.514 393.621C371.005 393.621 373.735 394.968 375.708 397.669C377.681 400.369 378.675 404.111 378.675 408.91C378.675 412.065 378.211 414.801 377.289 417.133C376.355 419.456 375.043 421.232 373.331 422.447C371.622 423.659 369.613 424.27 367.299 424.27ZM364.922 400.072C362.931 400.072 361.479 400.689 360.557 401.908C359.644 403.138 359.165 405.159 359.126 407.979V408.853C359.126 412.029 359.596 414.301 360.545 415.675C361.485 417.052 362.979 417.738 365.03 417.738C368.637 417.738 370.445 414.759 370.445 408.802C370.445 405.892 370.005 403.713 369.11 402.255C368.221 400.803 366.829 400.072 364.922 400.072Z" fill="#1E4782"/>
<path d="M401.838 393.621C402.934 393.621 403.841 393.705 404.562 393.861L403.957 401.426C403.299 401.252 402.514 401.159 401.577 401.159C399 401.159 396.994 401.824 395.557 403.147C394.12 404.467 393.405 406.32 393.405 408.697V423.746H385.34V394.181H391.45L392.635 399.156H393.034C393.956 397.498 395.186 396.166 396.752 395.148C398.305 394.13 400 393.621 401.838 393.621Z" fill="#1E4782"/>
<path d="M409.586 386.533C409.586 383.908 411.05 382.594 413.975 382.594C416.902 382.594 418.363 383.908 418.363 386.533C418.363 387.782 417.998 388.761 417.268 389.458C416.54 390.153 415.439 390.5 413.975 390.5C411.047 390.5 409.586 389.18 409.586 386.533ZM417.989 423.742H409.927V394.176H417.989V423.742Z" fill="#1E4782"/>
<path d="M447.08 414.959C447.08 417.995 446.023 420.303 443.918 421.889C441.808 423.476 438.662 424.269 434.467 424.269C432.315 424.269 430.486 424.117 428.971 423.835C427.447 423.536 426.031 423.111 424.708 422.545V415.878C426.205 416.585 427.887 417.177 429.767 417.653C431.647 418.129 433.303 418.369 434.728 418.369C437.653 418.369 439.12 417.525 439.12 415.83C439.12 415.192 438.922 414.678 438.536 414.279C438.15 413.884 437.479 413.432 436.527 412.932C435.578 412.426 434.306 411.84 432.716 411.178C430.447 410.226 428.774 409.343 427.708 408.532C426.639 407.72 425.864 406.789 425.382 405.741C424.891 404.694 424.654 403.403 424.654 401.868C424.654 399.242 425.672 397.213 427.708 395.773C429.744 394.336 432.635 393.617 436.371 393.617C439.931 393.617 443.398 394.396 446.759 395.943L444.329 401.763C442.85 401.128 441.467 400.607 440.176 400.203C438.889 399.793 437.578 399.59 436.24 399.59C433.86 399.59 432.665 400.236 432.665 401.523C432.665 402.245 433.049 402.868 433.818 403.403C434.584 403.93 436.267 404.718 438.856 405.753C441.17 406.687 442.856 407.559 443.933 408.37C445.008 409.184 445.802 410.115 446.31 411.178C446.825 412.238 447.08 413.498 447.08 414.959Z" fill="#1E4782"/>
<path d="M466.75 424.269C461.996 424.269 458.272 422.955 455.596 420.327C452.919 417.695 451.578 413.98 451.578 409.166C451.578 404.215 452.812 400.38 455.287 397.671C457.763 394.967 461.191 393.617 465.564 393.617C469.741 393.617 472.992 394.806 475.321 397.186C477.647 399.569 478.814 402.856 478.814 407.05V410.962H459.742C459.838 413.253 460.511 415.046 461.783 416.333C463.053 417.617 464.831 418.261 467.124 418.261C468.902 418.261 470.591 418.072 472.171 417.704C473.761 417.339 475.417 416.746 477.144 415.935V422.177C475.734 422.877 474.225 423.407 472.621 423.748C471.019 424.096 469.061 424.269 466.75 424.269ZM465.618 399.356C463.909 399.356 462.562 399.901 461.598 400.985C460.628 402.062 460.077 403.604 459.927 405.598H471.246C471.207 403.604 470.693 402.065 469.687 400.985C468.684 399.901 467.325 399.356 465.618 399.356Z" fill="#1E4782"/>
<path d="M506 414.959C506 417.995 504.946 420.303 502.841 421.889C500.728 423.476 497.587 424.269 493.39 424.269C491.235 424.269 489.403 424.117 487.888 423.835C486.37 423.536 484.951 423.111 483.628 422.545V415.878C485.128 416.585 486.813 417.177 488.696 417.653C490.567 418.129 492.22 418.369 493.648 418.369C496.573 418.369 498.039 417.525 498.039 415.83C498.039 415.192 497.851 414.678 497.456 414.279C497.069 413.884 496.396 413.432 495.453 412.932C494.498 412.426 493.232 411.84 491.642 411.178C489.367 410.226 487.696 409.343 486.634 408.532C485.565 407.72 484.784 406.789 484.308 405.741C483.82 404.694 483.58 403.403 483.58 401.868C483.58 399.242 484.589 397.213 486.634 395.773C488.669 394.336 491.555 393.617 495.291 393.617C498.854 393.617 502.314 394.396 505.685 395.943L503.251 401.763C501.767 401.128 500.383 400.607 499.099 400.203C497.812 399.793 496.501 399.59 495.157 399.59C492.777 399.59 491.591 400.236 491.591 401.523C491.591 402.245 491.974 402.868 492.744 403.403C493.51 403.93 495.186 404.718 497.776 405.753C500.09 406.687 501.782 407.559 502.859 408.37C503.931 409.184 504.727 410.115 505.236 411.178C505.748 412.238 506 413.498 506 414.959Z" fill="#1E4782"/>
<path d="M172.207 474.651C168.738 474.651 166.01 473.304 164.026 470.604C162.041 467.907 161.047 464.17 161.047 459.393C161.047 454.543 162.062 450.768 164.076 448.062C166.097 445.355 168.875 443.999 172.42 443.999C176.138 443.999 178.976 445.448 180.937 448.337H181.194C180.793 446.134 180.595 444.167 180.595 442.44V432.977H188.687V474.121H182.496L180.937 470.283H180.595C178.76 473.193 175.964 474.651 172.207 474.651ZM175.042 468.221C177.105 468.221 178.617 467.622 179.578 466.425C180.536 465.227 181.059 463.189 181.146 460.315V459.443C181.146 456.27 180.655 453.995 179.676 452.624C178.7 451.247 177.111 450.561 174.907 450.561C173.108 450.561 171.71 451.325 170.716 452.848C169.719 454.375 169.226 456.588 169.226 459.497C169.226 462.407 169.725 464.587 170.728 466.041C171.734 467.496 173.174 468.221 175.042 468.221Z" fill="#1E4782"/>
<path d="M203.632 435.459L203.997 436.043C203.117 439.512 201.567 443.739 199.345 448.706H193.559C194.771 443.491 195.66 439.072 196.199 435.459H203.632Z" fill="#1E4782"/>
<path d="M208.52 436.917C208.52 434.295 209.983 432.98 212.908 432.98C215.833 432.98 217.303 434.295 217.303 436.917C217.303 438.165 216.935 439.147 216.201 439.842C215.468 440.533 214.372 440.881 212.908 440.881C209.983 440.881 208.52 439.558 208.52 436.917ZM216.929 474.122H208.864V444.557H216.929V474.122Z" fill="#1E4782"/>
<path d="M252.677 474.12H244.615V456.853C244.615 454.718 244.238 453.12 243.477 452.051C242.717 450.982 241.508 450.447 239.849 450.447C237.595 450.447 235.969 451.204 234.963 452.707C233.958 454.216 233.452 456.715 233.452 460.206V474.114H225.387V444.549H231.548L232.634 448.33H233.083C233.981 446.899 235.218 445.824 236.802 445.091C238.379 444.36 240.172 443.992 242.184 443.992C245.618 443.992 248.228 444.929 250.01 446.785C251.788 448.647 252.68 451.33 252.68 454.835V474.12H252.677Z" fill="#1E4782"/>
<path d="M281.607 465.342C281.607 468.377 280.553 470.682 278.449 472.269C276.341 473.859 273.195 474.649 268.992 474.649C266.845 474.649 265.01 474.499 263.498 474.212C261.978 473.922 260.565 473.49 259.241 472.928V466.267C260.741 466.97 262.43 467.563 264.304 468.039C266.181 468.515 267.836 468.755 269.258 468.755C272.183 468.755 273.647 467.904 273.647 466.216C273.647 465.578 273.458 465.069 273.069 464.662C272.68 464.27 272.009 463.818 271.057 463.315C270.111 462.812 268.842 462.228 267.252 461.558C264.977 460.606 263.31 459.723 262.238 458.917C261.172 458.106 260.4 457.172 259.918 456.127C259.427 455.077 259.188 453.789 259.188 452.256C259.188 449.625 260.202 447.595 262.238 446.155C264.277 444.721 267.166 444 270.902 444C274.464 444 277.928 444.775 281.296 446.329L278.862 452.146C277.383 451.514 275.994 450.993 274.701 450.583C273.419 450.179 272.111 449.972 270.77 449.972C268.39 449.972 267.199 450.619 267.199 451.909C267.199 452.631 267.585 453.25 268.348 453.786C269.114 454.313 270.794 455.097 273.383 456.139C275.695 457.073 277.392 457.944 278.464 458.756C279.541 459.564 280.335 460.501 280.841 461.561C281.353 462.618 281.607 463.878 281.607 465.342Z" fill="#1E4782"/>
<path d="M301.284 474.652C296.524 474.652 292.803 473.335 290.124 470.712C287.445 468.084 286.104 464.363 286.104 459.549C286.104 454.595 287.349 450.769 289.819 448.062C292.297 445.356 295.716 444 300.093 444C304.272 444 307.526 445.194 309.852 447.571C312.178 449.951 313.343 453.238 313.343 457.436V461.354H294.276C294.366 463.641 295.046 465.432 296.312 466.716C297.581 468.003 299.365 468.647 301.653 468.647C303.437 468.647 305.119 468.458 306.703 468.087C308.289 467.719 309.948 467.132 311.675 466.318V472.559C310.268 473.263 308.759 473.793 307.155 474.134C305.55 474.481 303.595 474.652 301.284 474.652ZM300.144 449.745C298.437 449.745 297.096 450.281 296.126 451.367C295.153 452.448 294.603 453.987 294.462 455.981H305.781C305.745 453.99 305.221 452.451 304.215 451.367C303.209 450.281 301.856 449.745 300.144 449.745Z" fill="#1E4782"/>
<path d="M336.399 444C337.498 444 338.399 444.078 339.121 444.239L338.516 451.801C337.863 451.625 337.07 451.541 336.139 451.541C333.561 451.541 331.55 452.197 330.119 453.523C328.685 454.843 327.96 456.693 327.96 459.073V474.122H319.904V444.557H326.005L327.203 449.532H327.592C328.511 447.868 329.747 446.539 331.316 445.524C332.87 444.512 334.564 444 336.399 444Z" fill="#1E4782"/>
<path d="M356.946 468.22C358.359 468.22 360.048 467.918 362.023 467.298V473.303C360.018 474.198 357.548 474.651 354.623 474.651C351.393 474.651 349.046 473.836 347.573 472.205C346.1 470.573 345.364 468.121 345.364 464.864V450.611H341.502V447.196L345.945 444.504L348.274 438.266H353.432V444.558H361.709V450.614H353.432V464.867C353.432 466.014 353.752 466.864 354.399 467.406C355.039 467.951 355.892 468.22 356.946 468.22Z" fill="#1E4782"/>
<path d="M367.656 436.917C367.656 434.295 369.117 432.98 372.048 432.98C374.976 432.98 376.44 434.295 376.44 436.917C376.44 438.165 376.071 439.147 375.341 439.842C374.608 440.533 373.509 440.881 372.048 440.881C369.117 440.881 367.656 439.558 367.656 436.917ZM376.065 474.122H367.998V444.557H376.065V474.122Z" fill="#1E4782"/>
<path d="M411.392 459.288C411.392 464.095 410.125 467.859 407.587 470.577C405.051 473.289 401.516 474.648 396.983 474.648C394.142 474.648 391.643 474.022 389.472 472.786C387.308 471.538 385.637 469.754 384.476 467.427C383.311 465.098 382.73 462.386 382.73 459.285C382.73 454.45 383.988 450.699 386.508 448.02C389.029 445.34 392.571 443.996 397.142 443.996C399.98 443.996 402.477 444.616 404.647 445.849C406.817 447.086 408.482 448.858 409.646 451.163C410.811 453.477 411.392 456.186 411.392 459.288ZM390.957 459.288C390.957 462.212 391.433 464.425 392.397 465.925C393.352 467.421 394.918 468.17 397.088 468.17C399.237 468.17 400.782 467.427 401.728 465.937C402.671 464.452 403.141 462.227 403.141 459.288C403.141 456.36 402.671 454.169 401.713 452.699C400.767 451.238 399.202 450.501 397.034 450.501C394.891 450.501 393.334 451.229 392.379 452.684C391.433 454.145 390.957 456.345 390.957 459.288Z" fill="#1E4782"/>
<path d="M445.349 474.12H437.284V456.853C437.284 454.718 436.901 453.12 436.14 452.051C435.386 450.982 434.179 450.447 432.521 450.447C430.261 450.447 428.629 451.204 427.632 452.707C426.632 454.216 426.127 456.715 426.127 460.206V474.114H418.059V444.549H424.22L425.309 448.33H425.758C426.65 446.899 427.89 445.824 429.47 445.091C431.048 444.36 432.838 443.992 434.853 443.992C438.29 443.992 440.903 444.929 442.678 446.785C444.46 448.647 445.352 451.33 445.352 454.835V474.12H445.349Z" fill="#1E4782"/>
<path d="M290.144 202.205L229.25 276.466C228.007 277.977 225.93 278.504 224.119 277.759L202.81 269.005C199.885 267.805 199.119 264.012 201.34 261.764L246.005 216.596C248.577 213.991 247.083 209.572 243.461 209.061L190.748 201.612C187.267 201.121 185.707 196.969 188.003 194.305L196.748 184.153C197.736 183.004 199.244 182.435 200.744 182.653L287.33 194.975C290.763 195.466 292.341 199.52 290.144 202.205Z" fill="#C44B32"/>
<path d="M186.92 188.836V197.155L191.357 199.661L199.233 196.931V190.369L186.92 188.836Z" fill="#C44B32"/>
<path d="M200.053 256.297V265.002L202.951 267.224L210.932 264.931L214.105 259.243L200.053 256.297Z" fill="#C44B32"/>
<path d="M291.16 190.791V199.365L287.263 201.416L279.865 198.778V191.674L291.16 190.791Z" fill="#C44B32"/>
<path d="M310.952 205.329L251.852 279.874C248.834 283.703 250.175 289.337 254.585 291.402L267.197 297.096C270.613 298.695 274.687 297.536 276.744 294.372L314.715 236.047C317.242 232.164 322.63 231.442 326.088 234.526L369.688 273.38C372.783 276.144 377.534 275.895 380.324 272.821L384.737 267.414C387.632 264.226 387.287 259.271 383.982 256.511L321.744 204.194C318.469 201.464 313.587 201.979 310.952 205.329Z" fill="#245784"/>
<path d="M250.227 276.412V284.618L253.43 286.992L260.986 282.759L255.609 276.412H250.227Z" fill="#245784"/>
<path d="M339.216 196.077L398.105 246.628C399.811 248.095 402.371 247.942 403.891 246.284L412.1 237.324C413.744 235.539 413.51 232.722 411.594 231.228L376.616 203.926C373.988 201.879 374.712 197.729 377.874 196.691L403.954 188.111C406.412 187.303 407.978 183.749 405.694 181.309L399.751 174.963C398.691 173.834 397.093 173.382 395.599 173.795L340.824 188.901C337.609 189.784 336.684 193.901 339.216 196.077Z" fill="#7D3289"/>
<path d="M413.192 228.717V234.408L411.341 236.225L406.65 233.231L410.111 228.717H413.192Z" fill="#7D3289"/>
<path d="M406.798 178.27V184.236L404.4 186.876L399.359 184.805L398.506 180.305L406.798 178.27Z" fill="#7D3289"/>
<path d="M337.762 193.4V187.125L340.821 186.018L343.731 186.745V194.786L337.762 193.4Z" fill="#7D3289"/>
<path d="M386.713 253.199L386.704 262.605L382.112 265.779L376.654 258.175L386.713 253.199Z" fill="#245784"/>
<path d="M290.144 193.62L229.25 267.889C228.007 269.401 225.93 269.925 224.119 269.177L202.81 260.426C199.885 259.22 199.119 255.43 201.34 253.181L246.005 208.01C248.577 205.412 247.083 200.987 243.461 200.478L190.748 193.033C187.267 192.542 185.707 188.393 188.003 185.725L196.748 175.577C197.736 174.43 199.244 173.859 200.744 174.077L287.33 186.399C290.763 186.881 292.341 190.943 290.144 193.62Z" fill="url(#paint0_radial_5050_577)"/>
<path d="M302.197 167.674L302.188 173.754C302.229 177.517 299.682 180.023 296.012 179.466L221.179 168.111C216.817 167.453 214.162 166.642 214.162 161.861V155.879C215.449 154.356 223.044 152.883 225.008 153.215L272.128 161.184C275.55 161.762 278.678 159.133 278.702 155.664L278.822 139.866C278.846 136.702 281.465 134.178 284.627 134.274L294.248 134.568C297.047 134.654 299.478 167.189 302.197 167.674Z" fill="#605F61"/>
<path d="M298.322 133.24L302.16 166.93C302.579 170.619 299.379 173.702 295.709 173.142L218.954 161.461C214.599 160.793 212.656 155.611 215.5 152.249L218.407 148.807C219.697 147.289 221.688 146.561 223.651 146.894L270.769 154.86C274.193 155.438 277.319 152.815 277.343 149.346L277.465 133.542C277.486 130.381 280.109 127.857 283.27 127.956L292.889 128.246C295.694 128.327 298.002 130.459 298.322 133.24Z" fill="url(#paint1_radial_5050_577)"/>
<path d="M320.381 174.417L314.175 134.646C313.586 131.611 315.532 134.242 318.621 134.362L327.431 134.715C329.47 134.802 331.233 136.164 331.826 138.116L337.391 156.536C338.113 158.919 340.541 160.353 342.977 159.838L375.3 152.967C376.931 152.617 382.787 152.512 383.94 153.728L384.781 160.715C385.236 164.203 383.006 164.67 379.437 165.541L326.228 178.159C323.567 178.812 320.902 177.111 320.381 174.417Z" fill="#2D6837"/>
<path d="M320.833 169.001L314.176 134.648C313.586 131.613 315.984 128.823 319.076 128.952L327.884 129.305C329.922 129.386 331.685 130.748 332.278 132.703L337.846 151.123C338.568 153.506 340.993 154.939 343.43 154.422L375.752 147.548C377.384 147.198 379.081 147.731 380.231 148.949L382.781 151.646C385.299 154.32 384 158.711 380.431 159.589L326.68 172.746C324.016 173.395 321.354 171.692 320.833 169.001Z" fill="url(#paint2_radial_5050_577)"/>
<path d="M339.216 190.518L398.105 241.075C399.811 242.536 402.371 242.383 403.891 240.727L412.1 231.776C413.744 229.983 413.51 227.169 411.594 225.675L376.616 198.376C373.988 196.322 374.712 192.173 377.874 191.128L403.954 182.555C406.412 181.743 407.978 178.193 405.694 175.747L399.751 169.401C398.691 168.275 397.093 167.826 395.599 168.23L340.824 183.339C337.609 184.231 336.684 188.347 339.216 190.518Z" fill="url(#paint3_radial_5050_577)"/>
<path d="M310.497 196.966L251.852 271.511C248.834 275.337 250.175 280.971 254.585 283.04L266.745 288.733C270.161 290.335 274.232 289.171 276.295 286.012L314.26 227.687C316.79 223.801 322.178 223.08 325.639 226.163L369.236 265.021C372.334 267.784 377.076 267.532 379.872 264.461L384.782 259.051C387.674 255.863 387.335 250.912 384.03 248.154L321.289 195.834C318.014 193.11 313.132 193.619 310.497 196.966Z" fill="url(#paint4_radial_5050_577)"/>
<defs>
<radialGradient id="paint0_radial_5050_577" cx="0" cy="0" r="1" gradientUnits="userSpaceOnUse" gradientTransform="translate(275.37 194.738) scale(107.722)">
<stop stop-color="#FFD04F"/>
<stop offset="0.1597" stop-color="#FCC04C"/>
<stop offset="0.4712" stop-color="#F59744"/>
<stop offset="0.9001" stop-color="#EA5437"/>
<stop offset="1" stop-color="#E74434"/>
</radialGradient>
<radialGradient id="paint1_radial_5050_577" cx="0" cy="0" r="1" gradientUnits="userSpaceOnUse" gradientTransform="translate(296.58 166.221) scale(88.6834)">
<stop stop-color="#E7E6E1"/>
<stop offset="1" stop-color="#6E6969"/>
</radialGradient>
<radialGradient id="paint2_radial_5050_577" cx="0" cy="0" r="1" gradientUnits="userSpaceOnUse" gradientTransform="translate(335.667 162.402) scale(38.5248)">
<stop stop-color="#EEDF44"/>
<stop offset="1" stop-color="#5CB24F"/>
</radialGradient>
<radialGradient id="paint3_radial_5050_577" cx="0" cy="0" r="1" gradientUnits="userSpaceOnUse" gradientTransform="translate(352.143 184.239) scale(78.4658)">
<stop stop-color="#E54992"/>
<stop offset="0.2417" stop-color="#D3438F"/>
<stop offset="0.7263" stop-color="#A33588"/>
<stop offset="0.9961" stop-color="#862C84"/>
</radialGradient>
<radialGradient id="paint4_radial_5050_577" cx="0" cy="0" r="1" gradientUnits="userSpaceOnUse" gradientTransform="translate(317.474 218.052) scale(84.4426)">
<stop offset="0.0064" stop-color="#05B8E9"/>
<stop offset="1" stop-color="#35599F"/>
</radialGradient>
</defs>
</svg>
