<?xml version="1.0" standalone="no"?>
<!DOCTYPE svg PUBLIC "-//W3C//DTD SVG 20010904//EN"
 "http://www.w3.org/TR/2001/REC-SVG-20010904/DTD/svg10.dtd">
<svg version="1.0" xmlns="http://www.w3.org/2000/svg"
 width="842.000000pt" height="842.000000pt" viewBox="0 0 842.000000 842.000000"
 preserveAspectRatio="xMidYMid meet">
<metadata>
Created by potrace 1.14, written by Peter Selinger 2001-2017
</metadata>
<g transform="translate(0.000000,842.000000) scale(0.100000,-0.100000)"
fill="#000000" stroke="none">
<path d="M3039 5372 l-22 -19 0 -569 c0 -313 3 -592 7 -619 15 -99 100 -219
194 -271 47 -27 135 -54 172 -54 25 0 28 -4 33 -52 4 -30 22 -85 42 -125 74
-150 213 -226 402 -220 114 4 112 1 113 203 0 146 -2 162 -19 178 -17 16 -48
18 -278 19 l-258 2 -1 378 c-1 274 1 377 10 378 6 1 129 2 273 3 241 1 263 3
282 20 20 18 21 29 21 165 0 80 -4 151 -8 158 -16 25 -65 29 -318 29 l-261 -1
-1 190 c0 242 15 225 -202 225 -138 0 -161 -2 -181 -18z"/>
<path d="M1980 5229 c-171 -43 -314 -148 -380 -278 -17 -34 -28 -61 -25 -61 3
0 1 -9 -5 -19 -26 -49 -31 -211 -10 -303 47 -203 193 -307 570 -407 194 -51
285 -87 329 -132 36 -35 45 -65 38 -118 -7 -56 -32 -87 -95 -118 -50 -24 -68
-28 -157 -28 -55 0 -127 6 -160 14 -77 18 -205 77 -285 131 -77 52 -105 54
-143 9 -153 -180 -173 -214 -144 -251 20 -27 139 -103 218 -141 180 -85 304
-112 514 -111 395 1 630 193 648 528 14 249 -109 408 -393 511 -68 24 -223 69
-277 81 -50 10 -166 54 -207 78 -70 41 -95 119 -60 191 44 93 201 122 382 69
58 -16 180 -72 227 -104 65 -44 84 -31 192 130 78 117 79 131 6 180 -107 72
-255 131 -392 155 -112 20 -300 17 -391 -6z"/>
<path d="M4565 4845 c-228 -58 -404 -223 -481 -452 -34 -101 -39 -140 -38
-273 2 -136 19 -212 75 -325 70 -143 197 -260 349 -323 108 -44 213 -61 350
-57 177 6 310 51 431 146 124 98 123 109 -30 239 -75 64 -89 66 -158 19 -81
-55 -154 -80 -244 -84 -125 -6 -217 24 -288 95 -36 36 -96 138 -86 148 2 2
217 4 478 5 388 0 477 3 493 14 16 12 19 27 19 106 -1 161 -22 266 -75 384
-77 168 -192 277 -365 343 -108 41 -302 48 -430 15z m268 -312 c94 -26 161
-97 203 -215 10 -29 10 -38 1 -39 -7 -1 -142 -2 -301 -3 -221 -1 -290 2 -293
11 -8 20 51 135 88 171 80 81 186 107 302 75z"/>
<path d="M6329 4854 c-80 -18 -173 -71 -241 -139 l-63 -62 -1 75 c0 109 -2
110 -203 110 -143 -1 -162 -3 -181 -20 -20 -19 -20 -26 -20 -838 0 -807 0
-820 20 -840 18 -18 33 -20 183 -20 153 0 165 1 183 21 17 19 19 40 19 244 l0
223 46 -43 c57 -53 119 -93 184 -118 74 -28 99 -32 220 -31 93 0 123 5 190 28
272 94 434 340 438 671 2 138 -4 195 -34 291 -100 327 -419 520 -740 448z
m153 -352 c68 -30 109 -64 150 -124 87 -128 93 -327 14 -462 -85 -145 -282
-206 -429 -132 -126 64 -197 192 -198 356 0 135 61 266 152 327 95 63 218 77
311 35z"/>
</g>
</svg>
