<svg width="600" height="600" viewBox="0 0 600 600" fill="none" xmlns="http://www.w3.org/2000/svg">
<rect width="600" height="600" rx="50" fill="#F6F5FC"/>
<g filter="url(#filter0_d_5050_585)">
<path d="M155.169 189.5H487.002V369.438C487.002 374.961 485.914 380.431 483.8 385.535C481.686 390.638 478.588 395.275 474.682 399.181C470.776 403.087 466.139 406.185 461.035 408.299C455.932 410.413 450.462 411.501 444.938 411.501H113.105V231.563C113.105 220.407 117.537 209.708 125.426 201.82C133.314 193.932 144.013 189.5 155.169 189.5V189.5Z" fill="#EC6607"/>
</g>
<path d="M164.515 189.5H479.99V367.101C479.99 378.876 475.313 390.17 466.986 398.496C458.659 406.823 447.366 411.501 435.59 411.501H120.115V233.9C120.115 222.125 124.793 210.831 133.12 202.505C141.446 194.178 152.74 189.5 164.515 189.5V189.5Z" fill="white"/>
<path d="M275.329 381.915C275.771 382.797 275.977 383.778 275.927 384.764H270.601C270.589 383.686 270.864 382.625 271.398 381.688C271.617 381.365 271.915 381.104 272.264 380.929C272.613 380.754 273.002 380.672 273.391 380.691C273.785 380.663 274.177 380.75 274.522 380.942C274.866 381.135 275.146 381.423 275.329 381.773V381.915ZM271.683 389.433C271.004 388.639 270.63 387.629 270.629 386.584H277.75C278.063 386.584 278.205 386.414 278.205 386.1V384.822C278.219 383.978 278.123 383.136 277.92 382.317C277.763 381.717 277.503 381.148 277.151 380.637C276.766 380.102 276.245 379.68 275.642 379.412C274.977 379.09 274.244 378.934 273.506 378.957C272.784 378.916 272.062 379.05 271.403 379.347C270.743 379.645 270.165 380.097 269.718 380.665C268.698 382.171 268.217 383.978 268.351 385.792C268.226 387.613 268.751 389.42 269.832 390.891C270.384 391.494 271.066 391.964 271.826 392.265C272.585 392.565 273.404 392.689 274.219 392.627C274.821 392.63 275.422 392.573 276.013 392.457C276.521 392.342 277.018 392.18 277.495 391.973C277.61 391.941 277.711 391.871 277.78 391.774C277.804 391.721 277.816 391.662 277.816 391.604C277.816 391.545 277.804 391.487 277.78 391.433L277.467 390.407C277.467 390.094 277.154 389.98 276.869 390.122C276.499 390.281 276.119 390.414 275.731 390.522C275.265 390.571 274.795 390.571 274.329 390.522C273.853 390.552 273.376 390.481 272.929 390.315C272.483 390.148 272.077 389.889 271.737 389.554L271.683 389.433ZM260.35 377.274C260.319 377.31 260.302 377.356 260.302 377.403C260.302 377.45 260.319 377.495 260.35 377.531H261.546C261.773 377.509 261.984 377.408 262.144 377.246L264.138 375.197C264.166 375.094 264.166 374.986 264.138 374.883C264.109 374.834 264.067 374.795 264.016 374.769C263.966 374.744 263.909 374.734 263.852 374.741H261.859C261.747 374.718 261.631 374.718 261.518 374.741C261.43 374.807 261.361 374.896 261.319 374.998L260.35 377.274ZM263.425 381.887C263.843 382.776 264.039 383.754 263.995 384.736H258.695C258.656 383.659 258.922 382.592 259.464 381.66C259.683 381.337 259.981 381.075 260.33 380.901C260.679 380.726 261.067 380.644 261.457 380.663C261.854 380.636 262.25 380.724 262.598 380.915C262.947 381.107 263.233 381.395 263.422 381.744L263.425 381.887ZM259.777 389.405C259.09 388.613 258.707 387.604 258.695 386.556H265.757C266.07 386.556 266.213 386.385 266.213 386.072V384.792C266.226 383.948 266.13 383.106 265.928 382.287C265.774 381.594 265.472 380.943 265.044 380.377C264.669 379.844 264.157 379.421 263.563 379.153C262.887 378.834 262.146 378.678 261.399 378.697C260.677 378.659 259.956 378.794 259.297 379.091C258.638 379.388 258.06 379.839 257.611 380.405C256.603 381.916 256.131 383.722 256.272 385.533C256.138 387.351 256.653 389.157 257.725 390.632C258.281 391.237 258.967 391.708 259.732 392.009C260.497 392.31 261.32 392.433 262.14 392.368C262.733 392.372 263.325 392.315 263.906 392.197C264.414 392.083 264.91 391.921 265.388 391.714C265.503 391.682 265.603 391.612 265.673 391.515V391.174L265.388 390.148C265.384 390.08 265.362 390.015 265.324 389.959C265.286 389.903 265.234 389.858 265.173 389.829C265.112 389.8 265.044 389.787 264.977 389.793C264.909 389.799 264.845 389.823 264.79 389.863C264.409 390.022 264.019 390.155 263.621 390.262C263.167 390.311 262.708 390.311 262.254 390.262C261.778 390.295 261.301 390.225 260.854 390.058C260.407 389.892 260.001 389.631 259.662 389.295L259.777 389.405ZM254.365 381.35C254.47 381.366 254.576 381.34 254.662 381.277C254.747 381.214 254.804 381.12 254.821 381.015C254.826 380.975 254.826 380.934 254.821 380.894V379.697C254.837 379.593 254.81 379.486 254.748 379.4C254.685 379.315 254.591 379.258 254.486 379.242C254.446 379.236 254.405 379.236 254.365 379.242H252.028V376.391C252.028 376.106 251.857 375.963 251.544 375.963H250.121C250.024 375.947 249.925 375.969 249.845 376.026C249.765 376.082 249.711 376.168 249.693 376.265C249.688 376.306 249.688 376.349 249.693 376.391V379.239H248.382C248.278 379.223 248.171 379.249 248.085 379.312C248 379.375 247.943 379.469 247.927 379.574C247.921 379.614 247.921 379.655 247.927 379.695V380.892C247.911 380.996 247.937 381.103 248 381.189C248.062 381.274 248.156 381.331 248.261 381.347C248.301 381.353 248.342 381.353 248.382 381.347H249.663V388.608C249.592 389.617 249.863 390.62 250.432 391.456C250.776 391.773 251.182 392.012 251.625 392.16C252.069 392.307 252.538 392.359 253.002 392.312H253.886C254.118 392.289 254.346 392.241 254.568 392.169C254.674 392.133 254.771 392.075 254.853 391.999C254.885 391.897 254.885 391.787 254.853 391.685L254.655 390.547C254.661 390.493 254.655 390.439 254.637 390.387C254.619 390.336 254.59 390.289 254.552 390.251C254.513 390.212 254.467 390.183 254.415 390.165C254.364 390.147 254.309 390.141 254.255 390.148H253.486C252.86 390.148 252.432 390.148 252.234 389.748C251.996 389.253 251.898 388.702 251.949 388.154V381.177L254.365 381.35ZM246.076 375.37C246.076 375.056 245.933 374.914 245.648 374.914H244.055C243.77 374.914 243.627 375.056 243.627 375.37V377.111C243.627 377.424 243.77 377.594 244.055 377.594H245.821C246.106 377.594 246.249 377.424 246.249 377.111L246.076 375.37ZM246.076 379.576C246.076 379.263 245.933 379.092 245.648 379.092H244.111C243.826 379.092 243.683 379.263 243.683 379.576V391.856C243.667 391.953 243.689 392.052 243.746 392.132C243.802 392.212 243.888 392.267 243.985 392.284C244.026 392.289 244.069 392.289 244.111 392.284H245.819C245.916 392.3 246.015 392.277 246.095 392.221C246.175 392.165 246.229 392.079 246.247 391.982C246.252 391.94 246.252 391.898 246.247 391.856L246.076 379.576ZM240.636 375.276C240.636 374.963 240.636 374.82 240.208 374.82H238.671C238.385 374.82 238.243 374.963 238.243 375.276V391.856C238.227 391.953 238.249 392.052 238.306 392.132C238.362 392.212 238.448 392.267 238.544 392.284C238.586 392.289 238.629 392.289 238.671 392.284H240.208C240.305 392.3 240.404 392.277 240.484 392.221C240.564 392.165 240.619 392.079 240.636 391.982C240.642 391.94 240.642 391.898 240.636 391.856V375.276ZM235.224 375.276C235.224 374.963 235.081 374.82 234.796 374.82H233.202C232.917 374.82 232.775 374.963 232.775 375.276V377.012C232.775 377.326 232.917 377.496 233.202 377.496H234.796C235.081 377.496 235.224 377.326 235.224 377.012V375.276ZM235.224 379.482C235.224 379.169 235.224 378.999 234.796 378.999H233.258C232.973 378.999 232.831 379.169 232.831 379.482V391.758C232.814 391.855 232.837 391.954 232.893 392.034C232.95 392.114 233.036 392.168 233.132 392.186C233.174 392.191 233.217 392.191 233.258 392.186H234.796C234.893 392.202 234.992 392.179 235.072 392.123C235.152 392.066 235.207 391.981 235.224 391.884C235.229 391.842 235.229 391.8 235.224 391.758V379.482ZM223.427 390.898C223.93 391.466 224.556 391.912 225.257 392.203C225.957 392.494 226.715 392.622 227.472 392.578C228.01 392.582 228.546 392.515 229.066 392.38C229.45 392.301 229.822 392.177 230.176 392.01L230.517 391.777C230.554 391.727 230.575 391.668 230.575 391.606C230.575 391.544 230.554 391.485 230.517 391.435L230.148 390.267C230.13 390.16 230.081 390.06 230.006 389.982C229.886 389.942 229.756 389.942 229.636 389.982C229.341 390.102 229.036 390.198 228.725 390.267C228.338 390.324 227.944 390.324 227.556 390.267C227.105 390.294 226.654 390.207 226.245 390.013C225.837 389.819 225.484 389.524 225.22 389.157C224.703 388.036 224.436 386.817 224.436 385.583C224.436 384.349 224.703 383.129 225.22 382.009C225.499 381.644 225.863 381.353 226.28 381.16C226.696 380.966 227.154 380.877 227.613 380.899C227.954 380.867 228.297 380.867 228.638 380.899L229.435 381.132C229.776 381.132 229.977 381.132 230.062 380.875L230.431 379.737C230.468 379.688 230.488 379.628 230.488 379.567C230.488 379.505 230.468 379.445 230.431 379.396C230.356 379.296 230.258 379.216 230.146 379.162C229.796 378.991 229.421 378.876 229.036 378.821C228.475 378.699 227.902 378.642 227.327 378.65C226.591 378.611 225.856 378.742 225.179 379.033C224.502 379.325 223.902 379.769 223.425 380.331C222.506 381.889 222.024 383.666 222.029 385.476C222.034 387.285 222.526 389.059 223.453 390.613L223.427 390.898ZM219.688 379.214C219.704 379.102 219.674 378.988 219.606 378.898C219.537 378.807 219.436 378.748 219.324 378.732C219.293 378.729 219.263 378.729 219.233 378.732H217.779C217.438 378.732 217.295 378.875 217.295 379.16V380.527C217.016 379.902 216.535 379.39 215.928 379.073C215.282 378.692 214.543 378.495 213.792 378.503C213.119 378.471 212.448 378.608 211.841 378.901C211.234 379.195 210.71 379.636 210.318 380.183C209.38 381.721 208.951 383.515 209.093 385.311C208.959 387.123 209.387 388.933 210.318 390.494C210.713 391.03 211.234 391.461 211.835 391.749C212.436 392.038 213.098 392.174 213.764 392.146C214.527 392.166 215.282 391.99 215.956 391.634C216.578 391.324 217.064 390.797 217.323 390.152V392.022C217.323 392.279 217.466 392.422 217.807 392.422H219.261C219.365 392.437 219.472 392.41 219.557 392.347C219.642 392.284 219.698 392.19 219.714 392.085C219.717 392.055 219.717 392.024 219.714 391.994L219.688 379.214ZM216.498 389.183C216.271 389.549 215.952 389.85 215.572 390.055C215.192 390.26 214.766 390.362 214.335 390.351C213.911 390.377 213.489 390.288 213.113 390.092C212.736 389.897 212.421 389.602 212.199 389.241C211.658 388.096 211.423 386.83 211.516 385.568C211.423 384.314 211.658 383.057 212.199 381.922C212.424 381.57 212.738 381.284 213.109 381.093C213.481 380.901 213.896 380.812 214.314 380.833C214.742 380.819 215.167 380.917 215.546 381.116C215.925 381.316 216.246 381.61 216.477 381.971C216.984 383.104 217.246 384.332 217.246 385.573C217.246 386.815 216.984 388.042 216.477 389.176L216.498 389.183ZM205.284 379.127V378.302C205.23 377.829 205.351 377.353 205.625 376.963C205.763 376.828 205.929 376.725 206.111 376.661C206.293 376.597 206.487 376.574 206.679 376.594H207.646C207.705 376.602 207.764 376.597 207.819 376.578C207.875 376.56 207.925 376.528 207.967 376.487C208.008 376.445 208.04 376.395 208.058 376.339C208.077 376.284 208.082 376.224 208.074 376.166V375.141C208.086 375.043 208.065 374.945 208.013 374.862C207.961 374.779 207.882 374.716 207.789 374.685H206.322C205.865 374.648 205.407 374.703 204.971 374.844C204.536 374.986 204.133 375.212 203.786 375.51C203.464 375.905 203.225 376.36 203.083 376.85C202.941 377.339 202.9 377.852 202.961 378.358V379.356H201.709C201.423 379.356 201.281 379.356 201.281 379.812V381.008C201.266 381.113 201.292 381.22 201.355 381.305C201.418 381.39 201.513 381.446 201.617 381.462C201.648 381.466 201.678 381.466 201.709 381.462H202.961V392.027C202.961 392.284 202.961 392.426 203.445 392.426H204.926C205.212 392.426 205.354 392.426 205.354 392.027V381.49H207.632C207.738 381.498 207.842 381.465 207.923 381.396C208.003 381.328 208.054 381.23 208.062 381.125C208.067 381.095 208.067 381.064 208.062 381.034V379.838C208.062 379.524 207.92 379.382 207.635 379.382L205.284 379.127ZM193.6 381.23C193.712 381.246 193.825 381.216 193.916 381.148C194.006 381.079 194.065 380.978 194.081 380.866C194.084 380.836 194.084 380.805 194.081 380.775V379.578C194.081 379.265 193.91 379.123 193.597 379.123H191.26V376.276C191.26 375.991 191.26 375.849 190.805 375.849H189.382C189.277 375.833 189.17 375.86 189.085 375.923C189 375.986 188.944 376.08 188.928 376.185C188.924 376.215 188.924 376.246 188.928 376.276V379.125H187.673C187.569 379.109 187.462 379.135 187.376 379.198C187.291 379.26 187.234 379.354 187.218 379.459C187.212 379.499 187.212 379.54 187.218 379.581V380.777C187.202 380.882 187.228 380.989 187.29 381.074C187.353 381.16 187.447 381.217 187.552 381.233C187.592 381.238 187.633 381.238 187.673 381.233H188.87V388.496C188.799 389.505 189.069 390.508 189.639 391.344C189.982 391.661 190.389 391.9 190.832 392.048C191.275 392.195 191.745 392.247 192.209 392.2C192.494 392.228 192.78 392.228 193.065 392.2C193.303 392.178 193.538 392.131 193.766 392.057C193.871 392.02 193.968 391.962 194.051 391.886C194.082 391.784 194.082 391.675 194.051 391.573L193.852 390.435C193.858 390.381 193.852 390.326 193.835 390.275C193.817 390.224 193.788 390.177 193.749 390.139C193.711 390.1 193.664 390.071 193.613 390.053C193.561 390.035 193.506 390.029 193.452 390.036H192.684C192.029 390.036 191.63 390.036 191.431 389.636C191.174 389.147 191.065 388.593 191.118 388.042V381.062L193.6 381.23ZM185.825 387.21C185.68 386.812 185.447 386.452 185.143 386.156C184.836 385.829 184.48 385.551 184.089 385.332C183.658 385.069 183.211 384.835 182.75 384.63C182.105 384.34 181.486 383.997 180.899 383.605C180.571 383.338 180.362 382.952 180.318 382.531C180.274 382.111 180.399 381.69 180.665 381.361C180.735 381.276 180.813 381.197 180.899 381.128C181.427 380.832 182.032 380.704 182.635 380.758C183.061 380.713 183.49 380.713 183.916 380.758L184.942 381.015C185.227 381.015 185.369 381.015 185.425 380.702L185.71 379.592C185.727 379.483 185.701 379.372 185.637 379.282C185.574 379.192 185.478 379.13 185.369 379.109C184.937 378.944 184.488 378.829 184.03 378.767C183.446 378.676 182.855 378.628 182.264 378.625C181.117 378.534 179.975 378.858 179.046 379.536C178.686 379.879 178.405 380.296 178.223 380.759C178.041 381.221 177.962 381.718 177.992 382.214C177.983 382.732 178.08 383.245 178.277 383.724C178.444 384.107 178.682 384.455 178.978 384.75C179.296 385.03 179.65 385.266 180.032 385.451L181.256 386.077C181.907 386.376 182.533 386.729 183.126 387.131C183.503 387.42 183.751 387.848 183.813 388.319C183.876 388.79 183.749 389.268 183.46 389.645C183.363 389.771 183.251 389.883 183.126 389.98C182.555 390.273 181.916 390.41 181.275 390.379C180.773 390.428 180.268 390.428 179.766 390.379C179.368 390.306 178.978 390.201 178.597 390.066C178.284 390.066 178.113 390.066 178.055 390.351L177.798 391.52V391.833L178.111 392.003C178.594 392.167 179.089 392.291 179.593 392.372C180.228 392.418 180.866 392.418 181.502 392.372C182.665 392.432 183.818 392.133 184.806 391.517C185.232 391.182 185.567 390.746 185.781 390.249C185.995 389.751 186.081 389.208 186.031 388.669C186.041 388.172 185.954 387.678 185.774 387.215L185.825 387.21ZM173.155 381.803C173.588 382.687 173.784 383.669 173.725 384.652H168.472C168.432 383.574 168.699 382.508 169.24 381.576C169.462 381.255 169.76 380.996 170.109 380.821C170.457 380.647 170.844 380.563 171.234 380.578C171.63 380.552 172.027 380.64 172.375 380.831C172.723 381.023 173.009 381.311 173.199 381.66L173.155 381.803ZM169.553 389.321C168.874 388.527 168.501 387.517 168.5 386.472H175.592C175.704 386.488 175.818 386.459 175.909 386.391C175.999 386.323 176.059 386.222 176.076 386.11C176.081 386.069 176.081 386.029 176.076 385.988V384.708C176.075 383.865 175.979 383.024 175.791 382.203C175.625 381.514 175.325 380.865 174.907 380.293C174.514 379.766 173.995 379.345 173.398 379.069C172.724 378.742 171.981 378.586 171.234 378.613C170.512 378.575 169.791 378.71 169.132 379.007C168.473 379.304 167.895 379.755 167.446 380.321C166.451 381.838 165.981 383.639 166.107 385.448C165.973 387.266 166.488 389.073 167.56 390.547C168.117 391.152 168.803 391.622 169.568 391.923C170.332 392.223 171.155 392.347 171.974 392.284C172.577 392.287 173.178 392.23 173.769 392.113C174.268 391.999 174.755 391.837 175.223 391.629C175.345 391.598 175.455 391.528 175.536 391.431C175.56 391.377 175.572 391.319 175.572 391.26C175.572 391.201 175.56 391.143 175.536 391.09L175.251 390.064C175.251 389.751 174.938 389.636 174.652 389.779C174.272 389.938 173.882 390.071 173.484 390.178C173.03 390.227 172.571 390.227 172.117 390.178C171.641 390.208 171.165 390.138 170.718 389.971C170.271 389.804 169.865 389.545 169.525 389.211" fill="#EC6607"/>
<path d="M407.959 358.488C407.797 358.086 407.559 357.718 407.258 357.406C406.936 357.096 406.582 356.82 406.204 356.582C405.779 356.315 405.331 356.086 404.865 355.899C404.096 355.5 403.463 355.158 403.014 354.873C402.811 354.74 402.645 354.558 402.531 354.344C402.417 354.13 402.358 353.891 402.36 353.649C402.341 353.407 402.38 353.165 402.474 352.942C402.569 352.719 402.715 352.522 402.902 352.368C403.44 352.103 404.04 351.985 404.638 352.027C405.064 351.979 405.493 351.979 405.919 352.027L406.945 352.312C407.23 352.312 407.4 352.312 407.428 351.971L407.714 350.889C407.715 350.779 407.683 350.672 407.622 350.581C407.561 350.489 407.474 350.418 407.372 350.377C406.935 350.237 406.487 350.133 406.033 350.064C405.446 350.004 404.854 350.004 404.267 350.064C403.119 349.965 401.974 350.289 401.049 350.975C400.689 351.312 400.407 351.723 400.225 352.181C400.043 352.639 399.964 353.131 399.995 353.623C399.986 354.15 400.083 354.672 400.28 355.161C400.439 355.54 400.678 355.88 400.981 356.159C401.297 356.453 401.651 356.702 402.035 356.899L403.288 357.498C403.935 357.803 404.555 358.163 405.141 358.575C405.359 358.721 405.537 358.921 405.656 359.155C405.776 359.39 405.833 359.651 405.823 359.914C405.851 360.174 405.81 360.437 405.705 360.677C405.6 360.917 405.435 361.125 405.225 361.281C404.655 361.577 404.016 361.715 403.374 361.681C402.872 361.729 402.366 361.729 401.864 361.681C401.468 361.603 401.078 361.499 400.696 361.367C400.383 361.367 400.212 361.367 400.184 361.681L399.899 362.849C399.877 362.893 399.865 362.942 399.865 362.992C399.865 363.041 399.877 363.09 399.899 363.134C399.983 363.223 400.093 363.282 400.212 363.305C400.695 363.469 401.191 363.592 401.694 363.674C402.333 363.79 402.981 363.848 403.631 363.844C404.783 363.897 405.924 363.599 406.903 362.989C407.326 362.653 407.66 362.216 407.874 361.719C408.088 361.222 408.175 360.68 408.127 360.141C408.131 359.656 408.052 359.175 407.894 358.717L407.959 358.488ZM395.249 353.277C395.686 354.161 395.892 355.141 395.847 356.126H390.521C390.488 355.04 390.754 353.967 391.29 353.022C391.517 352.703 391.822 352.446 392.176 352.277C392.529 352.108 392.92 352.031 393.312 352.055C393.702 352.024 394.093 352.107 394.437 352.295C394.78 352.482 395.063 352.765 395.249 353.109V353.277ZM391.603 360.769C390.924 359.975 390.55 358.965 390.549 357.921H397.642C397.955 357.921 398.125 357.778 398.125 357.465V356.184C398.126 355.331 398.031 354.481 397.84 353.649C397.667 352.963 397.368 352.316 396.957 351.74C396.556 351.219 396.039 350.8 395.447 350.515C394.776 350.215 394.047 350.069 393.312 350.087C392.586 350.049 391.861 350.184 391.197 350.481C390.534 350.778 389.951 351.229 389.495 351.796C388.492 353.308 388.02 355.112 388.156 356.923C388.018 358.746 388.545 360.557 389.638 362.022C390.192 362.622 390.874 363.089 391.633 363.39C392.393 363.69 393.21 363.816 394.024 363.758C394.628 363.752 395.229 363.685 395.819 363.559C396.317 363.455 396.804 363.303 397.273 363.104C397.39 363.061 397.497 362.993 397.586 362.905C397.615 362.853 397.63 362.794 397.63 362.734C397.63 362.675 397.615 362.616 397.586 362.564L397.301 361.538C397.301 361.197 396.987 361.11 396.702 361.225C396.328 361.399 395.936 361.533 395.534 361.624C395.08 361.676 394.621 361.676 394.167 361.624C393.689 361.648 393.212 361.572 392.765 361.4C392.319 361.228 391.914 360.965 391.575 360.627L391.603 360.769ZM381.305 350.162C381.2 350.146 381.093 350.172 381.008 350.235C380.922 350.298 380.865 350.392 380.849 350.496C380.844 350.537 380.844 350.578 380.849 350.618V362.893C380.833 362.998 380.859 363.105 380.922 363.19C380.985 363.276 381.079 363.333 381.183 363.349C381.224 363.355 381.265 363.355 381.305 363.349H382.814C382.867 363.359 382.921 363.358 382.974 363.346C383.026 363.334 383.075 363.312 383.119 363.281C383.163 363.25 383.199 363.21 383.227 363.165C383.255 363.119 383.274 363.068 383.282 363.015C383.287 362.975 383.287 362.934 383.282 362.893V356.61C383.271 356.09 383.338 355.572 383.48 355.072C383.579 354.615 383.762 354.18 384.023 353.791C384.24 353.454 384.533 353.172 384.878 352.966C385.203 352.764 385.577 352.656 385.96 352.653H386.661C386.753 352.685 386.854 352.685 386.946 352.653C386.967 352.604 386.978 352.551 386.978 352.497C386.978 352.443 386.967 352.39 386.946 352.34V350.517C386.946 350.232 386.803 350.09 386.49 350.09C386.071 350.091 385.656 350.171 385.266 350.323C384.919 350.458 384.594 350.64 384.298 350.866C384.026 351.078 383.795 351.339 383.616 351.634C383.425 351.886 383.272 352.164 383.16 352.459V350.63C383.16 350.344 383.018 350.202 382.705 350.202L381.305 350.162ZM377.916 346.423C377.916 346.11 377.916 345.939 377.489 345.939H375.895C375.838 345.934 375.781 345.94 375.727 345.957C375.673 345.974 375.622 346.001 375.579 346.038C375.535 346.074 375.5 346.119 375.474 346.17C375.448 346.22 375.432 346.275 375.428 346.332C375.425 346.362 375.425 346.393 375.428 346.423V348.16C375.412 348.264 375.438 348.371 375.5 348.457C375.563 348.542 375.657 348.599 375.762 348.615C375.802 348.621 375.843 348.621 375.883 348.615H377.477C377.762 348.615 377.905 348.615 377.905 348.16L377.916 346.423ZM377.916 350.611C377.932 350.506 377.906 350.399 377.844 350.314C377.781 350.228 377.687 350.171 377.582 350.155C377.542 350.15 377.501 350.15 377.461 350.155H375.951C375.846 350.139 375.74 350.165 375.654 350.228C375.569 350.291 375.512 350.385 375.495 350.489C375.49 350.53 375.49 350.571 375.495 350.611V362.886C375.479 362.991 375.505 363.098 375.568 363.183C375.631 363.269 375.725 363.326 375.83 363.342C375.87 363.348 375.911 363.348 375.951 363.342H377.461C377.565 363.358 377.672 363.332 377.758 363.269C377.843 363.207 377.9 363.113 377.916 363.008C377.922 362.968 377.922 362.927 377.916 362.886V350.611ZM372.591 350.611C372.607 350.506 372.581 350.399 372.518 350.314C372.455 350.228 372.361 350.171 372.257 350.155C372.216 350.15 372.175 350.15 372.135 350.155H370.681C370.368 350.155 370.198 350.155 370.198 350.583V351.922C369.885 351.32 369.412 350.817 368.831 350.468C368.182 350.096 367.443 349.908 366.695 349.926C366.024 349.889 365.354 350.02 364.747 350.309C364.14 350.598 363.615 351.034 363.22 351.578C362.277 353.124 361.848 354.929 361.995 356.733C361.855 358.546 362.283 360.358 363.22 361.917C363.617 362.451 364.139 362.881 364.739 363.169C365.34 363.457 366.001 363.594 366.667 363.569C367.429 363.586 368.183 363.41 368.859 363.057C369.474 362.734 369.951 362.197 370.198 361.547V362.914C370.198 363.199 370.368 363.342 370.681 363.342H372.135C372.24 363.358 372.347 363.332 372.432 363.269C372.518 363.207 372.575 363.113 372.591 363.008C372.596 362.968 372.596 362.927 372.591 362.886V350.611ZM369.387 360.367C369.16 360.732 368.84 361.03 368.459 361.23C368.079 361.43 367.652 361.525 367.223 361.505C366.805 361.528 366.388 361.437 366.017 361.242C365.647 361.046 365.337 360.754 365.12 360.395C364.168 358.058 364.168 355.442 365.12 353.104C365.337 352.746 365.647 352.453 366.017 352.258C366.388 352.062 366.805 351.971 367.223 351.994C367.655 351.981 368.082 352.082 368.462 352.287C368.842 352.492 369.161 352.794 369.387 353.163C370.003 354.254 370.28 355.503 370.184 356.752C370.279 358.01 370.001 359.268 369.387 360.37V360.367ZM352.765 355.303C352.741 354.544 352.983 353.801 353.447 353.2C353.672 352.925 353.958 352.707 354.283 352.564C354.608 352.42 354.962 352.356 355.317 352.375C355.608 352.337 355.904 352.378 356.174 352.493C356.445 352.608 356.68 352.793 356.854 353.03C357.156 353.605 357.294 354.251 357.254 354.899V363.132C357.254 363.445 357.425 363.587 357.738 363.587H359.247C359.532 363.587 359.675 363.587 359.675 363.132V354.586C359.734 353.464 359.424 352.353 358.792 351.424C358.449 351.011 358.01 350.688 357.513 350.484C357.017 350.28 356.477 350.202 355.943 350.256C355.189 350.21 354.437 350.385 353.78 350.758C353.123 351.131 352.588 351.687 352.241 352.359C352.05 351.731 351.661 351.181 351.131 350.793C350.504 350.399 349.769 350.209 349.028 350.251C348.614 350.245 348.201 350.302 347.804 350.422C347.463 350.542 347.138 350.705 346.836 350.905C346.582 351.073 346.352 351.275 346.152 351.504C345.989 351.718 345.846 351.946 345.724 352.186V350.905C345.724 350.62 345.724 350.478 345.268 350.478H343.822C343.717 350.462 343.61 350.488 343.525 350.55C343.439 350.613 343.382 350.707 343.366 350.812C343.36 350.852 343.36 350.893 343.366 350.933V363.209C343.35 363.314 343.376 363.42 343.439 363.506C343.501 363.591 343.595 363.648 343.7 363.665C343.741 363.67 343.781 363.67 343.822 363.665H345.502C345.787 363.665 345.93 363.665 345.93 363.209V355.303C345.89 354.488 346.131 353.684 346.612 353.025C346.841 352.736 347.138 352.507 347.475 352.358C347.812 352.209 348.181 352.144 348.549 352.17C348.836 352.136 349.127 352.178 349.392 352.293C349.657 352.408 349.887 352.591 350.059 352.824C350.347 353.403 350.485 354.046 350.458 354.693V362.924C350.458 363.237 350.629 363.379 350.942 363.379H352.424C352.528 363.396 352.635 363.369 352.721 363.307C352.806 363.244 352.863 363.15 352.879 363.045C352.885 363.005 352.885 362.964 352.879 362.924L352.765 355.303ZM340.489 346.76C340.489 346.447 340.347 346.276 340.062 346.276H338.468C338.411 346.271 338.354 346.276 338.3 346.293C338.246 346.31 338.195 346.338 338.152 346.374C338.108 346.411 338.073 346.456 338.047 346.506C338.021 346.557 338.005 346.612 338.001 346.669C337.998 346.699 337.998 346.729 338.001 346.76V348.496C337.985 348.601 338.011 348.708 338.073 348.793C338.136 348.879 338.23 348.936 338.335 348.952C338.375 348.957 338.416 348.957 338.456 348.952H340.05C340.335 348.952 340.478 348.952 340.478 348.496L340.489 346.76ZM340.489 350.947C340.505 350.843 340.479 350.736 340.417 350.65C340.354 350.565 340.26 350.508 340.155 350.492C340.115 350.486 340.074 350.486 340.034 350.492H338.524C338.419 350.476 338.312 350.502 338.227 350.564C338.142 350.627 338.085 350.721 338.068 350.826C338.063 350.866 338.063 350.907 338.068 350.947V363.223C338.052 363.328 338.078 363.434 338.141 363.52C338.204 363.605 338.298 363.662 338.403 363.679C338.443 363.684 338.484 363.684 338.524 363.679H340.034C340.138 363.695 340.245 363.668 340.331 363.606C340.416 363.543 340.473 363.449 340.489 363.344C340.495 363.304 340.495 363.263 340.489 363.223V350.947ZM330.266 350.492C329.924 350.492 329.782 350.492 329.782 350.947V363.223C329.782 363.536 329.924 363.679 330.266 363.679H331.747C331.852 363.695 331.959 363.668 332.044 363.606C332.13 363.543 332.187 363.449 332.203 363.344C332.208 363.304 332.208 363.263 332.203 363.223V356.923C332.206 356.404 332.273 355.888 332.402 355.385C332.513 354.932 332.696 354.5 332.944 354.104C333.177 353.78 333.467 353.501 333.799 353.28C334.134 353.078 334.518 352.97 334.909 352.966H335.591C335.683 353.004 335.785 353.004 335.876 352.966C335.898 352.917 335.908 352.864 335.908 352.81C335.908 352.756 335.898 352.703 335.876 352.653V350.831C335.876 350.545 335.876 350.403 335.421 350.403C335.011 350.403 334.604 350.482 334.224 350.637C333.875 350.765 333.549 350.948 333.257 351.179C332.981 351.393 332.744 351.653 332.556 351.948C332.365 352.195 332.22 352.474 332.128 352.772V350.95C332.128 350.665 331.958 350.522 331.644 350.522L330.266 350.492ZM321.409 348.669C321.381 348.711 321.366 348.761 321.366 348.811C321.366 348.862 321.381 348.912 321.409 348.954H322.72C322.834 348.95 322.946 348.923 323.049 348.874C323.152 348.825 323.243 348.755 323.318 348.669L325.312 346.648C325.337 346.599 325.35 346.546 325.35 346.491C325.35 346.436 325.337 346.383 325.312 346.334C325.292 346.277 325.253 346.228 325.201 346.196C325.148 346.165 325.087 346.153 325.026 346.164H323.033C322.923 346.121 322.802 346.121 322.692 346.164C322.604 346.23 322.535 346.319 322.493 346.421L321.409 348.669ZM324.484 353.282C324.897 354.173 325.092 355.149 325.054 356.131H319.869C319.836 355.045 320.102 353.972 320.638 353.027C320.859 352.708 321.158 352.451 321.507 352.281C321.857 352.112 322.244 352.036 322.631 352.06C323.025 352.03 323.419 352.114 323.767 352.301C324.115 352.487 324.403 352.769 324.596 353.114L324.484 353.282ZM320.951 360.774C320.264 359.983 319.881 358.973 319.869 357.925H326.989C327.094 357.941 327.201 357.915 327.286 357.852C327.372 357.79 327.429 357.696 327.445 357.591C327.451 357.551 327.451 357.51 327.445 357.47V356.189C327.459 355.335 327.363 354.483 327.16 353.653C327.001 352.963 326.7 352.313 326.277 351.744C325.892 351.22 325.383 350.799 324.795 350.52C324.113 350.224 323.375 350.078 322.631 350.092C321.909 350.054 321.189 350.189 320.53 350.486C319.871 350.783 319.292 351.234 318.843 351.8C317.828 353.308 317.356 355.116 317.504 356.927C317.371 358.745 317.886 360.552 318.958 362.026C319.525 362.616 320.214 363.077 320.975 363.376C321.737 363.676 322.555 363.808 323.372 363.763C323.966 363.758 324.558 363.691 325.139 363.564C325.646 363.456 326.143 363.301 326.622 363.101C326.732 363.059 326.83 362.991 326.908 362.903C326.937 362.851 326.952 362.792 326.952 362.732C326.952 362.672 326.937 362.614 326.908 362.562L326.622 361.536C326.622 361.194 326.309 361.108 326.024 361.223C325.649 361.394 325.258 361.528 324.856 361.622C324.401 361.671 323.943 361.671 323.489 361.622C323.011 361.65 322.532 361.575 322.085 361.403C321.638 361.231 321.233 360.966 320.897 360.624L320.951 360.774ZM315.457 352.445C315.562 352.461 315.669 352.435 315.754 352.373C315.84 352.31 315.897 352.216 315.913 352.111C315.918 352.071 315.918 352.03 315.913 351.99V350.821C315.913 350.508 315.77 350.337 315.457 350.337H313.12V347.496C313.12 347.211 312.95 347.068 312.636 347.068H311.325C311.229 347.052 311.13 347.074 311.05 347.131C310.969 347.187 310.915 347.273 310.898 347.37C310.892 347.412 310.892 347.454 310.898 347.496V350.344H309.587C309.274 350.344 309.131 350.515 309.131 350.828V351.997C309.115 352.101 309.141 352.208 309.204 352.294C309.267 352.379 309.361 352.436 309.465 352.452C309.506 352.458 309.547 352.458 309.587 352.452H310.867V359.743C310.784 360.753 311.056 361.761 311.636 362.592C311.98 362.908 312.387 363.148 312.83 363.295C313.273 363.443 313.742 363.495 314.207 363.447H315.09C315.324 363.419 315.553 363.362 315.772 363.277L316.058 363.106C316.089 363.014 316.089 362.913 316.058 362.821L315.887 361.683C315.893 361.626 315.886 361.569 315.866 361.516C315.846 361.463 315.814 361.415 315.773 361.377C315.731 361.338 315.681 361.309 315.627 361.293C315.573 361.277 315.515 361.274 315.459 361.283H314.691C314.463 361.314 314.231 361.291 314.014 361.217C313.797 361.142 313.6 361.019 313.438 360.856C313.19 360.363 313.091 359.81 313.153 359.262V352.45L315.457 352.445ZM307.278 354.411C307.338 353.263 307.009 352.129 306.343 351.193C305.993 350.787 305.554 350.467 305.06 350.26C304.565 350.052 304.03 349.962 303.495 349.996C303.043 349.99 302.592 350.048 302.156 350.167C301.797 350.253 301.458 350.408 301.158 350.623C300.881 350.782 300.631 350.984 300.417 351.221C300.242 351.439 300.09 351.674 299.961 351.922V350.641C299.961 350.356 299.791 350.214 299.478 350.214H298.076C297.971 350.197 297.864 350.224 297.778 350.286C297.693 350.349 297.636 350.443 297.62 350.548C297.614 350.588 297.614 350.629 297.62 350.669V362.945C297.604 363.05 297.63 363.156 297.693 363.242C297.755 363.327 297.849 363.384 297.954 363.4C297.994 363.406 298.035 363.406 298.076 363.4H299.585C299.69 363.417 299.797 363.39 299.882 363.328C299.968 363.265 300.025 363.171 300.041 363.066C300.046 363.026 300.046 362.985 300.041 362.945V355.469C299.988 354.614 300.236 353.768 300.742 353.076C300.99 352.779 301.305 352.544 301.661 352.39C302.017 352.237 302.404 352.169 302.791 352.193C303.11 352.156 303.433 352.199 303.732 352.318C304.03 352.438 304.294 352.629 304.499 352.875C304.854 353.457 305.023 354.133 304.983 354.813V362.959C304.967 363.064 304.993 363.17 305.056 363.256C305.119 363.341 305.213 363.398 305.317 363.414C305.358 363.42 305.399 363.42 305.439 363.414H306.949C307.053 363.431 307.16 363.404 307.246 363.342C307.331 363.279 307.388 363.185 307.404 363.08C307.41 363.04 307.41 362.999 307.404 362.959L307.278 354.411ZM294.575 346.493C294.575 346.18 294.432 346.01 294.147 346.01H292.554C292.268 346.01 292.126 346.18 292.126 346.493V348.23C292.126 348.543 292.268 348.685 292.554 348.685H294.234C294.519 348.685 294.661 348.685 294.661 348.23L294.575 346.493ZM294.575 350.681C294.591 350.576 294.565 350.469 294.502 350.384C294.44 350.298 294.345 350.241 294.241 350.225C294.2 350.22 294.16 350.22 294.119 350.225H292.61C292.505 350.209 292.398 350.235 292.313 350.298C292.227 350.361 292.17 350.455 292.154 350.559C292.148 350.6 292.148 350.641 292.154 350.681V362.956C292.138 363.061 292.164 363.168 292.227 363.253C292.289 363.339 292.383 363.396 292.488 363.412C292.528 363.418 292.569 363.418 292.61 363.412H294.234C294.338 363.428 294.445 363.402 294.531 363.339C294.616 363.277 294.673 363.183 294.689 363.078C294.695 363.038 294.695 362.997 294.689 362.956L294.575 350.681ZM283.624 358.46C283.463 358.058 283.225 357.69 282.923 357.378C282.601 357.068 282.248 356.792 281.869 356.553C281.444 356.287 280.996 356.058 280.53 355.871C279.762 355.472 279.128 355.13 278.68 354.845C278.477 354.712 278.311 354.53 278.197 354.316C278.082 354.102 278.023 353.863 278.025 353.621C278.006 353.379 278.045 353.137 278.14 352.914C278.234 352.691 278.381 352.494 278.567 352.34C279.106 352.075 279.705 351.957 280.304 351.999C280.729 351.951 281.159 351.951 281.584 351.999L282.61 352.284C282.895 352.284 283.066 352.284 283.094 351.943L283.379 350.861C283.38 350.751 283.348 350.644 283.287 350.553C283.226 350.461 283.139 350.39 283.038 350.349C282.601 350.209 282.153 350.105 281.699 350.036C281.111 349.976 280.52 349.976 279.932 350.036C278.784 349.937 277.64 350.261 276.714 350.947C276.354 351.284 276.073 351.695 275.891 352.153C275.708 352.611 275.63 353.103 275.66 353.595C275.652 354.121 275.749 354.644 275.946 355.133C276.104 355.512 276.344 355.852 276.647 356.131C276.962 356.425 277.317 356.674 277.701 356.871L278.953 357.47C279.6 357.777 280.219 358.139 280.804 358.551C281.023 358.698 281.201 358.897 281.321 359.132C281.441 359.366 281.498 359.627 281.489 359.891C281.516 360.151 281.476 360.414 281.371 360.653C281.266 360.893 281.1 361.101 280.89 361.258C280.32 361.553 279.681 361.691 279.04 361.657C278.537 361.706 278.032 361.706 277.53 361.657C277.134 361.58 276.743 361.475 276.361 361.344C276.048 361.344 275.878 361.344 275.85 361.657L275.565 362.826C275.542 362.87 275.53 362.919 275.53 362.968C275.53 363.018 275.542 363.067 275.565 363.111C275.648 363.199 275.758 363.259 275.878 363.281C276.36 363.446 276.856 363.569 277.359 363.651C277.998 363.767 278.647 363.824 279.297 363.821C280.449 363.874 281.589 363.575 282.568 362.966C282.992 362.629 283.326 362.193 283.539 361.696C283.753 361.199 283.84 360.656 283.793 360.117C283.796 359.633 283.717 359.152 283.559 358.694L283.624 358.46ZM270.912 353.249C271.349 354.133 271.555 355.113 271.51 356.098H266.184C266.151 355.012 266.417 353.939 266.953 352.994C267.18 352.675 267.485 352.418 267.839 352.249C268.192 352.08 268.583 352.003 268.975 352.027C269.365 351.996 269.756 352.079 270.1 352.266C270.444 352.454 270.726 352.737 270.912 353.081V353.249ZM267.266 360.739C266.587 359.945 266.214 358.935 266.213 357.89H273.305C273.618 357.89 273.789 357.748 273.789 357.434V356.154C273.789 355.301 273.694 354.45 273.504 353.618C273.33 352.933 273.031 352.285 272.62 351.709C272.219 351.189 271.702 350.769 271.111 350.485C270.439 350.185 269.71 350.038 268.975 350.057C268.249 350.019 267.524 350.154 266.861 350.451C266.197 350.748 265.614 351.198 265.159 351.765C264.155 353.278 263.684 355.082 263.82 356.892C263.682 358.715 264.208 360.526 265.301 361.991C265.855 362.591 266.537 363.059 267.296 363.359C268.056 363.66 268.873 363.786 269.687 363.728C270.291 363.721 270.892 363.655 271.482 363.529C271.98 363.425 272.467 363.272 272.936 363.073C273.053 363.031 273.16 362.963 273.249 362.875C273.278 362.823 273.293 362.764 273.293 362.704C273.293 362.644 273.278 362.586 273.249 362.533L272.964 361.508C272.964 361.166 272.651 361.08 272.365 361.194C271.991 361.369 271.6 361.503 271.197 361.594C270.743 361.645 270.284 361.645 269.83 361.594C269.352 361.618 268.875 361.542 268.428 361.37C267.982 361.198 267.577 360.934 267.238 360.596L267.266 360.739ZM258.952 362.903C258.952 363.188 259.094 363.33 259.408 363.33H260.861C260.966 363.346 261.073 363.32 261.158 363.258C261.244 363.195 261.301 363.101 261.317 362.996C261.322 362.956 261.322 362.915 261.317 362.875V346.299C261.317 346.014 261.174 345.872 260.861 345.872H259.321C259.216 345.856 259.11 345.883 259.025 345.946C258.94 346.009 258.883 346.104 258.868 346.208C258.864 346.238 258.864 346.269 258.868 346.299V351.994C258.617 351.37 258.152 350.854 257.557 350.541C256.877 350.168 256.11 349.981 255.334 349.999C254.655 349.962 253.978 350.094 253.362 350.382C252.746 350.67 252.21 351.106 251.804 351.651C250.988 353.252 250.562 355.023 250.562 356.82C250.562 358.617 250.988 360.388 251.804 361.989C252.21 362.528 252.741 362.961 253.352 363.248C253.963 363.536 254.634 363.671 255.309 363.641C256.08 363.656 256.844 363.48 257.531 363.129C258.143 362.807 258.626 362.284 258.898 361.648L258.952 362.903ZM258.127 360.332C257.877 360.702 257.536 361.001 257.137 361.2C256.738 361.399 256.294 361.492 255.849 361.47C255.426 361.494 255.004 361.403 254.629 361.208C254.253 361.012 253.937 360.72 253.713 360.36C252.801 358.015 252.801 355.414 253.713 353.069C253.937 352.71 254.253 352.417 254.629 352.222C255.004 352.027 255.426 351.936 255.849 351.959C256.297 351.942 256.742 352.041 257.141 352.245C257.54 352.45 257.879 352.754 258.127 353.128C258.719 354.227 258.985 355.472 258.896 356.717C258.983 357.971 258.717 359.224 258.127 360.335V360.332ZM239.729 352.929C240.166 353.813 240.372 354.793 240.327 355.778H234.999C234.987 354.691 235.262 353.62 235.796 352.674C236.017 352.355 236.316 352.098 236.666 351.929C237.015 351.759 237.402 351.683 237.789 351.707C238.18 351.672 238.572 351.754 238.917 351.941C239.262 352.129 239.543 352.414 239.727 352.761L239.729 352.929ZM236.081 360.421C235.402 359.627 235.028 358.617 235.027 357.572H242.148C242.252 357.588 242.359 357.562 242.445 357.5C242.53 357.437 242.587 357.343 242.603 357.238C242.609 357.198 242.609 357.157 242.603 357.117V355.841C242.617 354.987 242.521 354.135 242.318 353.305C242.145 352.619 241.845 351.972 241.435 351.396C241.042 350.866 240.523 350.442 239.925 350.162C239.254 349.862 238.524 349.716 237.789 349.735C237.063 349.696 236.339 349.831 235.675 350.128C235.012 350.425 234.428 350.876 233.973 351.443C232.969 352.955 232.498 354.759 232.634 356.57C232.509 358.391 233.034 360.198 234.116 361.669C234.671 362.267 235.353 362.734 236.112 363.035C236.871 363.335 237.688 363.462 238.502 363.405C239.106 363.399 239.707 363.332 240.297 363.206C240.796 363.106 241.283 362.953 241.75 362.751C241.872 362.716 241.981 362.647 242.063 362.552C242.086 362.498 242.098 362.44 242.098 362.382C242.098 362.323 242.086 362.265 242.063 362.211L241.75 361.185C241.75 360.844 241.437 360.757 241.152 360.872C240.787 361.043 240.406 361.177 240.014 361.272C239.548 361.32 239.078 361.32 238.612 361.272C238.134 361.296 237.657 361.219 237.21 361.047C236.764 360.875 236.359 360.612 236.02 360.274L236.081 360.421ZM230.111 346.042C230.111 345.729 229.968 345.559 229.683 345.559H228.089C227.804 345.559 227.661 345.729 227.661 346.042V347.779C227.661 348.092 227.804 348.234 228.089 348.234H229.683C229.968 348.234 230.111 348.234 230.111 347.779V346.042ZM230.111 350.23C230.111 349.917 230.111 349.774 229.683 349.774H228.145C227.86 349.774 227.718 349.774 227.718 350.23V362.505C227.718 362.819 227.86 362.961 228.145 362.961H229.683C229.968 362.961 230.111 362.961 230.111 362.505V350.23ZM221.558 362.959C221.692 362.97 221.826 362.933 221.935 362.855C222.045 362.777 222.123 362.662 222.156 362.531L225.895 350.739C225.895 350.426 225.895 350.256 225.554 350.256H223.93C223.811 350.208 223.679 350.208 223.56 350.256C223.546 350.36 223.546 350.465 223.56 350.569L221.71 357.579L221.008 360.599L220.307 357.579L218.457 350.569L218.286 350.256C218.232 350.233 218.174 350.222 218.115 350.222C218.057 350.222 217.999 350.233 217.945 350.256H216.323C215.982 350.256 215.867 350.426 215.982 350.739L219.564 363.015C219.586 363.141 219.653 363.254 219.753 363.333C219.853 363.412 219.979 363.451 220.106 363.443L221.558 362.959ZM207.744 350.228C207.761 350.123 207.734 350.016 207.672 349.931C207.609 349.845 207.515 349.788 207.41 349.772C207.37 349.766 207.329 349.766 207.289 349.772H205.95C205.637 349.772 205.466 349.772 205.466 350.2V351.539C205.173 350.933 204.707 350.427 204.127 350.085C203.466 349.717 202.72 349.53 201.963 349.543C201.292 349.506 200.622 349.637 200.015 349.926C199.408 350.215 198.883 350.651 198.488 351.195C197.563 352.748 197.135 354.547 197.264 356.35C197.131 358.166 197.569 359.978 198.516 361.533C198.912 362.07 199.433 362.501 200.034 362.789C200.635 363.077 201.297 363.213 201.963 363.185C202.725 363.2 203.478 363.024 204.155 362.674C204.761 362.339 205.234 361.806 205.494 361.164V362.531C205.494 362.816 205.665 362.959 205.978 362.959H207.443C207.548 362.975 207.655 362.949 207.74 362.886C207.826 362.823 207.883 362.729 207.899 362.625C207.904 362.584 207.904 362.543 207.899 362.503L207.744 350.228ZM204.555 359.977C204.323 360.338 204.002 360.632 203.623 360.832C203.244 361.031 202.819 361.129 202.391 361.115C201.968 361.138 201.547 361.048 201.171 360.852C200.795 360.657 200.479 360.364 200.255 360.005C199.343 357.66 199.343 355.059 200.255 352.714C200.479 352.355 200.795 352.062 201.171 351.867C201.547 351.671 201.968 351.581 202.391 351.604C202.822 351.593 203.249 351.695 203.628 351.9C204.008 352.105 204.327 352.406 204.555 352.772C205.146 353.872 205.413 355.117 205.324 356.362C205.411 357.616 205.145 358.869 204.555 359.979V359.977ZM194.558 346.426C194.558 346.14 194.415 345.998 194.102 345.998H192.592C192.496 345.982 192.397 346.004 192.316 346.061C192.236 346.117 192.182 346.203 192.165 346.299C192.159 346.341 192.159 346.384 192.165 346.426V363.001C192.165 363.314 192.307 363.457 192.592 363.457H194.102C194.207 363.473 194.314 363.446 194.399 363.384C194.484 363.321 194.542 363.227 194.558 363.122C194.563 363.082 194.563 363.041 194.558 363.001V346.426ZM183.649 352.464C183.754 352.48 183.861 352.454 183.946 352.391C184.032 352.329 184.089 352.235 184.105 352.13C184.111 352.09 184.111 352.049 184.105 352.008V350.84C184.105 350.527 183.962 350.356 183.649 350.356H181.312V347.496C181.312 347.211 181.142 347.068 180.829 347.068H179.427C179.113 347.068 178.971 347.211 178.971 347.496V350.344H177.66C177.347 350.344 177.204 350.515 177.204 350.828V351.997C177.188 352.101 177.214 352.208 177.277 352.294C177.34 352.379 177.434 352.436 177.538 352.452C177.579 352.458 177.62 352.458 177.66 352.452H178.94V359.743C178.857 360.753 179.129 361.761 179.709 362.592C180.057 362.909 180.467 363.149 180.914 363.296C181.36 363.443 181.833 363.495 182.301 363.447H183.156C183.395 363.413 183.629 363.356 183.857 363.277L184.142 363.106C184.174 363.014 184.174 362.913 184.142 362.821L183.972 361.683C183.978 361.626 183.97 361.569 183.95 361.516C183.931 361.463 183.899 361.415 183.857 361.377C183.816 361.338 183.766 361.309 183.712 361.293C183.657 361.277 183.6 361.274 183.544 361.283H182.775C182.548 361.314 182.316 361.291 182.099 361.217C181.881 361.142 181.684 361.019 181.523 360.856C181.275 360.363 181.176 359.81 181.238 359.262V352.45L183.649 352.464ZM175.106 355.626C175.419 355.626 175.561 355.455 175.561 355.142V353.901C175.561 353.56 175.561 353.389 175.106 353.389H169.411V348.293H175.363C175.704 348.293 175.846 348.122 175.846 347.781V346.423C175.846 346.11 175.704 345.968 175.363 345.968H167.331C167.226 345.951 167.119 345.978 167.034 346.04C166.948 346.103 166.891 346.197 166.875 346.302C166.87 346.342 166.87 346.383 166.875 346.423V362.912C166.875 363.253 166.875 363.424 167.331 363.424H175.447C175.559 363.44 175.673 363.411 175.764 363.343C175.854 363.275 175.914 363.174 175.931 363.062C175.936 363.021 175.936 362.98 175.931 362.94V361.573C175.931 361.288 175.76 361.145 175.447 361.145H169.411V355.612L175.106 355.626Z" fill="#EC6607"/>
<path d="M167.201 304.53H159.84V295.157H167.201V287.314C167.201 278.71 173.153 270.58 186.686 270.58C189.62 270.547 192.541 270.966 195.348 271.821L190.696 280.811C189.108 280.203 187.416 279.91 185.716 279.951C184.79 279.902 183.864 280.042 182.993 280.36C182.122 280.679 181.324 281.17 180.648 281.804C179.971 282.438 179.43 283.202 179.056 284.051C178.682 284.899 178.483 285.814 178.472 286.742V295.154H189.728V304.53H178.465V332.041H167.201V304.53Z" fill="#EC6607"/>
<path d="M208.545 308.739C208.545 300.419 216.121 293.724 225.216 293.724C234.096 293.724 241.673 300.419 241.673 308.739C241.673 317.058 234.092 323.75 225.216 323.75C216.121 323.75 208.545 317.058 208.545 308.739ZM241.24 331.873H252.497V285.597H241.24V291.238H241.023C238.097 287.317 232.143 284.354 224.349 284.354C207.356 284.351 196.637 297.356 196.637 308.739C196.637 320.692 206.594 333.121 223.81 333.121C227.001 333.246 230.183 332.698 233.149 331.512C236.115 330.326 238.798 328.528 241.023 326.237H241.24V331.873Z" fill="#EC6607"/>
<path d="M268.416 318.108C272.918 322.257 278.752 324.664 284.87 324.896C291.367 324.896 295.264 321.646 295.264 319.054C295.264 315.993 292.558 314.38 288.443 313.7L282.054 312.656C267.337 310.268 263.219 306.057 263.219 299.46C263.219 291.62 270.697 284.35 283.783 284.35C291.2 284.366 298.442 286.597 304.581 290.757L298.185 297.735C294.193 294.509 289.247 292.693 284.115 292.571C279.241 292.571 274.478 294.674 274.478 298.413C274.478 301.184 276.967 302.619 281.297 303.29L292.666 305.201C301.974 306.732 306.521 310.653 306.521 317.538C306.521 324.328 300.244 333.124 284.321 333.124C275.762 333.154 267.445 330.289 260.719 324.997L268.416 318.108Z" fill="#EC6607"/>
<path d="M311.07 285.598H317.457V273.355L328.716 270.584V285.598H356.172V294.969H328.716V313.234C328.716 318.207 330.015 320.501 333.371 322.221L339.433 325.285L334.458 333.123C322.874 328.246 317.459 324.71 317.459 315.05V294.971H311.07V285.598Z" fill="#EC6607"/>
<path d="M345.896 285.598H352.283V273.355L363.542 270.584V285.598H372.537V294.969H363.542V313.234C363.542 318.207 364.841 320.501 368.197 322.221L374.259 325.285L369.279 333.123C357.695 328.246 352.283 324.71 352.283 315.05V294.971H345.896V285.598Z" fill="#EC6607"/>
<path d="M368.587 225.796C368.587 225.796 391.696 239.584 449.615 204.461C449.615 204.461 414.095 240.958 352.904 259.061C352.904 259.061 392.107 238.866 368.587 225.796Z" fill="#EC6607"/>
<path d="M399.874 213.331C399.716 215.922 398.538 218.344 396.598 220.069C394.658 221.793 392.114 222.678 389.522 222.531C386.931 222.678 384.387 221.793 382.447 220.069C380.506 218.344 379.328 215.922 379.17 213.331C379.328 210.74 380.506 208.318 382.447 206.594C384.387 204.87 386.931 203.984 389.522 204.131C392.114 203.984 394.658 204.87 396.598 206.594C398.538 208.318 399.716 210.74 399.874 213.331Z" fill="#EC6607"/>
<defs>
<filter id="filter0_d_5050_585" x="110.105" y="186.5" width="385.896" height="234" filterUnits="userSpaceOnUse" color-interpolation-filters="sRGB">
<feFlood flood-opacity="0" result="BackgroundImageFix"/>
<feColorMatrix in="SourceAlpha" type="matrix" values="0 0 0 0 0 0 0 0 0 0 0 0 0 0 0 0 0 0 127 0" result="hardAlpha"/>
<feOffset dx="3" dy="3"/>
<feGaussianBlur stdDeviation="3"/>
<feColorMatrix type="matrix" values="0 0 0 0 0 0 0 0 0 0 0 0 0 0 0 0 0 0 0.161 0"/>
<feBlend mode="normal" in2="BackgroundImageFix" result="effect1_dropShadow_5050_585"/>
<feBlend mode="normal" in="SourceGraphic" in2="effect1_dropShadow_5050_585" result="shape"/>
</filter>
</defs>
</svg>
