<svg width="600" height="600" viewBox="0 0 600 600" fill="none" xmlns="http://www.w3.org/2000/svg">
<rect width="600" height="600" rx="50" fill="#F6F5FC"/>
<path d="M127.383 200L67.9648 234.28V302.967L124.209 400.093H130.557L186.802 302.967V234.28L127.383 200Z" fill="#E1000F"/>
<path d="M144.397 258.783H166.869V245.833L127.384 222.979L87.8984 245.833V291.412L127.384 314.266L166.869 291.412V278.462H144.397V258.783Z" fill="white"/>
<path d="M144.397 278.462V258.783L127.384 249.007L110.371 258.783V278.462L127.384 288.238L144.397 278.462Z" fill="#000091"/>
<path d="M257.774 233.265L263.487 237.708C260.186 242.152 254.853 245.072 248.251 245.072C236.825 245.072 229.08 236.312 229.08 226.028C229.08 215.744 236.825 206.983 248.251 206.983C254.853 206.983 260.186 209.904 263.487 214.347L257.774 218.791C255.742 215.871 252.441 213.839 248.378 213.839C241.522 213.839 236.698 219.172 236.698 226.028C236.698 232.884 241.522 238.216 248.378 238.216C252.441 238.216 255.742 236.185 257.774 233.265Z" fill="black"/>
<path d="M304.497 226.028C304.497 236.312 296.752 245.073 285.326 245.073C273.899 245.073 266.154 236.312 266.154 226.028C266.154 215.744 273.899 206.984 285.326 206.984C296.752 206.857 304.497 215.617 304.497 226.028ZM297.006 226.028C297.006 219.172 292.182 213.84 285.453 213.84C278.597 213.84 273.772 219.172 273.772 226.028C273.772 232.884 278.597 238.217 285.453 238.217C292.182 238.217 297.006 232.884 297.006 226.028Z" fill="black"/>
<path d="M310.844 207.873H320.239L336.363 233.773V207.873H343.727V243.93H334.332L318.208 218.03V243.93H310.844V207.873Z" fill="black"/>
<path d="M355.28 234.153C357.438 236.947 360.358 238.597 363.278 238.597C366.198 238.597 367.976 237.074 367.976 234.407C367.976 227.932 351.471 229.456 351.471 217.394C351.471 211.681 356.168 206.983 363.024 206.983C368.484 206.983 372.674 209.396 375.721 213.078L370.388 217.902C368.23 215.109 365.945 213.458 363.151 213.458C360.612 213.458 358.962 215.109 358.962 217.267C358.962 223.742 375.467 222.219 375.467 234.407C375.34 241.136 370.134 245.199 363.532 245.199C357.438 245.199 353.375 243.041 350.074 239.105L355.28 234.153Z" fill="black"/>
<path d="M382.449 207.873H403.525V214.094H389.813V222.474H401.494V228.695H389.813V237.709H403.525V243.93H382.449V207.873Z" fill="black"/>
<path d="M411.271 207.873H418.635V243.93H411.271V207.873Z" fill="black"/>
<path d="M428.156 207.873H435.52V237.328H449.232V243.93H428.156V207.873Z" fill="black"/>
<path d="M454.947 207.873H462.311V237.328H476.023V243.93H454.947V207.873Z" fill="black"/>
<path d="M481.863 207.873H502.939V214.094H489.227V222.474H500.908V228.695H489.227V237.709H502.939V243.93H481.863V207.873Z" fill="black"/>
<path d="M510.684 207.873H521.729C529.728 207.873 534.553 211.936 534.553 218.665C534.553 222.982 532.394 226.283 528.839 228.06L540.139 244.057H531.378L521.729 229.457H517.92V244.057H510.557V207.873H510.684ZM518.047 214.221V223.236H522.11C525.157 223.236 527.062 221.585 527.062 218.665C527.062 215.872 525.284 214.221 522.11 214.221H518.047Z" fill="black"/>
<path d="M229.715 259.927H239.11L255.234 285.827V259.927H262.598V295.984H253.203L237.079 270.084V295.984H229.715V259.927Z" fill="black"/>
<path d="M292.941 259.927H300.305V281.891C300.305 291.413 294.719 297 285.704 297C276.69 297 271.104 291.287 271.104 281.891V259.927H278.467V282.526C278.467 287.351 281.261 290.271 285.831 290.271C290.275 290.271 293.068 287.478 293.068 282.526V259.927H292.941Z" fill="black"/>
<path d="M308.686 259.927H317.954L326.714 274.781L335.475 259.927H344.743V295.984H337.379V270.338L329.38 283.669H324.175L316.176 270.338V295.984H308.812V259.927H308.686Z" fill="black"/>
<path d="M354.012 259.927H375.087V266.148H361.376V274.527H373.056V280.748H361.376V289.763H375.087V295.984H354.012V259.927ZM361.122 256.879L366.962 249.896H374.453L367.724 256.879H361.122Z" fill="black"/>
<path d="M382.959 259.927H394.005C402.003 259.927 406.828 263.99 406.828 270.719C406.828 275.035 404.67 278.336 400.988 280.114L412.287 296.111H403.527L393.878 281.51H390.069V296.111H382.705V259.927H382.959ZM390.323 266.275V275.289H394.386C397.433 275.289 399.337 273.639 399.337 270.719C399.337 267.925 397.56 266.275 394.386 266.275H390.323Z" fill="black"/>
<path d="M416.35 259.927H423.713V295.984H416.35V259.927Z" fill="black"/>
<path d="M470.944 298.649C471.706 298.649 472.722 298.522 473.484 298.269V304.49C472.341 304.998 471.325 305.125 469.675 305.125C465.612 305.125 461.93 303.474 458.375 300.427L454.058 296.618C452.535 296.999 450.884 297.253 449.107 297.253C437.68 297.253 429.936 288.492 429.936 278.208C429.936 267.924 437.68 259.164 449.107 259.164C460.407 259.164 468.278 267.924 468.278 278.208C468.278 284.303 465.612 289.762 461.168 293.317L463.327 295.348C466.247 297.634 468.659 298.649 470.944 298.649ZM460.787 278.081C460.787 271.226 455.963 265.893 449.234 265.893C442.378 265.893 437.553 271.226 437.553 278.081C437.553 284.937 442.378 290.27 449.234 290.27C455.963 290.27 460.787 284.937 460.787 278.081Z" fill="black"/>
<path d="M495.574 259.927H502.938V281.891C502.938 291.413 497.351 297 488.337 297C479.323 297 473.736 291.287 473.736 281.891V259.927H481.1V282.526C481.1 287.351 483.893 290.271 488.464 290.271C492.908 290.271 495.701 287.478 495.701 282.526V259.927H495.574Z" fill="black"/>
<path d="M511.443 259.927H532.519V266.148H518.68V274.527H530.361V280.749H518.68V289.763H532.392V295.984H511.316V259.927H511.443Z" fill="black"/>
<path d="M229.842 313.887H250.918V320.108H237.206V328.487H248.886V334.709H237.206V349.944H229.842V313.887Z" fill="#000091"/>
<path d="M255.361 324.043H261.963V326.582C263.614 324.805 265.899 323.535 268.819 323.535C269.708 323.535 270.47 323.662 271.105 323.916V330.772C270.343 330.518 269.454 330.391 268.185 330.391C265.01 330.391 262.979 332.169 261.963 333.692V349.943H255.361V324.043Z" fill="#000091"/>
<path d="M273.77 343.087C273.77 339.152 276.817 336.105 282.403 335.089L290.275 333.692V333.057C290.275 330.264 288.243 328.614 285.323 328.614C282.784 328.614 280.626 329.756 279.483 331.661L274.658 327.979C276.944 324.805 280.879 322.773 285.577 322.773C293.068 322.773 297.004 327.217 297.004 332.93V349.689H290.402V347.277C288.751 349.309 285.704 350.705 282.657 350.705C277.324 351.086 273.77 348.039 273.77 343.087ZM283.927 345.754C286.847 345.754 289.005 344.23 290.275 342.072V338.517L284.18 339.659C281.387 340.167 280.372 341.31 280.372 342.96C280.245 344.484 281.641 345.754 283.927 345.754Z" fill="#000091"/>
<path d="M303.227 324.043H309.829V326.074C311.606 324.297 314.018 323.027 317.573 323.027C323.16 323.027 327.73 326.836 327.73 334.581V350.07H321.128V334.835C321.128 331.407 319.224 329.249 316.05 329.249C312.749 329.249 310.971 331.407 309.956 333.057V350.07H303.354V324.043H303.227Z" fill="#000091"/>
<path d="M352.107 341.818L357.312 345.754C354.9 348.928 351.091 350.959 346.267 350.959C337.252 350.959 331.92 344.484 331.92 336.993C331.92 329.375 337.252 322.9 346.267 322.9C350.964 322.9 354.773 324.932 357.312 328.106L352.107 332.042C350.837 330.264 348.933 328.995 346.267 328.995C341.95 328.995 338.903 332.296 338.903 336.866C338.903 341.437 342.077 344.738 346.394 344.738C348.933 344.865 350.964 343.595 352.107 341.818Z" fill="#000091"/>
<path d="M373.691 351.086C364.422 351.086 359.217 344.611 359.217 337.12C359.217 329.375 364.041 323.027 372.548 323.027C379.785 323.027 384.482 327.852 384.482 334.708C384.482 336.104 384.228 337.501 384.101 338.39H365.946C366.327 342.707 369.374 345.246 373.817 345.246C376.611 345.246 379.023 343.976 380.42 342.199L385.117 345.881C382.578 349.055 378.642 351.086 373.691 351.086ZM366.327 333.438H378.007C377.88 330.899 375.976 328.487 372.548 328.487C369.374 328.487 367.215 330.01 366.327 333.438Z" fill="#000091"/>
<path d="M232 389.429C233.651 391.461 235.555 392.857 237.968 392.857C239.999 392.857 241.142 391.714 241.142 390.191C241.142 385.62 229.08 387.525 229.08 378.13C229.08 373.559 232.889 370.131 238.348 370.131C242.411 370.131 245.966 372.035 247.871 374.575L243.427 378.51C242.03 376.86 240.38 375.463 238.348 375.463C236.444 375.463 235.301 376.352 235.301 377.876C235.301 382.319 247.363 380.542 247.363 389.683C247.236 395.142 242.919 398.19 237.968 398.19C233.27 398.19 229.969 396.285 227.557 393.365L232 389.429Z" fill="#E1000F"/>
<path d="M265.009 398.19C255.741 398.19 250.535 391.714 250.535 384.224C250.535 376.479 255.36 370.131 263.866 370.131C271.103 370.131 275.801 374.955 275.801 381.811C275.801 383.208 275.547 384.605 275.42 385.493H257.264C257.645 389.81 260.692 392.349 265.136 392.349C267.929 392.349 270.341 391.08 271.738 389.302L276.436 392.984C273.896 396.158 269.96 398.19 265.009 398.19ZM257.645 380.542H269.326C269.199 378.003 267.294 375.59 263.866 375.59C260.692 375.59 258.534 377.114 257.645 380.542Z" fill="#E1000F"/>
<path d="M281.135 371.147H287.737V373.686C289.387 371.908 291.673 370.639 294.593 370.639C295.482 370.639 296.243 370.766 296.878 371.02V377.876C296.116 377.622 295.228 377.495 293.958 377.495C290.784 377.495 288.753 379.272 287.737 380.796V397.047H281.135V371.147Z" fill="#E1000F"/>
<path d="M304.877 371.145L311.606 389.681L318.335 371.145H325.445L315.923 397.172H307.29L297.895 371.145H304.877Z" fill="#E1000F"/>
<path d="M327.477 362.385C327.477 360.1 329.381 358.068 331.793 358.068C334.079 358.068 335.983 359.973 335.983 362.385C335.983 364.797 334.079 366.702 331.793 366.702C329.381 366.575 327.477 364.67 327.477 362.385ZM328.365 371.146H334.967V397.173H328.365V371.146Z" fill="#E1000F"/>
<path d="M359.978 388.921L365.184 392.857C362.771 396.031 358.962 398.063 354.138 398.063C345.123 398.063 339.791 391.588 339.791 384.097C339.791 376.479 345.123 370.004 354.138 370.004C358.835 370.004 362.644 372.035 365.184 375.209L359.978 379.145C358.708 377.368 356.804 376.098 354.138 376.098C349.821 376.098 346.774 379.399 346.774 383.97C346.774 388.54 349.948 391.841 354.265 391.841C356.677 391.968 358.708 390.826 359.978 388.921Z" fill="#E1000F"/>
<path d="M381.435 398.19C372.166 398.19 366.961 391.714 366.961 384.224C366.961 376.479 371.786 370.131 380.292 370.131C387.529 370.131 392.226 374.955 392.226 381.811C392.226 383.208 391.973 384.605 391.846 385.493H373.69C374.071 389.81 377.118 392.349 381.562 392.349C384.355 392.349 386.767 391.08 388.164 389.302L392.861 392.984C390.449 396.158 386.386 398.19 381.435 398.19ZM374.198 380.542H385.878C385.751 378.003 383.847 375.59 380.419 375.59C377.245 375.59 375.087 377.114 374.198 380.542Z" fill="#E1000F"/>
<path d="M399.59 389.429C401.241 391.461 403.145 392.857 405.557 392.857C407.589 392.857 408.731 391.714 408.731 390.191C408.731 385.62 396.67 387.525 396.67 378.13C396.67 373.559 400.479 370.131 405.938 370.131C410.001 370.131 413.556 372.035 415.46 374.575L411.017 378.51C409.62 376.86 407.97 375.463 405.938 375.463C404.034 375.463 402.891 376.352 402.891 377.876C402.891 382.319 414.953 380.542 414.953 389.683C414.826 395.142 410.509 398.19 405.557 398.19C400.86 398.19 397.559 396.285 395.146 393.365L399.59 389.429Z" fill="#E1000F"/>
</svg>
