<svg width="600" height="600" viewBox="0 0 600 600" fill="none" xmlns="http://www.w3.org/2000/svg">
<rect width="600" height="600" rx="50" fill="#F6F5FC"/>
<path d="M78.1719 181.878H84.5802L90.6234 192.171L96.6665 181.878H103.075V206.947H97.9448V189.1L92.3666 198.314H88.7971L83.1525 189.1V206.947H78.1719V181.878Z" fill="#140A82"/>
<path d="M109.996 181.878H115.076V206.947H109.996V181.878Z" fill="#140A82"/>
<path d="M122.082 181.878H128.59L139.78 199.791V181.878H144.86V206.947H138.352L127.162 188.917V206.947H122.082V181.878Z" fill="#140A82"/>
<path d="M151.867 181.878H156.848V206.947H151.867V181.878Z" fill="#140A82"/>
<path d="M165.379 200.042C166.006 200.941 166.83 201.684 167.788 202.217C168.746 202.749 169.813 203.056 170.907 203.113C171.309 203.171 171.718 203.141 172.106 203.026C172.495 202.911 172.854 202.714 173.16 202.447C173.465 202.181 173.71 201.852 173.877 201.483C174.044 201.114 174.13 200.713 174.128 200.308C174.128 195.825 162.689 196.838 162.689 188.504C162.718 187.494 162.951 186.5 163.374 185.583C163.797 184.665 164.401 183.843 165.15 183.165C165.9 182.487 166.778 181.968 167.733 181.638C168.689 181.309 169.7 181.176 170.708 181.249C172.381 181.227 174.036 181.587 175.549 182.3C177.062 183.014 178.393 184.062 179.441 185.366L175.722 188.686C175.185 187.822 174.457 187.092 173.593 186.554C172.73 186.016 171.754 185.683 170.741 185.582C170.374 185.545 170.002 185.585 169.651 185.7C169.3 185.814 168.976 186.001 168.701 186.248C168.426 186.495 168.206 186.796 168.054 187.133C167.902 187.47 167.822 187.835 167.819 188.205C167.819 192.671 179.258 191.641 179.258 200.108C179.258 204.757 175.539 207.613 170.957 207.613C169.188 207.696 167.423 207.361 165.808 206.634C164.192 205.907 162.771 204.809 161.66 203.429L165.379 200.042Z" fill="#140A82"/>
<path d="M181.85 181.878H202.37V186.493H194.65V206.947H189.669V186.493H181.85V181.878Z" fill="#140A82"/>
<path d="M206.852 181.879H221.428V186.196H211.915V192.006H220V196.323H211.915V202.582H221.428V206.948H206.852V181.879ZM207.283 174.906H212.496L216.531 179.737H211.882L207.283 174.906Z" fill="#140A82"/>
<path d="M227.34 181.878H234.977C240.489 181.878 243.892 184.7 243.892 189.349C243.94 190.705 243.584 192.045 242.868 193.197C242.153 194.35 241.111 195.265 239.874 195.824L247.744 206.947H241.667L235.027 196.836H232.403V206.947H227.34V181.878ZM232.403 186.194V192.453H235.276C235.706 192.485 236.138 192.427 236.545 192.284C236.951 192.141 237.324 191.916 237.64 191.622C237.956 191.328 238.208 190.973 238.38 190.577C238.553 190.182 238.641 189.755 238.641 189.324C238.641 188.893 238.553 188.466 238.38 188.071C238.208 187.675 237.956 187.32 237.64 187.026C237.324 186.732 236.951 186.507 236.545 186.364C236.138 186.221 235.706 186.163 235.276 186.194H232.403Z" fill="#140A82"/>
<path d="M250.832 181.878H265.409V186.194H255.896V192.005H264.114V196.322H256.028V202.581H265.541V206.947H250.832V181.878Z" fill="#140A82"/>
<path d="M78.1719 217.955H88.0169C95.9526 217.955 101.298 223.716 101.298 230.473C101.298 237.23 95.936 242.991 88.0169 242.991H78.1719V217.955ZM83.1525 222.57V238.376H88.1331C90.229 238.376 92.239 237.543 93.721 236.061C95.203 234.579 96.0356 232.569 96.0356 230.473C96.0356 228.377 95.203 226.367 93.721 224.885C92.239 223.403 90.229 222.57 88.1331 222.57H83.1525Z" fill="#140A82"/>
<path d="M106.176 217.955H120.752V222.288H111.239V228.082H119.325V232.399H111.239V238.658H120.752V242.991H106.176V217.955Z" fill="#140A82"/>
<path d="M135.947 217.955H141.027V238.376H150.54V242.991H135.947V217.955Z" fill="#140A82"/>
<path d="M162.408 217.955H169.049L178.529 242.991H173.133L170.743 236.483H160.781L158.374 242.991H152.879L162.408 217.955ZM169.165 232.15L165.729 222.753L162.309 232.15H169.165Z" fill="#140A82"/>
<path d="M209.325 235.519L213.343 238.59C212.116 240.221 210.518 241.535 208.682 242.424C206.846 243.314 204.824 243.752 202.784 243.704C200.529 243.698 198.312 243.118 196.343 242.018C194.374 240.918 192.717 239.335 191.529 237.418C190.341 235.501 189.661 233.313 189.552 231.06C189.444 228.807 189.911 226.564 190.91 224.542C191.908 222.519 193.406 220.785 195.26 219.501C197.115 218.218 199.266 217.428 201.51 217.205C203.754 216.983 206.018 217.336 208.089 218.231C210.159 219.126 211.967 220.533 213.343 222.32L209.325 225.425C208.601 224.36 207.625 223.491 206.484 222.895C205.343 222.298 204.072 221.992 202.784 222.005C200.63 222.14 198.609 223.091 197.131 224.664C195.654 226.237 194.831 228.314 194.831 230.472C194.831 232.63 195.654 234.707 197.131 236.28C198.609 237.853 200.63 238.804 202.784 238.939C204.072 238.952 205.343 238.646 206.484 238.049C207.625 237.453 208.601 236.584 209.325 235.519Z" fill="#140A82"/>
<path d="M242.032 230.472C242.032 233.099 241.253 235.667 239.794 237.851C238.334 240.035 236.26 241.737 233.833 242.742C231.406 243.748 228.736 244.011 226.159 243.498C223.583 242.986 221.216 241.721 219.359 239.863C217.501 238.006 216.236 235.639 215.724 233.063C215.211 230.487 215.475 227.816 216.48 225.389C217.485 222.962 219.187 220.888 221.371 219.429C223.556 217.969 226.123 217.19 228.75 217.19C230.504 217.154 232.248 217.473 233.875 218.128C235.503 218.782 236.982 219.759 238.222 221C239.463 222.24 240.44 223.719 241.095 225.347C241.749 226.974 242.068 228.718 242.032 230.472ZM236.802 230.472C236.724 228.894 236.185 227.374 235.251 226.1C234.317 224.826 233.029 223.854 231.548 223.305C230.066 222.756 228.456 222.654 226.917 223.011C225.379 223.369 223.979 224.17 222.891 225.316C221.804 226.462 221.076 227.902 220.8 229.457C220.523 231.013 220.709 232.615 221.335 234.066C221.961 235.517 222.998 236.752 224.32 237.618C225.641 238.484 227.187 238.943 228.767 238.939C229.859 238.938 230.939 238.715 231.942 238.284C232.945 237.853 233.85 237.222 234.602 236.43C235.353 235.638 235.936 234.701 236.314 233.677C236.693 232.653 236.859 231.562 236.802 230.472Z" fill="#140A82"/>
<path d="M246.879 217.955H251.959V227.916H264.577V217.955H269.657V242.991H264.577V232.548H251.959V242.991H246.879V217.955Z" fill="#140A82"/>
<path d="M276.666 217.954H291.259V222.287H281.746V228.082H289.831V232.398H281.746V238.657H291.259V242.99H276.666V217.954ZM281.647 215.813L285.698 210.998H290.911L286.262 215.813H281.647Z" fill="#140A82"/>
<path d="M298.579 236.117C299.207 237.018 300.034 237.764 300.995 238.297C301.956 238.829 303.027 239.134 304.124 239.188C306.133 239.188 307.345 238.126 307.345 236.299C307.345 231.833 295.906 232.83 295.906 224.495C295.935 223.482 296.169 222.486 296.594 221.566C297.019 220.646 297.626 219.822 298.379 219.144C299.132 218.465 300.014 217.947 300.973 217.62C301.932 217.293 302.948 217.163 303.958 217.24C305.644 217.232 307.309 217.607 308.827 218.338C310.346 219.069 311.679 220.135 312.724 221.457L309.005 224.778C308.47 223.91 307.743 223.177 306.879 222.636C306.015 222.095 305.039 221.76 304.025 221.656C303.66 221.624 303.292 221.668 302.944 221.785C302.597 221.902 302.278 222.09 302.006 222.336C301.735 222.582 301.518 222.882 301.368 223.217C301.218 223.551 301.139 223.913 301.136 224.28C301.136 228.745 312.575 227.7 312.575 236.183C312.575 240.832 308.856 243.687 304.274 243.687C302.505 243.765 300.742 243.428 299.128 242.701C297.513 241.974 296.091 240.879 294.977 239.504L298.579 236.117Z" fill="#140A82"/>
<path d="M317.82 217.955H322.901V242.991H317.82V217.955Z" fill="#140A82"/>
<path d="M354.313 230.472C354.313 233.099 353.534 235.667 352.075 237.851C350.615 240.035 348.541 241.738 346.114 242.743C343.687 243.748 341.017 244.011 338.44 243.499C335.864 242.986 333.498 241.721 331.64 239.864C329.783 238.006 328.518 235.64 328.005 233.063C327.493 230.487 327.756 227.816 328.761 225.39C329.766 222.963 331.469 220.888 333.653 219.429C335.837 217.97 338.405 217.191 341.032 217.191C342.786 217.152 344.531 217.469 346.159 218.123C347.788 218.777 349.268 219.754 350.509 220.995C351.75 222.236 352.727 223.716 353.381 225.344C354.035 226.973 354.352 228.718 354.313 230.472ZM349.1 230.472C349.022 228.894 348.483 227.374 347.548 226.1C346.614 224.826 345.327 223.854 343.845 223.305C342.364 222.756 340.754 222.654 339.215 223.012C337.676 223.369 336.276 224.171 335.189 225.317C334.101 226.462 333.374 227.902 333.098 229.458C332.821 231.013 333.007 232.616 333.633 234.066C334.258 235.517 335.296 236.752 336.617 237.618C337.939 238.485 339.485 238.944 341.065 238.939C342.157 238.938 343.237 238.716 344.24 238.284C345.243 237.853 346.148 237.222 346.899 236.43C347.651 235.638 348.234 234.702 348.612 233.677C348.99 232.653 349.156 231.563 349.1 230.472Z" fill="#140A82"/>
<path d="M359.176 217.955H365.684L376.874 235.869V217.955H381.987V242.991H375.479L364.289 225.011V242.991H359.209L359.176 217.955Z" fill="#140A82"/>
<path d="M78.1719 254.049H88.0169C95.9526 254.049 101.298 259.81 101.298 266.567C101.298 273.324 95.936 279.068 88.0169 279.068H78.1719V254.049ZM83.1525 258.664V274.453H88.1331C89.2002 274.502 90.2662 274.334 91.2666 273.959C92.267 273.584 93.1811 273.011 93.9536 272.273C94.7261 271.535 95.341 270.648 95.761 269.666C96.1811 268.684 96.3977 267.627 96.3977 266.558C96.3977 265.49 96.1811 264.433 95.761 263.451C95.341 262.469 94.7261 261.582 93.9536 260.844C93.1811 260.106 92.267 259.532 91.2666 259.158C90.2662 258.783 89.2002 258.615 88.1331 258.664H83.1525Z" fill="#140A82"/>
<path d="M106.176 254.049H120.752V258.415H111.239V264.193H119.325V268.526H111.239V274.785H120.752V279.101H106.176V254.049Z" fill="#140A82"/>
<path d="M128.092 272.211C128.719 273.11 129.543 273.853 130.501 274.386C131.459 274.918 132.526 275.225 133.62 275.282C134.029 275.341 134.445 275.309 134.839 275.189C135.234 275.07 135.598 274.865 135.905 274.59C136.212 274.314 136.455 273.975 136.617 273.595C136.778 273.216 136.855 272.806 136.841 272.394C136.841 267.911 125.402 268.924 125.402 260.59C125.431 259.58 125.664 258.586 126.087 257.668C126.51 256.751 127.114 255.929 127.863 255.251C128.613 254.573 129.491 254.054 130.446 253.724C131.401 253.395 132.413 253.262 133.421 253.335C135.105 253.323 136.769 253.697 138.285 254.427C139.802 255.158 141.131 256.227 142.17 257.551L138.452 260.872C137.915 260.007 137.186 259.278 136.323 258.739C135.459 258.201 134.483 257.869 133.471 257.767C133.106 257.733 132.738 257.774 132.39 257.889C132.041 258.004 131.721 258.19 131.448 258.435C131.175 258.679 130.956 258.978 130.804 259.312C130.652 259.646 130.571 260.007 130.566 260.374C130.566 264.84 142.004 263.81 142.004 272.277C142.004 276.926 138.286 279.781 133.703 279.781C131.934 279.865 130.17 279.53 128.554 278.803C126.938 278.076 125.517 276.978 124.406 275.598L128.092 272.211Z" fill="#140A82"/>
<path d="M154.041 254.049H174.561V258.664H166.841V279.068H161.761V258.664H154.041V254.049Z" fill="#140A82"/>
<path d="M179.027 254.049H193.62V258.415H184.108V264.193H192.193V268.526H184.108V274.785H193.62V279.101H179.027V254.049Z" fill="#140A82"/>
<path d="M199.516 254.049H207.169C212.681 254.049 216.068 256.871 216.068 261.52C216.122 262.875 215.77 264.215 215.057 265.369C214.344 266.522 213.303 267.437 212.067 267.994L219.936 279.068H213.86L207.219 268.957H204.612V279.068H199.532L199.516 254.049ZM204.596 258.415V264.657H207.451C207.888 264.703 208.33 264.656 208.747 264.519C209.165 264.383 209.549 264.16 209.875 263.866C210.202 263.572 210.462 263.213 210.641 262.811C210.819 262.41 210.912 261.976 210.912 261.536C210.912 261.097 210.819 260.663 210.641 260.261C210.462 259.86 210.202 259.501 209.875 259.206C209.549 258.912 209.165 258.69 208.747 258.553C208.33 258.417 207.888 258.37 207.451 258.415H204.596Z" fill="#140A82"/>
<path d="M223.072 254.049H230.726C236.238 254.049 239.624 256.871 239.624 261.52C239.678 262.875 239.326 264.215 238.613 265.369C237.901 266.522 236.859 267.437 235.623 267.994L243.493 279.068H237.416L230.776 268.957H228.169V279.068H223.089L223.072 254.049ZM228.152 258.415V264.657H231.008C231.445 264.703 231.886 264.656 232.304 264.519C232.722 264.383 233.106 264.16 233.432 263.866C233.758 263.572 234.019 263.213 234.197 262.811C234.376 262.41 234.468 261.976 234.468 261.536C234.468 261.097 234.376 260.663 234.197 260.261C234.019 259.86 233.758 259.501 233.432 259.206C233.106 258.912 232.722 258.69 232.304 258.553C231.886 258.417 231.445 258.37 231.008 258.415H228.152Z" fill="#140A82"/>
<path d="M246.633 254.049H251.713V279.068H246.633V254.049Z" fill="#140A82"/>
<path d="M256.143 254.049H276.663V258.664H268.943V279.068H263.863V258.664H256.143V254.049Z" fill="#140A82"/>
<path d="M304.405 266.566C304.405 269.193 303.626 271.761 302.167 273.945C300.707 276.129 298.633 277.831 296.206 278.837C293.779 279.842 291.109 280.105 288.532 279.592C285.956 279.08 283.589 277.815 281.732 275.957C279.874 274.1 278.609 271.733 278.097 269.157C277.585 266.581 277.848 263.91 278.853 261.483C279.858 259.056 281.56 256.982 283.745 255.523C285.929 254.063 288.497 253.284 291.123 253.284C292.878 253.246 294.622 253.563 296.251 254.217C297.88 254.871 299.36 255.848 300.601 257.089C301.842 258.33 302.819 259.809 303.472 261.438C304.126 263.067 304.444 264.811 304.405 266.566ZM299.192 266.566C299.114 264.989 298.575 263.469 297.642 262.195C296.708 260.922 295.422 259.95 293.941 259.4C292.461 258.851 290.852 258.748 289.313 259.104C287.775 259.46 286.375 260.26 285.286 261.404C284.198 262.548 283.47 263.987 283.191 265.541C282.913 267.096 283.096 268.698 283.72 270.149C284.343 271.6 285.378 272.836 286.697 273.704C288.016 274.572 289.561 275.034 291.14 275.033C292.233 275.032 293.314 274.809 294.317 274.378C295.321 273.947 296.227 273.316 296.98 272.525C297.733 271.733 298.317 270.797 298.697 269.772C299.078 268.748 299.246 267.657 299.192 266.566Z" fill="#140A82"/>
<path d="M309.27 254.049H314.35V279.068H309.27V254.049Z" fill="#140A82"/>
<path d="M321.359 254.049H329.013C334.508 254.049 337.912 256.871 337.912 261.52C337.965 262.875 337.613 264.215 336.901 265.369C336.188 266.522 335.146 267.437 333.91 267.994L341.78 279.068H335.703L329.063 268.957H326.456V279.068H321.376L321.359 254.049ZM326.44 258.415V264.657H329.295C329.732 264.703 330.174 264.656 330.591 264.519C331.009 264.383 331.393 264.16 331.719 263.866C332.045 263.572 332.306 263.213 332.485 262.811C332.663 262.41 332.755 261.976 332.755 261.536C332.755 261.097 332.663 260.663 332.485 260.261C332.306 259.86 332.045 259.501 331.719 259.206C331.393 258.912 331.009 258.69 330.591 258.553C330.174 258.417 329.732 258.37 329.295 258.415H326.44Z" fill="#140A82"/>
<path d="M344.916 254.049H359.509V258.415H349.996V264.193H358.081V268.526H349.996V274.785H359.509V279.101H344.916V254.049Z" fill="#140A82"/>
<path d="M366.828 272.21C367.459 273.109 368.286 273.853 369.247 274.385C370.207 274.917 371.277 275.223 372.373 275.281C372.782 275.34 373.198 275.308 373.592 275.188C373.987 275.069 374.351 274.864 374.658 274.588C374.965 274.313 375.208 273.974 375.37 273.594C375.531 273.215 375.608 272.805 375.594 272.392C375.594 267.91 364.155 268.923 364.155 260.588C364.184 259.58 364.417 258.588 364.839 257.671C365.26 256.755 365.863 255.933 366.611 255.256C367.358 254.578 368.235 254.059 369.188 253.728C370.141 253.398 371.151 253.264 372.157 253.333C373.843 253.321 375.51 253.695 377.029 254.426C378.548 255.157 379.88 256.226 380.923 257.55L377.204 260.871C376.668 260.006 375.939 259.277 375.076 258.738C374.212 258.2 373.236 257.867 372.224 257.766C371.86 257.734 371.494 257.777 371.148 257.893C370.801 258.009 370.483 258.195 370.212 258.44C369.941 258.685 369.723 258.982 369.572 259.315C369.421 259.647 369.341 260.008 369.335 260.373C369.335 264.839 380.774 263.809 380.774 272.276C380.691 276.925 377.055 279.78 372.473 279.78C370.704 279.862 368.94 279.526 367.324 278.8C365.709 278.073 364.288 276.975 363.176 275.597L366.828 272.21Z" fill="#140A82"/>
<path d="M78.1719 290.123H92.765V294.456H83.1525V300.25H91.2376V304.567H83.1525V310.826H92.6654V315.159H78.1719V290.123Z" fill="#140A82"/>
<path d="M96.5977 290.123H117.118V294.738H109.381V315.159H104.401V294.738H96.5977V290.123Z" fill="#140A82"/>
<path d="M130.883 290.123H140.711C148.647 290.123 153.993 295.884 153.993 302.641C153.993 309.398 148.63 315.159 140.711 315.159H130.883V290.123ZM135.863 294.738V310.543H140.695C142.79 310.543 144.801 309.711 146.283 308.229C147.765 306.747 148.597 304.737 148.597 302.641C148.597 300.545 147.765 298.535 146.283 297.053C144.801 295.571 142.79 294.738 140.695 294.738H135.863Z" fill="#140A82"/>
<path d="M158.904 290.123H173.497V294.456H163.985V300.25H172.053V304.567H163.985V310.826H173.497V315.159H158.904V290.123Z" fill="#140A82"/>
<path d="M180.821 308.221C181.448 309.125 182.273 309.874 183.235 310.41C184.196 310.945 185.267 311.253 186.366 311.308C186.776 311.364 187.192 311.33 187.587 311.208C187.981 311.087 188.345 310.88 188.651 310.604C188.958 310.327 189.201 309.987 189.362 309.607C189.524 309.227 189.601 308.816 189.587 308.403C189.587 303.937 178.132 304.933 178.132 296.616C178.161 295.605 178.394 294.611 178.816 293.692C179.239 292.774 179.843 291.951 180.592 291.271C181.341 290.592 182.219 290.071 183.175 289.74C184.13 289.409 185.142 289.274 186.151 289.344C187.834 289.336 189.496 289.711 191.012 290.442C192.528 291.173 193.858 292.239 194.9 293.561L191.181 296.881C190.646 296.014 189.919 295.281 189.055 294.74C188.191 294.198 187.214 293.863 186.2 293.76C185.835 293.728 185.468 293.772 185.12 293.889C184.773 294.006 184.454 294.193 184.182 294.44C183.911 294.686 183.693 294.986 183.544 295.32C183.394 295.655 183.315 296.017 183.312 296.383C183.312 300.849 194.75 299.803 194.75 308.287C194.75 312.935 191.032 315.791 186.449 315.791C184.681 315.869 182.918 315.531 181.303 314.805C179.689 314.078 178.267 312.983 177.152 311.607L180.821 308.221Z" fill="#140A82"/>
<path d="M209.328 290.123H216.982C222.494 290.123 225.88 292.962 225.88 297.611C225.933 298.963 225.58 300.301 224.867 301.452C224.155 302.602 223.114 303.514 221.879 304.069L229.749 315.159H223.672L217.031 305.032H214.425V315.159H209.328V290.123ZM214.408 294.456V300.715H217.264C217.694 300.746 218.126 300.689 218.533 300.546C218.94 300.403 219.313 300.177 219.629 299.884C219.944 299.59 220.196 299.234 220.369 298.839C220.541 298.444 220.63 298.017 220.63 297.586C220.63 297.154 220.541 296.728 220.369 296.332C220.196 295.937 219.944 295.581 219.629 295.288C219.313 294.994 218.94 294.769 218.533 294.626C218.126 294.482 217.694 294.425 217.264 294.456H214.408Z" fill="#140A82"/>
<path d="M232.902 290.123H247.512V294.456H237.999V300.25H246.084V304.567H237.999V310.826H247.512V315.159H232.902V290.123Z" fill="#140A82"/>
<path d="M253.387 290.123H258.467V310.543H267.98V315.159H253.387V290.123Z" fill="#140A82"/>
<path d="M279.853 290.123H286.494L295.973 315.159H290.578L288.187 308.651H278.226L275.735 315.159H270.34L279.853 290.123ZM286.61 304.318L283.173 294.938L279.737 304.334L286.61 304.318Z" fill="#140A82"/>
<path d="M294.758 290.123H315.278V294.738H307.558V315.159H302.478V294.738H294.758V290.123Z" fill="#140A82"/>
<path d="M319.746 290.123H324.826V315.159H319.746V290.123Z" fill="#140A82"/>
<path d="M356.255 302.641C356.255 305.268 355.476 307.836 354.016 310.02C352.557 312.204 350.483 313.907 348.056 314.912C345.629 315.917 342.958 316.18 340.382 315.668C337.806 315.155 335.439 313.89 333.581 312.033C331.724 310.175 330.459 307.809 329.947 305.232C329.434 302.656 329.697 299.985 330.702 297.559C331.708 295.132 333.41 293.057 335.594 291.598C337.778 290.139 340.346 289.36 342.973 289.36C344.728 289.321 346.472 289.638 348.101 290.292C349.73 290.946 351.209 291.923 352.45 293.164C353.691 294.405 354.668 295.884 355.322 297.513C355.976 299.142 356.293 300.886 356.255 302.641ZM351.025 302.641C350.947 301.063 350.407 299.543 349.473 298.269C348.539 296.995 347.252 296.023 345.77 295.474C344.289 294.925 342.679 294.823 341.14 295.18C339.601 295.538 338.201 296.34 337.114 297.485C336.026 298.631 335.299 300.071 335.022 301.627C334.746 303.182 334.932 304.785 335.557 306.235C336.183 307.686 337.221 308.921 338.542 309.787C339.863 310.653 341.41 311.113 342.99 311.108C344.081 311.107 345.162 310.885 346.165 310.453C347.168 310.022 348.073 309.391 348.824 308.599C349.576 307.807 350.159 306.87 350.537 305.846C350.915 304.822 351.081 303.732 351.025 302.641Z" fill="#140A82"/>
<path d="M361.117 290.123H367.625L378.815 308.037V290.123H383.796V315.159H377.288L366.098 297.179V315.159H361.117V290.123Z" fill="#140A82"/>
<path d="M392.33 308.221C392.955 309.123 393.778 309.871 394.736 310.406C395.694 310.941 396.763 311.25 397.859 311.308C398.268 311.367 398.686 311.335 399.082 311.215C399.478 311.094 399.842 310.888 400.15 310.61C400.457 310.333 400.7 309.992 400.86 309.61C401.021 309.229 401.096 308.817 401.079 308.403C401.079 303.937 389.641 304.933 389.641 296.616C389.667 295.606 389.898 294.612 390.319 293.694C390.74 292.775 391.342 291.952 392.09 291.272C392.838 290.593 393.715 290.072 394.669 289.741C395.624 289.409 396.635 289.274 397.643 289.344C399.328 289.336 400.993 289.711 402.512 290.442C404.031 291.172 405.363 292.239 406.409 293.561L402.69 296.881C402.155 296.014 401.427 295.281 400.564 294.74C399.7 294.198 398.723 293.863 397.709 293.76C397.343 293.728 396.975 293.772 396.627 293.889C396.278 294.006 395.958 294.193 395.685 294.439C395.413 294.685 395.194 294.985 395.042 295.319C394.89 295.654 394.809 296.016 394.804 296.383C394.804 300.849 406.243 299.803 406.243 308.287C406.243 312.935 402.524 315.791 397.942 315.791C396.172 315.873 394.408 315.537 392.793 314.81C391.178 314.083 389.757 312.986 388.645 311.607L392.33 308.221Z" fill="#140A82"/>
<path d="M84.4797 326.217H91.1205L100.6 351.236H95.2046L92.7973 344.745H82.8361L80.4455 351.253H75L84.4797 326.217ZM91.2367 340.412L87.8001 331.015L84.3635 340.412H91.2367Z" fill="#140A82"/>
<path d="M104.485 326.217L111.89 345.774L119.294 326.217H124.657L115.177 351.236H108.536L99.0898 326.217H104.485Z" fill="#140A82"/>
<path d="M128.559 326.217H143.135V330.55H133.622V336.327H141.707V340.661H133.622V346.919H143.135V351.236H128.559V326.217Z" fill="#140A82"/>
<path d="M166.161 343.764L170.162 346.836C168.94 348.467 167.346 349.782 165.512 350.671C163.678 351.561 161.658 351.999 159.62 351.949C157.363 351.948 155.143 351.372 153.17 350.274C151.197 349.177 149.536 347.595 148.345 345.678C147.153 343.76 146.47 341.571 146.36 339.316C146.249 337.061 146.716 334.815 147.715 332.791C148.714 330.766 150.212 329.03 152.068 327.745C153.925 326.461 156.078 325.671 158.325 325.45C160.572 325.229 162.838 325.584 164.909 326.482C166.98 327.38 168.788 328.791 170.162 330.582L166.161 333.687C165.439 332.619 164.464 331.747 163.322 331.147C162.181 330.547 160.909 330.239 159.62 330.25C157.437 330.347 155.376 331.282 153.865 332.861C152.355 334.44 151.512 336.54 151.512 338.725C151.512 340.91 152.355 343.011 153.865 344.59C155.376 346.169 157.437 347.104 159.62 347.201C160.909 347.212 162.181 346.903 163.322 346.304C164.464 345.704 165.439 344.832 166.161 343.764Z" fill="#140A82"/>
<path d="M183.859 326.217H188.94V346.637H198.453V351.236H183.859V326.217Z" fill="#140A82"/>
<path d="M202.918 326.217H217.495V330.55H207.998V336.327H216.067V340.661H207.998V346.919H217.495V351.236H202.918V326.217Z" fill="#140A82"/>
<path d="M224.832 344.38C225.462 345.28 226.289 346.024 227.25 346.556C228.211 347.089 229.28 347.395 230.377 347.451C230.784 347.507 231.199 347.473 231.591 347.352C231.984 347.232 232.345 347.026 232.65 346.751C232.956 346.476 233.197 346.138 233.358 345.76C233.519 345.382 233.595 344.973 233.581 344.563C233.581 340.08 222.143 341.093 222.143 332.759C222.171 331.749 222.404 330.755 222.827 329.837C223.25 328.92 223.854 328.097 224.604 327.42C225.353 326.742 226.231 326.223 227.187 325.893C228.142 325.564 229.154 325.431 230.161 325.503C231.845 325.492 233.509 325.865 235.025 326.596C236.542 327.327 237.871 328.396 238.911 329.72L235.192 333.041C234.655 332.176 233.927 331.447 233.063 330.908C232.199 330.37 231.224 330.037 230.211 329.936C229.846 329.902 229.478 329.943 229.13 330.058C228.782 330.173 228.461 330.359 228.188 330.604C227.915 330.848 227.696 331.147 227.544 331.481C227.392 331.815 227.311 332.176 227.306 332.543C227.306 337.009 238.745 335.979 238.745 344.446C238.745 349.095 235.042 351.95 230.444 351.95C228.674 352.033 226.91 351.697 225.295 350.97C223.68 350.243 222.258 349.145 221.146 347.767L224.832 344.38Z" fill="#140A82"/>
<path d="M271.052 343.764L275.053 346.836C273.834 348.47 272.24 349.787 270.405 350.677C268.57 351.567 266.549 352.003 264.511 351.949C262.253 351.948 260.033 351.372 258.06 350.274C256.087 349.177 254.427 347.595 253.235 345.678C252.044 343.76 251.36 341.571 251.25 339.316C251.14 337.061 251.606 334.815 252.605 332.791C253.604 330.766 255.103 329.03 256.959 327.745C258.816 326.461 260.969 325.671 263.216 325.45C265.462 325.229 267.728 325.584 269.799 326.482C271.871 327.38 273.679 328.791 275.053 330.582L271.052 333.687C270.329 332.619 269.354 331.747 268.213 331.147C267.072 330.547 265.8 330.239 264.511 330.25C262.328 330.347 260.266 331.282 258.756 332.861C257.245 334.44 256.402 336.54 256.402 338.725C256.402 340.91 257.245 343.011 258.756 344.59C260.266 346.169 262.328 347.104 264.511 347.201C265.8 347.212 267.072 346.903 268.213 346.304C269.354 345.704 270.329 344.832 271.052 343.764Z" fill="#140A82"/>
<path d="M303.692 338.734C303.692 341.361 302.913 343.929 301.454 346.113C299.994 348.297 297.92 349.999 295.493 351.005C293.066 352.01 290.396 352.273 287.819 351.76C285.243 351.248 282.876 349.983 281.019 348.125C279.162 346.268 277.897 343.901 277.384 341.325C276.872 338.749 277.135 336.078 278.14 333.651C279.145 331.224 280.847 329.15 283.032 327.691C285.216 326.231 287.784 325.452 290.411 325.452C292.165 325.414 293.91 325.731 295.538 326.385C297.167 327.039 298.647 328.016 299.888 329.257C301.129 330.498 302.106 331.977 302.76 333.606C303.413 335.235 303.731 336.979 303.692 338.734ZM298.479 338.734C298.401 337.157 297.862 335.637 296.929 334.363C295.995 333.09 294.709 332.118 293.228 331.568C291.748 331.019 290.139 330.916 288.6 331.272C287.062 331.628 285.662 332.428 284.574 333.572C283.485 334.716 282.757 336.155 282.478 337.709C282.2 339.264 282.383 340.866 283.007 342.317C283.63 343.768 284.665 345.004 285.984 345.872C287.303 346.74 288.848 347.202 290.427 347.201C291.52 347.2 292.601 346.977 293.605 346.546C294.608 346.115 295.514 345.484 296.267 344.693C297.02 343.901 297.604 342.965 297.985 341.94C298.365 340.916 298.533 339.825 298.479 338.734Z" fill="#140A82"/>
<path d="M308.555 326.217H313.635V346.637H323.148V351.236H308.555V326.217Z" fill="#140A82"/>
<path d="M327.616 326.217H332.696V346.637H342.143V351.236H327.566L327.616 326.217Z" fill="#140A82"/>
<path d="M346.676 326.217H361.252V330.55H351.739V336.327H359.825V340.661H351.739V346.919H361.252V351.236H346.676V326.217Z" fill="#140A82"/>
<path d="M384.279 343.764L388.28 346.836C387.057 348.467 385.463 349.782 383.629 350.671C381.795 351.561 379.775 351.999 377.737 351.949C375.48 351.948 373.26 351.372 371.287 350.274C369.314 349.177 367.653 347.595 366.462 345.678C365.27 343.76 364.587 341.571 364.477 339.316C364.367 337.061 364.833 334.815 365.832 332.791C366.831 330.766 368.329 329.03 370.186 327.745C372.042 326.461 374.195 325.671 376.442 325.45C378.689 325.229 380.955 325.584 383.026 326.482C385.097 327.38 386.905 328.791 388.28 330.582L384.279 333.687C383.556 332.619 382.581 331.747 381.44 331.147C380.298 330.547 379.027 330.239 377.737 330.25C375.554 330.347 373.493 331.282 371.983 332.861C370.472 334.44 369.629 336.54 369.629 338.725C369.629 340.91 370.472 343.011 371.983 344.59C373.493 346.169 375.554 347.104 377.737 347.201C379.027 347.212 380.298 346.903 381.44 346.304C382.581 345.704 383.556 344.832 384.279 343.764Z" fill="#140A82"/>
<path d="M390.107 326.217H410.627V330.832H402.908V351.236H397.827V330.832H390.107V326.217Z" fill="#140A82"/>
<path d="M415.09 326.217H420.17V351.236H415.09V326.217Z" fill="#140A82"/>
<path d="M429.438 326.217L436.776 345.774L444.164 326.217H449.559L440.096 351.236H433.455L423.992 326.217H429.438Z" fill="#140A82"/>
<path d="M453.492 326.217H458.572V351.236H453.492V326.217Z" fill="#140A82"/>
<path d="M463.008 326.217H483.528V330.832H475.808V351.236H470.728V330.832H463.008V326.217Z" fill="#140A82"/>
<path d="M487.992 326.216H502.585V330.549H493.072V336.327H501.141V340.66H493.072V346.919H502.585V351.235H487.992V326.216ZM492.973 324.074L497.024 319.243H502.237L497.588 324.074H492.973Z" fill="#140A82"/>
<path d="M509.904 344.379C510.535 345.278 511.362 346.022 512.323 346.554C513.284 347.086 514.353 347.392 515.449 347.45C515.858 347.509 516.274 347.477 516.669 347.357C517.063 347.237 517.427 347.033 517.734 346.757C518.041 346.482 518.284 346.143 518.446 345.763C518.607 345.384 518.684 344.974 518.67 344.561C518.67 340.079 507.231 341.092 507.231 332.757C507.26 331.749 507.493 330.757 507.915 329.84C508.337 328.924 508.939 328.102 509.687 327.425C510.434 326.747 511.311 326.228 512.264 325.897C513.217 325.567 514.227 325.433 515.234 325.502C516.919 325.493 518.585 325.868 520.104 326.598C521.623 327.329 522.955 328.396 523.999 329.719L520.281 333.04C519.744 332.175 519.015 331.446 518.152 330.907C517.288 330.369 516.313 330.036 515.3 329.935C514.936 329.903 514.57 329.946 514.224 330.062C513.878 330.178 513.559 330.364 513.288 330.609C513.017 330.854 512.799 331.151 512.648 331.484C512.497 331.816 512.417 332.176 512.411 332.542C512.411 337.007 523.85 335.978 523.85 344.445C523.767 349.094 520.131 351.949 515.549 351.949C513.78 352.031 512.016 351.695 510.401 350.969C508.785 350.242 507.364 349.144 506.252 347.766L509.904 344.379Z" fill="#140A82"/>
<path d="M75.5645 362.31H96.0845V366.908H88.3646V387.329H83.2844V366.908H75.5645V362.31Z" fill="#140A82"/>
<path d="M100.568 362.31H115.145V366.626H105.632V372.42H113.717V376.737H105.632V382.929H115.145V387.262H100.568V362.31Z" fill="#140A82"/>
<path d="M121.039 362.31H128.693C134.204 362.31 137.591 365.132 137.591 369.78C137.654 371.141 137.306 372.49 136.593 373.651C135.879 374.811 134.833 375.73 133.59 376.288L141.46 387.379H135.383L128.742 377.251H126.119V387.379H121.039V362.31ZM126.119 366.626V372.968H128.991C129.422 372.999 129.854 372.942 130.26 372.799C130.667 372.656 131.04 372.43 131.356 372.137C131.672 371.843 131.924 371.487 132.096 371.092C132.268 370.696 132.357 370.27 132.357 369.839C132.357 369.407 132.268 368.981 132.096 368.585C131.924 368.19 131.672 367.834 131.356 367.541C131.04 367.247 130.667 367.022 130.26 366.878C129.854 366.735 129.422 366.678 128.991 366.709L126.119 366.626Z" fill="#140A82"/>
<path d="M144.58 362.31H152.217C157.729 362.31 161.132 365.132 161.132 369.78C161.194 371.139 160.848 372.485 160.138 373.645C159.428 374.805 158.386 375.726 157.148 376.288L165.017 387.379H158.941L152.3 377.251H149.677V387.379H144.58V362.31ZM149.561 366.626V372.968H152.549C152.979 372.999 153.411 372.942 153.818 372.799C154.225 372.656 154.598 372.43 154.914 372.137C155.23 371.843 155.481 371.487 155.654 371.092C155.826 370.696 155.915 370.27 155.915 369.839C155.915 369.407 155.826 368.981 155.654 368.585C155.481 368.19 155.23 367.834 154.914 367.541C154.598 367.247 154.225 367.022 153.818 366.878C153.411 366.735 152.979 366.678 152.549 366.709L149.561 366.626Z" fill="#140A82"/>
<path d="M168.168 362.31H173.232V387.329H168.168V362.31Z" fill="#140A82"/>
<path d="M177.666 362.31H198.203V366.908H190.466V387.329H185.486V366.908H177.666V362.31Z" fill="#140A82"/>
<path d="M225.93 374.811C225.93 377.438 225.151 380.005 223.692 382.19C222.233 384.374 220.158 386.076 217.731 387.081C215.305 388.087 212.634 388.35 210.058 387.837C207.481 387.325 205.115 386.06 203.257 384.202C201.4 382.345 200.135 379.978 199.622 377.402C199.11 374.825 199.373 372.155 200.378 369.728C201.383 367.301 203.086 365.227 205.27 363.767C207.454 362.308 210.022 361.529 212.649 361.529C214.403 361.493 216.146 361.812 217.774 362.466C219.402 363.121 220.88 364.098 222.121 365.339C223.361 366.579 224.338 368.058 224.993 369.686C225.648 371.313 225.967 373.057 225.93 374.811ZM220.701 374.811C220.62 373.234 220.077 371.715 219.141 370.443C218.205 369.172 216.917 368.202 215.435 367.656C213.954 367.109 212.345 367.01 210.807 367.369C209.269 367.728 207.871 368.531 206.785 369.677C205.699 370.824 204.973 372.264 204.698 373.819C204.423 375.373 204.609 376.975 205.236 378.425C205.862 379.874 206.899 381.108 208.22 381.974C209.541 382.84 211.086 383.299 212.665 383.294C213.76 383.296 214.844 383.074 215.85 382.643C216.856 382.211 217.764 381.579 218.517 380.785C219.271 379.991 219.855 379.052 220.233 378.025C220.611 376.998 220.776 375.904 220.717 374.811H220.701Z" fill="#140A82"/>
<path d="M230.793 362.31H238.446C243.958 362.31 247.345 365.132 247.345 369.78C247.398 371.133 247.045 372.471 246.332 373.621C245.619 374.772 244.579 375.684 243.344 376.239L251.213 387.329H245.137L238.496 377.202H235.89V387.329H230.81L230.793 362.31ZM235.873 366.626V372.968H238.729C239.159 372.999 239.591 372.942 239.998 372.799C240.405 372.656 240.778 372.43 241.093 372.137C241.409 371.843 241.661 371.487 241.833 371.092C242.006 370.696 242.095 370.27 242.095 369.839C242.095 369.407 242.006 368.981 241.833 368.585C241.661 368.19 241.409 367.834 241.093 367.541C240.778 367.247 240.405 367.022 239.998 366.878C239.591 366.735 239.159 366.678 238.729 366.709L235.873 366.626Z" fill="#140A82"/>
<path d="M254.367 362.31H259.431V387.329H254.367V362.31Z" fill="#140A82"/>
<path d="M272.778 362.31H279.418L288.898 387.329H283.502L281.095 380.821H271.134L268.743 387.329H263.348L272.778 362.31ZM279.518 376.488L276.098 367.091L272.661 376.488H279.518Z" fill="#140A82"/>
<path d="M292.75 362.31H297.83V382.713H307.277V387.329H292.684L292.75 362.31Z" fill="#140A82"/>
<path d="M311.812 362.31H326.406V366.626H316.893V372.42H324.961V376.737H316.893V382.929H326.406V387.262H311.812V362.31Z" fill="#140A82"/>
<path d="M333.727 380.455C334.354 381.359 335.18 382.107 336.141 382.642C337.102 383.178 338.173 383.486 339.272 383.543C339.681 383.599 340.097 383.564 340.492 383.443C340.887 383.321 341.25 383.115 341.557 382.838C341.863 382.561 342.106 382.221 342.268 381.841C342.429 381.461 342.506 381.05 342.493 380.638C342.493 376.172 331.054 377.168 331.054 368.85C331.08 367.84 331.311 366.846 331.732 365.928C332.153 365.01 332.756 364.186 333.503 363.507C334.251 362.827 335.128 362.306 336.082 361.975C337.037 361.644 338.048 361.509 339.056 361.578C340.741 361.57 342.405 361.947 343.921 362.681C345.438 363.414 346.766 364.486 347.805 365.812L344.103 369.132C343.568 368.265 342.84 367.532 341.977 366.991C341.113 366.449 340.136 366.114 339.122 366.011C338.757 365.979 338.389 366.023 338.042 366.14C337.695 366.257 337.375 366.444 337.104 366.691C336.833 366.937 336.615 367.237 336.466 367.571C336.316 367.906 336.237 368.268 336.234 368.634C336.234 373.1 347.672 372.054 347.672 380.538C347.589 385.186 343.953 388.042 339.371 388.042C337.602 388.12 335.84 387.782 334.225 387.056C332.611 386.329 331.189 385.234 330.074 383.858L333.727 380.455Z" fill="#140A82"/>
<path d="M159.519 456.575C160.199 456.575 160.797 457.09 160.482 458.401L157.327 459.132C157.875 457.654 158.788 456.575 159.519 456.575ZM161.179 461.655H160.565C160.285 462.084 159.922 462.452 159.497 462.738C159.072 463.023 158.594 463.219 158.091 463.315C157.228 463.315 156.779 462.801 156.779 461.655C156.779 461.186 156.829 460.719 156.929 460.261L162.009 458.6C163.005 456.243 161.81 455.28 160.349 455.28C157.942 455.28 155.202 459.298 155.202 462.834C155.202 464.411 155.966 465.274 157.145 465.274C158.323 465.274 159.95 463.93 161.112 461.721L161.179 461.655ZM160.116 454.35L163.686 451.03V450.648H161.959L159.751 454.317L160.116 454.35ZM149.142 456.691H150.803L148.13 464.013C148.062 464.142 148.029 464.285 148.032 464.431C148.035 464.576 148.075 464.718 148.148 464.844C148.221 464.97 148.324 465.076 148.449 465.151C148.573 465.226 148.715 465.268 148.86 465.274C149.904 465.136 150.895 464.737 151.743 464.113C152.59 463.489 153.266 462.66 153.708 461.705H153.227C152.386 462.606 151.311 463.256 150.122 463.581L152.878 456.625H155.385L155.7 455.579H153.193L154.123 452.939H153.16L151.5 455.579L149.425 455.878L149.142 456.691ZM146.868 456.342C146.915 456.233 146.937 456.114 146.93 455.995C146.923 455.876 146.888 455.76 146.828 455.656C146.769 455.553 146.686 455.465 146.586 455.4C146.486 455.335 146.372 455.293 146.254 455.28C145.369 455.39 144.534 455.747 143.843 456.311C143.153 456.875 142.636 457.623 142.352 458.467H142.834C143.298 457.719 144.017 457.165 144.859 456.907L142.053 464.195C141.999 464.305 141.972 464.427 141.975 464.549C141.978 464.672 142.012 464.792 142.072 464.899C142.133 465.005 142.219 465.096 142.323 465.161C142.427 465.227 142.545 465.265 142.668 465.274C143.523 465.144 144.326 464.776 144.983 464.212C145.64 463.649 146.126 462.912 146.387 462.087H145.905C145.438 462.832 144.719 463.385 143.88 463.647L146.868 456.342ZM147.383 452.673C147.553 452.693 147.725 452.677 147.888 452.626C148.051 452.574 148.202 452.489 148.33 452.375C148.457 452.262 148.56 452.122 148.63 451.966C148.7 451.81 148.736 451.641 148.736 451.47C148.736 451.299 148.7 451.129 148.63 450.973C148.56 450.817 148.457 450.678 148.33 450.564C148.202 450.45 148.051 450.365 147.888 450.314C147.725 450.262 147.553 450.246 147.383 450.266C147.213 450.246 147.04 450.262 146.877 450.314C146.714 450.365 146.564 450.45 146.436 450.564C146.308 450.678 146.205 450.817 146.135 450.973C146.065 451.129 146.029 451.299 146.029 451.47C146.029 451.641 146.065 451.81 146.135 451.966C146.205 452.122 146.308 452.262 146.436 452.375C146.564 452.489 146.714 452.574 146.877 452.626C147.04 452.677 147.213 452.693 147.383 452.673ZM131.212 463.913C130.847 464.743 131.212 465.274 132.042 465.274C132.54 465.274 132.756 465.141 132.956 464.61L134.898 459.447C135.804 458.354 137.019 457.561 138.384 457.173C138.916 457.173 138.849 457.621 138.501 458.268L135.512 464.013C135.44 464.141 135.403 464.286 135.404 464.433C135.404 464.58 135.444 464.724 135.517 464.852C135.591 464.979 135.697 465.085 135.824 465.159C135.951 465.233 136.096 465.273 136.243 465.274C137.127 465.164 137.963 464.807 138.653 464.243C139.343 463.679 139.86 462.932 140.144 462.087H139.663C139.199 462.835 138.479 463.39 137.637 463.647L140.194 458.467C140.492 457.915 140.662 457.302 140.692 456.674C140.712 456.491 140.691 456.305 140.631 456.13C140.572 455.955 140.474 455.796 140.346 455.663C140.218 455.53 140.062 455.426 139.889 455.36C139.717 455.294 139.532 455.267 139.347 455.28C138.069 455.28 136.791 456.724 135.263 458.484V457.123C135.263 456.143 134.948 455.28 134.068 455.28C133.52 455.28 132.989 455.761 132.408 456.442V456.625C133.371 456.625 133.786 458.003 133.105 459.513L131.212 463.913ZM131.212 457.521C131.561 456.326 131.378 455.28 130.449 455.28C129.519 455.28 129.104 456.11 127.992 458.484V457.123C127.992 456.143 127.693 455.28 126.813 455.28C125.933 455.28 124.837 456.94 124.123 458.467H124.605C125.103 457.737 125.551 457.322 125.916 457.322C126.282 457.322 126.597 458.003 125.916 459.513L123.941 463.913C123.575 464.743 123.941 465.274 124.771 465.274C125.269 465.274 125.485 465.141 125.684 464.61L127.626 459.447C128.174 458.766 128.672 458.185 129.286 457.521H131.212ZM119.94 456.641C120.62 456.641 121.201 457.156 120.902 458.467L117.748 459.198C118.296 457.72 119.209 456.641 119.94 456.641ZM121.683 461.721H121.068C120.787 462.152 120.422 462.522 119.994 462.807C119.566 463.092 119.084 463.288 118.578 463.382C117.715 463.382 117.283 462.867 117.283 461.721C117.283 461.253 117.333 460.785 117.433 460.327L122.513 458.667C123.509 456.309 122.314 455.346 120.853 455.346C118.445 455.346 115.706 459.364 115.706 462.9C115.706 464.477 116.47 465.341 117.632 465.341C118.794 465.341 120.438 463.996 121.616 461.788L121.683 461.721ZM109.63 456.807H111.29L108.883 463.946C108.81 464.074 108.773 464.219 108.774 464.367C108.775 464.514 108.814 464.658 108.888 464.785C108.962 464.913 109.067 465.019 109.194 465.093C109.322 465.167 109.466 465.207 109.613 465.208C110.657 465.07 111.648 464.67 112.496 464.046C113.343 463.422 114.019 462.594 114.461 461.638H113.979C113.139 462.54 112.064 463.189 110.875 463.514L113.332 456.625H115.855L116.171 455.579H113.73L114.66 452.939H113.681L112.02 455.579L109.945 455.878L109.63 456.807ZM100.366 462.518C100.366 460.261 102.889 457.206 104.3 457.206C104.591 457.203 104.881 457.237 105.164 457.305L103.686 461.223C102.856 462.253 101.545 463.498 100.947 463.498C100.349 463.498 100.366 463.199 100.366 462.518ZM108.102 454.981H107.322L106.459 455.811H106.276C102.092 455.811 98.4898 460.51 98.4898 463.93C98.4724 464.131 98.4989 464.334 98.5676 464.524C98.6363 464.714 98.7455 464.887 98.8876 465.03C99.0297 465.174 99.2014 465.285 99.3907 465.356C99.58 465.427 99.7824 465.456 99.984 465.44C101.063 465.44 102.126 463.896 103.304 462.236V462.834C103.155 464.494 103.67 465.44 104.55 465.44C105.429 465.44 106.509 463.78 107.239 462.253H106.758C106.26 462.967 105.795 463.398 105.429 463.398C105.064 463.398 104.765 462.701 105.429 461.207L108.102 454.981ZM99.1871 457.637C99.5357 456.442 99.3531 455.396 98.4234 455.396C97.4937 455.396 97.062 456.226 95.9663 458.6V457.239C95.9663 456.259 95.6508 455.396 94.7709 455.396C93.891 455.396 92.8119 457.056 92.098 458.584H92.5795C93.0775 457.853 93.5258 457.438 93.891 457.438C94.2563 457.438 94.5717 458.119 93.891 459.63L91.9154 464.029C91.5502 464.859 91.9154 465.391 92.7455 465.391C92.9534 465.415 93.163 465.361 93.3323 465.238C93.5017 465.114 93.6182 464.932 93.6586 464.726L95.601 459.563C96.1489 458.883 96.647 458.301 97.2612 457.637H99.1871ZM85.1252 465.009L85.3078 464.444C82.8673 463.996 82.5519 463.996 83.5314 461.323L84.5275 458.6H87.217C88.429 458.6 88.4456 459.082 88.263 460.41H88.9602L90.6204 455.994H89.9232C89.3255 457.04 88.844 457.803 87.5159 457.803H84.8596L86.2707 453.935C86.719 452.707 86.968 452.441 88.6282 452.441H89.8069C91.4671 452.441 91.6996 452.906 91.6996 454.632H92.3803L92.9613 451.627H82.8341L82.6515 452.192C84.6105 452.59 84.7931 452.773 83.88 455.313L81.672 461.323C80.7589 463.847 80.3604 464.046 78.1191 464.444L77.9531 465.009H85.1252Z" fill="#140A82"/>
<path d="M135.017 433.648C135.681 433.648 136.279 434.162 135.963 435.457L132.809 436.188C133.357 434.727 134.27 433.648 135.017 433.648ZM136.76 438.728H136.129C135.85 439.157 135.487 439.525 135.062 439.81C134.637 440.096 134.159 440.292 133.656 440.388C132.792 440.388 132.344 439.873 132.344 438.728C132.35 438.259 132.4 437.792 132.494 437.333L137.574 435.673C138.57 433.332 137.375 432.353 135.914 432.353C133.506 432.353 130.784 436.37 130.784 439.89C130.784 441.467 131.531 442.331 132.709 442.331C133.888 442.331 135.515 440.986 136.694 438.794L136.76 438.728ZM135.681 431.423L139.251 428.103V427.721H137.391L135.2 431.456L135.681 431.423ZM124.707 433.764H126.367L123.778 441.036C123.709 441.163 123.675 441.306 123.678 441.451C123.681 441.596 123.721 441.738 123.794 441.863C123.868 441.988 123.972 442.092 124.097 442.165C124.222 442.238 124.363 442.278 124.508 442.281C125.55 442.144 126.54 441.747 127.388 441.126C128.235 440.505 128.912 439.68 129.356 438.728H128.874C128.036 439.621 126.967 440.264 125.786 440.587L128.243 433.714H130.75L131.066 432.668H128.625L129.555 430.028H128.592L126.849 432.735L124.774 433.033L124.707 433.764ZM122.433 433.415C122.484 433.306 122.508 433.186 122.503 433.066C122.498 432.945 122.464 432.828 122.404 432.723C122.343 432.619 122.258 432.531 122.157 432.466C122.055 432.402 121.939 432.363 121.819 432.353C120.961 432.471 120.152 432.824 119.482 433.371C118.811 433.919 118.304 434.641 118.017 435.457H118.498C118.966 434.713 119.684 434.16 120.524 433.897L117.718 441.202C117.662 441.31 117.635 441.431 117.638 441.553C117.641 441.675 117.675 441.794 117.736 441.9C117.797 442.006 117.883 442.094 117.988 442.158C118.092 442.222 118.21 442.258 118.332 442.264C119.186 442.135 119.987 441.769 120.644 441.209C121.301 440.649 121.788 439.916 122.051 439.093H121.569C121.101 439.837 120.383 440.391 119.544 440.654L122.433 433.415ZM122.947 429.746C123.187 429.746 123.421 429.675 123.621 429.542C123.82 429.409 123.975 429.22 124.067 428.998C124.159 428.777 124.183 428.533 124.136 428.298C124.089 428.063 123.974 427.847 123.804 427.677C123.635 427.508 123.419 427.392 123.184 427.346C122.949 427.299 122.705 427.323 122.484 427.415C122.262 427.506 122.073 427.662 121.94 427.861C121.807 428.06 121.735 428.295 121.735 428.534C121.735 428.856 121.863 429.164 122.09 429.391C122.318 429.619 122.626 429.746 122.947 429.746ZM113.185 440.72L118.299 427.306L118.133 427.107L114.929 427.472V427.754L115.543 428.235C116.124 428.667 115.941 429.099 115.427 430.46L111.492 441.036C111.419 441.163 111.38 441.307 111.381 441.454C111.381 441.6 111.421 441.744 111.495 441.871C111.569 441.997 111.676 442.102 111.803 442.174C111.931 442.246 112.076 442.283 112.223 442.281C113.082 442.167 113.89 441.807 114.55 441.244C115.21 440.682 115.693 439.94 115.941 439.11H115.477C114.928 439.862 114.146 440.411 113.252 440.67L113.185 440.72ZM103.523 439.375C103.523 437.118 106.047 434.046 107.458 434.046C107.75 434.042 108.041 434.081 108.321 434.162L106.844 438.064C105.997 439.093 104.702 440.338 104.088 440.338C103.739 440.338 103.523 440.056 103.523 439.375ZM111.243 431.821H110.479L109.616 432.668H109.433C105.25 432.668 101.63 437.367 101.63 440.77C101.613 440.973 101.64 441.177 101.709 441.368C101.779 441.56 101.89 441.734 102.034 441.878C102.178 442.022 102.351 442.132 102.543 442.202C102.734 442.272 102.938 442.298 103.141 442.281C104.22 442.281 105.283 440.737 106.462 439.093V439.674C106.312 441.334 106.827 442.281 107.707 442.281C108.587 442.281 109.666 440.621 110.38 439.11H109.882C109.384 439.824 108.919 440.239 108.554 440.239C108.188 440.239 107.889 439.541 108.554 438.064L111.243 431.821ZM92.5658 444.007C92.5658 443.044 93.5121 442.43 94.8403 441.899C95.4897 442.19 96.1548 442.445 96.8325 442.663C98.2271 443.111 98.7583 443.293 98.7583 443.725C98.7583 444.622 97.231 445.385 95.1557 445.385C93.4955 445.385 92.5658 445.02 92.5658 444.09V444.007ZM96.4341 438.114C95.8364 438.114 95.5874 437.599 95.5874 437.018C95.5874 435.358 96.4673 432.984 97.8452 432.984C98.4595 432.984 98.6919 433.498 98.6919 434.079C98.6919 435.74 97.812 438.114 96.4341 438.114ZM100.419 443.094C100.419 441.916 99.3726 441.434 97.6626 440.986C95.9526 440.538 95.5376 440.421 95.5376 439.94C95.5779 439.68 95.6847 439.435 95.8476 439.228C96.0105 439.022 96.2239 438.861 96.4673 438.761C97.5182 438.688 98.505 438.229 99.2375 437.472C99.9701 436.715 100.397 435.713 100.435 434.66C100.441 434.313 100.373 433.967 100.236 433.648H102.278L102.577 432.602H99.2896C98.8935 432.364 98.4402 432.237 97.978 432.237C96.8944 432.252 95.8572 432.679 95.0771 433.432C94.297 434.184 93.8325 435.205 93.7777 436.287C93.7487 436.861 93.93 437.425 94.2877 437.875C94.6453 438.324 95.1547 438.628 95.7202 438.728C94.5414 439.259 93.8774 439.89 93.8774 440.621C93.8718 440.815 93.9144 441.007 94.0013 441.181C94.0882 441.355 94.2167 441.505 94.3754 441.617C91.6195 442.414 90.5404 443.277 90.5404 444.638C90.5404 446 92.2006 446.431 94.1928 446.431C97.5132 446.431 100.352 444.622 100.352 443.111L100.419 443.094ZM87.5188 435.258C88.7307 435.258 88.7473 435.756 88.5647 437.084H89.262L90.9222 432.652H90.2249C89.6106 433.698 89.1292 434.478 87.8176 434.478H85.1613L86.4895 430.776C86.9377 429.547 87.1868 429.315 88.847 429.315H90.0257C91.6859 429.315 91.9183 429.779 91.9183 431.473H92.599L93.1801 428.468H83.0529L82.8702 429.032C84.8293 429.447 85.0119 429.63 84.0988 432.154L81.8907 438.18C80.9776 440.687 80.5792 440.886 78.3379 441.301L78.1719 441.866H89.428L91.4535 438.711H90.6732C90.0141 439.425 89.2198 440.002 88.3363 440.406C87.4529 440.811 86.4978 441.036 85.5266 441.069C82.5382 441.069 82.8038 440.953 83.8664 438.213L84.9289 435.291L87.5188 435.258ZM88.9964 427.571L92.5658 425.114V424.732H90.4075L88.4319 427.571H88.9964Z" fill="#140A82"/>
<path d="M133.822 410.703C134.502 410.703 135.083 411.218 134.768 412.53L131.614 413.26C132.162 411.782 133.091 410.703 133.822 410.703ZM135.482 415.783H134.851C134.575 416.215 134.212 416.585 133.787 416.871C133.361 417.156 132.882 417.351 132.377 417.444C131.514 417.444 131.066 416.929 131.066 415.783C131.106 415.34 131.183 414.902 131.298 414.472L136.378 412.812C137.375 410.454 136.179 409.491 134.718 409.491C132.328 409.491 129.588 413.509 129.588 417.045C129.588 418.622 130.335 419.486 131.514 419.486C132.693 419.486 134.32 418.141 135.499 415.933L135.482 415.783ZM134.619 408.412L138.188 405.092V404.71H136.279L134.087 408.429L134.619 408.412ZM124.11 410.77H125.438L122.765 418.075C122.698 418.204 122.664 418.347 122.667 418.493C122.67 418.638 122.71 418.78 122.783 418.906C122.856 419.032 122.96 419.138 123.084 419.213C123.209 419.288 123.35 419.33 123.495 419.336C124.539 419.198 125.53 418.799 126.378 418.175C127.225 417.551 127.901 416.722 128.343 415.767H127.862C126.994 416.684 125.882 417.335 124.657 417.643L127.131 410.77H129.638L129.953 409.724H127.546L128.476 407.067H127.513L125.853 409.724L124.193 410.006L124.11 410.77ZM122.781 411.583C123.13 410.388 122.947 409.342 122.034 409.342C121.121 409.342 120.673 410.172 119.577 412.546V411.152C119.577 410.172 119.262 409.309 118.382 409.309C117.502 409.309 116.423 410.969 115.709 412.496H116.174C116.672 411.782 117.137 411.351 117.502 411.351C117.867 411.351 118.183 412.031 117.502 413.542L115.51 417.942C115.145 418.772 115.51 419.303 116.34 419.303C116.838 419.303 117.054 419.17 117.253 418.639L119.212 413.476C119.76 412.795 120.258 412.214 120.872 411.55L122.781 411.583ZM111.525 410.703C112.189 410.703 112.787 411.218 112.472 412.53L109.317 413.26C109.865 411.782 110.778 410.703 111.525 410.703ZM113.268 415.783H112.638C112.36 416.214 111.997 416.583 111.572 416.868C111.146 417.154 110.667 417.35 110.164 417.444C109.301 417.444 108.852 416.929 108.852 415.783C108.86 415.315 108.91 414.848 109.002 414.389L114.082 412.729C115.078 410.371 113.883 409.408 112.422 409.408C110.014 409.408 107.292 413.426 107.292 416.962C107.292 418.539 108.039 419.403 109.218 419.403C110.396 419.403 112.023 418.058 113.202 415.85L113.268 415.783ZM100.734 417.792C100.236 417.792 99.522 417.327 99.522 416.929C99.6495 416.446 99.8161 415.974 100.02 415.518L100.85 413.343C101.73 412.297 103.058 411.168 103.822 411.168C104.27 411.168 104.619 411.467 104.619 412.148C104.619 414.14 102.759 417.792 100.734 417.792ZM106.511 411.334C106.511 409.857 105.964 409.292 104.851 409.292C103.739 409.292 102.361 410.653 101.149 412.314L104.22 404.245L104.054 404.046L100.917 404.511V404.909L101.547 405.374C102.112 405.822 101.929 406.287 101.415 407.599L98.0943 416.132C97.8744 416.637 97.6967 417.159 97.563 417.693C97.563 418.573 98.7583 419.353 99.8375 419.353C102.328 419.353 106.478 414.854 106.478 411.401L106.511 411.334ZM96.5171 410.438C96.5677 410.329 96.5918 410.209 96.5875 410.089C96.5832 409.969 96.5506 409.851 96.4924 409.746C96.4341 409.641 96.3519 409.551 96.2523 409.484C96.1527 409.416 96.0387 409.374 95.9194 409.359C95.0319 409.465 94.1929 409.822 93.4994 410.386C92.806 410.95 92.2866 411.699 92.0013 412.546H92.4828C92.9531 411.797 93.6783 411.242 94.5248 410.986L91.7191 418.29C91.6639 418.398 91.6362 418.517 91.6385 418.638C91.6407 418.759 91.6729 418.877 91.7321 418.982C91.7914 419.088 91.8758 419.177 91.9778 419.241C92.0798 419.306 92.1963 419.344 92.3168 419.353C93.1796 419.222 93.988 418.851 94.6488 418.281C95.3097 417.711 95.7962 416.966 96.0522 416.132H95.5874C95.1138 416.878 94.3898 417.432 93.5453 417.693L96.5171 410.438ZM97.0317 406.752C97.3503 406.752 97.6561 406.627 97.8829 406.403C98.1097 406.179 98.2393 405.875 98.2437 405.557C98.2437 405.235 98.116 404.927 97.8887 404.7C97.6614 404.472 97.3532 404.345 97.0317 404.345C96.7103 404.345 96.402 404.472 96.1748 404.7C95.9475 404.927 95.8198 405.235 95.8198 405.557C95.8198 405.715 95.8512 405.872 95.9123 406.018C95.9734 406.164 96.063 406.297 96.1757 406.408C96.2885 406.519 96.4222 406.607 96.5692 406.666C96.7161 406.725 96.8734 406.754 97.0317 406.752ZM89.6438 405.59H83.0031L82.8204 406.154C84.7961 406.553 84.9787 406.735 84.049 409.276L81.8907 415.285C80.9776 417.809 80.5792 418.008 78.3379 418.407L78.1719 418.988H88.2991L90.4905 415.053H89.7933C88.5481 416.431 87.0705 418.158 84.8127 418.158C83.1525 418.158 82.9034 417.859 83.8166 415.285L85.9748 409.276C86.8713 406.752 87.2864 406.553 89.5442 406.154L89.6438 405.59Z" fill="#140A82"/>
<path d="M129.275 155.889C128.819 156.383 128.341 156.877 127.885 157.328C126.582 158.251 125.176 159.022 123.696 159.627C121.851 160.383 120.072 161.289 118.377 162.334H78.3691V119.371H134.81C134.81 119.371 133.79 119.693 132.639 120.187C131.686 120.537 130.826 121.095 130.121 121.82C129.402 122.57 128.868 123.475 128.558 124.462C127.593 125.122 126.815 126.018 126.301 127.061C125.348 128.251 124.774 129.694 124.651 131.207C124.824 132.496 125.15 133.721 125.389 135.095C125.466 135.567 125.575 136.034 125.714 136.492C125.975 136.964 125.823 137.716 125.975 137.952C126.127 138.189 126.062 138.511 126.387 138.683V139.005C126.387 139.005 126.387 139.155 126.474 139.413V139.735C127.198 140.476 127.832 141.298 128.363 142.184C128.536 142.592 127.538 142.335 127.125 142.184C126.403 141.73 125.745 141.181 125.172 140.552C125.155 140.608 125.155 140.667 125.172 140.723C125.497 141.282 126.735 142.012 126.062 142.42C125.736 142.42 124.998 142.27 124.998 142.42V142.915C124.52 142.571 123.848 142.635 123.522 142.571C123.196 142.506 123.109 141.84 122.697 141.84C121.677 141.582 120.64 141.395 119.593 141.282C118.161 141.024 116.699 140.966 115.251 141.11C114.619 141.228 114.017 141.469 113.481 141.819C112.944 142.17 112.483 142.622 112.125 143.151V143.387C112.711 143.473 112.95 142.979 113.449 142.829C114.274 142.657 115.012 142.335 115.837 142.184C116.98 141.856 118.164 141.69 119.354 141.69C119.627 141.647 119.906 141.647 120.179 141.69C118.744 141.714 117.326 141.991 115.989 142.506C115.008 142.67 114.048 142.936 113.124 143.301C115.416 143.546 117.645 144.201 119.701 145.235C120.459 145.474 121.188 145.799 121.872 146.201C122.118 146.448 122.387 146.671 122.675 146.867C122.898 146.962 123.138 147.011 123.381 147.011C123.623 147.011 123.864 146.962 124.086 146.867H124.499C125.739 146.656 126.9 146.122 127.864 145.32H128.015C127.904 146.014 127.653 146.679 127.277 147.275C127.277 147.361 127.104 147.597 127.277 147.597C127.277 147.426 127.277 147.597 127.451 147.597H127.277C127.277 147.769 127.603 147.597 127.603 147.769C127.403 147.775 127.206 147.82 127.024 147.901C126.841 147.982 126.676 148.098 126.539 148.242C126.539 148.242 126.93 148.006 126.778 148.242C126.626 148.478 126.301 148.328 126.301 148.478H126.452C126.403 148.496 126.35 148.496 126.301 148.478V148.714C126.04 148.714 125.953 148.972 125.801 148.972C126.127 149.209 126.366 148.972 126.713 148.972C125.801 149.294 125.063 149.789 124.151 150.025C123.999 150.025 124.151 150.261 123.999 150.261C124.238 150.519 124.412 150.261 124.651 150.261C123.5 150.927 122.35 151.486 121.112 152.216C121.031 152.306 120.978 152.418 120.96 152.538H120.635C120.374 152.624 120.548 152.882 120.374 153.032C120.577 153.148 120.837 153.15 121.06 153.122C121.076 153.081 121.113 153.032 121.199 153.032H121.525C121.481 153.032 121.29 153.093 121.06 153.122C121.047 153.154 121.047 153.183 121.047 153.183H120.787C120.635 153.354 120.635 153.677 120.461 153.677C120.287 153.677 120.049 153.677 120.049 153.849C121.902 153.839 123.74 153.505 125.476 152.86C126.83 152.187 128.051 151.278 129.079 150.175C129.096 150.231 129.096 150.291 129.079 150.347C128.841 151.107 128.352 151.765 127.69 152.216C127.191 152.452 126.865 152.86 126.452 153.032L125.714 153.526C122.675 154.579 119.072 154.085 116.423 156.126C116.423 156.126 116.445 155.975 116.271 156.126C116.098 156.276 115.772 156.534 115.772 156.534C115.805 156.553 115.843 156.562 115.881 156.562C115.919 156.562 115.956 156.553 115.989 156.534H116.119C116.521 156.26 116.96 156.043 117.422 155.889L117.292 155.997L116.337 156.534C116.112 156.643 115.918 156.805 115.772 157.006C115.788 157.028 115.797 157.054 115.797 157.081C115.797 157.108 115.788 157.135 115.772 157.157C115.761 157.206 115.761 157.257 115.772 157.307C115.779 157.364 115.779 157.422 115.772 157.479V157.586H115.902C115.947 157.59 115.988 157.583 116.026 157.57C116.097 157.516 116.169 157.463 116.242 157.412C116.347 157.3 116.441 157.159 116.554 157.071C116.667 156.966 116.791 156.872 116.923 156.791C116.879 156.868 116.828 156.94 116.771 157.006H116.879C116.66 157.131 116.448 157.267 116.242 157.412C116.176 157.483 116.107 157.542 116.026 157.57C115.841 157.711 115.662 157.859 115.49 158.016V158.123C115.362 158.279 115.246 158.444 115.143 158.617L114.882 158.983L114.687 159.326C114.772 159.349 114.862 159.349 114.947 159.326L116.271 158.08H116.402C116.804 157.675 117.256 157.322 117.748 157.028C117.963 156.897 118.154 156.73 118.312 156.534L118.442 156.383C118.924 156.111 119.443 155.909 119.983 155.782C120.965 155.551 121.957 155.372 122.957 155.245C123.642 155.329 124.335 155.329 125.02 155.245C125.519 155.137 125.997 154.837 126.496 154.686V154.88C127.69 154.407 128.623 153.333 129.861 152.946H130.273C130.591 152.563 130.992 152.255 131.447 152.047C131.902 151.838 132.399 151.735 132.9 151.743V151.894L132.01 152.56C131.836 152.731 131.597 152.903 132.01 152.731C132.422 152.56 132.661 152.237 133.073 152.087C132.9 152.173 132.9 152.409 132.9 152.409C132.587 152.624 132.289 152.861 132.01 153.118C131.033 153.977 130.119 154.903 129.275 155.889Z" fill="#000091"/>
<path d="M197.989 119.371H150.599C150.763 119.409 150.92 119.475 151.061 119.565L152.248 120.19C152.887 120.479 153.434 120.934 153.831 121.504C153.953 121.649 154.04 121.82 154.086 122.002C154.131 122.185 154.134 122.376 154.094 122.56C153.918 122.969 153.831 123.616 153.413 123.788C152.861 124.001 152.258 124.054 151.676 123.939C151.343 123.92 151.011 123.87 150.687 123.788C152.019 124.197 153.187 125.003 154.028 126.093C154.028 126.244 154.446 126.33 154.776 126.33C155.105 126.33 154.776 126.503 154.776 126.567C154.776 126.632 154.446 126.826 154.512 127.063H154.776C155.193 126.891 155.105 126.093 155.677 126.33C155.885 126.452 156.037 126.647 156.103 126.876C156.168 127.104 156.142 127.349 156.029 127.559C155.677 127.882 155.347 128.119 155.017 128.377C154.975 128.465 154.952 128.56 154.952 128.657C154.952 128.754 154.975 128.85 155.017 128.937C155.23 129.226 155.373 129.557 155.435 129.907C155.677 130.489 155.765 131.135 156.029 131.717C156.424 132.899 156.617 134.136 156.6 135.38C156.6 136.026 156.27 136.608 156.6 137.254C156.828 137.86 157.139 138.432 157.523 138.956C157.854 139.374 158.155 139.813 158.424 140.271C158.93 141.089 159.853 141.887 159.436 142.878C159.194 143.438 158.271 143.352 157.677 143.696C157.084 144.041 157.677 144.752 157.853 145.162C158.029 145.571 157.347 146.368 156.776 146.627C156.93 146.864 157.281 146.777 157.347 146.95C157.413 147.122 157.853 147.596 157.611 148.006C157.369 148.415 156.27 148.738 156.776 149.471C156.907 149.751 156.974 150.056 156.974 150.365C156.974 150.673 156.907 150.978 156.776 151.259C156.653 151.571 156.451 151.847 156.19 152.061C155.928 152.276 155.616 152.423 155.281 152.487C154.762 152.616 154.218 152.616 153.699 152.487C153.548 152.389 153.374 152.33 153.193 152.315C151.798 152.054 150.389 151.867 148.973 151.755C148.571 151.81 148.18 151.919 147.808 152.078C147.443 152.331 147.104 152.62 146.797 152.94L146.621 153.134V153.263C146.381 153.558 146.161 153.867 145.962 154.189V154.319C145.694 154.789 145.48 155.288 145.324 155.805C145.056 156.414 144.918 157.07 144.918 157.734C144.918 158.397 145.056 159.053 145.324 159.662C145.324 159.77 148.05 160.567 149.896 161.364C150.57 161.643 151.224 161.967 151.852 162.334H197.989V119.371Z" fill="#E1000F"/>
<path d="M153.794 135.519C154.124 135.519 154.579 135.519 154.579 135.775C154.434 136.495 153.483 136.657 153.029 137.354H152.78C152.553 137.539 152.636 137.981 152.388 137.981C152.16 137.89 151.912 137.89 151.685 137.981C151.828 138.169 152.01 138.315 152.216 138.404C152.422 138.493 152.644 138.523 152.863 138.492C152.863 138.492 153.091 138.677 153.091 138.84C153.145 138.857 153.202 138.857 153.256 138.84H153.421V139.211C153.173 139.56 152.78 139.374 152.47 139.467C153.061 139.629 153.678 139.629 154.269 139.467C154.745 139.281 154.269 138.399 154.579 137.981C154.434 137.981 154.579 137.702 154.434 137.702C154.29 137.702 154.745 137.261 154.889 137.191C154.983 137.193 155.076 137.169 155.159 137.12C155.242 137.071 155.313 137 155.365 136.913C155.365 136.75 155.055 136.657 155.137 136.471C155.592 136.123 155.985 135.589 155.84 135.078C155.696 134.567 155.137 134.799 154.745 134.637C154.312 134.5 153.854 134.5 153.421 134.637C153.037 134.751 152.663 134.907 152.305 135.101C151.765 135.292 151.261 135.591 150.816 135.984C151.371 135.74 151.946 135.561 152.532 135.45C152.954 135.409 153.378 135.433 153.794 135.519Z" fill="#9D9D9C"/>
</svg>
