<svg width="600" height="600" viewBox="0 0 600 600" fill="none" xmlns="http://www.w3.org/2000/svg">
<rect width="600" height="600" rx="50" fill="#F6F5FC"/>
<path d="M387.047 216.156V125.313C387.047 120.122 382.848 116 377.733 116H221.621C216.506 116 212.307 120.199 212.307 125.313V216.156C212.231 218.599 212.307 220.966 212.46 223.409C213.452 236.692 216.735 249.593 222.155 261.731C222.689 262.876 223.224 264.021 223.758 265.166C225.361 268.448 227.193 271.578 229.102 274.708C232.69 280.434 236.888 285.777 241.545 290.663L244.293 293.488C247.194 296.388 250.171 299.213 253.149 301.808C255.744 304.099 258.492 306.312 261.164 308.45C263.225 309.977 265.21 311.503 267.195 312.878C282.386 323.336 293.913 326.695 297.12 327.458L299.639 327.993L302.082 327.458C307.96 325.855 313.685 323.565 319.029 320.664C325.212 317.458 331.09 313.717 336.739 309.519C344.297 303.793 351.32 297.533 357.809 290.663C364.985 283.105 371.015 274.556 375.596 265.242C379.336 257.608 382.237 249.593 384.146 241.272C385.52 235.394 386.436 229.439 386.894 223.409C387.123 220.966 387.123 218.523 387.047 216.156Z" fill="#DB3749"/>
<path d="M382.466 216.232V125.618C382.466 122.87 380.252 120.732 377.58 120.732H221.849C219.177 120.732 216.964 122.946 216.964 125.618V216.232C216.887 218.522 216.964 220.736 217.116 223.026C218.032 235.699 221.162 248.142 226.353 259.745C226.888 260.89 227.422 261.959 227.88 263.028C229.407 266.158 231.163 269.211 232.995 272.112C236.43 277.608 240.4 282.647 244.827 287.38C245.743 288.296 246.583 289.212 247.575 290.128C250.4 292.953 253.301 295.701 256.202 298.296C258.721 300.51 261.316 302.724 263.988 304.709C265.973 306.235 267.881 307.61 269.866 308.984C284.371 318.984 295.287 322.114 298.264 322.877L299.638 323.183L301.012 322.877C306.509 321.351 311.853 319.289 316.891 316.541C322.845 313.411 328.494 309.823 333.838 305.777C341.167 300.281 347.961 294.098 354.221 287.456C361.091 280.28 366.816 272.036 371.168 263.104C374.756 255.776 377.504 248.065 379.336 240.126C380.634 234.477 381.55 228.828 381.932 223.026C382.313 220.736 382.39 218.522 382.466 216.232ZM248.873 178.597C249.408 183.865 247.804 189.743 246.125 195.926C244.445 202.109 242.766 208.14 243.071 214.018C243.453 217.759 244.293 221.5 245.667 225.011C246.965 228.446 247.881 232.034 248.415 235.699C248.873 240.966 247.27 246.31 245.82 251.424C244.445 255.928 243.071 260.585 243.071 265.165C243.071 270.051 244.522 275.318 246.049 280.433C242.155 276.005 238.796 271.196 235.819 266.081C235.59 265.7 235.361 265.318 235.132 264.936L234.979 264.631C235.438 261.196 236.277 257.837 237.422 254.631C238.873 250.89 239.712 246.92 240.094 242.951C240.171 237.836 239.254 232.798 237.346 228.065C235.972 224.4 235.132 220.507 234.75 216.538C234.292 210.278 236.048 204.323 237.728 198.369C239.254 192.949 240.781 187.681 240.552 182.414C240.171 178.445 239.254 174.628 237.651 170.963C236.201 167.452 235.208 163.864 234.75 160.123C234.216 152.947 236.048 147.222 237.804 141.802C239.483 136.687 241.087 131.878 240.705 126.152H249.255C249.408 131.191 247.881 135.389 246.278 139.893C244.522 144.779 242.766 149.817 242.842 156.306C243.071 160.123 244.064 163.787 245.591 167.299C247.27 170.887 248.339 174.704 248.873 178.597ZM226.353 161.497C226.888 165.162 227.88 168.749 229.33 172.185C230.781 175.467 231.697 178.979 232.155 182.567C232.46 187.758 230.934 192.873 229.33 198.293C227.498 204.705 225.513 211.27 226.277 218.675C226.735 222.263 227.651 225.774 229.025 229.21C230.399 232.569 231.239 236.08 231.621 239.744C231.621 244.248 230.857 248.676 229.33 252.875C227.575 248.371 226.124 243.714 225.055 239.057C223.223 231.653 222.307 224.095 222.307 216.461V129.969C222.307 127.832 224.063 126.076 226.201 126.076H232.155C232.766 131.496 231.086 136.84 229.407 142.565C227.575 148.596 225.666 154.856 226.353 161.497ZM254.064 253.409C255.438 250.05 256.354 246.539 256.812 242.874C257.347 235.24 255.744 230.202 254.064 225.164C252.614 221.347 251.698 217.301 251.469 213.179C251.24 207.148 252.919 201.27 254.522 195.468C256.278 189.285 257.881 183.483 257.347 177.681C256.812 173.941 255.82 170.276 254.293 166.841C252.766 163.406 251.85 159.818 251.469 156.077C251.316 152.031 252.766 147.375 254.217 142.489C255.82 137.145 257.499 131.649 257.576 125.923H265.057C264.675 130.427 263.683 134.855 262.232 139.13C260.4 145.161 258.492 151.344 259.179 158.138C259.713 161.879 260.706 165.467 262.156 168.902C263.607 172.185 264.523 175.62 264.981 179.208C265.286 184.399 263.759 189.514 262.156 194.934C260.324 201.346 258.339 207.911 259.103 215.316C259.561 218.904 260.477 222.416 261.851 225.851C263.225 229.21 264.065 232.721 264.37 236.309C264.599 241.5 263.148 246.004 261.774 250.356C260.095 254.631 259.179 259.211 259.026 263.791C259.026 269.822 260.782 275.776 262.461 281.578C264.217 287.762 265.897 293.563 265.439 298.907C262.996 296.922 260.553 294.861 258.186 292.724L257.27 291.884C256.507 287.914 255.591 284.021 254.37 280.204C252.766 274.631 251.24 269.364 251.392 264.478C251.698 260.738 252.614 256.997 254.064 253.409ZM270.859 281.273C269.179 275.547 267.5 269.593 267.576 263.257C267.805 259.135 268.721 255.165 270.172 251.348C271.622 247.607 272.538 243.638 272.92 239.668C272.996 234.553 272.08 229.439 270.172 224.706C268.798 221.042 267.958 217.225 267.576 213.331C267.118 207.072 268.874 201.117 270.553 195.163C272.156 189.743 273.607 184.475 273.454 179.208C273.073 175.238 272.08 171.421 270.553 167.757C269.103 164.245 268.11 160.658 267.652 156.917C267.042 149.741 268.95 144.092 270.706 138.519C272.156 134.55 273.149 130.351 273.607 126.152H373.153C375.29 126.152 377.046 127.908 377.046 130.046V216.461C377.122 224.019 376.206 231.576 374.298 238.905C372.542 246.462 369.946 253.714 366.511 260.661C362.389 269.135 356.969 276.845 350.48 283.716C344.373 290.128 337.808 296.082 330.708 301.426C325.594 305.319 320.25 308.831 314.601 311.808C309.944 314.404 304.906 316.389 299.791 317.686C294.6 316.312 289.562 314.327 284.829 311.732C280.706 309.518 276.66 307.075 272.767 304.403C273.454 302.571 273.836 300.663 273.912 298.754C274.218 292.8 272.538 287.227 270.859 281.273Z" fill="white"/>
<path d="M353.153 230.355C351.779 230.584 351.779 232.416 350.863 232.569C350.176 232.721 349.107 231.347 348.649 231.042C347.581 230.584 346.665 229.897 345.825 229.134C344.451 227.454 342.542 224.935 342.313 222.721C342.161 221.652 342.161 220.584 342.084 219.515C342.008 218.446 344.909 219.668 345.29 219.744C347.886 220.431 350.71 219.744 352.772 218.064C355.672 215.851 355.367 213.408 354.756 210.202C353.84 205.392 354.68 195.468 362.009 198.98C361.856 197.224 360.405 195.926 358.65 195.926C356.818 195.774 355.291 197.606 354.451 198.98C354.146 199.438 354.146 202.491 353.001 202.033C351.856 201.575 352.161 198.369 352.314 197.377C353.077 193.56 356.97 192.109 359.871 190.124C362.619 188.292 364.68 184.246 360.558 182.491C360.329 184.857 360.329 185.926 358.421 187.529C356.512 189.132 353.764 189.056 351.932 190.812C350.863 191.651 350.405 193.025 350.71 194.323C350.863 194.781 351.779 196.003 351.474 196.537C350.634 197.911 348.115 192.491 348.039 191.88C347.275 185.697 355.367 183.712 359.108 181.04C361.245 179.513 363.077 178.139 363.306 175.315C363.459 173.406 362.161 170.429 360.024 170.2C360.024 170.2 360.406 173.101 360.482 173.406C360.635 174.628 360.329 175.849 359.566 176.842C358.192 178.597 355.902 179.055 353.993 179.819C351.856 180.658 349.489 180.964 347.886 182.72C346.97 183.788 346.359 185.162 346.054 186.537C345.901 187.224 345.748 192.491 344.374 189.285C344.145 187.453 344.374 185.62 344.909 183.865C345.901 181.116 348.039 179.361 349.947 177.376C352.466 175.086 354.756 172.643 356.818 169.895C358.268 167.986 359.108 165.696 359.26 163.253C359.26 159.284 354.222 155.39 350.405 156.001C347.275 156.459 344.985 157.375 343 159.894C341.932 161.192 341.244 162.719 341.092 164.398C341.321 165.925 341.703 167.376 342.237 168.826C342.771 171.116 345.061 175.467 341.55 176.842C342.39 178.216 344.374 177.3 345.367 176.536C349.184 173.712 348.42 170.047 347.504 166.001C346.894 163.406 346.588 160.887 349.336 159.513C351.627 158.291 354.451 159.131 355.672 161.421C355.672 161.421 355.672 161.497 355.749 161.497C358.497 166.383 353.535 171.727 350.329 174.857C346.894 178.216 342.848 181.346 341.55 186.155C340.176 191.422 343.306 196.537 346.359 200.507C347.046 201.346 349.565 204.4 350.176 205.316C351.703 207.759 353.611 210.889 352.466 213.866C350.481 218.98 343.306 218.064 340.481 214.477C340.328 214.248 340.176 214.018 340.023 213.789V213.713C339.641 213.179 339.26 212.644 338.954 212.034C338.802 211.728 338.573 211.499 338.42 211.194L338.115 210.66C337.351 209.285 336.74 208.064 336.053 206.843C334.985 204.4 333.763 201.957 332.389 199.667C331.778 201.27 330.862 202.797 329.641 204.018C327.274 206.232 331.473 207.377 330.404 208.98C329.336 210.583 325.748 208.217 325.137 207.453C324.45 206.69 323.992 205.698 323.763 204.705C323.763 204.4 323.916 202.644 323.61 202.491C322.389 203.636 321.244 204.858 320.251 206.156C318.648 208.446 320.633 209.285 322.541 210.202C326.587 212.186 330.252 214.782 329.87 219.591C329.717 221.423 329.107 224.248 329.641 226.004C329.946 227.072 330.481 227.301 331.015 228.141C331.778 229.21 329.794 228.523 329.641 228.523C327.351 228.447 327.809 231.958 327.809 233.18C327.809 235.775 326.282 236.386 324.374 237.607C324.374 237.607 324.45 237.683 324.45 237.76C325.977 240.508 329.565 233.485 329.87 232.721C330.252 231.729 331.091 232.034 331.549 232.798C332.007 233.561 331.244 233.561 332.084 234.401C332.695 234.935 333.305 235.47 333.992 235.851C336.817 237.683 340.405 238.752 342.771 241.271C344.603 243.256 344.298 247.149 342.542 249.134C340.252 251.653 337.504 249.974 334.756 250.508C333.687 250.737 333.534 253.257 334.069 254.02C334.908 255.241 336.359 255.241 336.053 257.226C335.366 261.425 338.649 256.005 339.794 255.165C340.634 254.554 341.932 253.715 343 254.325C344.069 254.936 341.626 257.074 341.321 257.608C342.008 258.066 342.695 258.448 343.306 258.982C343.382 258.295 343.687 257.684 344.145 257.15C344.222 257.074 344.298 256.997 344.374 256.997C345.443 256.386 345.29 257.15 345.901 257.684C346.512 257.99 347.046 258.219 347.657 258.448C348.802 259.135 347.657 256.539 347.657 256.463C347.886 254.402 352.008 253.409 351.016 251.195C350.558 250.127 351.55 249.592 351.856 250.661C352.085 251.577 353.459 251.577 354.069 251.424C353.306 250.89 352.619 250.279 352.085 249.516C351.55 248.676 351.703 248.142 352.085 247.837H352.161C352.543 247.531 353.001 247.226 353.23 246.691C352.772 245.928 350.634 245.775 352.619 244.936C353.993 244.401 355.52 244.936 356.818 243.714C355.596 243.409 353.917 244.936 352.924 243.18C352.543 242.34 352.085 241.5 351.55 240.737C351.55 240.737 349.794 239.21 350.863 239.21C352.237 239.287 352.543 240.89 353.84 240.584C356.36 240.126 357.581 238.065 360.253 239.363C361.169 234.63 353.077 240.126 352.314 235.317C352.085 233.867 353.535 233.79 354.756 233.638C356.894 233.332 356.741 231.347 357.123 229.744C355.749 229.897 354.451 230.126 353.153 230.355Z" fill="white"/>
<path d="M305.134 254.249C306.584 252.875 305.745 252.875 304.447 251.73C303.531 250.967 303.302 250.127 304.294 249.364C305.287 248.6 307.042 250.356 308.187 250.28C309.332 250.203 310.63 249.822 310.936 248.753C311.012 248.371 311.623 244.783 312.539 246.234C313.226 247.379 312.539 248.448 314.142 249.364C315.363 250.127 316.814 250.432 318.188 250.127C316.814 249.211 314.829 248.142 316.508 246.463C317.043 245.928 316.508 244.631 316.89 243.867C317.424 242.875 318.569 242.722 317.882 241.806C317.195 240.89 318.264 240.279 318.722 239.821C318.493 238.905 319.027 238.371 318.417 237.455C317.577 236.081 315.898 234.707 316.508 232.874C318.035 228.294 322.005 225.622 326.814 224.935C327.043 224.935 328.493 224.935 328.493 224.553C328.57 223.179 327.883 224.095 327.043 223.561C324.371 221.729 328.417 220.737 325.135 213.484C322.997 213.561 321.47 215.393 320.173 216.996C318.951 218.446 317.348 219.515 315.44 220.05C313.76 220.584 312.081 220.508 310.63 221.576C309.638 222.187 308.645 222.95 307.806 223.79C307.119 224.553 306.813 225.699 305.974 226.309C304.905 227.073 305.057 226.844 304.676 228.065C304.447 228.905 304.523 229.821 304.294 230.661C303.76 232.493 302.538 234.019 300.783 234.859C302.538 235.394 303.836 235.394 305.057 233.714C305.439 233.103 305.821 232.416 306.126 231.729C306.432 231.195 307.042 231.577 306.89 232.111C306.432 234.019 308.569 234.63 309.18 236.31C309.714 238.142 308.874 240.127 307.195 241.119C305.974 241.882 304.447 241.653 303.454 242.875C302.462 244.02 300.935 246.157 299.408 244.86C299.103 244.631 298.34 244.249 298.263 243.791C298.187 243.104 298.492 241.959 297.729 241.501C296.966 241.043 294.675 243.562 294.217 244.02C295.057 244.707 296.584 244.936 296.889 246.157C297.042 246.768 293.759 245.165 293.072 245.165C292.614 246.31 292.309 247.531 292.156 248.829C292.156 250.051 295.057 248.982 295.821 249.058C295.821 250.203 294.828 250.051 293.988 250.432C292.767 250.967 294.599 252.493 294.904 253.181C295.21 253.791 294.981 255.318 296.279 254.707C297.347 254.249 297.195 252.799 298.111 252.112C299.027 251.348 300.172 250.89 301.317 250.738C302.691 250.814 303.225 251.73 302.157 252.722C300.783 253.868 302.233 254.097 302.615 254.86C303.76 254.555 304.447 255.7 304.981 256.463C305.745 255.547 304.447 254.936 305.134 254.249Z" fill="white"/>
<path d="M307.35 213.408C307.808 213.332 310.48 212.034 310.709 212.95C310.862 213.561 310.48 214.325 311.472 214.401C311.93 214.401 312.999 214.172 313.076 213.561C313.152 212.95 314.144 213.943 314.297 214.019C315.289 214.325 316.434 214.019 317.122 213.179C315.976 213.103 315.137 212.111 315.213 211.042C315.213 210.737 315.366 210.431 315.518 210.126C316.129 208.752 316.434 209.21 315.595 207.759C315.137 206.92 314.755 206.004 314.526 205.011C312.847 208.065 311.014 209.821 307.35 210.431C304.907 210.889 299.411 208.752 301.167 205.393C302.083 204.171 303.381 203.255 304.907 202.95C305.06 202.874 305.136 202.874 305.289 202.874C307.197 202.568 304.984 204.553 304.907 204.859C304.526 206.767 307.656 205.164 308.19 204.706C308.724 204.248 308.572 203.179 308.419 202.492C308.266 201.5 308.19 200.431 307.961 199.438C307.503 199.515 307.121 199.668 306.816 199.973C305.671 200.736 304.373 201.5 303.228 202.263C301.701 203.332 300.174 204.553 298.8 205.775C297.731 206.767 296.663 207.759 295.67 208.828C294.449 210.202 291.395 213.256 289.258 211.958C288.647 211.653 287.807 209.439 287.426 209.439C285.823 209.439 286.662 210.126 286.052 211.195C285.746 211.729 285.059 211.805 284.525 212.111C284.754 212.721 286.128 213.485 285.212 214.019C284.22 214.325 283.151 214.554 282.082 214.63C282.387 215.317 282.845 216.004 282.387 216.844C282.082 217.378 283.227 217.76 283.456 218.218C283.685 218.676 283.532 219.287 284.067 219.592C284.83 219.974 285.288 220.813 285.136 221.729C284.83 223.943 288.036 220.279 288.113 220.126C289.029 219.21 292.998 218.294 292.082 220.737C291.777 221.5 291.09 222.111 291.701 223.027C292.54 222.798 293.457 222.951 294.22 223.409C296.357 222.111 295.289 221.5 294.602 219.592C294.373 218.905 297.121 218.905 297.808 218.065C299.258 216.157 299.335 218.599 299.411 219.897C300.251 219.897 300.556 218.905 300.785 218.218C301.09 216.844 303.075 219.21 302.922 217.989C302.846 217.225 303.075 216.538 303.457 215.928C303.991 215.164 304.602 216.615 304.526 217.073C304.373 218.141 307.274 217.989 308.037 218.294H308.114C308.419 217.531 306.129 213.714 307.35 213.408Z" fill="white"/>
<path d="M301.775 193.941C302.844 192.644 304.066 191.575 305.44 190.735C303.379 189.361 300.02 187.376 301.241 184.246C301.775 182.872 303.226 184.781 304.295 184.857C305.821 185.086 307.425 184.933 308.951 184.475C308.493 183.941 307.119 183.636 306.508 183.101C305.363 182.032 304.982 180.506 305.44 179.055C305.669 178.292 301.623 175.773 300.783 175.009C298.875 173.101 296.05 170.353 296.432 167.375C296.432 166.459 296.737 165.543 297.271 164.78C297.653 163.635 297.806 162.337 297.73 161.116C296.813 161.574 295.745 161.955 294.905 161.116C294.142 160.276 294.142 162.184 294.218 162.49C294.752 163.559 295.058 164.78 295.287 165.925C295.287 167.07 294.065 168.368 294.065 166.765C293.226 165.849 292.538 164.78 291.928 163.711C291.699 163.253 292.08 160.123 291.241 160.734C290.706 161.116 289.943 160.734 289.561 161.116C289.18 161.497 289.561 162.337 289.332 162.871C288.874 164.093 287.195 163.024 286.584 162.719C286.279 164.246 284.37 164.78 285.668 166.383C286.966 167.986 289.256 167.452 290.63 169.208C292.004 170.963 290.248 173.101 288.416 173.483C287.958 173.559 287.5 174.399 287.882 174.857C288.493 175.773 288.493 176.994 287.882 177.987C288.798 178.292 289.79 178.139 290.63 177.605C291.622 176.994 291.088 176.078 292.309 176.078C292.691 176.841 293.073 177.681 293.302 178.521C293.913 179.742 293.836 181.269 293.073 182.414C292.08 184.094 294.065 186.689 293.76 188.521C293.302 191.04 291.928 190.811 290.096 189.514C289.638 189.895 291.317 190.964 291.546 191.04C292.844 191.498 294.294 190.811 294.752 189.437C294.829 189.285 294.829 189.132 294.829 188.979C295.21 187.529 294.829 186.078 295.516 184.628C296.279 182.796 297.73 184.094 297.042 184.781C295.363 186.46 299.638 189.437 299.104 191.498C299.104 192.109 301.088 193.865 301.775 193.941Z" fill="white"/>
<path d="M326.281 213.867C326.51 215.394 327.121 219.287 328.648 219.822C329.411 217.837 328.19 214.554 326.281 213.867Z" fill="white"/>
<path d="M332.846 259.441C333.457 258.906 336.663 256.921 334.831 255.776C334.449 256.311 333.228 256.158 332.693 256.845C332.083 257.609 332.159 258.677 332.846 259.441Z" fill="white"/>
<path d="M285.67 209.744C284.906 208.446 281.624 209.973 281.318 211.118C281.7 211.118 286.891 211.805 285.67 209.744Z" fill="white"/>
<path d="M296.509 160.81C297.044 160.658 297.883 159.971 297.502 159.284C296.967 158.444 295.975 158.368 294.982 158.215C295.517 158.978 294.906 161.116 296.509 160.81Z" fill="white"/>
<path d="M284.37 221.042C284.141 220.049 281.24 222.034 282.08 223.79C282.08 223.79 282.156 223.866 282.156 223.943C282.843 223.179 284.599 222.263 284.37 221.042Z" fill="white"/>
<path d="M294.219 242.722C297.807 240.89 293.684 239.974 292.463 241.806C293.226 241.883 293.837 242.188 294.219 242.722Z" fill="white"/>
<path d="M293.15 224.02C292.539 225.394 290.401 225.012 289.943 225.928C291.088 228.218 295.134 224.02 293.15 224.02Z" fill="white"/>
<path d="M285.516 163.101C285.822 160.811 282.997 162.338 282.463 163.406C283.303 163.33 285.364 164.17 285.516 163.101Z" fill="white"/>
<path d="M341.701 258.907C340.326 258.373 340.25 261.045 341.472 261.655C341.701 260.587 342.998 259.365 341.701 258.907Z" fill="white"/>
<path d="M291.242 159.436C292.235 157.528 289.41 157.375 288.494 157.91C288.876 158.215 290.861 160.2 291.242 159.436Z" fill="white"/>
<path d="M333.153 251.349C332.008 251.196 331.168 252.799 331.397 253.792C331.397 253.639 331.397 253.792 331.397 253.792C332.771 253.258 333.535 253.028 333.153 251.349Z" fill="white"/>
<path d="M304.218 256.539C304.218 254.173 302.234 256.539 301.699 256.998C302.081 257.227 304.142 257.685 304.218 256.539Z" fill="white"/>
<path d="M289.561 247.99C290.095 247.608 292.996 246.845 291.774 246.005C290.553 245.166 289.637 246.998 289.561 247.99Z" fill="white"/>
<path d="M292.996 254.784C293.225 254.173 293.683 253.715 294.217 253.486C293.378 250.814 291.469 253.944 292.996 254.784Z" fill="white"/>
<path d="M285.898 175.544C286.433 178.903 289.181 175.468 285.898 175.544V175.544Z" fill="white"/>
<path d="M279.792 217.073C280.25 216.844 282.921 217.073 281.624 215.546C280.86 215.775 279.486 216.004 279.792 217.073Z" fill="white"/>
<path d="M347.045 258.906C345.671 257.761 345.289 259.135 345.976 260.28L347.045 258.906Z" fill="white"/>
<path d="M316.739 169.437C316.205 169.513 316.205 169.437 315.976 169.589C315.976 169.589 315.976 169.818 315.976 169.589C315.976 169.971 315.747 170.887 316.51 170.734L316.739 169.437Z" fill="white"/>
<path d="M318.189 174.553C318.266 174.705 318.495 174.705 318.647 174.629L318.724 174.553L318.342 174.171C318.266 174.324 318.266 174.4 318.189 174.553Z" fill="white"/>
<path d="M323.532 170.048C320.784 169.743 318.952 171.422 316.586 172.186C315.364 172.873 313.914 173.026 312.54 172.72C311.853 172.415 310.097 171.117 309.562 171.117C309.868 174.781 312.769 175.621 315.746 174.247C317.12 173.636 318.189 172.491 319.563 171.957C320.708 171.499 323.456 171.346 323.532 170.048Z" fill="white"/>
<path d="M337.122 173.941C336.74 172.567 337.351 170.887 336.816 169.437C336.663 168.979 335.824 168.597 335.9 168.063C335.976 167.528 337.122 166.994 337.427 166.612C337.045 166.612 336.587 166.536 336.205 166.46C335.824 166.383 335.518 166.154 335.366 165.773C335.137 165.467 334.984 165.162 334.831 164.857C334.679 164.551 334.526 164.246 334.373 163.941C334.373 163.864 333.763 162.414 333.915 162.337C333.305 162.414 331.167 163.406 331.091 162.185C331.091 161.65 333.61 161.498 334.221 161.116C335.06 160.582 335.213 159.895 334.221 159.36C333.228 158.902 332.159 158.826 331.091 159.131C330.175 159.437 329.411 160.047 328.801 160.811C328.724 160.887 328.724 160.887 328.648 160.887C328.266 161.04 328.19 160.124 328.19 159.895C328.343 159.513 328.572 159.131 328.953 158.978C329.335 158.749 329.717 158.52 330.098 158.444C330.48 158.368 330.938 158.215 331.32 158.062C330.327 156.917 328.877 156.307 327.426 156.307C325.9 156.307 324.373 156.536 322.923 156.994C321.625 157.375 320.403 157.833 319.106 158.291C318.495 158.52 317.502 159.284 316.815 159.208C316.663 159.208 316.586 159.895 316.51 160.429C316.51 160.582 316.434 160.734 316.434 160.811C316.434 160.963 316.357 161.116 316.281 161.192C316.205 161.269 316.128 161.345 316.052 161.421L315.976 161.498C314.602 162.49 311.09 163.33 312.998 165.544C313.686 166.307 313.304 166.918 313.609 167.757C314.067 168.826 316.128 168.521 316.892 168.215C318.037 167.757 322.541 165.696 323.381 167.147C324.678 169.055 324.831 171.574 323.839 173.636C322.77 175.544 319.793 174.781 317.96 175.468C318.037 176.536 318.037 178.598 319.335 178.979C320.632 179.361 322.77 177.605 323.61 176.765C323.839 176.536 325.518 174.017 325.823 175.162C326.129 176.307 324.144 178.75 323.381 179.59C322.312 180.582 320.861 181.117 319.411 181.117C317.731 181.117 316.51 180.201 314.907 180.43H314.754C314.525 180.43 314.373 180.506 314.22 180.582C311.319 181.651 307.426 181.346 308.342 177.3C306.891 177.529 305.899 178.979 306.128 180.43C306.204 180.811 306.357 181.193 306.586 181.575C307.197 182.414 308.113 183.025 309.182 183.254H309.945C310.556 183.254 311.319 183.407 311.166 183.941C311.014 184.781 308.876 185.468 308.113 185.621C306.052 186.079 303.991 185.773 302.158 184.781C302.006 186.995 304.449 190.43 307.044 190.048C307.731 189.972 308.418 189.743 309.182 189.667C309.64 189.514 310.098 189.59 310.556 189.819C310.861 190.048 311.319 190.964 310.861 191.27C310.708 191.346 310.556 191.346 310.403 191.346C308.953 191.193 307.426 191.27 305.975 191.651C304.525 192.186 303.303 193.178 302.464 194.476C301.777 195.545 300.708 196.384 299.41 196.766C298.647 196.995 297.807 196.613 297.502 195.85C297.12 195.087 296.738 194.323 296.586 193.484C294.754 195.545 296.509 198.217 298.265 199.591C299.181 200.354 300.25 200.812 301.395 200.965C303.074 200.812 304.754 200.278 306.128 199.362C307.044 198.827 307.96 198.293 308.876 197.682C309.487 197.301 310.632 196.308 311.395 196.308C311.777 196.308 312.006 196.537 312.082 196.919C312.082 197.224 311.93 197.453 311.777 197.606C311.319 197.988 310.556 198.064 310.098 198.446C308.418 199.82 309.182 201.499 309.411 203.331C309.869 206.69 304.449 208.293 304.22 204.095C300.632 206.079 302.006 208.217 305.365 209.286C307.807 210.049 311.624 208.064 312.922 206.003C313.38 205.163 313.762 204.247 314.067 203.255C314.22 202.95 315.518 199.896 316.128 200.888C316.739 201.881 315.212 203.408 315.518 204.553C315.976 206.309 316.968 208.599 318.648 209.515C318.266 209.362 318.8 206.919 318.953 206.538C319.335 205.469 320.022 204.553 320.861 203.789C322.617 202.11 323.915 200.049 324.755 197.835C325.213 196.613 325.823 198.217 325.518 198.98C325.06 200.125 324.755 201.423 324.678 202.644C324.526 205.24 326.281 207.912 329.182 207.606C328.648 206.767 328.037 206.232 327.808 205.316C327.579 203.56 328.953 202.797 329.869 201.575C330.709 200.583 331.167 199.285 331.243 197.988C331.243 197.301 330.938 196.613 330.862 195.926C330.785 195.239 330.862 192.262 332.007 192.568C332.389 192.949 331.701 195.087 331.854 195.774C332.083 197.148 332.77 198.446 333.839 199.362C334.526 199.896 336.511 200.43 336.892 199.362C336.511 199.209 336.129 199.056 335.747 198.98C334.221 198.446 333.992 196.613 334.373 195.316C334.602 194.323 335.137 193.407 335.366 192.415C335.595 191.422 333.839 190.354 334.221 189.743C334.602 189.132 336.74 191.499 337.732 191.117C337.045 189.743 336.205 188.293 336.587 186.613C336.969 184.934 337.351 183.407 337.656 181.727C337.809 180.735 338.648 178.369 337.198 177.834C336.74 177.681 335.595 177.452 335.289 176.918C335.137 176.613 335.289 176.078 335.747 176.231C336.892 176.765 338.419 177.3 339.412 176.231C339.717 176.231 337.351 174.781 337.122 173.941ZM321.701 162.795C321.243 163.253 319.182 162.566 319.106 161.498C319.029 160.811 322.464 162.108 321.701 162.795Z" fill="white"/>
<path d="M253.501 352.328H258.692C260.142 352.175 261.516 352.557 262.661 353.473C263.806 354.465 264.341 355.992 264.112 357.519C263.883 359.122 263.196 360.496 261.974 361.565C261.134 362.252 260.066 362.71 258.997 362.939L262.814 369.122H258.997L255.333 362.71L254.569 369.122H251.439L253.501 352.328ZM255.638 360.343H257.623C259.226 360.572 260.753 359.427 260.905 357.748C260.982 356.832 260.676 355.229 258.157 355.229H256.172L255.638 360.343Z" fill="black"/>
<path d="M268.384 352.328H277.392L277.01 355.229H271.056L270.521 359.275H276.17L275.789 362.176H270.14L269.605 366.222H275.56L275.178 369.123H266.17L268.384 352.328ZM270.598 349.046L276.018 345.992L276.934 348.359L271.514 351.107L270.598 349.046Z" fill="black"/>
<path d="M287.09 360.573H298.006V360.955C297.166 365.84 292.968 369.428 288.082 369.505C283.883 369.734 280.219 366.451 280.066 362.252C280.066 361.794 280.066 361.26 280.143 360.802C280.906 355.84 285.181 352.176 290.143 352.023C293.578 351.87 296.632 354.084 297.624 357.29H293.884C293.044 355.764 291.441 354.848 289.685 354.924C286.403 355 283.654 357.519 283.196 360.802C282.738 363.55 284.647 366.146 287.395 366.604C287.7 366.68 288.082 366.68 288.387 366.68C290.601 366.604 292.586 365.459 293.731 363.627H286.708L287.09 360.573Z" fill="black"/>
<path d="M302.891 352.328H306.021L303.96 369.123H300.83L302.891 352.328Z" fill="black"/>
<path d="M318.92 352.023C323.119 351.87 326.63 355.229 326.707 359.427C326.707 359.885 326.707 360.344 326.63 360.878C325.867 365.764 321.745 369.504 316.783 369.58C312.584 369.733 309.072 366.451 308.996 362.252C308.996 361.794 308.996 361.336 309.072 360.878C309.759 355.84 313.882 352.099 318.92 352.023ZM317.088 366.603C320.371 366.451 323.042 364.008 323.5 360.802C323.958 358.053 322.126 355.458 319.455 355C319.149 354.923 318.844 354.923 318.538 354.923C315.256 355.076 312.508 357.519 312.126 360.802C311.668 363.55 313.5 366.069 316.248 366.527C316.554 366.527 316.859 366.603 317.088 366.603Z" fill="black"/>
<path d="M330.753 352.252H334.264L339.608 364.313L341.058 352.252H344.112L342.051 368.817H338.615L333.195 356.756L331.745 368.817H328.691L330.753 352.252Z" fill="black"/>
<path d="M172.962 370.726H181.741L195.177 400.879H195.253L198.994 370.726H206.704L201.589 412.254H193.039L179.451 382.1H179.374L175.71 412.254H168L172.962 370.726Z" fill="black"/>
<path d="M209.375 396.452C210.75 386.986 218.765 379.81 228.308 379.581C236.323 379.352 242.965 385.688 243.194 393.628C243.194 394.544 243.117 395.46 242.965 396.452C241.819 405.994 233.804 413.247 224.109 413.399C216.017 413.552 209.299 407.216 209.146 399.124C209.223 398.208 209.223 397.292 209.375 396.452ZM235.407 396.452C236.094 390.727 232.201 386.452 227.468 386.452C221.971 386.757 217.544 391.032 216.933 396.452C216.17 402.406 220.216 406.3 225.025 406.3C230.521 406.376 234.796 401.567 235.407 396.528V396.452V396.452Z" fill="black"/>
<path d="M277.928 380.65L274.035 412.254H267.088L267.47 409.048H267.317C265.256 411.796 262.049 413.323 258.691 413.246C252.965 413.246 250.064 410.422 248.69 408.208C246.782 404.849 247.392 399.734 247.698 397.063L249.759 380.573H257.317L255.332 396.681C255.026 399.2 254.187 406.223 260.752 406.223C265.561 406.223 267.699 401.719 268.309 396.681L270.294 380.497L277.928 380.65Z" fill="black"/>
<path d="M281.82 380.65H289.989L295.027 401.644H295.18L304.951 380.65H313.272L296.63 412.255H290.752L281.82 380.65Z" fill="black"/>
<path d="M320.372 399.811C320.983 403.628 324.418 406.453 328.312 406.3C331.441 406.376 334.419 404.85 336.098 402.254H344.037C340.984 408.743 334.571 412.942 327.396 413.247C318.006 413.247 311.67 405.766 312.738 396.529C313.807 387.597 321.746 379.353 331.441 379.353C341.442 379.353 346.709 387.979 345.717 395.994C345.564 397.292 345.259 398.59 344.801 399.811H320.372ZM338.388 393.704C338.465 389.658 335.182 386.376 331.136 386.299C330.983 386.299 330.831 386.299 330.754 386.299C326.25 386.452 322.281 389.353 320.907 393.704H338.388Z" fill="black"/>
<path d="M354.343 370.114H361.901L356.71 412.253H349.152L354.343 370.114Z" fill="black"/>
<path d="M368.617 370.114H376.174L370.983 412.253H363.426L368.617 370.114Z" fill="black"/>
<path d="M385.869 399.811C386.48 403.628 389.915 406.453 393.809 406.3C396.939 406.376 399.916 404.85 401.595 402.254H409.534C406.481 408.743 400.068 412.942 392.969 413.247C383.579 413.247 377.167 405.766 378.312 396.529C379.381 387.597 387.32 379.353 397.015 379.353C407.015 379.353 412.283 387.979 411.29 395.994C411.138 397.292 410.832 398.59 410.374 399.811H385.869ZM403.885 393.704C403.962 389.658 400.679 386.376 396.633 386.299C396.48 386.299 396.328 386.299 396.175 386.299C391.671 386.452 387.778 389.353 386.404 393.704H403.885Z" fill="black"/>
<path d="M362.051 427.216C361.67 429.812 359.532 431.72 356.937 431.797C354.723 431.873 352.967 430.117 352.891 427.903C352.891 427.674 352.891 427.445 352.967 427.216C353.349 424.697 355.486 422.712 358.082 422.712C360.295 422.636 362.051 424.392 362.128 426.606C362.051 426.758 362.051 426.987 362.051 427.216Z" fill="black"/>
<path d="M190.445 424.621H196.323L207.927 468.44H199.682L196.781 457.141H182.277L176.551 468.44H168.23L190.445 424.621ZM185.636 449.431H194.949L191.972 435.996H191.895L185.636 449.431Z" fill="black"/>
<path d="M246.401 435.537L240.37 484.013H233.042L235.408 465.233C232.889 467.905 229.301 469.432 225.637 469.432C216.476 469.432 211.438 460.653 212.507 451.645C213.652 442.255 221.668 434.469 229.988 434.469C236.172 434.469 238.157 438.057 238.996 439.736H239.073L239.607 435.69L246.401 435.537ZM227.469 462.256C232.584 462.256 236.859 457.294 237.47 452.027C238.08 446.759 235.332 441.645 229.988 441.645C224.645 441.645 220.446 446.454 219.835 451.798C218.996 458.439 222.965 462.256 227.469 462.256Z" fill="black"/>
<path d="M279.226 435.538L275.18 468.364H268.538L268.92 465.081H268.844C266.935 467.829 263.805 469.509 260.446 469.432C256.553 469.661 252.813 467.6 250.904 464.241C249.072 460.73 249.759 455.462 250.064 452.714L252.202 435.538H259.454L257.546 452.256C257.24 455.004 256.324 462.18 262.66 462.18C267.241 462.18 269.378 457.524 269.989 452.333L272.05 435.538H279.226Z" fill="black"/>
<path d="M300.371 442.561H296.783L297.623 435.614H301.211L302.585 424.621H309.837L308.463 435.614H312.814L311.975 442.561H307.623L304.493 468.363H297.241L300.371 442.561Z" fill="black"/>
<path d="M342.968 468.363H336.327L336.861 464.317C333.884 467.447 329.915 469.279 325.64 469.432C317.853 469.432 311.67 462.638 313.044 451.721C314.265 441.645 321.975 434.393 330.373 434.393C334.189 434.393 337.777 436.377 339.762 439.66H339.839L340.373 435.614H347.014L342.968 468.363ZM330.449 441.645C324.494 441.645 320.754 447.217 320.143 452.103C319.456 457.676 322.739 462.256 327.93 462.256C333.121 462.256 337.319 457.981 338.083 451.874C338.922 445.08 334.8 441.645 330.449 441.645Z" fill="black"/>
<path d="M366.71 435.537H373.428L373.046 438.362C375.336 435.919 378.542 434.545 381.825 434.469C385.26 434.469 388.466 436.225 390.375 439.049C392.741 442.637 392.054 448.133 391.749 450.729L389.611 468.516H382.359L384.344 452.256C384.649 449.507 385.642 441.721 379.535 441.721C377.397 441.797 375.412 442.866 374.191 444.622C372.664 446.607 372.206 450.042 371.901 452.79L369.992 468.439H362.74L366.71 435.537Z" fill="black"/>
<path d="M403.964 455.462C404.345 459.356 407.628 462.256 411.521 462.256C414.575 462.333 417.476 460.73 419.002 458.058H426.636C424.193 463.936 417.705 469.509 410.605 469.509C401.597 469.509 395.566 461.722 396.712 452.103C397.857 442.79 405.49 434.316 414.88 434.316C424.499 434.316 429.461 443.324 428.468 451.569C428.316 452.943 428.01 454.241 427.552 455.539L403.964 455.462ZM421.369 449.126C421.216 443.859 417.705 441.416 414.117 441.416C411.369 441.416 406.712 443.019 404.574 449.126H421.369Z" fill="black"/>
<path d="M281.746 468.364H288.998L293.044 435.538H285.716L281.746 468.364Z" fill="black"/>
<path d="M295.408 426.759C295.026 429.507 292.736 431.492 289.988 431.568C287.698 431.645 285.789 429.812 285.713 427.522C285.713 427.293 285.713 426.988 285.789 426.759C286.171 424.011 288.461 422.026 291.209 421.95C293.499 421.873 295.408 423.705 295.484 425.996C295.484 426.225 295.484 426.53 295.408 426.759Z" fill="black"/>
<path d="M348.848 468.364H356.1L360.146 435.538H352.817L348.848 468.364Z" fill="black"/>
<path d="M416.102 396.451C416.331 394.848 417.705 393.55 419.384 393.55H428.545C429.919 393.474 431.14 394.619 431.14 395.993C431.14 396.146 431.14 396.299 431.14 396.451L431.064 397.062C430.835 398.665 429.461 399.887 427.782 399.963H418.621C417.247 400.039 416.102 398.894 416.025 397.52C416.025 397.367 416.025 397.215 416.025 397.062L416.102 396.451Z" fill="black"/>
</svg>
