<svg width="600" height="600" viewBox="0 0 600 600" fill="none" xmlns="http://www.w3.org/2000/svg">
<rect y="0.000976562" width="600" height="600" rx="50" fill="#F6F5FC"/>
<path d="M184.857 197.263H189.336L184.077 231.74H178.772L173.459 197.263H177.992L180.571 217.107C181.058 221.011 181.158 221.451 181.251 224.768H181.737C181.791 221.598 181.791 221.451 182.424 216.767L184.857 197.263Z" fill="#0069B4"/>
<path d="M212.715 231.733H217.201V197.311H212.715V231.733Z" fill="#0069B4"/>
<path d="M247.157 197.263V227.543H254.656V231.74H242.578V197.263H247.157Z" fill="#0069B4"/>
<path d="M281.888 197.263V227.543H289.386V231.74H277.309V197.263H281.888Z" fill="#0069B4"/>
<path d="M312.039 197.313H323.391V201.649H316.665V211.699H322.703V215.942H316.665V227.399H323.437V231.735H312.039V197.313Z" fill="#0069B4"/>
<path d="M375.17 197.313H383.502C388.367 197.313 388.761 200.095 388.761 202.871V225.791C388.761 230.321 387.587 231.735 383.888 231.735H375.17V197.313ZM379.695 201.502V227.491H382.722C384.035 227.491 384.182 226.718 384.182 225.59V203.899C384.182 202.577 384.135 201.502 382.328 201.502H379.695Z" fill="#0069B4"/>
<path d="M413.504 197.313H424.856V201.649H418.13V211.699H424.168V215.942H418.13V227.399H424.902V231.735H413.504V197.313Z" fill="#0069B4"/>
<path d="M303.374 255.766C300.825 252.064 298.061 249.868 294.014 249.868C289.976 249.868 287.203 252.064 284.655 255.766L188.475 400.314H226.468L239.912 378.036C257.264 385.403 278.191 388.387 294.014 388.503C309.837 388.387 330.764 385.403 348.116 378.036L361.561 400.314H399.562L303.374 255.766ZM295.018 360.828C283.365 360.828 268.044 359.004 254.415 353.91L287.211 299.473L300.887 325.656L309.976 314.671L333.614 353.933C318.455 359.352 305.165 360.828 295.018 360.828" fill="#0069B4"/>
<path d="M160.806 281.287H72.0309L72 400.317H102.317L102.325 371.561C113.994 375.983 127.986 378.325 146.226 378.325C189.169 378.325 213.023 356.58 213.023 328.82C213.023 299.051 187.532 281.766 160.806 281.287H160.806ZM145.269 352.003C126.218 352.003 111.723 349.205 102.333 343.701L102.341 306.727H159.686C174.945 307.84 184.405 315.478 184.405 327.73C184.405 341.281 172.706 352.003 145.269 352.003" fill="#0069B4"/>
<path d="M526.35 286.772C524.536 284.136 521.763 282.628 517.825 282.628H496.411L496.651 296.357C496.651 328.902 495.222 351.412 487.361 362.234C480.72 371.387 472.009 376.675 456.85 376.675C441.699 376.675 433.228 371.387 426.587 362.234C418.733 351.412 416.672 330.757 416.672 296.357H416.687C416.687 292.353 416.247 289.021 414.695 286.772C412.88 284.136 410.108 282.628 406.169 282.628H384.4V296.357C384.4 344.439 388.153 367.05 406.038 384.83C417.737 396.472 432.989 403.947 456.85 404.001C480.72 403.947 495.971 396.472 507.67 384.83C525.555 367.05 528.343 343.713 528.343 296.357C528.343 292.353 527.903 289.021 526.35 286.772" fill="#0069B4"/>
</svg>
