<svg width="600" height="600" viewBox="0 0 600 600" fill="none" xmlns="http://www.w3.org/2000/svg">
<rect width="600" height="600" rx="50" fill="#F6F5FC"/>
<path fill-rule="evenodd" clip-rule="evenodd" d="M362.313 278.792V252.208H382.635V256.901H368.143V262.92H380.232V267.455H368.143V274.098H382.635V278.792H362.313ZM380.492 244.699C379.735 244.914 375.926 245.476 372.461 245.506C368.806 245.539 365.024 244.898 364.429 244.699V247.776C366.632 248.663 369.42 249.129 372.461 249.129C375.501 249.129 378.291 248.663 380.492 247.776V244.699ZM395.297 269.529L399.972 260.291L404.646 269.529H395.297ZM401.562 252.723C401.223 252.052 400.684 251.701 399.972 251.701C399.259 251.701 398.72 252.052 398.381 252.723L384.637 278.792H390.611L393 274.066H406.942L409.332 278.792H415.306L401.562 252.723H401.562ZM468.373 278.871L452.527 263.183V278.791H446.865V253.67C446.865 252.373 448.396 251.684 449.364 252.548L465.209 268.234V252.633H470.873V277.748C470.873 279.045 469.341 279.734 468.373 278.87L468.373 278.871ZM470.35 317.568V290.984H490.673V295.677H476.18V301.696H488.269V306.232H476.18V312.874H490.673V317.568H470.35ZM488.53 283.476C487.772 283.69 483.963 284.252 480.498 284.283C476.843 284.315 473.062 283.674 472.466 283.475V286.552C474.669 287.439 477.457 287.905 480.498 287.905C483.538 287.905 486.328 287.439 488.53 286.552V283.475V283.476ZM414.969 317.568V290.984H435.291V295.677H420.799V301.696H432.888V306.232H420.799V312.874H435.291V317.568H414.969ZM433.148 283.476C432.391 283.69 428.582 284.252 425.117 284.283C421.462 284.315 417.681 283.674 417.085 283.475V286.552C419.287 287.439 422.076 287.905 425.117 287.905C428.157 287.905 430.947 287.439 433.148 286.552V283.475V283.476ZM496.373 317.568V290.984H516.695V295.677H502.203V301.696H514.292V306.232H502.203V312.874H516.695V317.568H496.373ZM532.841 301.383C529.165 300.06 527.214 299.407 527.214 297.495C527.214 295.862 528.836 295.045 532.41 295.045C535.419 295.045 538.004 295.762 540.541 296.932V291.964C538.682 291.245 535.64 290.464 532.41 290.464C526.402 290.464 520.707 292.423 520.707 298.402C520.707 303.101 525.884 304.935 528.972 306.066C532.26 307.272 535.573 308.092 535.573 310.527C535.573 312.998 532.615 313.41 529.697 313.41C526.884 313.41 524.103 312.497 521.378 311.244V316.316C523.243 317.169 526.481 317.951 529.697 317.951C537.295 317.951 542 314.992 542 309.422C542 304.37 536.416 302.669 532.841 301.383ZM345.557 303.948H338.406V295.4H345.557C347.686 295.4 350.141 296.222 350.141 299.674C350.141 303.127 347.686 303.948 345.557 303.948ZM345.557 290.983H332.576V317.568H338.406V308.365H345.557C349.521 308.365 356.088 307.192 356.088 299.674C356.088 292.156 349.521 290.983 345.557 290.983V290.983ZM74.5886 342.181C74.0207 341.408 73.2794 340.845 72.3673 340.489C71.4534 340.133 70.561 339.955 69.6884 339.955C68.5723 339.955 67.5572 340.159 66.6442 340.565C65.7312 340.972 64.9449 341.53 64.2853 342.241C63.625 342.953 63.119 343.786 62.7634 344.741C62.4074 345.697 62.2311 346.733 62.2311 347.851C62.2311 349.03 62.4028 350.106 62.7488 351.082C63.093 352.057 63.5846 352.896 64.2246 353.597C64.8639 354.298 65.629 354.842 66.5227 355.228C67.4154 355.615 68.4199 355.807 69.5362 355.807C70.692 355.807 71.7166 355.578 72.6104 355.122C73.503 354.664 74.2229 354.059 74.7716 353.307L77.8447 355.472C76.8913 356.671 75.725 357.601 74.3446 358.261C72.9651 358.922 71.3514 359.252 69.5054 359.252C67.8203 359.252 66.2731 358.973 64.8639 358.414C63.4536 357.855 62.2407 357.073 61.2258 356.066C60.2117 355.061 59.4201 353.862 58.8525 352.469C58.2837 351.077 58 349.537 58 347.851C58 346.124 58.299 344.563 58.8977 343.171C59.4953 341.78 60.3185 340.596 61.3636 339.621C62.4074 338.644 63.6412 337.893 65.0613 337.364C66.481 336.836 68.0235 336.571 69.6882 336.571C70.3775 336.571 71.0976 336.638 71.8494 336.769C72.5995 336.902 73.3204 337.104 74.0098 337.38C74.7 337.654 75.3497 337.995 75.958 338.401C76.5674 338.807 77.085 339.295 77.5101 339.864L74.5881 342.181L74.5886 342.181ZM84.4803 351.326C84.4803 351.895 84.5662 352.464 84.7396 353.033C84.9121 353.602 85.1705 354.11 85.5156 354.557C85.8598 355.005 86.2964 355.371 86.8248 355.655C87.352 355.94 87.9815 356.082 88.7112 356.082C89.4418 356.082 90.0713 355.94 90.5988 355.655C91.126 355.371 91.5617 355.005 91.9077 354.557C92.2519 354.11 92.5112 353.602 92.6837 353.032C92.8554 352.464 92.943 351.895 92.943 351.326C92.943 350.757 92.8554 350.193 92.6837 349.634C92.5112 349.075 92.2519 348.572 91.9077 348.125C91.5617 347.678 91.1258 347.317 90.5988 347.043C90.0713 346.768 89.4418 346.632 88.7112 346.632C87.9815 346.632 87.352 346.768 86.8248 347.043C86.2964 347.317 85.8598 347.678 85.5156 348.125C85.1705 348.572 84.9121 349.075 84.7396 349.634C84.5682 350.182 84.4808 350.752 84.4803 351.326ZM80.7671 351.326C80.7671 350.167 80.9752 349.116 81.3909 348.171C81.8063 347.225 82.3702 346.417 83.0805 345.747C83.7901 345.076 84.6326 344.559 85.6071 344.193C86.5808 343.827 87.6161 343.644 88.7112 343.644C89.8072 343.644 90.8425 343.827 91.8162 344.193C92.7897 344.559 93.6312 345.076 94.3428 345.747C95.0522 346.417 95.6151 347.225 96.0316 348.171C96.4481 349.116 96.6554 350.167 96.6554 351.326C96.6554 352.484 96.4479 353.541 96.0316 354.496C95.6151 355.452 95.0522 356.27 94.3428 356.95C93.6312 357.631 92.7899 358.165 91.8162 358.551C90.8425 358.936 89.8072 359.13 88.7112 359.13C87.6161 359.13 86.5808 358.936 85.6071 358.551C84.6326 358.165 83.7899 357.631 83.0805 356.95C82.3702 356.27 81.8063 355.452 81.3909 354.496C80.9752 353.541 80.7671 352.484 80.7671 351.326ZM119.574 343.644C120.528 343.644 121.344 343.812 122.025 344.147C122.704 344.482 123.263 344.924 123.699 345.473C124.135 346.022 124.454 346.652 124.657 347.363C124.861 348.074 124.962 348.806 124.962 349.557V358.703H121.31V350.594C121.31 350.168 121.279 349.721 121.219 349.253C121.157 348.786 121.025 348.364 120.823 347.988C120.622 347.615 120.335 347.296 119.985 347.059C119.63 346.815 119.159 346.693 118.57 346.693C118.001 346.693 117.514 346.815 117.109 347.059C116.71 347.296 116.367 347.619 116.105 348.003C115.841 348.389 115.648 348.822 115.527 349.299C115.405 349.777 115.344 350.249 115.344 350.716V358.703H111.691V349.863C111.691 348.948 111.473 348.191 111.036 347.592C110.6 346.992 109.915 346.693 108.982 346.693C108.435 346.693 107.957 346.81 107.552 347.043C107.146 347.277 106.816 347.576 106.563 347.942C106.308 348.308 106.116 348.73 105.984 349.207C105.853 349.678 105.787 350.166 105.787 350.655V358.703H102.134V344.071H105.604V346.418H105.664C105.827 346.052 106.045 345.707 106.319 345.382C106.593 345.056 106.917 344.762 107.293 344.497C107.668 344.234 108.099 344.026 108.587 343.873C109.074 343.72 109.612 343.644 110.2 343.644C111.335 343.644 112.279 343.898 113.03 344.406C113.781 344.915 114.359 345.586 114.765 346.418C115.253 345.524 115.902 344.838 116.713 344.36C117.524 343.882 118.478 343.644 119.574 343.644ZM148.612 343.644C149.566 343.644 150.382 343.812 151.063 344.147C151.742 344.482 152.301 344.924 152.737 345.473C153.173 346.022 153.492 346.652 153.696 347.363C153.899 348.076 154.001 348.815 154 349.557V358.703H150.348V350.594C150.348 350.168 150.317 349.721 150.257 349.253C150.195 348.786 150.063 348.364 149.861 347.988C149.661 347.615 149.373 347.296 149.023 347.059C148.669 346.815 148.197 346.693 147.608 346.693C147.039 346.693 146.553 346.815 146.148 347.059C145.748 347.296 145.405 347.619 145.143 348.003C144.879 348.389 144.686 348.822 144.565 349.299C144.444 349.777 144.382 350.249 144.382 350.716V358.703H140.729V349.863C140.729 348.948 140.511 348.191 140.075 347.592C139.638 346.992 138.954 346.693 138.02 346.693C137.473 346.693 136.996 346.81 136.59 347.043C136.184 347.277 135.854 347.576 135.601 347.942C135.346 348.308 135.155 348.73 135.022 349.207C134.891 349.678 134.825 350.166 134.825 350.655V358.703H131.172V344.071H134.642V346.418H134.702C134.865 346.052 135.083 345.707 135.357 345.382C135.632 345.056 135.955 344.762 136.331 344.497C136.706 344.234 137.137 344.026 137.625 343.873C138.112 343.72 138.65 343.644 139.238 343.644C140.373 343.644 141.317 343.898 142.068 344.406C142.819 344.915 143.397 345.586 143.803 346.418C144.291 345.524 144.94 344.838 145.751 344.36C146.562 343.882 147.516 343.644 148.612 343.644ZM173.541 358.703H170.072V356.356H170.01C169.685 357.088 169.122 357.733 168.321 358.292C167.519 358.851 166.572 359.13 165.476 359.13C164.521 359.13 163.705 358.962 163.025 358.627C162.345 358.292 161.788 357.85 161.351 357.301C160.914 356.752 160.595 356.123 160.392 355.411C160.189 354.697 160.087 353.958 160.088 353.216V344.071H163.741V352.18C163.741 352.606 163.771 353.053 163.831 353.521C163.893 353.989 164.025 354.41 164.227 354.785C164.43 355.162 164.709 355.472 165.064 355.716C165.42 355.959 165.89 356.081 166.479 356.081C167.048 356.081 167.549 355.965 167.986 355.731C168.423 355.498 168.778 355.198 169.052 354.832C169.326 354.466 169.533 354.044 169.676 353.567C169.817 353.097 169.888 352.609 169.889 352.119V344.071H173.541V358.703H173.541ZM179.872 344.071H183.341V346.418H183.403C183.727 345.686 184.289 345.041 185.092 344.482C185.893 343.923 186.842 343.644 187.937 343.644C188.892 343.644 189.708 343.812 190.388 344.147C191.067 344.482 191.625 344.924 192.062 345.473C192.499 346.022 192.817 346.651 193.021 347.363C193.223 348.074 193.325 348.806 193.325 349.557V358.703H189.673V350.594C189.673 350.168 189.642 349.721 189.582 349.253C189.52 348.786 189.388 348.364 189.186 347.988C188.985 347.615 188.698 347.296 188.349 347.058C187.993 346.814 187.522 346.693 186.934 346.693C186.345 346.693 185.838 346.81 185.411 347.043C184.986 347.277 184.635 347.576 184.361 347.942C184.087 348.308 183.879 348.73 183.737 349.207C183.596 349.677 183.524 350.164 183.524 350.655V358.703H179.872V344.071ZM208.544 352.027H207.721C207.133 352.027 206.514 352.053 205.865 352.103C205.215 352.154 204.616 352.266 204.07 352.438C203.521 352.611 203.064 352.856 202.699 353.17C202.334 353.485 202.151 353.917 202.151 354.466C202.151 354.811 202.228 355.101 202.38 355.335C202.53 355.567 202.734 355.76 202.974 355.898C203.217 356.041 203.49 356.143 203.795 356.204C204.099 356.264 204.404 356.295 204.708 356.295C205.966 356.295 206.919 355.959 207.57 355.288C208.219 354.618 208.544 353.703 208.544 352.546V352.027ZM208.604 356.844H208.513C208.147 357.494 207.558 358.028 206.747 358.443C205.935 358.861 205.012 359.069 203.977 359.069C203.388 359.069 202.775 358.993 202.136 358.84C201.507 358.692 200.91 358.434 200.371 358.078C199.833 357.723 199.387 357.255 199.032 356.676C198.676 356.096 198.498 355.38 198.498 354.527C198.498 353.429 198.808 352.556 199.427 351.905C200.045 351.255 200.842 350.757 201.816 350.411C202.79 350.066 203.871 349.838 205.058 349.725C206.217 349.615 207.38 349.559 208.544 349.557V349.193C208.544 348.277 208.213 347.602 207.553 347.165C206.894 346.728 206.108 346.51 205.195 346.51C204.424 346.51 203.683 346.672 202.974 346.997C202.263 347.322 201.674 347.718 201.208 348.186L199.321 345.961C200.152 345.189 201.111 344.61 202.197 344.223C203.282 343.837 204.383 343.644 205.499 343.644C206.798 343.644 207.869 343.827 208.711 344.192C209.553 344.558 210.217 345.036 210.705 345.625C211.192 346.215 211.531 346.875 211.724 347.607C211.917 348.339 212.013 349.07 212.013 349.802V358.703H208.604V356.844ZM231.554 358.703H228.085V356.356H228.023C227.698 357.088 227.135 357.733 226.334 358.292C225.532 358.851 224.585 359.13 223.489 359.13C222.534 359.13 221.718 358.962 221.038 358.627C220.358 358.292 219.801 357.85 219.364 357.301C218.927 356.752 218.608 356.123 218.405 355.411C218.202 354.697 218.1 353.958 218.101 353.216V344.071H221.754V352.18C221.754 352.606 221.784 353.053 221.844 353.521C221.906 353.989 222.038 354.41 222.24 354.785C222.443 355.162 222.722 355.472 223.077 355.716C223.433 355.959 223.903 356.081 224.492 356.081C225.061 356.081 225.562 355.965 225.999 355.731C226.436 355.498 226.791 355.198 227.065 354.832C227.339 354.466 227.546 354.044 227.689 353.567C227.83 353.097 227.901 352.609 227.902 352.119V344.071H231.554V358.703H231.554ZM235.784 346.997V344.071H238.341V339.834H241.934V344.071H245.585V346.997H241.933V353.795C241.933 354.446 242.049 354.984 242.282 355.411C242.516 355.838 243.039 356.051 243.85 356.051C244.093 356.051 244.358 356.026 244.641 355.975C244.925 355.924 245.179 355.848 245.402 355.746L245.524 358.612C245.2 358.733 244.814 358.83 244.368 358.901C243.945 358.971 243.518 359.006 243.089 359.008C242.115 359.008 241.324 358.87 240.716 358.596C240.106 358.322 239.624 357.947 239.27 357.468C238.914 356.992 238.67 356.442 238.539 355.822C238.406 355.203 238.34 354.537 238.34 353.826V346.997H235.784L235.784 346.997ZM258.034 337.12H262.173L257.881 341.51H255.021L258.034 337.12H258.034ZM260.469 349.924C260.469 349.456 260.402 349.009 260.271 348.583C260.139 348.156 259.931 347.78 259.647 347.454C259.363 347.13 259.002 346.87 258.566 346.677C258.13 346.484 257.618 346.387 257.03 346.387C255.934 346.387 255.006 346.719 254.244 347.378C253.483 348.038 253.062 348.887 252.982 349.924H260.469H260.469ZM264.121 351.57V352.057C264.121 352.221 264.111 352.383 264.09 352.545H252.982C253.022 353.074 253.159 353.556 253.392 353.993C253.624 354.431 253.935 354.806 254.321 355.121C254.706 355.437 255.143 355.686 255.629 355.868C256.117 356.052 256.623 356.142 257.152 356.142C258.065 356.142 258.836 355.974 259.464 355.639C260.094 355.304 260.61 354.842 261.017 354.252L263.452 356.203C262.011 358.154 259.921 359.13 257.182 359.13C256.045 359.13 255 358.952 254.047 358.597C253.092 358.241 252.265 357.738 251.565 357.087C250.866 356.437 250.318 355.639 249.923 354.694C249.527 353.75 249.329 352.678 249.329 351.478C249.329 350.3 249.527 349.228 249.923 348.262C250.318 347.297 250.86 346.474 251.551 345.793C252.24 345.112 253.058 344.584 254.001 344.208C254.944 343.832 255.964 343.644 257.06 343.644C258.074 343.644 259.013 343.812 259.876 344.147C260.738 344.482 261.484 344.98 262.113 345.64C262.742 346.301 263.233 347.124 263.589 348.11C263.943 349.096 264.121 350.249 264.121 351.57ZM284.034 351.326C284.034 351.895 284.12 352.464 284.293 353.033C284.465 353.602 284.724 354.11 285.069 354.557C285.414 355.005 285.85 355.371 286.378 355.655C286.905 355.94 287.524 356.082 288.234 356.082C288.904 356.082 289.503 355.944 290.03 355.67C290.549 355.402 291.009 355.034 291.386 354.588C291.76 354.142 292.049 353.63 292.238 353.079C292.43 352.52 292.527 351.956 292.527 351.386C292.527 350.818 292.43 350.249 292.238 349.68C292.044 349.111 291.761 348.603 291.386 348.156C291.008 347.707 290.548 347.335 290.03 347.058C289.503 346.774 288.903 346.632 288.235 346.632C287.524 346.632 286.905 346.768 286.378 347.043C285.849 347.317 285.414 347.678 285.069 348.125C284.724 348.572 284.465 349.075 284.293 349.634C284.122 350.182 284.035 350.752 284.034 351.326ZM296.057 358.703H292.587V356.508H292.527C292.019 357.362 291.313 358.012 290.411 358.459C289.508 358.905 288.538 359.13 287.504 359.13C286.387 359.13 285.389 358.921 284.506 358.505C283.623 358.089 282.873 357.53 282.254 356.829C281.634 356.127 281.158 355.304 280.823 354.359C280.488 353.414 280.32 352.403 280.32 351.326C280.32 350.249 280.493 349.243 280.838 348.308C281.183 347.373 281.67 346.56 282.299 345.869C282.928 345.179 283.679 344.635 284.551 344.238C285.424 343.842 286.378 343.644 287.413 343.644C288.082 343.644 288.681 343.72 289.209 343.872C289.736 344.025 290.197 344.213 290.593 344.436C290.99 344.66 291.329 344.904 291.613 345.168C291.898 345.433 292.131 345.687 292.313 345.93H292.405V335.656H296.057V358.703ZM303.666 337.12H307.197L304.61 345.168H301.534L303.666 337.12ZM322.241 350.472L318.923 341.693L315.544 350.472H322.241L322.241 350.472ZM317.371 337.12H320.688L329.972 358.704H325.589L323.58 353.764H314.236L312.288 358.704H307.995L317.371 337.12ZM340.93 346.631C340.26 346.631 339.667 346.753 339.149 346.996C338.631 347.239 338.195 347.568 337.84 347.984C337.485 348.399 337.211 348.89 337.018 349.457C336.825 350.025 336.729 350.632 336.729 351.28C336.729 351.868 336.825 352.435 337.018 352.981C337.211 353.529 337.485 354.02 337.84 354.455C338.195 354.891 338.631 355.24 339.149 355.504C339.667 355.767 340.25 355.899 340.899 355.899C341.568 355.899 342.172 355.772 342.71 355.519C343.247 355.266 343.704 354.927 344.08 354.501C344.455 354.076 344.744 353.585 344.948 353.028C345.15 352.471 345.251 351.888 345.251 351.28C345.251 350.653 345.15 350.055 344.948 349.487C344.744 348.921 344.455 348.424 344.08 347.998C343.704 347.573 343.242 347.232 342.726 346.996C342.197 346.753 341.599 346.632 340.93 346.632V346.631ZM348.722 344.071V357.392C348.722 358.713 348.559 359.907 348.234 360.974C347.91 362.041 347.408 362.946 346.727 363.687C346.047 364.429 345.192 365.003 344.156 365.41C343.121 365.816 341.893 366.02 340.474 366.02C339.885 366.02 339.26 365.968 338.601 365.867C337.94 365.765 337.289 365.612 336.652 365.41C336.018 365.208 335.402 364.953 334.811 364.648C334.222 364.343 333.696 363.997 333.228 363.611L335.329 360.776C336.038 361.447 336.84 361.96 337.733 362.316C338.627 362.67 339.529 362.849 340.443 362.849C341.315 362.849 342.051 362.722 342.649 362.467C343.247 362.211 343.724 361.86 344.08 361.411C344.435 360.963 344.688 360.432 344.841 359.821C344.993 359.208 345.069 358.535 345.069 357.801V356.73H345.008C344.48 357.449 343.806 357.998 342.984 358.377C342.163 358.758 341.244 358.947 340.23 358.947C339.134 358.947 338.139 358.744 337.246 358.338C336.354 357.931 335.597 357.382 334.979 356.692C334.36 356 333.878 355.193 333.533 354.267C333.188 353.343 333.015 352.362 333.015 351.326C333.015 350.269 333.183 349.274 333.518 348.338C333.853 347.404 334.329 346.591 334.949 345.9C335.567 345.21 336.318 344.661 337.201 344.254C338.084 343.847 339.073 343.644 340.168 343.644C341.203 343.644 342.167 343.857 343.06 344.283C343.953 344.71 344.662 345.372 345.192 346.266H345.251V344.071H348.722ZM362.234 346.631C361.564 346.631 360.972 346.753 360.454 346.996C359.936 347.239 359.499 347.568 359.145 347.984C358.79 348.399 358.515 348.89 358.322 349.457C358.13 350.025 358.033 350.632 358.033 351.28C358.033 351.868 358.13 352.435 358.322 352.981C358.515 353.529 358.79 354.02 359.145 354.455C359.499 354.891 359.936 355.24 360.454 355.504C360.972 355.767 361.555 355.899 362.203 355.899C362.872 355.899 363.477 355.772 364.015 355.519C364.552 355.266 365.008 354.927 365.385 354.501C365.76 354.076 366.049 353.585 366.252 353.028C366.455 352.471 366.556 351.888 366.556 351.28C366.556 350.653 366.455 350.055 366.252 349.487C366.049 348.921 365.76 348.424 365.385 347.998C365.009 347.573 364.547 347.232 364.03 346.996C363.502 346.753 362.903 346.632 362.234 346.632V346.631ZM370.026 344.071V357.392C370.026 358.713 369.863 359.907 369.539 360.974C369.214 362.041 368.712 362.946 368.032 363.687C367.352 364.429 366.496 365.003 365.461 365.41C364.426 365.816 363.197 366.02 361.778 366.02C361.189 366.02 360.565 365.968 359.905 365.867C359.245 365.765 358.594 365.612 357.957 365.41C357.323 365.208 356.707 364.953 356.116 364.648C355.527 364.343 355.001 363.997 354.533 363.611L356.634 360.776C357.343 361.447 358.145 361.96 359.038 362.316C359.931 362.67 360.833 362.849 361.748 362.849C362.62 362.849 363.355 362.722 363.954 362.467C364.552 362.211 365.029 361.86 365.385 361.411C365.739 360.963 365.993 360.432 366.145 359.821C366.297 359.208 366.374 358.535 366.374 357.801V356.73H366.313C365.784 357.449 365.111 357.998 364.289 358.377C363.467 358.758 362.548 358.947 361.534 358.947C360.438 358.947 359.443 358.744 358.551 358.338C357.658 357.931 356.902 357.382 356.284 356.692C355.665 356 355.183 355.193 354.838 354.267C354.493 353.343 354.32 352.362 354.32 351.326C354.32 350.269 354.488 349.274 354.822 348.338C355.158 347.404 355.634 346.591 356.254 345.9C356.872 345.21 357.623 344.661 358.506 344.254C359.389 343.847 360.377 343.644 361.473 343.644C362.508 343.644 363.472 343.857 364.365 344.283C365.257 344.71 365.967 345.372 366.496 346.266H366.556V344.071H370.026ZM376.417 358.703H380.07V335.657H376.417V358.703ZM388.481 351.326C388.481 351.895 388.567 352.464 388.74 353.033C388.913 353.602 389.171 354.11 389.516 354.557C389.861 355.005 390.297 355.371 390.825 355.655C391.353 355.94 391.982 356.082 392.712 356.082C393.443 356.082 394.072 355.94 394.599 355.655C395.127 355.371 395.562 355.005 395.908 354.557C396.253 354.11 396.512 353.602 396.684 353.032C396.856 352.464 396.944 351.895 396.944 351.326C396.944 350.757 396.856 350.193 396.684 349.634C396.512 349.075 396.253 348.572 395.908 348.125C395.562 347.678 395.126 347.317 394.599 347.043C394.072 346.768 393.443 346.632 392.712 346.632C391.982 346.632 391.353 346.768 390.825 347.043C390.297 347.317 389.861 347.678 389.516 348.125C389.171 348.572 388.913 349.075 388.74 349.634C388.569 350.182 388.481 350.752 388.481 351.326ZM384.768 351.326C384.768 350.167 384.976 349.116 385.392 348.171C385.807 347.225 386.371 346.417 387.081 345.747C387.791 345.076 388.633 344.559 389.608 344.193C390.581 343.827 391.617 343.644 392.712 343.644C393.808 343.644 394.843 343.827 395.817 344.193C396.79 344.559 397.632 345.076 398.344 345.747C399.053 346.417 399.616 347.225 400.032 348.171C400.449 349.116 400.656 350.167 400.656 351.326C400.656 352.484 400.449 353.541 400.032 354.496C399.616 355.452 399.053 356.27 398.344 356.95C397.632 357.631 396.791 358.165 395.817 358.551C394.843 358.936 393.808 359.13 392.712 359.13C391.617 359.13 390.581 358.936 389.608 358.551C388.633 358.165 387.791 357.631 387.081 356.95C386.371 356.27 385.807 355.452 385.392 354.496C384.976 353.541 384.768 352.484 384.768 351.326ZM422.493 343.644C423.447 343.644 424.263 343.812 424.944 344.147C425.623 344.482 426.181 344.924 426.618 345.473C427.054 346.022 427.373 346.652 427.576 347.363C427.779 348.074 427.881 348.806 427.881 349.557V358.703H424.228V350.594C424.228 350.168 424.198 349.721 424.138 349.253C424.076 348.786 423.944 348.364 423.742 347.988C423.541 347.615 423.254 347.296 422.904 347.059C422.549 346.815 422.078 346.693 421.489 346.693C420.92 346.693 420.433 346.815 420.028 347.059C419.629 347.296 419.286 347.619 419.024 348.003C418.76 348.389 418.567 348.822 418.445 349.299C418.324 349.777 418.262 350.249 418.262 350.716V358.703H414.61V349.863C414.61 348.948 414.392 348.191 413.955 347.592C413.518 346.992 412.834 346.693 411.901 346.693C411.354 346.693 410.876 346.81 410.471 347.043C410.065 347.277 409.735 347.576 409.482 347.942C409.227 348.308 409.035 348.73 408.903 349.207C408.772 349.678 408.706 350.166 408.706 350.655V358.703H405.053V344.071H408.522V346.418H408.583C408.746 346.052 408.964 345.707 409.238 345.382C409.512 345.056 409.836 344.762 410.212 344.497C410.587 344.234 411.018 344.026 411.506 343.873C411.993 343.72 412.531 343.644 413.119 343.644C414.254 343.644 415.198 343.898 415.949 344.406C416.7 344.915 417.278 345.586 417.684 346.418C418.172 345.524 418.82 344.838 419.632 344.36C420.443 343.882 421.397 343.644 422.493 343.644ZM441.943 337.12H446.083L441.791 341.51H438.93L441.943 337.12ZM444.378 349.924C444.378 349.456 444.312 349.009 444.181 348.583C444.049 348.156 443.841 347.78 443.557 347.454C443.273 347.13 442.912 346.87 442.475 346.677C442.04 346.484 441.528 346.387 440.94 346.387C439.844 346.387 438.915 346.719 438.154 347.378C437.392 348.038 436.971 348.887 436.891 349.924H444.378H444.378ZM448.031 351.57V352.057C448.031 352.221 448.02 352.383 448 352.545H436.891C436.932 353.074 437.069 353.556 437.302 353.993C437.534 354.431 437.845 354.806 438.23 355.121C438.616 355.437 439.051 355.686 439.539 355.868C440.026 356.052 440.533 356.142 441.061 356.142C441.974 356.142 442.745 355.974 443.374 355.639C444.003 355.304 444.52 354.842 444.927 354.252L447.362 356.203C445.921 358.154 443.831 359.13 441.091 359.13C439.955 359.13 438.91 358.952 437.956 358.597C437.002 358.241 436.175 357.738 435.475 357.087C434.775 356.437 434.228 355.639 433.833 354.694C433.436 353.75 433.238 352.678 433.238 351.478C433.238 350.3 433.436 349.228 433.833 348.262C434.228 347.297 434.77 346.474 435.461 345.793C436.15 345.112 436.967 344.584 437.91 344.208C438.854 343.832 439.874 343.644 440.97 343.644C441.984 343.644 442.923 343.812 443.785 344.147C444.647 344.482 445.393 344.98 446.023 345.64C446.651 346.301 447.143 347.124 447.499 348.11C447.853 349.096 448.031 350.249 448.031 351.57ZM453.75 344.071H457.25V346.509H457.312C457.717 345.656 458.286 344.966 459.017 344.437C459.747 343.908 460.599 343.644 461.572 343.644C461.715 343.644 461.866 343.649 462.03 343.659C462.192 343.67 462.333 343.695 462.455 343.735V347.089C462.212 347.028 462.004 346.987 461.831 346.967C461.665 346.947 461.497 346.937 461.329 346.936C460.497 346.936 459.827 347.089 459.32 347.394C458.812 347.698 458.418 348.064 458.134 348.491C457.848 348.917 457.656 349.355 457.555 349.802C457.454 350.249 457.403 350.605 457.403 350.868V358.703H453.75V344.071ZM476.354 352.027H475.532C474.944 352.027 474.325 352.053 473.676 352.103C473.026 352.154 472.427 352.266 471.881 352.438C471.332 352.611 470.875 352.856 470.51 353.17C470.145 353.485 469.962 353.917 469.962 354.466C469.962 354.811 470.038 355.101 470.191 355.335C470.341 355.567 470.545 355.76 470.784 355.898C471.028 356.041 471.301 356.143 471.606 356.204C471.91 356.264 472.215 356.295 472.519 356.295C473.777 356.295 474.73 355.959 475.381 355.288C476.03 354.618 476.354 353.703 476.354 352.546V352.027ZM476.415 356.844H476.324C475.958 357.494 475.369 358.028 474.558 358.443C473.746 358.861 472.823 359.069 471.788 359.069C471.199 359.069 470.586 358.993 469.947 358.84C469.318 358.692 468.721 358.434 468.182 358.078C467.644 357.723 467.198 357.255 466.843 356.676C466.487 356.096 466.309 355.38 466.309 354.527C466.309 353.429 466.619 352.556 467.238 351.905C467.856 351.255 468.653 350.757 469.627 350.411C470.601 350.066 471.682 349.838 472.869 349.725C474.027 349.615 475.191 349.559 476.354 349.557V349.193C476.354 348.277 476.024 347.602 475.364 347.165C474.705 346.728 473.919 346.51 473.006 346.51C472.235 346.51 471.494 346.672 470.784 346.997C470.074 347.322 469.485 347.718 469.019 348.186L467.132 345.961C467.963 345.189 468.922 344.61 470.008 344.223C471.093 343.837 472.194 343.644 473.31 343.644C474.609 343.644 475.68 343.827 476.522 344.192C477.364 344.558 478.028 345.036 478.516 345.625C479.003 346.215 479.342 346.875 479.535 347.607C479.728 348.339 479.824 349.07 479.824 349.802V358.703H476.415V356.844ZM483.989 346.997V344.071H486.545V339.834H490.138V344.071H493.79V346.997H490.138V353.795C490.138 354.446 490.254 354.984 490.487 355.411C490.721 355.838 491.244 356.051 492.055 356.051C492.298 356.051 492.562 356.026 492.846 355.975C493.13 355.924 493.384 355.848 493.607 355.746L493.729 358.612C493.405 358.733 493.018 358.83 492.573 358.901C492.15 358.971 491.722 359.006 491.294 359.008C490.32 359.008 489.529 358.87 488.921 358.596C488.311 358.322 487.828 357.947 487.475 357.468C487.119 356.992 486.875 356.442 486.744 355.822C486.611 355.203 486.545 354.537 486.545 353.826V346.997H483.989V346.997ZM499.649 358.703H503.302V344.071H499.649V358.703ZM499.132 339.102C499.132 338.513 499.35 337.999 499.787 337.562C500.222 337.126 500.775 336.907 501.446 336.907C502.115 336.907 502.678 337.116 503.134 337.532C503.591 337.948 503.819 338.471 503.819 339.102C503.819 339.732 503.591 340.255 503.134 340.672C502.678 341.089 502.115 341.296 501.446 341.296C500.775 341.296 500.222 341.078 499.787 340.641C499.35 340.204 499.132 339.691 499.132 339.102ZM511.593 351.326C511.593 351.895 511.678 352.464 511.852 353.033C512.024 353.602 512.283 354.11 512.628 354.557C512.972 355.005 513.409 355.371 513.937 355.655C514.464 355.94 515.094 356.082 515.823 356.082C516.554 356.082 517.184 355.94 517.711 355.655C518.238 355.371 518.674 355.005 519.02 354.557C519.364 354.11 519.623 353.602 519.796 353.032C519.967 352.464 520.055 351.895 520.055 351.326C520.055 350.757 519.967 350.193 519.796 349.634C519.623 349.075 519.364 348.572 519.02 348.125C518.674 347.678 518.238 347.317 517.711 347.043C517.184 346.768 516.554 346.632 515.823 346.632C515.094 346.632 514.464 346.768 513.937 347.043C513.409 347.317 512.972 347.678 512.628 348.125C512.283 348.572 512.024 349.075 511.852 349.634C511.68 350.182 511.593 350.752 511.593 351.326ZM507.879 351.326C507.879 350.167 508.087 349.116 508.503 348.171C508.918 347.225 509.482 346.417 510.193 345.747C510.902 345.076 511.745 344.559 512.719 344.193C513.693 343.827 514.728 343.644 515.823 343.644C516.919 343.644 517.955 343.827 518.928 344.193C519.902 344.559 520.743 345.076 521.455 345.747C522.164 346.417 522.727 347.225 523.144 348.171C523.56 349.116 523.767 350.167 523.767 351.326C523.767 352.484 523.56 353.541 523.144 354.496C522.727 355.452 522.164 356.27 521.455 356.95C520.743 357.631 519.902 358.165 518.928 358.551C517.955 358.936 516.919 359.13 515.823 359.13C514.728 359.13 513.693 358.936 512.719 358.551C511.745 358.165 510.902 357.631 510.193 356.95C509.482 356.27 508.918 355.452 508.503 354.496C508.087 353.541 507.879 352.484 507.879 351.326ZM527.924 344.071H531.393V346.418H531.455C531.779 345.686 532.342 345.041 533.144 344.482C533.945 343.923 534.894 343.644 535.989 343.644C536.943 343.644 537.76 343.812 538.44 344.147C539.119 344.482 539.677 344.924 540.114 345.473C540.551 346.022 540.869 346.651 541.073 347.363C541.275 348.074 541.377 348.806 541.377 349.557V358.703H537.724V350.594C537.724 350.168 537.694 349.721 537.634 349.253C537.572 348.786 537.44 348.364 537.238 347.988C537.037 347.615 536.75 347.296 536.401 347.058C536.045 346.814 535.574 346.693 534.986 346.693C534.397 346.693 533.89 346.81 533.463 347.043C533.038 347.277 532.687 347.576 532.413 347.942C532.139 348.308 531.931 348.73 531.789 349.207C531.648 349.677 531.576 350.164 531.576 350.655V358.703H527.924V344.071ZM461.508 317.647L445.662 301.885V317.567H440V292.372C440 291.074 441.532 290.386 442.5 291.249L458.345 307.01V290.996H464.008V316.524C464.008 317.822 462.476 318.51 461.508 317.647V317.647ZM423.805 264.515V256.624H430.879C432.65 256.624 435.191 257.333 435.191 260.569C435.191 263.806 432.199 264.515 430.624 264.515H423.805ZM434.232 268.383C437.143 267.764 441.138 265.83 441.138 260.569C441.138 254.462 436.42 252.207 430.879 252.207H417.975V278.792H423.805V268.931H428.268L435.175 278.792H442.14L434.232 268.383V268.383ZM391.943 303.291V295.4H399.016C400.788 295.4 403.329 296.109 403.329 299.345C403.329 302.582 400.337 303.291 398.762 303.291H391.943ZM402.37 307.159C405.28 306.541 409.276 304.606 409.276 299.345C409.276 293.239 404.557 290.983 399.016 290.983H386.112V317.568H391.943V307.708H396.406L403.313 317.568H410.278L402.37 307.159H402.37ZM368.16 317.569H361.267L367.42 307.555L356.757 290.984H363.806L370.772 302.559L377.157 290.984H383.892L368.16 317.569ZM347.074 274.41H338.406V266.93H346.711C348.287 266.93 351.567 267.319 351.567 270.465C351.567 273.701 348.846 274.41 347.074 274.41ZM346.066 256.653C347.597 256.653 349.646 257.376 349.646 259.681C349.646 261.984 347.473 262.846 346.066 262.846H338.406V256.653H346.066ZM352.05 264.168C353.457 263.572 355.586 262.22 355.586 258.961C355.586 255.258 352.224 252.242 347.129 252.242H332.577V278.827H347.254C352.204 278.827 357.514 277.088 357.514 270.614C357.514 266.829 354.583 264.991 352.05 264.168H352.05ZM183.206 295.576C176.744 295.576 168.246 294.562 160.685 291.736L178.875 261.527L186.463 276.055L191.502 269.961L204.615 291.748C196.207 294.756 188.834 295.576 183.206 295.576V295.576ZM187.84 237.273C186.427 235.217 184.891 234 182.65 234C180.408 234 178.873 235.217 177.459 237.273L124.11 317.485L145.184 317.487L152.643 305.123C162.266 309.211 173.874 310.869 182.65 310.934C191.426 310.869 203.033 309.211 212.658 305.123L220.116 317.487L241.19 317.485L187.84 237.273V237.273ZM100.145 290.676C89.5796 290.676 81.5402 289.125 76.3309 286.071L76.3367 265.551L108.144 265.552C116.607 266.172 121.854 270.408 121.854 277.21C121.854 284.726 115.364 290.676 100.145 290.676ZM108.764 251.435L59.5252 251.434L59.5077 317.486H76.3212L76.3271 301.531C82.8014 303.983 90.5623 305.282 100.678 305.282C124.497 305.282 137.729 293.218 137.729 277.81C137.729 261.291 123.589 251.699 108.764 251.435H108.764ZM306.786 252.179H294.91L295.043 259.799C295.043 277.858 294.248 290.349 289.892 296.354C286.207 301.434 281.374 304.369 272.969 304.369C264.564 304.369 259.866 301.434 256.18 296.354C251.824 290.349 250.681 278.888 250.681 259.799C250.693 257.575 250.446 255.729 249.586 254.478C248.58 253.015 247.042 252.178 244.857 252.178H232.784V259.799C232.784 286.478 234.866 299.026 244.785 308.895C251.274 315.352 259.734 319.501 272.969 319.53C286.205 319.501 294.664 315.352 301.154 308.895C311.072 299.026 312.622 286.077 312.622 259.799C312.622 257.575 312.376 255.729 311.516 254.478C310.51 253.015 308.971 252.178 306.786 252.178V252.179Z" fill="#0045B4"/>
</svg>
