<svg width="600" height="600" viewBox="0 0 600 600" fill="none" xmlns="http://www.w3.org/2000/svg">
<rect width="600" height="600" rx="50" fill="#F6F5FC"/>
<path d="M205.946 117.021H74.0898V164.969H205.946V117.021Z" fill="white"/>
<path fill-rule="evenodd" clip-rule="evenodd" d="M128.601 159.313C129.116 158.799 129.635 158.246 130.152 157.692C131.074 156.594 132.084 155.563 133.162 154.607C133.474 154.324 133.804 154.061 134.149 153.82C134.194 153.774 134.217 153.706 134.24 153.638C134.262 153.57 134.285 153.502 134.33 153.457C134.104 153.548 133.923 153.684 133.741 153.819C133.56 153.955 133.379 154.091 133.152 154.182C133.062 154.182 132.971 154.091 133.062 154.001L134.03 153.275C134.01 153.276 133.989 153.276 133.968 153.276C133.877 153.276 133.877 153.185 133.877 153.095C132.709 152.915 131.809 153.715 130.998 154.435L130.978 154.454C130.857 154.514 130.736 154.454 130.642 154.407C130.595 154.383 130.555 154.363 130.525 154.363C129.813 154.601 129.2 155.037 128.582 155.477H128.582C128.021 155.877 127.457 156.279 126.81 156.538V156.356C126.585 156.431 126.362 156.532 126.139 156.633C125.824 156.775 125.507 156.918 125.179 156.991C124.566 157.127 124.004 157.109 123.455 157.092H123.455H123.454H123.454H123.454C123.273 157.087 123.093 157.081 122.914 157.081C121.806 157.216 120.706 157.412 119.62 157.668L119.572 157.68L119.551 157.685L119.525 157.692C118.937 157.85 118.37 158.078 117.837 158.371C117.816 158.383 117.795 158.395 117.775 158.407C117.73 158.464 117.685 158.518 117.644 158.564C117.473 158.783 117.262 158.966 117.022 159.106C116.628 159.307 116.285 159.613 115.944 159.916C115.803 160.041 115.663 160.167 115.52 160.284C115.477 160.313 115.427 160.329 115.375 160.33C115.225 160.473 115.077 160.617 114.928 160.761V160.761H114.927V160.761C114.592 161.085 114.257 161.409 113.915 161.726C113.829 161.766 113.732 161.778 113.639 161.759C113.664 161.722 113.682 161.694 113.699 161.665C113.775 161.537 113.853 161.41 113.931 161.283C114.019 161.141 114.108 161.001 114.2 160.862C114.323 160.675 114.45 160.489 114.585 160.31C114.617 160.276 114.615 160.224 114.582 160.192C114.548 160.159 114.502 160.142 114.455 160.144C114.919 159.711 115.429 159.33 115.976 159.009C115.916 159.015 115.828 158.966 115.874 158.902C115.908 158.855 115.937 158.807 115.966 158.758C115.987 158.724 116.008 158.689 116.03 158.656C116.04 158.629 116.05 158.602 116.059 158.575C116.045 158.559 116.031 158.545 116.017 158.53L115.99 158.503C115.841 158.592 115.699 158.691 115.565 158.801C115.499 158.86 115.438 158.938 115.375 159.018C115.231 159.201 115.079 159.395 114.849 159.392C114.803 159.391 114.757 159.385 114.712 159.372C114.678 159.368 114.646 159.357 114.617 159.34L114.629 159.319L114.642 159.294L114.655 159.27L114.698 159.192L114.722 159.15L114.741 159.114L114.776 159.051C114.798 159.013 114.819 158.975 114.84 158.937L114.859 158.905L114.869 158.888L114.888 158.855C114.915 158.808 114.942 158.762 114.969 158.715L114.97 158.714L115.005 158.655L115.061 158.558L115.101 158.49L115.101 158.49L115.101 158.489L115.102 158.488H115.102L115.129 158.441L115.157 158.394C115.176 158.364 115.179 158.327 115.165 158.295C115.152 158.263 115.123 158.239 115.089 158.232C115.258 158.012 115.469 157.828 115.71 157.691H115.682C115.921 157.571 116.16 157.433 116.399 157.295L116.399 157.295L116.399 157.294C116.507 157.232 116.615 157.17 116.723 157.109C116.756 157.08 116.789 157.052 116.822 157.023L116.872 156.98C116.363 157.152 115.878 157.391 115.43 157.691C115.377 157.712 115.325 157.74 115.278 157.774C115.193 157.792 115.105 157.76 115.052 157.691C115.038 157.672 115.03 157.648 115.031 157.624C115.084 157.519 115.198 157.444 115.32 157.364C115.407 157.307 115.499 157.247 115.575 157.171C115.665 157.171 115.755 157.171 115.755 157.262C117.555 155.856 119.772 155.532 121.997 155.207C123.358 155.009 124.721 154.81 125.994 154.362L126.809 153.819C127.042 153.726 127.251 153.56 127.473 153.385C127.683 153.219 127.904 153.045 128.168 152.913C128.9 152.41 129.443 151.676 129.708 150.829C129.699 150.76 129.667 150.696 129.618 150.648C128.479 151.875 127.129 152.888 125.631 153.638C124.259 154.356 122.793 154.463 121.334 154.568C120.77 154.609 120.207 154.65 119.651 154.726C119.742 154.545 119.923 154.545 120.104 154.545C120.104 154.329 120.218 154.228 120.355 154.105C120.391 154.073 120.429 154.039 120.467 154.001H120.739C120.784 154.001 120.807 153.956 120.829 153.91C120.852 153.865 120.874 153.82 120.92 153.82C121.101 153.82 121.373 153.729 121.282 153.729C121.144 153.545 120.936 153.618 120.705 153.699C120.482 153.777 120.237 153.863 120.014 153.729C120.102 153.642 120.125 153.533 120.148 153.434C120.171 153.328 120.192 153.232 120.286 153.186H120.648C120.667 153.048 120.731 152.921 120.829 152.823C121.637 152.339 122.412 151.918 123.174 151.505C123.695 151.222 124.211 150.943 124.726 150.649C124.621 150.649 124.529 150.689 124.44 150.729C124.3 150.791 124.168 150.85 124.001 150.739C124.092 150.739 124.092 150.671 124.092 150.603C124.092 150.535 124.092 150.467 124.183 150.467C124.753 150.312 125.264 150.067 125.783 149.819C126.172 149.633 126.565 149.445 126.991 149.29C126.867 149.29 126.753 149.322 126.643 149.353C126.432 149.412 126.233 149.468 125.994 149.29C126.055 149.259 126.105 149.219 126.155 149.179C126.256 149.098 126.357 149.018 126.538 149.018V148.746C126.538 148.655 126.629 148.655 126.719 148.655C126.651 148.646 126.587 148.614 126.538 148.565C126.585 148.471 126.68 148.45 126.786 148.427C126.885 148.405 126.994 148.381 127.082 148.293C126.991 148.293 126.81 148.293 126.81 148.202C127.082 147.84 127.535 147.749 127.988 147.659C127.942 147.568 127.852 147.568 127.772 147.568C127.693 147.568 127.625 147.568 127.625 147.478C127.625 147.387 127.716 147.387 127.806 147.387H127.625C127.485 147.317 127.508 147.192 127.525 147.097C127.53 147.07 127.535 147.045 127.535 147.025C127.897 146.602 128.018 146.098 128.138 145.595C128.199 145.343 128.259 145.092 128.35 144.85C128.259 144.85 128.169 144.85 128.169 144.759C127.289 145.727 125.897 146.097 124.574 146.448L124.454 146.48H124.001C123.499 146.677 122.936 146.644 122.461 146.389C122.241 146.28 122.088 146.137 121.922 145.981C121.813 145.879 121.698 145.772 121.555 145.664C120.846 145.212 120.086 144.847 119.29 144.576C117.04 143.841 114.679 143.504 112.313 143.58C112.965 143.225 113.66 143.082 114.363 142.937C114.736 142.861 115.112 142.783 115.485 142.674C115.71 142.608 115.933 142.539 116.155 142.472C117.453 142.075 118.713 141.69 120.105 141.768C119.921 141.706 119.695 141.728 119.484 141.749C119.384 141.758 119.287 141.768 119.199 141.768C118.179 141.695 117.158 141.915 116.09 142.146C115.831 142.202 115.568 142.258 115.302 142.312C114.85 142.402 114.42 142.538 113.99 142.674C113.559 142.81 113.129 142.946 112.675 143.036C112.466 143.106 112.298 143.229 112.133 143.349C111.869 143.542 111.616 143.726 111.225 143.67V143.399C112.131 142.31 113.219 141.224 114.668 141.134C116.047 140.904 117.36 141.063 118.719 141.227H118.719C118.968 141.257 119.218 141.287 119.471 141.315C120.632 141.438 121.782 141.65 122.912 141.949C123.161 141.949 123.3 142.168 123.436 142.38C123.547 142.554 123.655 142.724 123.818 142.765C124.035 142.837 124.253 142.852 124.47 142.866C124.797 142.888 125.123 142.909 125.449 143.127C125.449 143.066 125.439 143.006 125.428 142.946C125.408 142.825 125.388 142.704 125.449 142.583C125.653 142.379 125.887 142.434 126.116 142.488C126.294 142.53 126.469 142.572 126.627 142.493C127.118 142.185 126.651 141.711 126.186 141.24C125.966 141.017 125.747 140.794 125.63 140.59C125.64 140.521 125.671 140.458 125.72 140.409C125.938 140.599 126.139 140.797 126.338 140.994C126.804 141.453 127.261 141.903 127.895 142.221C128.348 142.402 129.435 142.674 129.254 142.13C128.937 141.432 128.396 140.822 127.852 140.208C127.62 139.946 127.387 139.683 127.17 139.412V139.051C127.038 139.051 127.002 139.002 126.957 138.941C126.941 138.918 126.923 138.894 126.899 138.87V138.507C126.671 138.394 126.622 138.208 126.572 138.018C126.543 137.906 126.513 137.793 126.445 137.692C126.294 137.44 126.283 137.131 126.272 136.813C126.263 136.56 126.254 136.302 126.174 136.061C126.01 135.559 125.889 135.044 125.811 134.521C125.704 133.917 125.584 133.34 125.466 132.775H125.466V132.775C125.284 131.9 125.107 131.053 124.996 130.172C124.856 128.847 125.522 127.736 126.209 126.592C126.414 126.25 126.62 125.905 126.808 125.551C127.442 124.463 128.167 123.377 129.345 122.652C129.616 121.567 130.338 120.664 131.059 119.76L131.065 119.753C131.789 118.868 132.991 118.33 133.862 117.94C134.648 117.592 135.451 117.285 136.269 117.021H74.0898V164.968H118.125C119.327 164.102 120.528 163.554 121.96 162.899C122.583 162.614 123.25 162.309 123.981 161.949C124.121 161.88 124.283 161.802 124.462 161.715L124.463 161.715L124.466 161.713L124.467 161.713C125.739 161.097 127.829 160.085 128.601 159.313ZM114.215 152.732C114.279 152.414 114.61 152.32 114.927 152.229C115.062 152.19 115.195 152.152 115.303 152.098L115.347 152.076L115.395 152.05L115.396 152.049C115.569 151.957 115.785 151.841 115.938 151.917C116.04 152.071 116.172 152.108 116.3 152.145C116.397 152.173 116.493 152.201 116.572 152.279C116.245 152.606 115.852 152.638 115.453 152.671C115.189 152.693 114.921 152.714 114.668 152.823C114.624 152.823 114.57 152.828 114.513 152.834C114.338 152.851 114.147 152.869 114.215 152.732ZM103.615 146.028C102.801 147.659 101.83 149.206 100.715 150.648C100.725 150.717 100.757 150.781 100.806 150.83C102.981 148.383 104.974 146.299 107.781 144.578C107.851 144.543 107.827 144.575 107.792 144.622C107.735 144.698 107.649 144.815 107.872 144.759C108.814 144.542 109.234 143.746 109.643 142.972C109.745 142.778 109.847 142.585 109.956 142.403C110.377 141.719 110.982 141.28 111.592 140.836C112.032 140.516 112.476 140.194 112.855 139.776C112.867 139.876 112.834 139.976 112.765 140.048C112.837 140.118 112.937 140.151 113.036 140.138C113.194 140.02 113.369 139.971 113.539 139.922C113.759 139.86 113.971 139.8 114.125 139.595C113.373 139.294 112.541 139.262 111.769 139.504C109.866 140.41 108.235 141.86 106.695 143.491C105.77 144.47 104.792 145.393 103.615 146.028ZM108.054 145.212C107.983 145.374 107.854 145.503 107.692 145.575C107.601 145.575 107.51 145.575 107.51 145.484C107.592 145.104 107.867 144.794 108.235 144.669C108.326 144.668 108.326 144.759 108.326 144.85C108.28 144.943 108.23 144.993 108.182 145.042C108.137 145.089 108.093 145.134 108.054 145.212ZM112.43 158.829C112.503 158.762 112.424 158.712 112.31 158.689C112.403 158.618 112.479 158.528 112.533 158.424C112.607 158.247 112.128 158.289 112.054 158.341C111.981 158.399 111.915 158.467 111.859 158.542C111.741 158.669 111.615 158.79 111.482 158.902C111.383 158.994 111.286 159.087 111.19 159.181C111.066 159.301 110.942 159.421 110.813 159.535C110.66 159.669 111.158 159.739 111.266 159.644C111.382 159.541 111.493 159.434 111.604 159.327C111.651 159.325 111.698 159.319 111.743 159.308C112.004 159.199 112.238 159.036 112.43 158.829ZM110.887 157.692L110.781 157.767C110.477 157.981 110.173 158.196 109.853 158.382C109.566 158.548 109.269 158.685 108.971 158.823C108.866 158.871 108.762 158.919 108.658 158.968C108.655 158.96 108.651 158.953 108.646 158.946C108.612 158.898 108.547 158.882 108.494 158.91C108.161 159.1 107.855 159.333 107.583 159.604C107.541 159.644 107.499 159.685 107.457 159.726C107.399 159.783 107.357 159.825 107.314 159.868L107.299 159.883C107.297 159.885 107.296 159.887 107.296 159.888L107.293 159.892C107.229 159.956 107.167 160.021 107.096 160.104C107.063 160.152 107.022 160.195 106.975 160.23C106.919 160.268 106.763 160.267 106.777 160.162V160.145L106.771 160.148C106.719 160.175 106.668 160.202 106.616 160.227C106.569 160.249 106.527 160.274 106.485 160.299L106.475 160.305C106.455 160.297 106.434 160.294 106.412 160.296C106.389 160.296 106.366 160.303 106.347 160.317C106.236 160.404 106.127 160.497 106.02 160.594C105.829 160.765 105.653 160.952 105.494 161.152L105.468 161.186L105.441 161.221C105.432 161.233 105.422 161.246 105.412 161.259L105.403 161.27L105.39 161.289L105.364 161.327L105.342 161.36C105.318 161.385 105.292 161.397 105.264 161.401L105.249 161.379C105.242 161.368 105.234 161.358 105.228 161.347L105.213 161.321L105.202 161.303C105.175 161.256 105.149 161.208 105.125 161.158L105.122 161.152L105.112 161.131L105.101 161.108C105.199 161.002 105.294 160.893 105.385 160.781L105.403 160.759C105.435 160.721 105.466 160.682 105.498 160.643L105.649 160.449C105.66 160.434 105.671 160.42 105.682 160.407L105.705 160.378C105.804 160.248 105.899 160.122 105.988 159.995L105.995 159.985L106.011 159.962C106.018 159.951 106.026 159.939 106.034 159.928C106.077 159.864 106.119 159.799 106.158 159.733C106.193 159.674 106.226 159.614 106.257 159.553L106.265 159.539L106.274 159.521C106.277 159.515 106.279 159.51 106.281 159.504C106.284 159.498 106.286 159.492 106.289 159.487C106.321 159.418 106.349 159.348 106.375 159.275L106.383 159.252L106.388 159.237C106.393 159.223 106.399 159.208 106.403 159.193C106.413 159.16 106.423 159.126 106.432 159.093C106.433 159.085 106.435 159.078 106.437 159.071L106.445 159.039V159.039C106.453 159.006 106.461 158.972 106.468 158.938C106.472 158.917 106.468 158.895 106.457 158.877C106.559 158.702 106.68 158.538 106.816 158.388C106.81 158.392 106.803 158.395 106.796 158.399C106.789 158.403 106.781 158.407 106.775 158.411C106.703 158.458 106.644 158.514 106.585 158.571C106.539 158.616 106.492 158.662 106.438 158.702C106.34 158.775 106.158 158.653 106.275 158.566C106.347 158.508 106.416 158.446 106.481 158.379C106.634 158.2 106.788 158.046 106.953 157.904L106.991 157.876C107.08 157.812 107.158 157.756 107.231 157.692C107.24 157.684 107.248 157.675 107.258 157.667L107.271 157.656C107.332 157.575 107.4 157.499 107.473 157.428L107.477 157.424C107.479 157.422 107.48 157.42 107.482 157.419C108.012 156.907 108.764 156.722 109.53 156.534C110.016 156.414 110.509 156.293 110.953 156.086C111.205 155.985 111.486 156.024 111.763 156.063C111.984 156.095 112.202 156.126 112.402 156.086C112.687 156.058 112.972 156.122 113.218 156.267C112.59 156.609 111.998 156.985 111.42 157.353C111.249 157.462 111.079 157.57 110.91 157.676L110.887 157.692ZM112.403 151.192H113.128C113.077 151.294 112.939 151.31 112.845 151.321C112.772 151.329 112.726 151.334 112.766 151.374C113.038 151.645 113.581 151.555 113.943 151.373C114.219 151.218 114.536 151.155 114.849 151.192C114.94 151.192 114.94 151.011 114.94 150.92C115.174 150.995 115.419 151.026 115.664 151.011C117.839 150.558 119.923 150.105 121.916 149.108C119.905 147.561 117.431 146.872 115.003 146.197C114.587 146.081 114.173 145.966 113.762 145.846C113.853 145.846 113.943 145.877 114.034 145.907C114.215 145.967 114.396 146.028 114.577 145.846C114.331 145.649 114.057 145.613 113.786 145.577C113.56 145.547 113.334 145.517 113.128 145.393C113.148 145.393 113.173 145.398 113.201 145.403C113.295 145.421 113.42 145.443 113.49 145.303C113.007 145.061 112.524 144.981 112.041 144.9C111.799 144.86 111.557 144.82 111.316 144.759C111.75 144.681 112.06 144.294 112.041 143.853C112.041 143.763 111.859 143.763 111.769 143.763C110.681 144.306 109.957 145.303 109.504 146.481C109.908 146.712 110.35 146.685 110.781 146.659C111.026 146.644 111.267 146.629 111.497 146.662C111.295 146.863 110.995 146.915 110.705 146.966C110.603 146.983 110.503 147.001 110.409 147.024C110.131 147.094 109.865 147.296 109.956 147.477C110.005 147.546 110.079 147.593 110.162 147.608C109.948 147.665 109.752 147.776 109.594 147.93C109.853 148.125 110.112 148.088 110.371 148.051C110.475 148.036 110.578 148.021 110.681 148.021C110.681 148.142 110.762 148.182 110.843 148.222C110.883 148.243 110.923 148.263 110.954 148.293C110.558 148.437 110.233 148.729 110.047 149.108C109.939 149.38 109.732 149.554 109.525 149.728C109.388 149.844 109.25 149.96 109.141 150.105V150.376C108.833 150.654 108.515 150.899 108.201 151.142C107.589 151.614 106.992 152.074 106.514 152.732C106.604 152.732 106.604 152.823 106.604 152.913C106.522 153.037 106.403 153.123 106.289 153.205C106.151 153.305 106.02 153.399 105.97 153.547C105.97 153.638 105.97 153.729 106.061 153.729C106.631 153.539 107.126 153.225 107.611 152.916C108.052 152.636 108.486 152.361 108.96 152.189C109.348 152.092 109.683 151.917 110.008 151.748C110.292 151.601 110.567 151.458 110.863 151.373C111.089 151.328 111.338 151.26 111.587 151.192C111.837 151.124 112.086 151.056 112.312 151.011C112.312 151.101 112.312 151.192 112.403 151.192ZM116.582 159.178C116.589 159.173 116.596 159.167 116.603 159.162L116.619 159.149C116.75 159.056 116.872 158.938 116.981 158.796C116.974 158.794 116.966 158.791 116.959 158.788C116.952 158.785 116.945 158.782 116.939 158.779C116.818 158.902 116.7 159.036 116.582 159.178ZM134.256 153.233L134.067 153.374C134.171 153.369 134.256 153.342 134.256 153.233Z" fill="#000091"/>
<path d="M205.943 117.021H154.367C154.539 117.078 154.703 117.154 154.857 117.249C155.275 117.474 155.818 117.764 156.158 117.942C156.853 118.262 157.45 118.762 157.885 119.391C158.067 119.663 158.339 120.207 158.157 120.569C157.976 121.022 157.885 121.747 157.433 121.928C156.889 122.2 156.164 122.2 155.53 122.109C155.161 122.094 154.796 122.033 154.442 121.928C155.8 122.472 157.069 123.106 157.975 124.375C158.066 124.556 158.428 124.646 158.791 124.646C158.881 124.646 158.881 124.828 158.881 124.918C158.7 125.1 158.519 125.19 158.609 125.462H158.881C159.334 125.28 159.244 124.374 159.878 124.646C160.34 124.931 160.499 125.528 160.24 126.005C159.9 126.334 159.537 126.637 159.152 126.911C159.062 127.113 159.062 127.344 159.152 127.546C159.379 127.872 159.533 128.243 159.605 128.634C159.877 129.268 159.968 129.993 160.239 130.627C160.602 131.986 160.964 133.345 160.873 134.704C160.873 135.429 160.511 136.063 160.783 136.788C160.964 137.513 161.417 138.057 161.78 138.691C162.142 139.234 162.504 139.597 162.776 140.14C163.32 141.046 164.316 141.952 163.864 143.039C163.593 143.674 162.596 143.583 161.962 143.946C161.418 144.399 161.871 145.123 162.143 145.576C162.596 146.392 161.599 146.935 160.965 147.207C161.146 147.479 161.509 147.388 161.599 147.57C161.69 148.023 162.143 148.295 161.871 148.747C161.509 149.291 160.422 149.563 160.965 150.378C161.328 151.013 161.092 151.717 160.875 152.372C160.603 153.187 159.878 153.549 159.244 153.731C158.685 153.896 158.096 153.927 157.523 153.821C157.358 153.721 157.172 153.659 156.98 153.64C155.439 153.459 153.899 153.006 152.359 153.006C151.922 153.072 151.496 153.194 151.09 153.368C150.696 153.657 150.329 153.982 149.993 154.338L149.983 154.35C149.915 154.422 149.849 154.495 149.785 154.569C149.746 154.615 149.707 154.662 149.668 154.708C149.642 154.739 149.617 154.77 149.591 154.802C149.328 155.132 149.09 155.481 148.878 155.846C148.865 155.869 148.851 155.892 148.838 155.915C148.814 155.957 148.791 156 148.768 156.042C148.483 156.571 148.253 157.128 148.082 157.704C147.466 159.779 147.735 161.559 148.168 161.991C148.288 162.112 151.158 162.998 153.157 163.887C153.895 164.197 154.609 164.558 155.296 164.969H205.943V117.021Z" fill="#E1000F"/>
<path d="M157.433 134.514C157.796 134.605 158.339 134.605 158.339 134.786C158.158 135.51 157.07 135.691 156.527 136.417H156.256C155.984 136.598 156.075 137.051 155.803 137.051C155.528 136.991 155.242 137.023 154.987 137.141C155.35 137.504 155.803 137.776 156.346 137.685C156.502 137.739 156.61 137.883 156.618 138.048C156.688 138.041 156.752 138.009 156.799 137.957C156.89 137.957 156.981 137.957 156.981 138.048V138.41C156.709 138.773 156.256 138.591 155.893 138.682C156.576 138.863 157.294 138.863 157.976 138.682C158.52 138.501 157.976 137.594 158.339 137.141C158.158 137.141 158.339 136.87 158.158 136.87C158.339 136.689 158.52 136.417 158.702 136.326C158.917 136.332 159.121 136.23 159.245 136.054C159.245 135.873 158.883 135.783 158.973 135.601C159.517 135.239 159.97 134.695 159.789 134.152C159.698 133.88 158.973 133.88 158.52 133.699C158.067 133.518 157.524 133.699 156.98 133.789C156.527 133.789 156.074 134.061 155.621 134.152C155.004 134.362 154.423 134.668 153.9 135.057C154.549 134.823 155.216 134.641 155.894 134.514C156.437 134.514 156.898 134.38 157.433 134.514Z" fill="#808080"/>
<path fill-rule="evenodd" clip-rule="evenodd" d="M198.658 461.525L194.198 465.6H193.048L195.685 460.949H198.658V461.525ZM195.445 477.299H194.486C193.287 478.738 191.945 479.888 190.65 479.888C189.308 479.888 188.637 479.073 188.637 477.299C188.637 476.58 188.732 475.813 188.876 475.142L196.692 472.553C198.226 468.909 196.404 467.326 194.246 467.326C190.554 467.326 186.335 473.799 186.335 478.977C186.335 481.423 187.486 482.765 189.308 482.765C191.417 482.717 193.623 480.656 195.445 477.299ZM192.76 469.436C193.815 469.436 194.726 470.251 194.246 472.121L189.404 473.416C190.171 471.114 191.609 469.436 192.76 469.436ZM177.513 469.532H180.102L175.978 480.847C175.595 481.806 176.122 482.765 177.129 482.765C180.054 482.765 183.554 480.272 184.897 476.724H184.177C183.123 478.21 180.821 479.841 179.095 480.128L182.883 469.532H186.767L187.246 467.902H183.458L184.897 463.826H183.41L180.725 467.902L177.513 468.333V469.532ZM173.917 467.374C174.444 467.374 175.163 467.95 174.828 469.004L170.177 480.272C171.375 480.08 172.622 478.93 173.341 477.875H174.108C173.006 480.704 170.512 482.765 168.355 482.765C167.827 482.765 167.06 482.19 167.444 481.135L171.759 469.867C170.56 470.059 169.314 471.21 168.594 472.265H167.875C168.978 469.388 171.663 467.374 173.917 467.374ZM175.259 464.497C176.218 464.497 177.033 463.73 177.033 462.723C177.033 461.764 176.218 460.949 175.259 460.949C174.252 460.949 173.485 461.764 173.485 462.723C173.485 463.682 174.3 464.497 175.259 464.497ZM154.306 473.847C155.361 471.546 154.977 470.491 154.306 470.491C153.731 470.491 153.059 471.114 152.388 472.265H151.669C152.772 469.819 154.21 467.374 155.792 467.374C157.135 467.374 157.614 468.717 157.614 470.203V472.313C157.833 472.059 158.045 471.809 158.252 471.567H158.252C160.278 469.189 161.825 467.374 163.608 467.374C164.998 467.374 165.718 468.237 165.718 469.532C165.718 470.299 165.478 471.258 164.95 472.265L160.971 480.272C162.169 480.08 163.416 478.93 164.135 477.875H164.855C163.752 480.752 161.067 482.765 158.813 482.765C157.806 482.765 157.231 481.71 157.662 480.847L162.265 471.977C162.793 470.97 162.889 470.299 162.074 470.299C160.971 470.299 158.382 472.121 156.991 473.799L153.97 481.758C153.635 482.574 153.299 482.765 152.532 482.765C151.285 482.765 150.662 481.95 151.237 480.656L154.306 473.847ZM151.189 470.778C151.717 468.956 151.429 467.326 150.039 467.326C148.305 467.326 147.762 468.472 146.081 472.016L145.963 472.265V470.155C145.963 468.669 145.484 467.326 144.141 467.326C142.559 467.326 141.121 469.772 140.018 472.217H140.737C141.504 471.114 142.223 470.443 142.799 470.443C143.47 470.443 143.854 471.498 142.799 473.799L139.73 480.608C139.155 481.902 139.778 482.717 141.025 482.717C141.792 482.717 142.127 482.526 142.463 481.71L145.484 473.751C146.347 472.696 147.114 471.785 148.073 470.778H151.189ZM136.038 472.121C136.518 470.251 135.607 469.436 134.552 469.436C133.401 469.436 131.963 471.114 131.195 473.416L136.038 472.121ZM137.237 477.299H136.278C135.079 478.738 133.737 479.888 132.442 479.888C131.099 479.888 130.428 479.073 130.428 477.299C130.428 476.58 130.524 475.813 130.668 475.142L138.483 472.553C140.018 468.909 138.196 467.326 136.038 467.326C132.346 467.326 128.127 473.799 128.127 478.977C128.127 481.423 129.277 482.765 131.099 482.765C133.209 482.717 135.415 480.656 137.237 477.299ZM121.894 469.532H119.304V468.333L122.517 467.902L125.202 463.826H126.688L125.25 467.902H129.038L128.558 469.532H124.674L120.887 480.128C122.613 479.841 124.914 478.21 125.969 476.724H126.688C125.346 480.272 121.846 482.765 118.921 482.765C117.914 482.765 117.386 481.806 117.77 480.847L121.894 469.532ZM105.591 478.306C105.591 474.806 109.475 470.107 111.633 470.107C112.112 470.107 112.592 470.155 112.975 470.299L110.722 476.34C109.427 477.923 107.413 479.841 106.454 479.841C105.927 479.841 105.591 479.361 105.591 478.306ZM116.284 466.607L117.482 466.703L113.311 476.292C112.304 478.594 112.736 479.649 113.311 479.649C113.886 479.649 114.606 478.977 115.373 477.875H116.092C114.989 480.32 113.551 482.765 111.968 482.765C110.626 482.765 109.811 481.327 110.051 478.738L110.146 477.827L109.885 478.191C108.168 480.593 106.614 482.765 105.016 482.765C103.626 482.765 102.906 481.902 102.906 480.608C102.906 475.046 108.996 467.95 114.701 467.95H114.941L116.284 466.607ZM105.304 470.778C105.831 468.956 105.543 467.326 104.153 467.326C102.419 467.326 101.876 468.472 100.195 472.016L100.077 472.265V470.155C100.077 468.669 99.5979 467.326 98.2554 467.326C96.6731 467.326 95.2347 469.772 94.1319 472.217H94.8511C95.6183 471.114 96.3375 470.443 96.8649 470.443C97.5362 470.443 97.9198 471.498 96.8649 473.799L93.7963 480.656C93.2209 481.95 93.8442 482.765 95.0909 482.765C95.858 482.765 96.1937 482.574 96.5293 481.758L99.55 473.799C100.413 472.744 101.18 471.833 102.139 470.826H105.304V470.778ZM85.5493 481.327L85.2616 482.19H74.0898L74.3775 481.279C77.8298 480.656 78.4051 480.368 79.8435 476.484L82.9601 468.141C84.3506 464.258 84.0629 463.97 81.0422 463.347L81.3299 462.484H95.858L94.995 467.134H93.9401C93.9401 464.353 93.6524 463.634 91.0153 463.634H90.3441C87.7549 463.634 87.4193 464.018 86.7 466.032L84.6383 471.642H87.659C89.6728 471.642 90.44 470.395 91.351 468.765H92.4058L89.9125 475.573H88.8577C89.0974 473.511 89.0974 472.696 87.2275 472.696H84.2068L82.8163 476.532C81.3131 480.524 81.7428 480.605 85.3218 481.284C85.3964 481.298 85.4721 481.313 85.5493 481.327Z" fill="#140A82"/>
<path fill-rule="evenodd" clip-rule="evenodd" d="M95.0429 424.845L90.5838 428.057V428.105H89.4331L92.0702 424.27H95.0429V424.845ZM126.209 447.332L133.353 428.345L133.113 428.057L128.175 428.633V429.208L129.134 429.927C129.952 430.565 129.736 431.157 129.056 433.018L128.942 433.332L123.476 447.908C123.044 448.771 123.62 449.826 124.627 449.826C126.88 449.826 129.277 447.764 130.38 444.935H129.661C128.894 445.99 127.36 447.14 126.209 447.332ZM158.957 432.708L163.416 428.633V428.057H160.443L157.806 432.708H158.957ZM159.245 444.36H160.204C158.43 447.764 156.224 449.826 154.114 449.826C152.292 449.826 151.142 448.483 151.142 446.038C151.142 440.859 155.361 434.386 159.053 434.386C161.163 434.386 163.033 435.969 161.498 439.613L153.635 442.202C153.491 442.873 153.395 443.64 153.395 444.36C153.395 446.134 154.066 446.949 155.409 446.949C156.703 446.949 158.046 445.798 159.245 444.36ZM159.005 439.181C159.484 437.359 158.573 436.544 157.519 436.544C156.416 436.544 154.977 438.222 154.162 440.476L159.005 439.181ZM144.908 436.64H142.319V435.441L145.532 435.01L148.217 430.934H149.703L148.265 435.01H152.053L151.573 436.64H147.689L143.901 447.236C145.628 446.949 147.929 445.319 148.984 443.832H149.703C148.361 447.38 144.86 449.874 141.936 449.874C140.929 449.874 140.401 448.915 140.785 447.956L144.908 436.64ZM139.634 436.065C139.922 435.01 139.251 434.434 138.675 434.434C136.422 434.434 133.737 436.496 132.634 439.325H133.353C134.072 438.27 135.319 437.119 136.518 436.928L132.202 448.195C131.819 449.25 132.586 449.826 133.113 449.826C135.271 449.826 137.764 447.764 138.867 444.935H138.148C137.429 445.99 136.182 447.14 134.983 447.332L139.634 436.065ZM141.84 429.831C141.84 430.79 141.025 431.605 140.066 431.605C139.107 431.605 138.292 430.79 138.292 429.831C138.292 428.872 139.059 428.057 140.066 428.057C141.025 428.057 141.84 428.872 141.84 429.831ZM117.626 437.215C115.469 437.215 111.585 441.914 111.585 445.414C111.585 446.469 111.92 446.949 112.496 446.949C113.407 446.949 115.421 445.031 116.715 443.449L118.969 437.407C118.537 437.263 118.106 437.215 117.626 437.215ZM123.476 433.811L122.277 433.715L120.935 435.058H120.695C114.989 435.058 108.9 442.154 108.9 447.716C108.9 449.01 109.619 449.874 111.009 449.874C112.607 449.874 114.161 447.702 115.879 445.299L116.14 444.935L116.044 445.846C115.804 448.435 116.619 449.874 117.962 449.874C119.544 449.874 120.983 447.428 122.085 444.983H121.366C120.599 446.086 119.88 446.757 119.304 446.757C118.729 446.757 118.297 445.702 119.304 443.401L123.476 433.811ZM99.3103 449.346C97.2485 450.161 95.8101 451.12 95.8101 452.607C95.8101 453.997 97.1047 454.572 99.7897 454.572C103.386 454.572 105.352 453.518 105.352 452.127C105.352 451.504 104.537 451.216 102.379 450.497C100.988 450.065 99.9815 449.682 99.3103 449.346ZM101.708 443.449C100.749 443.449 100.413 442.633 100.413 441.77C100.413 438.989 101.756 435.537 103.913 435.537C104.872 435.537 105.208 436.352 105.208 437.215C105.16 440.044 103.817 443.449 101.708 443.449ZM103.53 447.956C106.167 448.771 107.797 449.394 107.797 451.216C107.797 453.565 103.482 456.346 98.2554 456.298C95.2347 456.298 92.6455 455.483 92.6455 453.518C92.6455 451.648 94.3717 450.113 98.591 448.867C98.0157 448.483 97.7759 448.004 97.7759 447.332C97.7759 446.182 98.8308 445.271 100.653 444.407C98.8787 444.168 97.728 442.825 97.728 440.859C97.728 437.839 100.221 434.386 104.153 434.386C104.968 434.386 105.687 434.578 106.263 434.962H110.578L110.098 436.592H107.557C107.701 437.024 107.797 437.503 107.797 438.03C107.797 440.955 105.448 444.312 101.708 444.503C100.749 445.031 100.269 445.75 100.269 446.325C100.269 447.001 101.054 447.232 102.787 447.737H102.788C103.018 447.805 103.265 447.876 103.53 447.956ZM88.3303 439.757C90.2002 439.757 90.2482 440.572 89.9605 442.633H91.0153L93.5086 435.825H92.4538C91.5427 437.455 90.7756 438.702 88.7618 438.702H84.6383L86.6521 433.092C87.3713 431.078 87.7069 430.694 90.2961 430.694H92.1181C94.7552 430.694 95.0429 431.414 95.0429 434.195H96.0978L96.9608 429.544H81.3299L81.0422 430.407C84.0629 431.03 84.3506 431.318 82.9601 435.202L79.8435 443.592C78.4051 447.476 77.8298 447.764 74.3296 448.387L74.0898 449.298H91.4469L94.5634 444.36H93.3648C91.351 446.325 89.3372 448.147 85.4055 448.147C81.0808 448.147 81.158 447.936 82.4555 444.372C82.5389 444.141 82.6276 443.899 82.7204 443.64L84.1588 439.805H88.3303V439.757Z" fill="#140A82"/>
<path fill-rule="evenodd" clip-rule="evenodd" d="M102.667 398.665C103.626 398.665 104.441 397.85 104.441 396.891C104.441 395.932 103.626 395.117 102.667 395.117C101.66 395.117 100.893 395.932 100.893 396.891C100.893 397.898 101.66 398.665 102.667 398.665ZM106.838 416.885C110.578 416.933 116.859 410.029 116.859 404.707C116.859 402.405 116.284 401.542 114.653 401.542C112.64 401.542 110.77 403.7 108.9 406.289L112.927 395.501L112.688 395.165L107.749 395.74V396.316L108.708 397.035C109.543 397.685 109.301 398.334 108.59 400.243L108.516 400.439L104.153 411.851C103.769 412.81 103.338 413.961 103.338 414.248C103.338 415.591 105.16 416.885 106.838 416.885ZM158.43 399.816L162.889 395.74V395.165H159.916L157.279 399.816H158.43ZM158.717 411.467H159.676C157.854 414.872 155.649 416.933 153.539 416.885C151.717 416.885 150.566 415.591 150.566 413.145C150.566 407.967 154.786 401.494 158.478 401.494C160.587 401.494 162.457 403.076 160.923 406.72L153.107 409.31C152.964 409.981 152.868 410.748 152.868 411.467C152.868 413.241 153.539 414.056 154.881 414.056C156.176 414.056 157.519 412.906 158.717 411.467ZM158.478 406.289C158.957 404.467 158.046 403.652 156.991 403.652C155.84 403.652 154.402 405.33 153.635 407.584L158.478 406.289ZM144.333 403.748H141.744V402.549L144.956 402.118L147.641 398.042H149.128L147.689 402.118H151.477L150.998 403.748H147.114L143.326 414.344C145.052 414.056 147.354 412.426 148.409 410.94H149.128C147.785 414.488 144.285 416.981 141.36 416.981C140.353 416.981 139.826 416.022 140.21 415.063L144.333 403.748ZM140.401 404.994C140.929 403.172 140.641 401.542 139.251 401.542C137.517 401.542 136.974 402.688 135.293 406.231L135.175 406.481V404.371C135.175 402.885 134.696 401.542 133.353 401.542C131.771 401.542 130.332 403.987 129.23 406.433H129.949C130.716 405.33 131.435 404.659 131.963 404.659C132.634 404.659 133.017 405.714 131.963 408.015L128.894 414.824C128.319 416.118 128.942 416.933 130.188 416.933C130.956 416.933 131.291 416.742 131.627 415.926L134.648 407.967C135.511 406.912 136.278 406.001 137.237 404.994H140.401ZM125.202 406.289C125.681 404.467 124.77 403.652 123.716 403.652C122.565 403.652 121.174 405.33 120.359 407.584L125.202 406.289ZM126.401 411.467H125.442C124.243 412.906 122.9 414.056 121.606 414.056C120.263 414.056 119.592 413.241 119.592 411.467C119.592 410.748 119.688 409.981 119.832 409.31L127.647 406.72C129.182 403.076 127.36 401.494 125.202 401.494C121.51 401.494 117.291 407.967 117.291 413.145C117.291 415.591 118.441 416.885 120.263 416.885C122.373 416.933 124.579 414.872 126.401 411.467ZM106.263 413.289C106.263 413.913 107.365 414.632 108.133 414.632C111.249 414.632 114.174 409.022 114.126 405.905C114.126 404.851 113.599 404.419 112.879 404.419C111.729 404.419 109.619 406.145 108.276 407.775L107.03 411.132C106.598 412.234 106.263 413.098 106.263 413.289ZM101.228 401.542C101.804 401.542 102.475 402.118 102.187 403.172L97.5841 414.44C98.7828 414.248 100.029 413.098 100.749 412.043H101.468C100.365 414.872 97.8718 416.933 95.7142 416.933C95.1388 416.933 94.3717 416.358 94.7552 415.303L99.0705 404.035C97.8718 404.227 96.6252 405.378 95.906 406.433H95.1868C96.2896 403.604 98.9746 401.542 101.228 401.542ZM81.3299 396.556H91.6386L91.351 397.467C87.8508 398.09 87.2754 398.378 85.837 402.261L82.7684 410.7C81.282 414.728 81.6656 415.207 84.3027 415.207C87.5607 415.207 89.6972 412.839 91.5626 410.772C91.7012 410.619 91.8383 410.465 91.9743 410.317H93.173L89.7687 416.358H74.0898L74.3775 415.495C77.8298 414.872 78.4051 414.584 79.8435 410.7L82.9601 402.213C84.3506 398.33 84.0629 398.042 81.0422 397.419L81.3299 396.556Z" fill="#140A82"/>
<path d="M74.2344 224.903H81.0429V200.834L88.5227 213.396H93.3175L100.797 200.834V224.903H107.606V191.34H99.1192L90.9201 205.437L82.7211 191.34H74.2344V224.903ZM117.692 224.903H124.501V191.34H117.692V224.903ZM134.602 224.903H141.41V200.642L156.418 224.903H165.144V191.34H158.336V215.601L143.328 191.34H134.602V224.903ZM175.25 224.903H182.059V191.34H175.25V224.903ZM189.139 220.252C192.111 223.8 195.899 225.862 201.557 225.862C207.742 225.862 212.633 222.074 212.729 215.745C212.729 204.238 197.481 205.964 197.481 199.875C197.481 197.861 199.064 196.327 201.461 196.327C204.002 196.327 206.208 198.005 208.174 200.546L213.16 196.039C210.283 192.635 206.448 190.381 201.413 190.381C194.988 190.381 190.577 194.792 190.577 200.114C190.577 211.478 205.824 209.8 205.824 215.985C205.824 218.382 204.194 219.821 201.509 219.821C198.776 219.821 196.091 218.287 194.077 215.697L189.139 220.252ZM216.9 197.525H227.257V224.903H234.066V197.525H244.422V191.34H216.9V197.525ZM257.882 188.463H264.115L258.697 181.99H251.697L257.882 188.463ZM251.122 224.903H270.685V219.245H257.93V210.615H268.767V204.957H257.93V196.998H270.685V191.34H251.122V224.903ZM279.316 224.903H286.124V211.334H289.624L298.591 224.903H306.598L296.097 210.04C299.549 208.457 301.515 205.437 301.515 201.361C301.515 195.128 296.96 191.34 289.576 191.34H279.316V224.903ZM289.96 196.998C292.837 196.998 294.515 198.724 294.515 201.265C294.515 203.998 292.837 205.676 289.96 205.676H286.124V196.998H289.96ZM311.63 224.903H331.192V219.245H318.438V210.615H329.275V204.957H318.438V196.998H331.192V191.34H311.63V224.903ZM74.2344 275.248H87.4199C98.0643 275.248 105.256 267.529 105.256 258.467C105.256 249.404 98.0643 241.685 87.4199 241.685H74.2344V275.248ZM87.5158 247.87C93.749 247.87 98.2561 252.473 98.2561 258.467C98.2561 264.412 93.749 269.063 87.5158 269.063H81.0429V247.87H87.5158ZM132.335 262.686C132.335 267.193 129.746 269.83 125.575 269.83C121.307 269.83 118.766 267.193 118.766 262.686V241.685H111.958V262.111C111.958 270.933 117.136 276.207 125.527 276.207C133.966 276.207 139.144 270.933 139.144 262.111V241.685H132.335V262.686ZM158.032 247.87H168.388V275.248H175.197V247.87H185.553V241.685H158.032V247.87ZM192.253 275.248H199.061V261.679H202.561L211.528 275.248H219.535L209.034 260.384C212.487 258.802 214.452 255.782 214.452 251.706C214.452 245.473 209.897 241.685 202.513 241.685H192.253V275.248ZM202.897 247.343C205.774 247.343 207.452 249.069 207.452 251.61C207.452 254.343 205.774 256.021 202.897 256.021H199.061V247.343H202.897ZM221.799 275.248H229.039L232.252 266.522H245.677L248.889 275.248H256.129L243.423 241.685H234.505L221.799 275.248ZM234.361 260.72L238.964 248.11L243.567 260.72H234.361ZM254.862 241.685L267.568 275.248H276.487L289.193 241.685H281.953L272.028 267.912L262.102 241.685H254.862ZM287.925 275.248H295.165L298.377 266.522H311.802L315.015 275.248H322.255L309.549 241.685H300.631L287.925 275.248ZM300.487 260.72L305.09 248.11L309.693 260.72H300.487ZM328.157 275.248H334.966V241.685H328.157V275.248ZM345.066 275.248H364.629V269.063H351.875V241.685H345.066V275.248ZM375.45 282.92L381.012 268.584H374.156L369.793 282.92H375.45ZM74.2344 325.593H87.4199C98.0643 325.593 105.256 317.874 105.256 308.811C105.256 299.749 98.0643 292.03 87.4199 292.03H74.2344V325.593ZM87.5158 298.215C93.749 298.215 98.2561 302.818 98.2561 308.811C98.2561 314.757 93.749 319.408 87.5158 319.408H81.0429V298.215H87.5158ZM112.542 325.593H132.104V319.935H119.35V311.305H130.187V305.647H119.35V297.688H132.104V292.03H112.542V325.593ZM153.898 325.593H173.461V319.408H160.707V292.03H153.898V325.593ZM178.383 305.839L183.945 292.03H177.041L172.725 305.839H178.383ZM189.964 325.593H209.527V319.935H196.772V311.305H207.609V305.647H196.772V297.688H209.527V292.03H189.964V325.593ZM218.158 325.593H224.966V301.523L232.446 314.086H237.241L244.721 301.523V325.593H251.529V292.03H243.042L234.843 306.126L226.644 292.03H218.158V325.593ZM261.616 325.593H268.424V312.024H272.692C280.076 312.024 284.583 308.236 284.583 302.051C284.583 295.818 280.076 292.03 272.692 292.03H261.616V325.593ZM272.979 297.688C275.856 297.688 277.582 299.414 277.582 301.955C277.582 304.688 275.856 306.366 272.979 306.366H268.424V297.688H272.979ZM290.933 325.593H310.496V319.408H297.742V292.03H290.933V325.593ZM330.948 291.071C320.352 291.071 313.111 299.222 313.111 308.811C313.111 318.401 320.352 326.552 330.948 326.552C341.496 326.552 348.736 318.401 348.736 308.811C348.736 299.222 341.496 291.071 330.948 291.071ZM330.948 320.175C324.619 320.175 320.112 315.236 320.112 308.811C320.112 302.387 324.619 297.448 330.948 297.448C337.229 297.448 341.736 302.387 341.736 308.811C341.736 315.236 337.229 320.175 330.948 320.175ZM355.981 325.593H362.79V292.03H355.981V325.593ZM74.2344 375.938H93.797V370.28H81.0429V361.65H91.8791V355.992H81.0429V348.033H93.797V342.375H74.2344V375.938ZM99.678 348.56H110.035V375.938H116.843V348.56H127.2V342.375H99.678V348.56ZM147.062 375.938H160.248C170.892 375.938 178.084 368.219 178.084 359.156C178.084 350.094 170.892 342.375 160.248 342.375H147.062V375.938ZM160.344 348.56C166.577 348.56 171.084 353.163 171.084 359.156C171.084 365.102 166.577 369.753 160.344 369.753H153.871V348.56H160.344ZM185.37 375.938H204.932V370.28H192.178V361.65H203.014V355.992H192.178V348.033H204.932V342.375H185.37V375.938ZM226.726 375.938H246.289V369.753H233.535V342.375H226.726V375.938ZM251.211 356.184L256.773 342.375H249.868L245.553 356.184H251.211ZM262.792 375.938H269.601V342.375H262.792V375.938ZM279.702 375.938H286.51V351.677L301.518 375.938H310.244V342.375H303.436V366.636L288.428 342.375H279.702V375.938ZM317.328 371.287C320.301 374.835 324.089 376.897 329.747 376.897C335.932 376.897 340.823 373.109 340.919 366.78C340.919 355.273 325.671 356.999 325.671 350.909C325.671 348.896 327.254 347.361 329.651 347.361C332.192 347.361 334.398 349.039 336.364 351.581L341.35 347.074C338.473 343.669 334.638 341.416 329.603 341.416C323.178 341.416 318.767 345.827 318.767 351.149C318.767 362.513 334.014 360.835 334.014 367.02C334.014 369.417 332.384 370.856 329.699 370.856C326.966 370.856 324.281 369.321 322.267 366.732L317.328 371.287ZM348.777 375.938H368.34V370.28H355.586V361.65H366.422V355.992H355.586V348.033H368.34V342.375H348.777V375.938ZM376.97 375.938H383.779V362.369H387.279L396.245 375.938H404.253L393.752 361.074C397.204 359.492 399.17 356.471 399.17 352.396C399.17 346.163 394.615 342.375 387.231 342.375H376.97V375.938ZM387.615 348.033C390.492 348.033 392.17 349.759 392.17 352.3C392.17 355.033 390.492 356.711 387.615 356.711H383.779V348.033H387.615ZM404.334 348.56H414.691V375.938H421.499V348.56H431.856V342.375H404.334V348.56ZM438.554 375.938H445.363V342.375H438.554V375.938ZM470.425 341.416C459.829 341.416 452.588 349.567 452.588 359.156C452.588 368.746 459.829 376.897 470.425 376.897C480.973 376.897 488.214 368.746 488.214 359.156C488.214 349.567 480.973 341.416 470.425 341.416ZM470.425 370.52C464.096 370.52 459.589 365.581 459.589 359.156C459.589 352.731 464.096 347.793 470.425 347.793C476.706 347.793 481.213 352.731 481.213 359.156C481.213 365.581 476.706 370.52 470.425 370.52ZM495.458 375.938H502.267V351.677L517.275 375.938H526.001V342.375H519.192V366.636L504.185 342.375H495.458V375.938Z" fill="#140A82"/>
</svg>
