<svg width="600" height="600" viewBox="0 0 600 600" fill="none" xmlns="http://www.w3.org/2000/svg">
<rect width="600" height="600" rx="50" fill="#F6F5FC"/>
<path d="M165.186 302.667H127.179C126.199 293.543 121.636 285.182 114.493 279.423C107.349 273.663 98.2109 270.977 89.0871 271.955C79.9632 272.934 71.6017 277.497 65.8421 284.64C60.0825 291.784 57.3966 300.923 58.3752 310.047C59.3545 319.17 63.9178 327.531 71.0611 333.291C78.2045 339.05 87.3431 341.736 96.4668 340.759C104.517 339.895 112.009 336.235 117.639 330.417C123.269 324.599 126.681 316.991 127.281 308.918H165.083C164.759 306.844 164.793 304.729 165.186 302.667ZM93.3839 334.631C89.7244 334.631 86.1006 333.911 82.7196 332.51C79.3386 331.11 76.2665 329.058 73.6788 326.47C71.0912 323.882 69.0385 320.81 67.6383 317.429C66.238 314.048 65.5175 310.424 65.5179 306.765C65.5179 299.374 68.4538 292.286 73.6796 287.061C78.9055 281.835 85.9934 278.899 93.3839 278.899C97.0434 278.898 100.667 279.619 104.048 281.019C107.429 282.419 110.501 284.472 113.089 287.06C115.677 289.647 117.729 292.719 119.13 296.1C120.53 299.482 121.25 303.105 121.25 306.765C121.224 314.147 118.28 321.221 113.06 326.441C107.84 331.661 100.767 334.605 93.3839 334.631Z" fill="#2897D5"/>
<path d="M145.825 263.026C147.924 260.349 149.475 257.284 150.39 254.008C151.305 250.731 151.565 247.306 151.156 243.928C150.747 240.551 149.676 237.287 148.006 234.323C146.336 231.359 144.098 228.754 141.42 226.655C136.013 222.417 129.143 220.5 122.323 221.327C115.503 222.154 109.29 225.656 105.051 231.063C102.952 233.74 101.401 236.804 100.487 240.081C99.5723 243.357 99.3121 246.782 99.7211 250.159C100.13 253.537 101.2 256.8 102.871 259.764C104.541 262.727 106.779 265.333 109.456 267.431C114.017 271.006 119.644 272.949 125.438 272.949C131.233 272.949 136.86 271.006 141.42 267.431L168.57 294.581C169.839 292.92 171.359 291.469 173.077 290.278L145.825 263.026ZM106.075 247.147C106.075 241.957 108.137 236.98 111.806 233.31C115.476 229.641 120.453 227.579 125.643 227.579C130.833 227.579 135.81 229.641 139.48 233.31C143.149 236.98 145.211 241.957 145.211 247.147C145.211 252.337 143.149 257.314 139.48 260.984C135.81 264.653 130.833 266.715 125.643 266.715C120.471 266.732 115.504 264.694 111.834 261.049C108.164 257.404 106.093 252.451 106.075 247.279V247.147Z" fill="#D60B51"/>
<path d="M179.017 191.509C182.85 191.529 186.629 192.403 190.082 194.068V187.203C182.298 184.152 173.622 184.317 165.96 187.663C158.299 191.009 152.281 197.262 149.229 205.045C147.717 208.899 146.98 213.013 147.058 217.152C147.137 221.291 148.03 225.374 149.687 229.168C151.344 232.962 153.732 236.392 156.715 239.262C159.698 242.133 163.217 244.388 167.071 245.898C170.523 247.254 174.186 247.988 177.894 248.068H179.02C179.429 248.068 179.839 247.966 180.248 247.966V287.596C182.312 287.187 184.435 287.187 186.499 287.596V247.138C187.727 246.846 188.959 246.422 190.187 246.012V239.25C184.209 242.211 177.3 242.677 170.978 240.544C164.657 238.412 159.442 233.855 156.48 227.877C153.518 221.899 153.053 214.99 155.185 208.669C157.318 202.347 161.874 197.132 167.852 194.17C171.276 192.319 175.126 191.401 179.017 191.509Z" fill="#A2195B"/>
<path d="M182.402 368.848C185.028 368.86 187.631 369.345 190.085 370.281V363.726C188.57 363.32 187.03 363.012 185.476 362.805V324.079C184.761 324.162 184.042 324.197 183.323 324.181C181.95 324.145 180.581 324.009 179.228 323.771V362.805C175.686 363.172 172.25 364.234 169.118 365.929C165.986 367.624 163.219 369.92 160.974 372.684C158.729 375.449 157.051 378.629 156.035 382.042C155.019 385.456 154.685 389.036 155.053 392.578C155.752 399.315 158.946 405.547 164.008 410.047C169.069 414.547 175.632 416.991 182.404 416.896C185.006 416.881 187.592 416.502 190.088 415.77V409.212C187.64 410.183 185.037 410.704 182.404 410.751C176.848 410.595 171.58 408.239 167.761 404.2C163.942 400.162 161.883 394.771 162.038 389.214C162.188 383.861 164.381 378.767 168.168 374.98C171.955 371.192 177.048 368.998 182.402 368.848Z" fill="#F29100"/>
<path d="M173.795 321.62C171.998 320.539 170.403 319.153 169.08 317.525L139.679 346.825C133.171 341.486 124.809 338.951 116.432 339.778C108.056 340.605 100.35 344.725 95.0117 351.232C89.6729 357.74 87.1378 366.102 87.9639 374.478C88.79 382.855 92.9096 390.56 99.4167 395.899C105.924 401.238 114.286 403.773 122.662 402.947C131.039 402.121 138.744 398.002 144.084 391.494C148.74 385.819 151.286 378.705 151.286 371.363C151.286 364.022 148.74 356.908 144.084 351.232L173.795 321.62ZM145.107 371.309C145.107 378.075 142.42 384.563 137.636 389.347C132.852 394.13 126.364 396.818 119.599 396.818C112.833 396.818 106.345 394.13 101.561 389.347C96.7764 384.563 94.0882 378.075 94.0875 371.309C94.0875 364.543 96.7752 358.054 101.56 353.27C106.344 348.486 112.833 345.798 119.599 345.798C122.949 345.798 126.266 346.458 129.361 347.74C132.456 349.022 135.268 350.901 137.637 353.27C140.006 355.639 141.885 358.452 143.166 361.547C144.448 364.642 145.108 367.959 145.107 371.309Z" fill="#93C01F"/>
<path d="M241.31 183.003L243.463 241.092H239.877L237.724 186.589H236.291L227.375 240.376H223.789L214.877 186.589H213.444L211.291 241.092H207.705L209.858 183.003H217.755L225.541 233.102L233.439 183.003H241.31Z" fill="black"/>
<path d="M256.268 193.249H252.682V185.565H256.268V193.249ZM252.58 200.421H256.166V234.845C256.166 236.278 258.93 238.226 260.981 238.226V241.809C257.087 241.809 252.58 238.738 252.58 234.845V200.421Z" fill="black"/>
<path d="M268.664 210.872C268.664 214.25 277.065 218.965 277.065 218.965C277.065 218.965 285.977 223.882 285.977 229.72V232.18C285.979 233.443 285.732 234.694 285.25 235.862C284.768 237.029 284.061 238.09 283.169 238.985C282.277 239.879 281.218 240.589 280.051 241.073C278.885 241.558 277.634 241.808 276.371 241.809H274.71C272.16 241.796 269.718 240.777 267.915 238.974C266.111 237.172 265.092 234.73 265.078 232.18V225.725H268.664V232.18C268.651 233.769 269.269 235.298 270.382 236.431C271.495 237.565 273.013 238.21 274.602 238.226H276.357C277.143 238.233 277.924 238.085 278.653 237.79C279.383 237.495 280.047 237.06 280.608 236.509C281.169 235.957 281.616 235.301 281.924 234.577C282.231 233.853 282.393 233.075 282.4 232.288C282.403 232.252 282.403 232.216 282.4 232.18V229.72C282.4 226.342 273.795 221.32 273.795 221.32C273.795 221.32 265.087 216.71 265.087 210.872V209.436C265.085 206.885 266.095 204.437 267.897 202.632C269.699 200.826 272.144 199.81 274.695 199.807H276.357C277.62 199.805 278.871 200.052 280.038 200.534C281.205 201.016 282.266 201.723 283.161 202.615C284.055 203.507 284.764 204.566 285.249 205.733C285.734 206.899 285.984 208.149 285.986 209.412V210.875H282.4V209.439C282.407 208.652 282.259 207.872 281.965 207.142C281.671 206.413 281.236 205.749 280.684 205.187C280.133 204.626 279.477 204.179 278.753 203.872C278.029 203.564 277.252 203.402 276.465 203.396H274.71C273.923 203.388 273.142 203.536 272.413 203.83C271.683 204.125 271.018 204.56 270.457 205.112C269.895 205.663 269.448 206.32 269.141 207.044C268.833 207.768 268.671 208.546 268.664 209.333V210.875V210.872Z" fill="black"/>
<path d="M295.406 210.872C295.406 214.25 303.807 218.965 303.807 218.965C303.807 218.965 312.719 223.882 312.719 229.72V232.18C312.721 233.443 312.473 234.694 311.991 235.861C311.51 237.029 310.802 238.09 309.911 238.984C309.019 239.878 307.959 240.588 306.793 241.072C305.627 241.557 304.376 241.807 303.114 241.809H301.449C298.9 241.795 296.459 240.776 294.656 238.973C292.853 237.171 291.834 234.729 291.82 232.18V225.725H295.406V232.18C295.393 233.769 296.011 235.298 297.124 236.431C298.237 237.565 299.755 238.21 301.344 238.226H303.099C303.886 238.233 304.666 238.085 305.395 237.79C306.125 237.495 306.789 237.06 307.35 236.509C307.911 235.957 308.358 235.301 308.666 234.577C308.973 233.853 309.135 233.075 309.142 232.288V229.72C309.142 226.342 300.537 221.32 300.537 221.32C300.537 221.32 291.829 216.71 291.829 210.872V209.436C291.828 208.172 292.075 206.921 292.557 205.754C293.039 204.586 293.746 203.525 294.639 202.631C295.531 201.737 296.591 201.027 297.757 200.542C298.924 200.058 300.174 199.808 301.438 199.807H303.099C304.362 199.805 305.613 200.052 306.78 200.534C307.948 201.016 309.009 201.723 309.903 202.615C310.797 203.507 311.507 204.566 311.991 205.733C312.476 206.899 312.726 208.149 312.728 209.412V210.875H309.142V209.439C309.149 208.652 309.001 207.871 308.706 207.142C308.411 206.413 307.976 205.748 307.425 205.187C306.873 204.626 306.217 204.179 305.493 203.872C304.768 203.564 303.991 203.402 303.204 203.396H301.449C300.663 203.389 299.882 203.537 299.153 203.831C298.423 204.126 297.759 204.561 297.198 205.113C296.637 205.664 296.19 206.321 295.882 207.045C295.575 207.769 295.413 208.547 295.406 209.333V210.875V210.872Z" fill="black"/>
<path d="M323.873 193.249H320.287V185.565H323.873V193.249ZM320.287 200.421H323.873V234.845C323.873 236.278 326.64 238.226 328.688 238.226V241.809C324.794 241.809 320.287 238.738 320.287 234.845V200.421Z" fill="black"/>
<path d="M354.416 232.181C354.419 234.732 353.408 237.179 351.606 238.985C349.804 240.791 347.359 241.807 344.808 241.81H343.147C340.597 241.796 338.156 240.777 336.353 238.974C334.55 237.171 333.531 234.73 333.518 232.181V209.334C333.516 208.071 333.763 206.82 334.244 205.652C334.726 204.485 335.433 203.424 336.325 202.529C337.217 201.635 338.277 200.925 339.443 200.441C340.61 199.956 341.86 199.706 343.123 199.705H344.784C346.048 199.703 347.299 199.95 348.467 200.432C349.634 200.914 350.696 201.621 351.59 202.513C352.485 203.405 353.195 204.464 353.68 205.63C354.164 206.797 354.415 208.047 354.416 209.311V232.181ZM350.728 209.334C350.735 208.547 350.587 207.767 350.292 207.038C349.998 206.308 349.562 205.644 349.011 205.083C348.459 204.522 347.803 204.075 347.079 203.767C346.355 203.46 345.577 203.298 344.79 203.291H343.035C342.249 203.284 341.468 203.432 340.739 203.727C340.009 204.021 339.345 204.457 338.784 205.008C338.223 205.56 337.776 206.216 337.468 206.94C337.161 207.664 336.999 208.442 336.992 209.229C336.99 209.264 336.99 209.299 336.992 209.334V232.181C336.985 232.967 337.133 233.748 337.427 234.477C337.721 235.207 338.156 235.872 338.708 236.433C339.259 236.994 339.915 237.442 340.639 237.75C341.363 238.057 342.14 238.219 342.927 238.227H344.682C345.469 238.234 346.25 238.086 346.979 237.792C347.709 237.497 348.374 237.062 348.935 236.511C349.497 235.959 349.944 235.302 350.252 234.578C350.559 233.854 350.721 233.076 350.728 232.289V209.334Z" fill="black"/>
<path d="M362.408 241.09V200.433H365.994V204.94C365.994 204.94 372.45 199.716 376.343 199.716C378.174 199.701 379.937 200.415 381.243 201.699C382.549 202.984 383.292 204.734 383.307 206.566V241.09H379.721V206.669C379.726 206.23 379.645 205.794 379.482 205.387C379.319 204.98 379.077 204.608 378.77 204.295C378.464 203.981 378.098 203.731 377.695 203.558C377.291 203.386 376.857 203.295 376.419 203.29H376.343C372.45 203.29 365.994 209.231 365.994 209.231V241.09H362.408Z" fill="black"/>
<path d="M406.15 237.506H420.483V241.09H402.553V183H406.139L406.15 237.506Z" fill="black"/>
<path d="M445.084 232.181C445.086 233.444 444.839 234.695 444.356 235.863C443.874 237.03 443.167 238.092 442.275 238.986C441.382 239.88 440.323 240.59 439.156 241.074C437.99 241.559 436.739 241.809 435.476 241.81H433.814C431.265 241.796 428.824 240.777 427.021 238.974C425.218 237.171 424.199 234.73 424.186 232.181V209.334C424.184 208.071 424.431 206.82 424.913 205.652C425.395 204.485 426.103 203.423 426.995 202.529C427.887 201.635 428.947 200.925 430.114 200.441C431.28 199.956 432.531 199.706 433.794 199.705H435.455C436.718 199.704 437.969 199.951 439.137 200.433C440.304 200.915 441.365 201.622 442.259 202.514C443.153 203.406 443.863 204.465 444.348 205.631C444.833 206.797 445.083 208.048 445.084 209.311V232.181ZM441.498 209.334C441.505 208.547 441.357 207.767 441.063 207.038C440.768 206.308 440.332 205.644 439.781 205.083C439.23 204.522 438.573 204.075 437.849 203.767C437.125 203.46 436.347 203.298 435.561 203.291H433.806C433.019 203.284 432.239 203.432 431.509 203.727C430.78 204.021 430.116 204.457 429.554 205.008C428.993 205.56 428.546 206.216 428.239 206.94C427.931 207.664 427.77 208.442 427.763 209.229V232.181C427.749 233.77 428.367 235.299 429.481 236.432C430.594 237.566 432.112 238.211 433.7 238.227H435.455C436.242 238.234 437.022 238.086 437.752 237.791C438.481 237.496 439.145 237.061 439.707 236.509C440.268 235.958 440.715 235.302 441.022 234.577C441.33 233.853 441.491 233.076 441.498 232.289V209.334Z" fill="black"/>
<path d="M469.671 226.957H473.254V232.181C473.256 233.444 473.009 234.695 472.527 235.863C472.046 237.03 471.339 238.091 470.447 238.986C469.555 239.88 468.495 240.589 467.329 241.074C466.162 241.559 464.912 241.809 463.649 241.81H461.987C459.437 241.797 456.995 240.778 455.192 238.975C453.389 237.172 452.369 234.731 452.355 232.181V209.334C452.353 206.783 453.364 204.336 455.166 202.53C456.968 200.724 459.413 199.708 461.964 199.705H463.625C464.888 199.704 466.139 199.951 467.307 200.433C468.474 200.915 469.535 201.622 470.429 202.514C471.323 203.406 472.033 204.465 472.518 205.631C473.002 206.797 473.253 208.048 473.254 209.311V214.766H469.671V209.334C469.678 208.547 469.53 207.767 469.235 207.038C468.941 206.308 468.505 205.644 467.954 205.083C467.403 204.522 466.746 204.075 466.022 203.767C465.298 203.46 464.52 203.298 463.734 203.291H461.979C461.192 203.284 460.411 203.432 459.681 203.726C458.951 204.02 458.287 204.456 457.725 205.007C457.164 205.559 456.717 206.215 456.409 206.94C456.101 207.664 455.94 208.442 455.933 209.229V232.181C455.919 233.77 456.537 235.299 457.651 236.432C458.764 237.566 460.282 238.211 461.87 238.227H463.625C465.214 238.24 466.743 237.622 467.877 236.509C469.01 235.396 469.656 233.878 469.671 232.289V226.957Z" fill="black"/>
<path d="M494.566 209.334C494.64 208.521 494.535 207.702 494.258 206.935C493.98 206.168 493.537 205.471 492.96 204.894C492.383 204.317 491.686 203.875 490.919 203.598C490.151 203.321 489.332 203.216 488.52 203.291C486.997 203.211 485.505 203.74 484.372 204.76C483.239 205.78 482.557 207.209 482.477 208.731C482.465 208.932 482.465 209.133 482.477 209.334V210.77H478.894V209.334C478.891 208.068 479.137 206.814 479.619 205.644C480.101 204.474 480.809 203.41 481.703 202.513C482.596 201.617 483.658 200.905 484.826 200.419C485.995 199.933 487.248 199.683 488.514 199.682C489.78 199.679 491.033 199.926 492.203 200.408C493.374 200.89 494.437 201.598 495.334 202.491C496.23 203.385 496.942 204.446 497.428 205.615C497.914 206.783 498.165 208.036 498.166 209.302V241.09H494.58V236.586C494.58 236.586 488.125 241.81 484.232 241.81C483.325 241.817 482.425 241.646 481.583 241.306C480.742 240.966 479.976 240.464 479.329 239.828C478.682 239.192 478.167 238.434 477.813 237.599C477.458 236.764 477.272 235.867 477.265 234.959V229.823C477.236 227.542 477.908 225.307 479.191 223.42C480.474 221.533 482.305 220.086 484.437 219.273L494.58 216.096L494.566 209.334ZM480.938 234.845C480.998 235.723 481.373 236.548 481.995 237.17C482.617 237.792 483.442 238.167 484.32 238.227C488.213 238.227 494.668 232.181 494.668 232.181V219.896L486.063 222.561C484.553 223.081 483.246 224.064 482.326 225.369C481.407 226.674 480.921 228.236 480.938 229.832V234.845Z" fill="black"/>
<path d="M506.977 185.565H510.563V234.845C510.563 236.278 513.33 238.226 515.377 238.226V241.809C511.484 241.809 506.977 238.738 506.977 234.845V185.565Z" fill="black"/>
<path d="M531.344 238.227C532.131 238.234 532.912 238.086 533.641 237.792C534.371 237.497 535.036 237.062 535.597 236.511C536.159 235.959 536.606 235.302 536.914 234.578C537.221 233.854 537.383 233.076 537.39 232.289V226.957H540.976V232.181C540.978 234.732 539.967 237.179 538.165 238.985C536.364 240.791 533.918 241.807 531.367 241.81H529.706C527.155 241.813 524.707 240.803 522.901 239.001C521.095 237.2 520.078 234.755 520.074 232.204V209.334C520.072 206.783 521.083 204.336 522.885 202.53C524.687 200.724 527.132 199.708 529.683 199.705H531.344C532.607 199.703 533.858 199.95 535.026 200.432C536.194 200.914 537.255 201.621 538.15 202.513C539.044 203.405 539.754 204.464 540.239 205.63C540.724 206.797 540.974 208.047 540.976 209.311V218.761H523.66V232.181C523.647 233.77 524.265 235.299 525.378 236.432C526.491 237.566 528.009 238.211 529.598 238.227H531.353H531.344ZM537.39 215.175V209.325C537.397 208.539 537.249 207.758 536.954 207.029C536.66 206.299 536.224 205.635 535.673 205.074C535.121 204.513 534.465 204.066 533.741 203.758C533.017 203.451 532.239 203.289 531.452 203.282H529.697C528.91 203.275 528.13 203.423 527.4 203.717C526.67 204.012 526.006 204.447 525.444 204.998C524.883 205.55 524.435 206.207 524.128 206.931C523.82 207.655 523.658 208.433 523.651 209.22V215.166L537.39 215.175Z" fill="black"/>
<path d="M221.023 291.905C221.023 293.726 220.299 295.472 219.012 296.759C217.725 298.046 215.978 298.77 214.158 298.77H212.929C211.363 298.766 209.846 298.229 208.627 297.246V306.261H206.064V269.266H208.627V272.439C210.759 270.645 213.286 269.381 216 268.751C217.305 268.751 218.557 269.269 219.479 270.192C220.402 271.115 220.92 272.366 220.92 273.671V291.905H221.023ZM208.738 291.905C208.743 293.044 209.198 294.136 210.004 294.941C210.81 295.747 211.901 296.202 213.04 296.208H214.167C215.306 296.201 216.397 295.746 217.202 294.941C218.008 294.135 218.463 293.044 218.469 291.905V273.77C218.464 273.147 218.214 272.55 217.773 272.109C217.332 271.668 216.735 271.418 216.112 271.413C213.348 271.413 208.738 275.613 208.738 275.613V291.905Z" fill="black"/>
<path d="M241.309 291.906C241.309 293.726 240.586 295.473 239.298 296.76C238.011 298.047 236.265 298.771 234.444 298.771H233.318C231.497 298.771 229.751 298.047 228.464 296.76C227.176 295.473 226.453 293.726 226.453 291.906V275.602C226.453 273.781 227.176 272.035 228.464 270.748C229.751 269.461 231.497 268.737 233.318 268.737H234.444C236.265 268.737 238.011 269.461 239.298 270.748C240.586 272.035 241.309 273.781 241.309 275.602V291.906ZM238.747 275.617C238.741 274.478 238.285 273.387 237.48 272.581C236.674 271.776 235.583 271.32 234.444 271.314H233.318C232.179 271.321 231.089 271.777 230.283 272.582C229.478 273.387 229.022 274.478 229.015 275.617V291.803C229.022 292.943 229.477 294.034 230.282 294.839C231.088 295.645 232.179 296.1 233.318 296.106H234.444C235.584 296.101 236.675 295.646 237.481 294.84C238.286 294.034 238.741 292.943 238.747 291.803V275.617Z" fill="black"/>
<path d="M261.59 269.266V298.258H259.031V295.081C256.897 296.875 254.37 298.139 251.654 298.77C250.35 298.77 249.099 298.252 248.176 297.33C247.254 296.408 246.735 295.157 246.734 293.853V269.266H249.297V293.736C249.303 294.359 249.553 294.955 249.994 295.395C250.435 295.835 251.031 296.085 251.654 296.09C254.418 296.09 259.031 291.89 259.031 291.89V269.251L261.59 269.266Z" fill="black"/>
<path d="M267.842 298.258V269.266H270.401V272.439C272.535 270.645 275.062 269.381 277.778 268.751C279.083 268.751 280.334 269.269 281.257 270.192C282.179 271.115 282.698 272.366 282.698 273.671V278.895H280.135V273.671C280.129 273.047 279.879 272.451 279.438 272.01C278.997 271.57 278.401 271.319 277.778 271.313C275.014 271.313 270.401 275.513 270.401 275.513V298.156H267.842V298.258Z" fill="black"/>
<path d="M295.093 258.714H297.652V293.737C297.652 294.761 299.6 296.092 301.033 296.092V298.654C298.269 298.654 294.99 296.399 294.99 293.737V258.714H295.093Z" fill="black"/>
<path d="M312.511 296.208C313.65 296.203 314.741 295.748 315.547 294.942C316.353 294.137 316.808 293.045 316.813 291.906V288.217H319.375V291.906C319.375 293.726 318.652 295.473 317.365 296.76C316.077 298.047 314.331 298.771 312.511 298.771H311.384C309.564 298.771 307.818 298.047 306.53 296.76C305.243 295.473 304.52 293.726 304.52 291.906V275.602C304.52 273.781 305.243 272.035 306.53 270.748C307.818 269.461 309.564 268.737 311.384 268.737H312.511C314.331 268.737 316.077 269.461 317.365 270.748C318.652 272.035 319.375 273.781 319.375 275.602V282.262H307.091V291.789C307.097 292.928 307.552 294.019 308.358 294.824C309.163 295.63 310.254 296.085 311.393 296.091H312.519L312.511 296.208ZM316.813 279.829V275.734C316.807 274.595 316.352 273.504 315.546 272.698C314.741 271.893 313.65 271.437 312.511 271.431H311.384C310.245 271.438 309.155 271.894 308.35 272.699C307.544 273.504 307.089 274.595 307.082 275.734V279.829H316.813Z" fill="black"/>
<path d="M325.828 276.64C325.828 278.997 331.768 282.489 331.768 282.489C331.768 282.489 338.121 285.973 338.121 290.173V291.928C338.121 293.749 337.398 295.495 336.111 296.782C334.823 298.07 333.077 298.793 331.256 298.793H330.13C328.31 298.793 326.564 298.07 325.276 296.782C323.989 295.495 323.265 293.749 323.265 291.928V287.301H325.828V291.911C325.833 293.05 326.288 294.141 327.094 294.947C327.9 295.753 328.991 296.208 330.13 296.213H331.256C332.396 296.207 333.486 295.752 334.292 294.946C335.098 294.141 335.553 293.05 335.559 291.911V290.156C335.559 287.798 329.417 284.11 329.417 284.11C329.417 284.11 323.166 280.834 323.166 276.631V275.607C323.166 273.786 323.889 272.04 325.177 270.753C326.464 269.465 328.21 268.742 330.031 268.742H331.157C332.978 268.742 334.724 269.465 336.011 270.753C337.299 272.04 338.022 273.786 338.022 275.607V276.631H335.46V275.607C335.452 274.468 334.996 273.378 334.191 272.573C333.386 271.768 332.296 271.312 331.157 271.304H330.031C328.892 271.311 327.801 271.766 326.995 272.571C326.19 273.377 325.734 274.468 325.728 275.607V276.631L325.828 276.64Z" fill="black"/>
<path d="M365.781 256.883V291.307C365.784 292.286 365.594 293.256 365.223 294.162C364.851 295.067 364.304 295.891 363.614 296.585C362.924 297.28 362.104 297.832 361.2 298.209C360.297 298.587 359.328 298.783 358.349 298.786H357.471C356.492 298.789 355.522 298.6 354.616 298.228C353.71 297.856 352.886 297.31 352.192 296.619C351.497 295.929 350.945 295.109 350.568 294.205C350.19 293.302 349.995 292.333 349.992 291.353V283.111H352.554V291.301C352.554 292.578 353.062 293.802 353.965 294.705C354.867 295.608 356.092 296.115 357.369 296.115H358.188C359.465 296.115 360.689 295.608 361.592 294.705C362.495 293.802 363.002 292.578 363.002 291.301V256.883H365.781Z" fill="black"/>
<path d="M379.206 296.208C380.345 296.203 381.437 295.748 382.242 294.942C383.048 294.137 383.503 293.045 383.508 291.906V288.217H386.071V291.906C386.071 293.726 385.347 295.473 384.06 296.76C382.773 298.047 381.027 298.771 379.206 298.771H378.08C376.259 298.771 374.513 298.047 373.226 296.76C371.938 295.473 371.215 293.726 371.215 291.906V275.602C371.215 273.781 371.938 272.035 373.226 270.748C374.513 269.461 376.259 268.737 378.08 268.737H379.206C381.027 268.737 382.773 269.461 384.06 270.748C385.347 272.035 386.071 273.781 386.071 275.602V282.262H373.786V291.789C373.792 292.928 374.247 294.019 375.053 294.824C375.858 295.63 376.949 296.085 378.088 296.091H379.215L379.206 296.208ZM383.508 279.829V275.734C383.502 274.595 383.047 273.504 382.241 272.698C381.436 271.893 380.345 271.437 379.206 271.431H378.08C376.941 271.439 375.851 271.895 375.046 272.7C374.241 273.505 373.785 274.595 373.777 275.734V279.829H383.508Z" fill="black"/>
<path d="M405.637 269.266V298.258H403.075V295.081C400.942 296.875 398.416 298.139 395.701 298.77C394.397 298.77 393.146 298.252 392.223 297.33C391.301 296.408 390.782 295.157 390.781 293.853V269.266H393.344V293.736C393.349 294.359 393.599 294.955 394.04 295.396C394.481 295.836 395.078 296.086 395.701 296.09C398.465 296.09 403.075 291.89 403.075 291.89V269.251L405.637 269.266Z" fill="black"/>
<path d="M411.783 298.258V269.266H414.343V272.439C416.476 270.645 419.004 269.381 421.719 268.751C422.365 268.751 423.005 268.878 423.602 269.126C424.198 269.373 424.74 269.735 425.197 270.192C425.654 270.649 426.016 271.191 426.263 271.788C426.51 272.385 426.637 273.025 426.636 273.671V298.156H424.077V273.773C424.07 273.15 423.819 272.554 423.379 272.114C422.938 271.673 422.342 271.422 421.719 271.416C418.955 271.416 414.343 275.616 414.343 275.616V298.258H411.783Z" fill="black"/>
<path d="M440.163 296.208C441.302 296.202 442.393 295.747 443.198 294.941C444.004 294.136 444.459 293.045 444.465 291.906V288.217H447.028V291.906C447.028 293.726 446.304 295.473 445.017 296.76C443.73 298.047 441.984 298.771 440.163 298.771H439.037C437.216 298.771 435.47 298.047 434.183 296.76C432.895 295.473 432.172 293.726 432.172 291.906V275.602C432.172 273.781 432.895 272.035 434.183 270.748C435.47 269.461 437.216 268.737 439.037 268.737H440.163C441.984 268.737 443.73 269.461 445.017 270.748C446.304 272.035 447.028 273.781 447.028 275.602V282.262H434.743V291.789C434.748 292.928 435.203 294.02 436.009 294.825C436.815 295.631 437.906 296.086 439.046 296.091H440.172L440.163 296.208ZM444.465 279.829V275.734C444.458 274.595 444.002 273.505 443.197 272.7C442.392 271.895 441.302 271.439 440.163 271.431H439.037C437.898 271.437 436.807 271.893 436.001 272.698C435.196 273.504 434.74 274.595 434.734 275.734V279.829H444.465Z" fill="black"/>
<path d="M453.48 276.64C453.48 278.997 459.424 282.489 459.424 282.489C459.424 282.489 465.777 285.973 465.777 290.173V291.928C465.777 293.749 465.053 295.495 463.766 296.782C462.478 298.07 460.732 298.793 458.912 298.793H457.783C456.881 298.793 455.989 298.616 455.156 298.271C454.323 297.925 453.567 297.42 452.93 296.782C452.292 296.145 451.787 295.388 451.442 294.555C451.098 293.722 450.92 292.83 450.921 291.928V287.301H453.48V291.911C453.486 293.05 453.942 294.141 454.747 294.946C455.553 295.752 456.643 296.207 457.783 296.213H458.912C460.051 296.207 461.142 295.752 461.947 294.946C462.753 294.141 463.208 293.05 463.214 291.911V290.156C463.214 287.798 457.072 284.11 457.072 284.11C457.072 284.11 450.824 280.834 450.824 276.631V275.607C450.824 274.706 451.001 273.813 451.346 272.98C451.69 272.147 452.196 271.391 452.833 270.753C453.47 270.116 454.227 269.61 455.06 269.265C455.892 268.92 456.785 268.742 457.686 268.742H458.815C459.717 268.742 460.609 268.92 461.442 269.265C462.275 269.61 463.031 270.116 463.668 270.753C464.306 271.391 464.811 272.147 465.156 272.98C465.5 273.813 465.678 274.706 465.677 275.607V276.631H463.118V275.607C463.11 274.468 462.654 273.378 461.849 272.573C461.044 271.768 459.954 271.312 458.815 271.304H457.789C456.65 271.312 455.56 271.768 454.755 272.573C453.949 273.378 453.494 274.468 453.486 275.607L453.48 276.64Z" fill="black"/>
<path d="M206.871 318.954H215.169C216.116 318.914 217.061 319.061 217.951 319.387C218.84 319.713 219.657 320.212 220.353 320.854C221.05 321.497 221.613 322.27 222.009 323.131C222.406 323.991 222.629 324.921 222.666 325.868C222.666 325.953 222.666 326.041 222.666 326.126V335.243C222.669 336.222 222.48 337.192 222.108 338.098C221.736 339.004 221.19 339.828 220.5 340.522C219.809 341.217 218.989 341.769 218.085 342.146C217.182 342.523 216.213 342.719 215.234 342.722H209.451V360.447H206.889L206.871 318.954ZM209.433 321.516V340.06H215.169C216.447 340.06 217.672 339.553 218.576 338.649C219.479 337.746 219.987 336.52 219.987 335.243V326.126C219.981 325.527 219.857 324.936 219.623 324.385C219.389 323.834 219.048 323.335 218.621 322.916C218.194 322.497 217.688 322.166 217.133 321.942C216.578 321.719 215.984 321.607 215.386 321.612H215.169H209.433V321.516Z" fill="black"/>
<path d="M237 337.703C237.088 336.65 236.754 335.605 236.073 334.799C235.391 333.992 234.417 333.489 233.364 333.4C233.142 333.383 232.919 333.383 232.697 333.4C231.616 333.343 230.556 333.717 229.75 334.44C228.944 335.162 228.456 336.174 228.394 337.255C228.386 337.404 228.386 337.554 228.394 337.703V338.726H225.832V337.703C225.831 336.801 226.008 335.908 226.352 335.075C226.697 334.242 227.202 333.485 227.839 332.847C228.476 332.209 229.232 331.703 230.065 331.357C230.897 331.011 231.79 330.833 232.691 330.832C234.512 330.831 236.258 331.553 237.546 332.839C238.835 334.126 239.56 335.871 239.562 337.691V360.345H237V357.066C234.866 358.861 232.339 360.125 229.623 360.754C228.319 360.754 227.068 360.236 226.146 359.314C225.224 358.392 224.706 357.142 224.706 355.837V352.237C224.68 350.613 225.159 349.022 226.077 347.682C226.994 346.343 228.305 345.321 229.828 344.758L237 342.503V337.703ZM227.265 355.837C227.311 356.446 227.575 357.017 228.008 357.447C228.441 357.877 229.014 358.136 229.623 358.177C232.39 358.177 237 353.875 237 353.875V345.167L230.857 347.115C229.786 347.466 228.857 348.155 228.21 349.078C227.564 350.002 227.234 351.11 227.271 352.237L227.265 355.837Z" fill="black"/>
<path d="M260.161 331.349V360.344H257.598V357.065C255.465 358.859 252.937 360.123 250.222 360.753C248.918 360.752 247.668 360.234 246.746 359.312C245.824 358.39 245.305 357.14 245.305 355.836V331.349H247.867V355.836C247.876 356.454 248.125 357.044 248.562 357.481C248.999 357.918 249.589 358.167 250.207 358.176C252.974 358.176 257.584 353.976 257.584 353.976V331.334L260.161 331.349Z" fill="black"/>
<path d="M265.283 343.34V340.777H276.655V343.34H265.283Z" fill="black"/>
<path d="M282.387 318.955H290.688C292.596 318.881 294.454 319.568 295.856 320.865C297.257 322.161 298.086 323.961 298.161 325.869C298.161 325.954 298.161 326.042 298.161 326.127V335.244C298.164 336.223 297.974 337.193 297.602 338.099C297.231 339.004 296.684 339.828 295.994 340.522C295.304 341.217 294.483 341.769 293.58 342.146C292.677 342.524 291.708 342.72 290.729 342.723H284.943V360.448H282.381L282.387 318.955ZM284.949 321.517V340.061H290.688C291.32 340.061 291.946 339.936 292.531 339.694C293.115 339.452 293.646 339.097 294.093 338.65C294.54 338.202 294.895 337.671 295.137 337.087C295.378 336.502 295.503 335.876 295.502 335.244V326.127C295.491 324.918 295 323.764 294.138 322.918C293.275 322.072 292.112 321.602 290.904 321.613H290.688H284.949V321.517Z" fill="black"/>
<path d="M300.113 331.451H302.676L307.49 357.577C307.49 357.577 307.592 358.293 308.002 358.293H308.821L313.741 331.556H316.3L309.537 368.54H306.978L308.411 360.856H307.388C306.876 360.835 306.383 360.654 305.979 360.34C305.574 360.025 305.278 359.592 305.133 359.101L300.113 331.451Z" fill="black"/>
<path d="M320.092 360.345V331.35H322.654V334.526C324.787 332.732 327.315 331.468 330.031 330.838C331.335 330.839 332.586 331.357 333.508 332.28C334.43 333.202 334.948 334.453 334.948 335.758V340.982H332.385V335.758C332.381 335.134 332.131 334.538 331.691 334.097C331.25 333.656 330.654 333.406 330.031 333.4C327.264 333.4 322.654 337.6 322.654 337.6V360.242H320.092V360.345Z" fill="black"/>
<path d="M346.319 358.191C347.458 358.185 348.549 357.73 349.355 356.924C350.16 356.119 350.616 355.028 350.622 353.889V350.189H353.184V353.877C353.184 354.779 353.006 355.671 352.661 356.504C352.316 357.337 351.811 358.094 351.173 358.731C350.536 359.369 349.779 359.874 348.946 360.219C348.113 360.564 347.221 360.742 346.319 360.742H345.193C343.372 360.742 341.626 360.019 340.339 358.731C339.051 357.444 338.328 355.698 338.328 353.877V337.69C338.328 335.87 339.051 334.124 340.339 332.836C341.626 331.549 343.372 330.826 345.193 330.826H346.319C347.221 330.826 348.113 331.003 348.946 331.348C349.779 331.693 350.536 332.199 351.173 332.836C351.811 333.474 352.316 334.231 352.661 335.063C353.006 335.896 353.184 336.789 353.184 337.69V344.351H340.899V353.877C340.905 355.017 341.36 356.108 342.165 356.914C342.971 357.719 344.062 358.174 345.202 358.18L346.319 358.191ZM350.622 341.812V337.717C350.614 336.578 350.158 335.488 349.353 334.683C348.548 333.878 347.458 333.422 346.319 333.414H345.193C344.054 333.421 342.963 333.876 342.157 334.682C341.351 335.487 340.895 336.578 340.887 337.717V341.812H350.622ZM345.91 327.57H342.938L348.162 320.811H351.134L345.91 327.57Z" fill="black"/>
<path d="M358.092 360.345V331.35H360.654V334.526C362.786 332.732 365.313 331.468 368.028 330.838C369.333 330.838 370.584 331.356 371.507 332.279C372.429 333.201 372.948 334.453 372.948 335.758V360.242H370.385V335.758C370.38 335.134 370.13 334.538 369.689 334.097C369.248 333.656 368.651 333.406 368.028 333.4C365.264 333.4 360.654 337.6 360.654 337.6V360.242H358.092V360.345Z" fill="black"/>
<path d="M386.378 358.191C387.517 358.185 388.608 357.73 389.413 356.924C390.219 356.119 390.674 355.028 390.68 353.889V350.189H393.243V353.877C393.243 355.698 392.519 357.444 391.232 358.731C389.944 360.019 388.198 360.742 386.378 360.742H385.252C383.431 360.742 381.685 360.019 380.397 358.731C379.11 357.444 378.387 355.698 378.387 353.877V337.69C378.387 335.87 379.11 334.124 380.397 332.836C381.685 331.549 383.431 330.826 385.252 330.826H386.378C388.198 330.826 389.944 331.549 391.232 332.836C392.519 334.124 393.243 335.87 393.243 337.69V344.351H380.958V353.877C380.964 355.016 381.419 356.107 382.225 356.913C383.03 357.718 384.121 358.174 385.26 358.18L386.378 358.191ZM390.68 341.812V337.717C390.673 336.578 390.218 335.487 389.412 334.682C388.607 333.877 387.517 333.421 386.378 333.414H385.252C384.113 333.421 383.022 333.877 382.217 334.682C381.411 335.487 380.956 336.578 380.949 337.717V341.812H390.68ZM385.968 327.57H382.996L388.223 320.811H391.192L385.968 327.57Z" fill="black"/>
<path d="M405.741 358.192C406.88 358.186 407.971 357.731 408.777 356.925C409.582 356.119 410.037 355.029 410.044 353.889V350.189H412.606V353.878C412.606 355.698 411.883 357.445 410.595 358.732C409.308 360.019 407.562 360.743 405.741 360.743H404.615C402.794 360.743 401.048 360.019 399.761 358.732C398.473 357.445 397.75 355.698 397.75 353.878V337.691C397.75 335.87 398.473 334.124 399.761 332.837C401.048 331.549 402.794 330.826 404.615 330.826H405.741C407.562 330.826 409.308 331.549 410.595 332.837C411.883 334.124 412.606 335.87 412.606 337.691V344.351H400.321V353.878C400.327 355.017 400.782 356.108 401.588 356.913C402.394 357.719 403.484 358.174 404.624 358.18L405.741 358.192ZM409.941 341.812V337.717C409.934 336.578 409.479 335.488 408.673 334.683C407.868 333.877 406.778 333.422 405.639 333.415H404.512C403.373 333.421 402.282 333.876 401.477 334.682C400.671 335.487 400.216 336.578 400.21 337.717V341.812H409.941Z" fill="black"/>
<path d="M419.061 338.725C419.061 341.083 425.002 344.575 425.002 344.575C425.002 344.575 431.355 348.059 431.355 352.259V354.014C431.349 355.831 430.622 357.571 429.336 358.853C428.049 360.136 426.306 360.856 424.49 360.856H423.364C421.543 360.856 419.797 360.132 418.51 358.845C417.222 357.558 416.499 355.811 416.499 353.991V349.381H419.061V353.991C419.066 355.13 419.522 356.222 420.327 357.027C421.133 357.833 422.224 358.288 423.364 358.293H424.49C425.629 358.287 426.72 357.832 427.525 357.026C428.331 356.221 428.786 355.13 428.792 353.991V352.236C428.792 349.878 422.65 346.19 422.65 346.19C422.65 346.19 416.402 342.911 416.402 338.711V337.687C416.402 335.866 417.126 334.12 418.413 332.833C419.7 331.546 421.447 330.822 423.267 330.822H424.393C425.295 330.822 426.187 331 427.02 331.345C427.853 331.69 428.61 332.195 429.248 332.833C429.885 333.47 430.391 334.227 430.736 335.06C431.081 335.893 431.258 336.786 431.258 337.687V338.711H428.696V337.687C428.688 336.548 428.232 335.458 427.427 334.653C426.622 333.848 425.532 333.392 424.393 333.384H423.267C422.128 333.391 421.037 333.846 420.232 334.651C419.426 335.457 418.971 336.548 418.965 337.687V338.711L419.061 338.725Z" fill="black"/>
<path d="M527.965 378.48H203.301V417.002H527.965V378.48Z" fill="#2897D5"/>
<path d="M227.477 407.575V390.16H230.653C236.187 398.151 239.156 402.445 239.463 402.966V390.16H242.332V407.575H239.048C233.721 399.891 230.75 395.583 230.135 394.77V407.575H227.477Z" fill="white"/>
<path d="M254.726 407.882C253.539 407.943 252.352 407.755 251.241 407.332C250.13 406.908 249.12 406.258 248.274 405.422C246.752 403.596 245.918 401.294 245.918 398.917C245.918 396.54 246.752 394.238 248.274 392.412C249.114 391.569 250.124 390.914 251.236 390.49C252.349 390.065 253.538 389.882 254.726 389.952C255.884 389.891 257.04 390.079 258.119 390.504C259.197 390.928 260.172 391.579 260.977 392.412C262.577 394.173 263.423 396.49 263.335 398.867C263.441 401.308 262.596 403.695 260.977 405.524C260.163 406.339 259.184 406.971 258.106 407.378C257.028 407.784 255.876 407.956 254.726 407.882ZM254.726 405.32C255.489 405.375 256.253 405.257 256.963 404.973C257.672 404.689 258.308 404.248 258.821 403.682C259.841 402.291 260.349 400.59 260.258 398.867C260.35 397.176 259.841 395.507 258.821 394.155C258.33 393.592 257.715 393.151 257.024 392.866C256.333 392.581 255.586 392.461 254.841 392.514C254.079 392.47 253.318 392.594 252.61 392.877C251.902 393.161 251.265 393.597 250.746 394.155C249.728 395.508 249.221 397.177 249.312 398.867C249.192 400.577 249.661 402.277 250.643 403.682C251.164 404.234 251.8 404.667 252.505 404.95C253.21 405.233 253.968 405.359 254.726 405.32Z" fill="white"/>
<path d="M273.68 407.884C272.674 407.913 271.671 407.775 270.711 407.474C269.981 407.237 269.291 406.892 268.664 406.45C268.144 405.995 267.725 405.436 267.435 404.809C267.122 404.164 266.915 403.473 266.821 402.762C266.696 402.016 266.627 401.263 266.613 400.507V390.27H269.687V400.615C269.7 401.269 269.768 401.921 269.892 402.563C269.982 403.034 270.156 403.484 270.404 403.894C270.636 404.242 270.955 404.524 271.328 404.713C271.673 404.945 272.053 405.118 272.454 405.225C272.892 405.316 273.339 405.35 273.785 405.327C274.338 405.318 274.888 405.249 275.426 405.122C275.898 405.011 276.326 404.762 276.655 404.406C277.066 404.022 277.352 403.522 277.474 402.973C277.686 402.24 277.785 401.48 277.766 400.717V390.372H280.84V400.609C280.832 401.365 280.764 402.119 280.636 402.864C280.526 403.572 280.319 404.261 280.021 404.912C279.757 405.554 279.335 406.119 278.793 406.553C278.171 407.029 277.481 407.409 276.745 407.679C275.728 407.805 274.705 407.874 273.68 407.884Z" fill="white"/>
<path d="M289.56 407.575L282.902 390.16H286.281C286.488 390.672 287.103 392.617 288.328 395.896C289.554 399.175 290.481 401.839 291.095 403.58C291.812 401.632 293.45 397.227 295.91 390.16H299.086L292.426 407.575H289.56Z" fill="white"/>
<path d="M301.641 407.575V390.16H312.603V392.719H304.612V397.329H312.091V399.994H304.612V404.911H312.91V407.473H301.641V407.575Z" fill="white"/>
<path d="M316.609 407.575V390.16H319.683V404.911H327.777V407.473H316.609V407.575Z" fill="white"/>
<path d="M330.645 407.575V390.16H333.719V404.911H341.812V407.473H330.645V407.575Z" fill="white"/>
<path d="M344.682 407.575V390.16H355.644V392.719H347.653V397.329H355.132V399.994H347.653V404.911H355.951V407.473H344.682V407.575Z" fill="white"/>
<path d="M357.996 402.148V399.893H365.578V402.148H357.996Z" fill="white"/>
<path d="M366.279 407.575L373.246 390.16H376.321L383.387 407.575H380.027L378.386 403.375H371.316L369.678 407.575H366.279ZM372.422 400.506H377.134C376.212 397.739 375.493 395.487 374.776 393.743C374.264 395.282 373.445 397.546 372.436 400.506H372.422Z" fill="white"/>
<path d="M398.057 412.287C397.648 411.877 397.136 411.161 396.419 410.342C395.805 409.52 395.188 408.701 394.664 407.882H393.538C392.35 407.943 391.163 407.755 390.051 407.332C388.94 406.908 387.929 406.258 387.083 405.422C385.56 403.596 384.727 401.294 384.727 398.917C384.727 396.54 385.56 394.238 387.083 392.412C387.924 391.569 388.934 390.914 390.047 390.49C391.159 390.066 392.349 389.882 393.538 389.952C394.695 389.891 395.852 390.08 396.93 390.504C398.008 390.928 398.983 391.579 399.789 392.412C401.383 394.174 402.223 396.492 402.129 398.867C402.202 400.701 401.74 402.516 400.798 404.091C399.955 405.53 398.657 406.647 397.109 407.268C397.96 408.666 398.956 409.971 400.081 411.161L398.44 413.003L398.057 412.287ZM397.648 403.579C398.665 402.187 399.172 400.487 399.081 398.765C399.174 397.074 398.666 395.405 397.648 394.053C397.154 393.488 396.537 393.046 395.843 392.761C395.15 392.476 394.4 392.357 393.652 392.412C392.891 392.367 392.129 392.491 391.421 392.774C390.713 393.058 390.077 393.494 389.557 394.053C388.538 395.405 388.031 397.074 388.124 398.765C388.002 400.475 388.472 402.175 389.455 403.579C389.962 404.152 390.597 404.599 391.308 404.883C392.019 405.168 392.787 405.282 393.55 405.217C394.315 405.306 395.09 405.203 395.805 404.917C396.519 404.631 397.152 404.171 397.645 403.579H397.648Z" fill="white"/>
<path d="M412.609 407.884C411.602 407.913 410.598 407.775 409.637 407.474C408.907 407.238 408.217 406.893 407.589 406.45C407.07 405.995 406.65 405.436 406.358 404.809C406.048 404.163 405.84 403.472 405.744 402.762C405.62 402.016 405.552 401.263 405.539 400.507V390.27H408.613V400.615C408.624 401.269 408.693 401.921 408.818 402.563C408.908 403.034 409.081 403.484 409.33 403.894C409.561 404.242 409.878 404.524 410.251 404.713C410.596 404.946 410.978 405.119 411.38 405.225C411.818 405.316 412.265 405.35 412.711 405.327C413.263 405.318 413.812 405.249 414.349 405.122C414.822 405.012 415.251 404.762 415.58 404.406C415.991 404.021 416.277 403.522 416.399 402.973C416.61 402.24 416.709 401.48 416.692 400.717V390.372H419.766V400.609C419.758 401.365 419.689 402.119 419.561 402.864C419.45 403.572 419.243 404.261 418.944 404.912C418.682 405.555 418.259 406.12 417.716 406.553C417.094 407.03 416.404 407.409 415.668 407.679C414.653 407.805 413.632 407.873 412.609 407.884Z" fill="white"/>
<path d="M423.568 407.575V390.16H426.64V407.575H423.568Z" fill="white"/>
<path d="M434.115 407.574V392.821H428.789V390.262H442.621V392.821H437.19V407.574H434.115Z" fill="white"/>
<path d="M442.918 407.575L449.882 390.16H452.956L460.026 407.575H456.665L455.027 403.375H447.958L446.32 407.575H442.918ZM448.961 400.506H453.673C452.752 397.739 452.035 395.487 451.333 393.743C450.821 395.282 450.105 397.546 448.976 400.506H448.961Z" fill="white"/>
<path d="M462.09 407.575V390.16H465.161V407.575H462.09Z" fill="white"/>
<path d="M469.465 407.575V390.16H472.641C478.175 398.151 481.144 402.445 481.454 402.966V390.16H484.321V407.575H481.042C475.715 399.891 472.744 395.583 472.129 394.77V407.575H469.465Z" fill="white"/>
<path d="M488.93 407.575V390.16H499.892V392.719H491.901V397.329H499.381V399.994H491.901V404.911H500.2V407.473H488.93V407.575Z" fill="white"/>
</svg>
