<svg width="600" height="600" viewBox="0 0 600 600" fill="none" xmlns="http://www.w3.org/2000/svg">
<rect width="600" height="600" rx="50" fill="#F6F5FC"/>
<path d="M120.004 463H479.991V426.861H120.004V463V463Z" fill="#004982"/>
<path d="M450.285 432.219H471.511V436.032H463.053V457.653H458.743V436.032H450.285V432.219V432.219Z" fill="white"/>
<path d="M423.158 432.219H427.227L439.501 449.864V432.219H443.643V457.653H440.325L427.31 439.135V457.653H423.158V432.219V432.219Z" fill="white"/>
<path d="M399.273 432.219H415.907V436.032H403.51V442.746H414.742V446.515H403.51V453.806H415.907V457.653H399.273V432.219V432.219Z" fill="white"/>
<path d="M366.721 432.219H370.74L378.995 445.479L387.205 432.219H391.056V457.653H386.835V439.845L379.034 452.188H378.871L370.952 439.845V457.653H366.721V432.219Z" fill="white"/>
<path d="M342.834 432.219H359.458V436.032H347.06V442.746H358.298V446.515H347.06V453.806H359.458V457.653H342.834V432.219V432.219Z" fill="white"/>
<path d="M314.965 432.219H336.19V436.032H327.738V457.653H323.427V436.032H314.965V432.219Z" fill="white"/>
<path d="M291.365 432.218V457.653H295.678V447.34H298.74L305.838 457.653H310.729L303.346 447.178C307.375 446.557 309.857 444.11 309.857 439.848C309.857 434.881 306.454 432.218 301.186 432.218H291.365V432.218ZM295.678 435.948H301.109C303.972 435.948 305.583 437.481 305.583 439.848C305.583 442.211 303.972 443.733 301.109 443.733H295.678V435.948Z" fill="white"/>
<path d="M271.2 432.218L261.418 457.653H265.777L268.384 450.608H278.128L280.743 457.653H285.14L275.358 432.218H271.2V432.218ZM273.237 437.482L276.716 446.886H269.75L273.237 437.482Z" fill="white"/>
<path d="M240.104 432.218V457.653H244.416V448.165H249.932C255.2 448.165 258.641 445.398 258.641 440.218C258.641 434.955 255.2 432.218 249.932 432.218H240.104V432.218ZM244.416 435.941H249.855C252.837 435.941 254.368 437.693 254.368 440.218C254.368 442.66 252.837 444.442 249.855 444.442H244.416V435.941Z" fill="white"/>
<path d="M216.225 432.219H232.843V436.032H220.446V442.746H231.683V446.515H220.446V453.806H232.843V457.653H216.225V432.219V432.219Z" fill="white"/>
<path d="M188.439 432.218V457.653H197.018C204.523 457.653 209.369 452.688 209.369 444.943C209.369 437.198 204.523 432.218 197.018 432.218H188.439ZM192.752 436.033H196.848C202.195 436.033 205.064 439.473 205.064 444.943C205.064 450.369 202.195 453.807 196.848 453.807H192.752V436.033V436.033Z" fill="white"/>
<path d="M152.809 432.219H169.432V436.032H157.035V442.746H168.272V446.515H157.035V453.806H169.432V457.653H152.809V432.219V432.219Z" fill="white"/>
<path d="M129.293 432.219H133.608V453.806H145.838V457.653H129.293V432.219Z" fill="white"/>
<path d="M135.773 312.53C137.121 311.647 165.5 293.918 177.038 287.283C186.676 281.758 199.064 276.347 214.917 270.748C222.037 268.232 230.697 266.955 240.65 266.955C250.391 266.955 259.53 268.158 265.569 268.953C266.61 269.091 267.558 269.224 268.427 269.337C274.431 270.082 281.294 271.38 289.228 272.884C307.007 276.253 329.136 280.456 355.728 281.102C356.533 281.127 357.466 281.137 358.483 281.137C363.653 281.137 370.649 280.89 375.25 280.496L391.82 299.532L407.347 273.382V273.377C408.962 272.859 410.557 272.327 412.132 271.784C412.3 271.73 412.448 271.666 412.611 271.606C413.894 271.158 415.158 270.689 416.412 270.215C417.029 269.988 417.627 269.747 418.239 269.5C419 269.209 419.76 268.903 420.505 268.588C421.28 268.277 422.031 267.961 422.791 267.626C423.32 267.404 423.843 267.177 424.361 266.945C425.235 266.555 426.114 266.161 426.973 265.756C427.215 265.648 427.452 265.524 427.694 265.416C432.888 262.954 437.82 260.256 442.427 257.296C450.781 251.944 457.258 246.355 462.23 241.195C462.398 241.022 462.566 240.85 462.734 240.667C462.813 240.593 462.887 240.499 462.971 240.425C466.773 236.395 469.651 232.666 471.749 229.558C472.702 228.167 474.924 224.902 474.865 219.865C474.801 214.528 472.747 208.791 469.36 204.529C466.452 200.863 461.208 196.498 452.731 196.498C445.068 196.498 436.428 200.104 427.062 207.217C425.428 208.45 423.769 209.654 422.085 210.808C421.488 211.227 420.861 211.617 420.258 212.022C419.187 212.732 418.126 213.452 417.039 214.138C415.904 214.848 414.748 215.514 413.603 216.195C413.025 216.54 412.458 216.895 411.87 217.231C410.428 218.05 408.952 218.834 407.476 219.613C407.18 219.766 406.883 219.934 406.587 220.087C404.918 220.945 403.225 221.769 401.512 222.563C401.398 222.627 401.294 222.677 401.171 222.731C399.359 223.57 397.527 224.374 395.661 225.138C395.656 225.143 395.636 225.143 395.621 225.158C391.884 226.692 388.038 228.093 384.118 229.351C384.093 229.356 384.068 229.361 384.048 229.376L318.728 149.98L318.205 149.339L314.754 152.856L307.906 144.441L302.174 149.181L291.41 136.75L186.143 244.199L186.133 244.209C183.437 245.61 180.791 247.115 178.209 248.728C177.962 248.885 177.715 249.038 177.468 249.196C176.727 249.655 175.997 250.133 175.261 250.632C174.693 251.012 174.12 251.411 173.563 251.806C172.782 252.348 172.007 252.906 171.237 253.468C170.546 253.971 169.869 254.489 169.198 255.007C168.793 255.318 168.398 255.624 168.008 255.944C167.045 256.709 166.092 257.488 165.159 258.283C165.09 258.352 165.006 258.406 164.937 258.475C160.311 262.441 155.887 267.078 151.893 272.031C145.534 279.933 140.28 288.679 137.091 296.942L137.071 296.967L137.066 296.991V297.006C135.284 302.422 133.482 310.675 133.403 311.026L132.484 315.238V315.243L135.753 312.54L135.773 312.53V312.53ZM337.633 237.263H337.613C336.616 237.298 335.604 237.323 334.592 237.352C332.76 237.411 330.909 237.441 329.047 237.441C327.502 237.441 325.917 237.431 324.342 237.402C320.318 237.308 309.106 236.39 296.116 235.32C276.682 233.722 252.85 231.763 239.826 231.482L239.836 231.477L288.957 181.324L337.633 237.263ZM165.905 259.605C188.498 240.218 212.992 234.856 228.766 233.366L230.371 231.758L284.641 176.342L287.979 180.189L237.767 231.438L236.389 232.947C255.462 232.839 313.697 238.655 324.322 238.896C345.538 239.34 363.771 236.686 379.427 232.202L378.479 231.038L315.712 154.02L318.096 151.579L382.464 229.8L383.456 230.994C401.734 225.232 416.363 216.989 427.97 208.396C466.116 180.17 478.113 218.213 471.739 226.692C458.542 244.234 421.221 252.338 382.883 253.656C360.409 254.435 341.948 250.957 312.024 246.315C293.05 243.375 252.278 238.058 226.9 242.443C201.513 246.843 156.613 266.442 138.266 299.221C137.772 300.104 137.358 300.992 136.963 301.865C140.557 289.469 151.404 272.06 165.905 259.605" fill="#004982"/>
<path d="M129.183 352.476H140.924C152.132 352.476 159.459 346.572 159.459 335.551C159.459 324.354 152.132 318.528 140.924 318.528H120V372.682H129.183V352.476ZM129.183 326.47H140.742C147.101 326.47 150.359 330.17 150.359 335.551C150.359 340.751 147.101 344.544 140.742 344.544H129.183V326.47V326.47Z" fill="#004982"/>
<path d="M188.683 351.072L208.363 318.525H198.656L184.358 342.78L169.97 318.525H159.992L179.598 351.072V372.679H188.683V351.072V351.072Z" fill="#004982"/>
<path d="M239.168 350.363C247.734 349.051 253.027 343.842 253.027 334.765C253.027 324.174 245.794 318.531 234.576 318.531H213.662V372.68H222.841V350.723H229.373L244.471 372.68H254.883L239.168 350.363V350.363ZM222.841 343.043V326.473H234.399C240.496 326.473 243.937 329.729 243.937 334.765C243.937 339.782 240.496 343.043 234.399 343.043H222.841Z" fill="#004982"/>
<path d="M296.232 326.644V318.529H260.842V372.683H296.232V364.479H269.852V348.955H293.769V340.929H269.852V326.644H296.232Z" fill="#004982"/>
<path d="M348.123 372.68V318.526H339.295V356.095L313.172 318.526H304.521V372.68H313.344V333.256L341.062 372.68H348.123V372.68Z" fill="#004982"/>
<path d="M393.947 364.479H367.557V348.955H391.483V340.924H367.557V326.644H393.947V318.529H358.557V372.678H393.947V364.479Z" fill="#004982"/>
<path d="M437.619 364.479H411.229V348.955H435.155V340.924H411.229V326.644H437.619V318.529H402.229V372.678H437.619V364.479Z" fill="#004982"/>
<path d="M461.371 325.677C467.731 325.677 472.668 328.049 477.176 331.493V322.061C472.846 319.234 467.286 317.651 461.199 317.651C451.221 317.651 442.926 322.85 442.926 332.376C442.926 341.28 448.401 345.167 455.639 347.801L463.49 350.632C468.343 352.477 471.078 354.154 471.078 358.397C471.078 363.236 466.753 365.446 460.577 365.446C454.222 365.446 448.312 363.152 443.365 359.186V368.8C447.162 371.439 453.343 373.556 460.577 373.556C471.606 373.556 480 368.09 480 358.219C480 350.366 476.114 345.601 467.642 342.523L458.893 339.341C454.395 337.748 451.843 336.169 451.843 332.203C451.843 327.788 455.901 325.677 461.371 325.677" fill="#004982"/>
<path d="M130.289 407.525H144.677L148.542 417.929H155.025L140.579 380.364H134.456L120 417.929H126.433L130.289 407.525ZM137.453 388.134L142.593 402.02H132.309L137.453 388.134V388.134Z" fill="#004982"/>
<path d="M173.278 417.927V385.991H185.764V380.363H154.412V385.991H166.908V417.927H173.278Z" fill="#004982"/>
<path d="M216.195 412.236H198.135V380.36H191.766V417.929H216.195V412.236V412.236Z" fill="#004982"/>
<path d="M234.197 380.361L219.756 417.925H226.179L230.04 407.521H244.427L248.279 417.925H254.771L240.324 380.361H234.197V380.361ZM232.06 402.016L237.199 388.135L242.344 402.016H232.06V402.016Z" fill="#004982"/>
<path d="M266.166 380.361H260.162V417.925H266.279V390.577L285.515 417.925H290.413V380.361H284.291V406.421L266.166 380.361Z" fill="#004982"/>
<path d="M315.278 417.927V385.991H327.77V380.363H296.418V385.991H308.909V417.927H315.278V417.927Z" fill="#004982"/>
<path d="M333.77 417.924H340.139V380.36H333.77V417.924Z" fill="#004982"/>
<path d="M363.774 379.751C353.603 379.751 346.449 387.885 346.449 399.142C346.449 410.345 353.603 418.533 363.774 418.533C366.648 418.533 369.343 417.868 371.674 416.639L374.735 420.433L379.08 417.128L375.954 413.275C379.203 409.847 381.158 404.894 381.158 399.142C381.158 387.885 373.94 379.751 363.774 379.751V379.751ZM372.345 408.751L369.343 405.012L364.939 408.258L368.055 412.116C366.771 412.599 365.364 412.851 363.774 412.851C357.163 412.851 352.868 407.094 352.868 399.142C352.868 391.185 357.163 385.443 363.774 385.443C370.385 385.443 374.735 391.185 374.735 399.142C374.735 403.306 373.876 406.487 372.345 408.751Z" fill="#004982"/>
<path d="M401.859 418.533C410.864 418.533 416.927 413.275 416.927 402.994V380.357H410.553V402.259C410.553 409.481 407.492 412.846 401.859 412.846C396.235 412.846 393.169 409.481 393.169 402.259V380.357H386.795V402.935C386.795 413.275 392.922 418.533 401.859 418.533Z" fill="#004982"/>
<path d="M449.194 385.994V380.361H424.641V417.93H449.194V412.237H430.886V401.469H447.48V395.904H430.886V385.994H449.194Z" fill="#004982"/>
<path d="M471.421 397.002L465.358 394.797C462.232 393.697 460.465 392.597 460.465 389.849C460.465 386.781 463.274 385.311 467.076 385.311C471.48 385.311 474.916 386.973 478.032 389.361V382.805C475.04 380.852 471.179 379.752 466.952 379.752C460.035 379.752 454.273 383.367 454.273 389.973C454.273 396.144 458.075 398.837 463.096 400.672L468.542 402.64C471.909 403.913 473.81 405.082 473.81 408.012C473.81 411.377 470.808 412.901 466.523 412.901C462.119 412.901 458.006 411.317 454.58 408.565V415.239C457.221 417.064 461.502 418.529 466.523 418.529C474.176 418.529 479.997 414.741 479.997 407.889C479.997 402.443 477.301 399.143 471.421 397.002" fill="#004982"/>
</svg>
