<svg width="600" height="600" viewBox="0 0 600 600" fill="none" xmlns="http://www.w3.org/2000/svg">
<rect width="600" height="600" rx="50" fill="#F6F5FC"/>
<path d="M272.474 365.455C271.913 364.941 271.179 364.656 270.417 364.656C269.656 364.656 268.922 364.941 268.361 365.455C268.106 365.691 267.903 365.977 267.763 366.294C267.622 366.612 267.548 366.954 267.545 367.301C267.547 367.647 267.621 367.989 267.761 368.305C267.902 368.621 268.106 368.905 268.361 369.139C268.922 369.653 269.656 369.938 270.417 369.938C271.179 369.938 271.913 369.653 272.474 369.139C272.732 368.906 272.938 368.623 273.08 368.307C273.222 367.99 273.296 367.648 273.299 367.301C273.296 366.954 273.221 366.61 273.079 366.292C272.937 365.975 272.731 365.69 272.474 365.455V365.455Z" fill="black"/>
<path d="M296.851 362.937C294.856 364.89 292.204 366.031 289.413 366.136C288.074 366.144 286.749 365.88 285.516 365.359C284.283 364.838 283.17 364.072 282.243 363.107C280.296 361.12 279.206 358.449 279.206 355.668C279.206 352.887 280.296 350.216 282.243 348.229C283.169 347.262 284.282 346.494 285.515 345.972C286.748 345.45 288.074 345.184 289.413 345.191C292.204 345.296 294.856 346.437 296.851 348.39L297.147 348.65L300.194 345.962L299.827 345.621C297.038 342.9 293.309 341.357 289.413 341.31C287.493 341.268 285.585 341.618 283.806 342.341C282.027 343.064 280.416 344.144 279.07 345.514C277.729 346.837 276.665 348.413 275.938 350.151C275.212 351.888 274.838 353.753 274.838 355.637C274.838 357.52 275.212 359.385 275.938 361.123C276.665 362.86 277.729 364.437 279.07 365.76C280.417 367.129 282.029 368.209 283.807 368.935C285.585 369.661 287.492 370.017 289.413 369.981C293.305 369.933 297.031 368.397 299.827 365.688L300.194 365.347L297.147 362.659L296.851 362.937Z" fill="black"/>
<path d="M327.172 345.513C324.413 342.79 320.692 341.264 316.816 341.264C312.939 341.264 309.219 342.79 306.459 345.513C305.117 346.839 304.051 348.418 303.323 350.159C302.595 351.9 302.221 353.768 302.221 355.654C302.221 357.541 302.595 359.409 303.323 361.15C304.051 362.891 305.117 364.47 306.459 365.795C309.219 368.518 312.939 370.045 316.816 370.045C320.692 370.045 324.413 368.518 327.172 365.795C328.514 364.47 329.581 362.891 330.308 361.15C331.036 359.409 331.411 357.541 331.411 355.654C331.411 353.768 331.036 351.9 330.308 350.159C329.581 348.418 328.514 346.839 327.172 345.513ZM316.802 366.127C315.463 366.129 314.138 365.86 312.906 365.337C311.673 364.813 310.56 364.045 309.632 363.08C307.679 361.089 306.585 358.412 306.585 355.623C306.585 352.834 307.679 350.157 309.632 348.166C310.569 347.2 311.69 346.431 312.93 345.907C314.169 345.382 315.501 345.111 316.847 345.111C318.193 345.111 319.525 345.382 320.764 345.907C322.004 346.431 323.125 347.2 324.062 348.166C326.013 350.158 327.105 352.835 327.105 355.623C327.105 358.411 326.013 361.088 324.062 363.08C323.123 364.055 321.995 364.828 320.746 365.352C319.498 365.876 318.156 366.14 316.802 366.127V366.127Z" fill="black"/>
<path d="M117.835 267.244C112.756 265.712 108.11 263.004 104.275 259.339C102.622 257.738 101.316 255.815 100.435 253.69C99.5553 251.564 99.1202 249.28 99.1572 246.98C99.1518 244.654 99.6193 242.351 100.531 240.21C101.443 238.07 102.781 236.138 104.463 234.531C106.178 232.776 108.236 231.392 110.509 230.467C112.781 229.542 115.22 229.095 117.674 229.154C120.156 229.118 122.619 229.589 124.913 230.536C127.208 231.484 129.285 232.889 131.019 234.665C133.133 236.914 134.671 239.642 135.5 242.615L126.717 246.03C125.632 243.09 124.646 241.181 123.777 240.312C123.016 239.462 122.085 238.78 121.045 238.311C120.004 237.842 118.877 237.596 117.736 237.589C116.595 237.581 115.465 237.812 114.419 238.267C113.372 238.722 112.432 239.391 111.66 240.231C110.783 241.113 110.097 242.166 109.642 243.323C109.187 244.481 108.974 245.719 109.016 246.962C108.985 248.226 109.207 249.484 109.669 250.661C110.131 251.839 110.823 252.912 111.705 253.818C113.993 255.901 116.605 257.596 119.439 258.837C125.341 260.668 130.719 263.886 135.124 268.221C137.409 270.417 139.23 273.052 140.475 275.967C141.721 278.882 142.367 282.018 142.375 285.188C142.382 288.358 141.751 291.497 140.519 294.418C139.287 297.339 137.48 299.982 135.204 302.189C132.921 304.52 130.184 306.359 127.163 307.592C124.142 308.825 120.9 309.426 117.638 309.359C114.345 309.414 111.076 308.788 108.036 307.52C104.996 306.253 102.251 304.37 99.9728 301.992C96.0976 298.052 93.6443 292.934 93 287.445L102.482 284.022C103.08 289.722 104.696 293.878 107.331 296.489C108.664 297.885 110.27 298.993 112.049 299.744C113.829 300.495 115.743 300.872 117.674 300.853C119.643 300.865 121.594 300.473 123.407 299.702C125.22 298.932 126.855 297.798 128.214 296.372C129.683 294.921 130.839 293.183 131.61 291.267C132.381 289.351 132.75 287.296 132.695 285.232C132.753 283.184 132.391 281.147 131.631 279.244C130.871 277.342 129.729 275.616 128.276 274.172C125.278 271.208 121.731 268.855 117.835 267.244V267.244Z" fill="black"/>
<path d="M161.429 230.086V308.472H151.57V230.086H161.429Z" fill="black"/>
<path d="M244.77 230.086V308.472H234.912V244.74L209.144 278.573L183.324 244.74V308.472H173.465V230.086H183.978L209.144 263.059L234.239 230.095L244.77 230.086Z" fill="black"/>
<path d="M314.014 308.472V230.086H323.872V299.921H352.015V308.472H314.014Z" fill="black"/>
<path d="M420.703 240.876C424.503 244.529 427.514 248.922 429.552 253.784C431.589 258.645 432.61 263.872 432.552 269.143C432.62 274.429 431.604 279.672 429.566 284.55C427.528 289.427 424.512 293.835 420.703 297.501C412.991 305.092 402.603 309.347 391.781 309.347C380.959 309.347 370.572 305.092 362.859 297.501C359.051 293.835 356.035 289.427 353.997 284.55C351.959 279.672 350.943 274.429 351.011 269.143C350.952 263.872 351.973 258.645 354.011 253.784C356.049 248.922 359.06 244.529 362.859 240.876C370.563 233.267 380.954 229 391.781 229C402.609 229 413 233.267 420.703 240.876V240.876ZM391.754 237.604C387.705 237.568 383.691 238.364 379.962 239.943C376.233 241.522 372.867 243.849 370.074 246.782C367.099 249.694 364.753 253.184 363.179 257.038C361.605 260.891 360.838 265.026 360.924 269.188C360.838 273.35 361.605 277.485 363.179 281.339C364.753 285.192 367.099 288.683 370.074 291.594C372.899 294.491 376.275 296.793 380.003 298.364C383.731 299.936 387.736 300.746 391.781 300.746C395.827 300.746 399.832 299.936 403.56 298.364C407.288 296.793 410.664 294.491 413.488 291.594C416.463 288.683 418.81 285.192 420.384 281.339C421.957 277.485 422.725 273.35 422.639 269.188C422.719 265.034 421.948 260.907 420.375 257.062C418.801 253.216 416.458 249.733 413.488 246.827C410.69 243.884 407.317 241.547 403.578 239.961C399.84 238.375 395.815 237.573 391.754 237.604V237.604Z" fill="#CE0033"/>
<path d="M451.562 230.086L496.231 292.734V230.086H506.089V308.472H495.2L451.669 247.41V308.472H441.811V230.086H451.562Z" fill="black"/>
<path d="M397.195 253.566H385.23V265.531H397.195V253.566ZM397.195 274.915H385.23V286.88H397.195V274.915Z" fill="#CE0033"/>
<path d="M297.344 238.61C292.613 233.846 286.402 230.834 279.733 230.068H256.395V308.454H266.253V286.702H276.668C280.498 286.786 284.304 286.082 287.85 284.633C291.396 283.183 294.607 281.02 297.281 278.277C299.957 275.694 302.078 272.593 303.516 269.163C304.954 265.733 305.678 262.046 305.643 258.327C305.68 254.648 304.963 251 303.535 247.609C302.108 244.218 300.001 241.155 297.344 238.61V238.61ZM289.995 272.022C288.287 273.769 286.246 275.154 283.991 276.094C281.737 277.035 279.316 277.513 276.874 277.498H266.253V239.309H276.874C279.314 239.291 281.732 239.764 283.986 240.698C286.24 241.633 288.283 243.01 289.995 244.749C291.823 246.497 293.266 248.608 294.231 250.946C295.195 253.284 295.66 255.798 295.596 258.327C295.667 260.874 295.206 263.407 294.241 265.766C293.277 268.124 291.83 270.255 289.995 272.022V272.022Z" fill="black"/>
</svg>
