<svg xmlns="http://www.w3.org/2000/svg" width="46.13" height="32.44" viewBox="0 0 46.13 32.44">
  <g id="Calque_2" data-name="Calque 2">
    <g id="Calque_1-2" data-name="Calque 1">
      <g id="Oeil">
        <path id="vision" d="M46,15.44C42.1,7.32,33.33,0,23.06,0,11.52,0,3.22,9,.17,15.44A1.83,1.83,0,0,0,.17,17C4,25.11,12.8,32.44,23.06,32.44c11.55,0,19.85-9,22.9-15.45a1.8,1.8,0,0,0,0-1.54ZM23.06,28.83c-8.3,0-15.18-5.47-19.22-12.61C7.86,9.1,14.74,3.6,23.06,3.6S38.25,9.07,42.29,16.21C38.27,23.33,31.39,28.83,23.06,28.83Zm0-21.62a9,9,0,1,0,9,9h0A9,9,0,0,0,23.06,7.21Zm0,14.41a5.41,5.41,0,1,1,5.41-5.4h0A5.41,5.41,0,0,1,23.06,21.62Z" style="fill: #140a82"/>
      </g>
    </g>
  </g>
</svg>
