<svg xmlns="http://www.w3.org/2000/svg" width="43.39" height="40.42" viewBox="0 0 43.39 40.42">
  <g id="Calque_2" data-name="Calque 2">
    <g id="Calque_1-2" data-name="Calque 1">
      <g id="Retour2">
        <path id="Tracé_1573" data-name="Tracé 1573" d="M34.17,40.42a1.84,1.84,0,0,1-1.3-3.14l6.08-6-6.05-6a1.84,1.84,0,0,1,2.6-2.6l7.35,7.35a1.85,1.85,0,0,1,0,2.6L35.5,39.89a1.83,1.83,0,0,1-1.33.53Z" style="fill: #ffffff"/>
        <path id="Tracé_1574" data-name="Tracé 1574" d="M41.52,33.07h-25A16.54,16.54,0,1,1,16.54,0H34.17a1.84,1.84,0,1,1,0,3.67H16.54a12.87,12.87,0,1,0,0,25.73h25a1.84,1.84,0,1,1,0,3.67Z" style="fill: #ffffff"/>
      </g>
    </g>
  </g>
</svg>
