<svg width="1222" height="896" viewBox="0 0 1222 896" fill="white" xmlns="http://www.w3.org/2000/svg">
<path d="M1102.23 601.896C1107.34 608.31 1108.75 615.947 1106.18 623.127C1103.6 630.308 1097.24 636.444 1088.49 640.186L630.242 836.186C624.402 838.684 617.761 840 611 840C604.238 840 597.598 838.684 591.758 836.186L133.508 640.186C129.141 638.347 125.312 635.892 122.244 632.963C119.176 630.035 116.927 626.69 115.629 623.122C114.331 619.554 114.008 615.833 114.68 612.173C115.351 608.513 117.003 604.986 119.541 601.796C122.079 598.606 125.453 595.816 129.467 593.586C133.482 591.356 138.059 589.731 142.934 588.803C147.809 587.875 152.886 587.664 157.873 588.181C162.86 588.698 167.658 589.933 171.992 591.816L611 779.584L1050.01 591.816C1058.76 588.074 1069.17 587.035 1078.97 588.925C1088.76 590.815 1097.13 595.481 1102.23 601.896ZM1050.01 423.816L611 611.584L171.987 423.816C167.652 421.906 162.844 420.646 157.84 420.11C152.836 419.574 147.737 419.772 142.838 420.692C137.939 421.613 133.339 423.237 129.303 425.472C125.268 427.707 121.878 430.507 119.33 433.71C116.783 436.913 115.128 440.455 114.462 444.13C113.797 447.806 114.133 451.542 115.453 455.121C116.772 458.701 119.048 462.052 122.148 464.982C125.249 467.911 129.112 470.36 133.513 472.186L591.763 668.186C597.602 670.683 604.24 671.998 611 671.998C617.759 671.998 624.398 670.683 630.237 668.186L1088.49 472.186C1097.17 468.417 1103.46 462.286 1105.99 455.13C1108.52 447.974 1107.09 440.373 1102.01 433.987C1096.93 427.601 1088.61 422.948 1078.87 421.042C1069.13 419.137 1058.75 420.134 1050.01 423.816V423.816ZM114.562 280.001C114.563 275.107 116.313 270.298 119.638 266.055C122.963 261.811 127.747 258.281 133.513 255.816L591.763 59.8157C597.602 57.3187 604.24 56.0029 611 56.0029C617.759 56.0029 624.398 57.3187 630.237 59.8157L1088.49 255.816C1094.26 258.282 1099.04 261.812 1102.36 266.056C1105.69 270.299 1107.44 275.107 1107.44 280.001C1107.44 284.894 1105.69 289.702 1102.36 293.946C1099.04 298.189 1094.26 301.72 1088.49 304.186L630.242 500.186C624.402 502.684 617.761 504 611 504C604.238 504 597.598 502.684 591.758 500.186L133.508 304.186C127.743 301.72 122.96 298.189 119.636 293.946C116.312 289.702 114.563 284.894 114.562 280.001ZM228.538 280.001L611 443.584L993.462 280.001L611 116.418L228.538 280.001Z" fill="#140A82"/>
</svg>
