<svg id="Calque_1" data-name="Calque 1" xmlns="http://www.w3.org/2000/svg" width="1080" height="1080" viewBox="0 0 1080 1080">
  <g>
    <g>
      <path d="M448.48,306.77A103.13,103.13,0,0,0,345.35,409.9H654.74a51.55,51.55,0,0,1,51.56,51.56V667.72h0A103.13,103.13,0,0,0,809.43,564.59V461.46A154.69,154.69,0,0,0,654.74,306.77Z" style="fill: #009c3f"/>
      <path d="M603.17,770.85A103.13,103.13,0,0,0,706.3,667.72H396.92a51.57,51.57,0,0,1-51.57-51.56V409.9h0A103.13,103.13,0,0,0,242.22,513V616.15a154.7,154.7,0,0,0,154.7,154.7Z" style="fill: #2a3081"/>
    </g>
    <path d="M396.92,857.29V769.85H520.67l-97.35,98.51C413.58,878.22,396.92,871.24,396.92,857.29Z" style="fill: #2a3081"/>
  </g>
</svg>
