<?xml version="1.0" encoding="utf-8"?>
<svg id="Calque_1" data-name="Calque 1" width="1080" height="1080" viewBox="0 0 1080 1080" xmlns="http://www.w3.org/2000/svg">
  <g>
    <g>
      <path d="M323.38,476.83H509.64a0,0,0,0,1,0,0V605.74a0,0,0,0,1,0,0H323.38a20,20,0,0,1-20-20V496.83A20,20,0,0,1,323.38,476.83Z" style="fill: rgb(255, 255, 255);"/>
      <path d="M529.64,270.57h88.91a20,20,0,0,1,20,20V476.83a0,0,0,0,1,0,0H509.64a0,0,0,0,1,0,0V290.57A20,20,0,0,1,529.64,270.57Z" style="fill: rgb(255, 255, 255);"/>
    </g>
    <path d="M850,476.83H767.46A128.91,128.91,0,0,0,638.55,605.74H850a20.63,20.63,0,0,0,20.62-20.63V497.45A20.62,20.62,0,0,0,850,476.83Z" style="fill: rgb(255, 204, 64);"/>
    <path d="M509.64,817.15v-82.5A128.91,128.91,0,0,1,638.55,605.74V817.15a20.63,20.63,0,0,1-20.62,20.63H530.27A20.63,20.63,0,0,1,509.64,817.15Z" style="fill: rgb(255, 255, 255);"/>
  </g>
</svg>