<svg width="1041" height="1006" viewBox="0 0 1041 1006" fill="none" xmlns="http://www.w3.org/2000/svg">
<path d="M290.196 1005.55C284.431 1005.59 278.719 1004.46 273.398 1002.24C268.078 1000.02 263.258 996.754 259.227 992.632C255.195 988.511 252.034 983.621 249.932 978.252C247.83 972.884 246.83 967.147 246.991 961.384V782.79C246.544 776.732 247.351 770.647 249.361 764.915C251.372 759.183 254.543 753.927 258.677 749.476C262.811 745.026 267.818 741.475 273.386 739.048C278.954 736.62 284.962 735.367 291.036 735.367C297.11 735.367 303.119 736.62 308.687 739.048C314.255 741.475 319.262 745.026 323.396 749.476C327.529 753.927 330.701 759.183 332.711 764.915C334.722 770.647 335.529 776.732 335.081 782.79V888.17L595.51 747.023C600.624 743.848 606.333 741.753 612.286 740.865C618.239 739.977 624.311 740.316 630.129 741.86C635.946 743.404 641.387 746.121 646.117 749.844C650.846 753.567 654.765 758.218 657.632 763.51C660.499 768.803 662.255 774.625 662.79 780.621C663.326 786.617 662.63 792.658 660.746 798.375C658.862 804.092 655.83 809.364 651.835 813.866C647.84 818.369 642.967 822.007 637.515 824.558V824.558L312.039 1000.27C305.351 1003.93 297.815 1005.75 290.196 1005.55Z" fill="#DFE0EB"/>
<path d="M714.564 829.119H615.673C609.615 829.567 603.53 828.76 597.799 826.749C592.067 824.738 586.812 821.567 582.362 817.433C577.912 813.299 574.362 808.291 571.934 802.723C569.507 797.154 568.254 791.145 568.254 785.071C568.254 778.996 569.507 772.987 571.934 767.419C574.362 761.851 577.912 756.843 582.362 752.709C586.812 748.575 592.067 745.403 597.799 743.393C603.53 741.382 609.615 740.575 615.673 741.022H714.564C777.599 740.52 837.907 715.237 882.459 670.637C927.011 626.036 952.231 565.698 952.67 502.657V326.463C952.543 263.347 927.416 202.852 882.79 158.223C838.164 113.593 777.674 88.4638 714.564 88.337H326.44C263.29 88.337 202.727 113.425 158.073 158.082C113.42 202.74 88.3336 263.308 88.3336 326.463V504.097C88.3753 561.964 109.465 617.84 147.667 661.302C185.87 704.764 238.577 732.843 295.957 740.302C307.67 741.798 318.309 747.887 325.534 757.228C332.759 766.569 335.977 778.398 334.481 790.112C332.985 801.826 326.897 812.466 317.557 819.691C308.217 826.917 296.389 830.135 284.676 828.639C205.671 818.292 133.157 779.466 80.7439 719.446C28.3309 659.427 -0.378522 582.342 0.00376927 502.657V326.463C0.0673439 239.899 34.4801 156.899 95.685 95.6889C156.89 34.4791 239.883 0.0635797 326.44 0L714.564 0C801.101 0.126991 884.058 34.5629 945.249 95.759C1006.44 156.955 1040.87 239.918 1041 326.463V504.097C1040.87 590.641 1006.44 673.604 945.249 734.801C884.058 795.997 801.101 830.433 714.564 830.56V829.119Z" fill="#DFE0EB"/>
<path d="M723.204 458.728H317.559C305.846 458.728 294.612 454.074 286.33 445.791C278.047 437.508 273.394 426.273 273.394 414.559C273.394 402.845 278.047 391.61 286.33 383.327C294.612 375.044 305.846 370.391 317.559 370.391H723.204C734.918 370.391 746.151 375.044 754.434 383.327C762.716 391.61 767.369 402.845 767.369 414.559C767.369 426.273 762.716 437.508 754.434 445.791C746.151 454.074 734.918 458.728 723.204 458.728V458.728Z" fill="#DFE0EB"/>
<path d="M723.204 626.28H317.559C305.846 626.28 294.612 621.627 286.33 613.344C278.047 605.06 273.394 593.826 273.394 582.112C273.394 570.398 278.047 559.163 286.33 550.88C294.612 542.597 305.846 537.943 317.559 537.943H723.204C734.918 537.943 746.151 542.597 754.434 550.88C762.716 559.163 767.369 570.398 767.369 582.112C767.369 593.826 762.716 605.06 754.434 613.344C746.151 621.627 734.918 626.28 723.204 626.28V626.28Z" fill="#DFE0EB"/>
<path d="M723.204 291.177H317.559C305.846 291.177 294.612 286.523 286.33 278.24C278.047 269.957 273.394 258.723 273.394 247.008C273.394 235.294 278.047 224.06 286.33 215.776C294.612 207.493 305.846 202.84 317.559 202.84H723.204C734.918 202.84 746.151 207.493 754.434 215.776C762.716 224.06 767.369 235.294 767.369 247.008C767.369 258.723 762.716 269.957 754.434 278.24C746.151 286.523 734.918 291.177 723.204 291.177V291.177Z" fill="#DFE0EB"/>
</svg>
