<svg width="929" height="838" viewBox="0 0 929 838" fill="none" xmlns="http://www.w3.org/2000/svg">
<path d="M819.626 567.241H110.256C99.8254 567.184 89.8413 563.003 82.4857 555.612C75.1302 548.221 71.0013 538.22 71.0015 527.795V102.472C71.0014 75.3319 81.7746 49.3001 100.957 30.0891C120.139 10.878 146.164 0.0567786 173.321 0H756.562C770.027 0 783.36 2.65052 795.8 7.80022C808.24 12.9499 819.543 20.498 829.064 30.0134C838.585 39.5288 846.138 50.8252 851.291 63.2577C856.443 75.6902 859.096 89.0152 859.096 102.472V527.795C859.096 538.257 854.937 548.29 847.535 555.687C840.133 563.085 830.094 567.241 819.626 567.241ZM150.154 488.35H780.801V102.472C780.801 96.2179 778.315 90.2198 773.89 85.7975C769.465 81.3751 763.463 78.8906 757.205 78.8906H173.321C167.137 79.003 161.245 81.537 156.913 85.9472C152.58 90.3575 150.153 96.2915 150.154 102.472V102.472V488.35Z" fill="#fff"/>
<path d="M823.058 837.355H107.253C78.8076 837.355 51.5275 826.062 31.4136 805.96C11.2998 785.858 0 758.595 0 730.166C0.0274736 717.441 2.27782 704.817 6.64968 692.865L73.79 514.504C76.4905 506.958 81.4265 500.414 87.9409 495.742C94.4552 491.07 102.239 488.491 110.256 488.35H819.626C827.702 488.465 835.553 491.026 842.141 495.696C848.729 500.366 853.743 506.924 856.521 514.504L922.375 693.294C928.335 709.444 930.315 726.792 928.148 743.869C925.981 760.946 919.73 777.25 909.925 791.402C900.12 805.555 887.048 817.139 871.816 825.175C856.584 833.211 839.639 837.462 822.415 837.569L823.058 837.355ZM138.142 567.24L80.4396 720.734C77.8812 727.727 78.2065 735.45 81.344 742.204C84.4816 748.957 90.1745 754.189 97.1711 756.749C100.243 757.955 103.524 758.538 106.824 758.464H823.058C827.613 758.541 832.116 757.484 836.16 755.388C840.204 753.292 843.663 750.224 846.225 746.459C848.742 742.723 850.344 738.449 850.903 733.98C851.462 729.511 850.962 724.974 849.443 720.734L791.955 567.24H138.142Z" fill="#fff"/>
<path d="M622.066 794.479H307.387C296.919 794.479 286.88 790.323 279.478 782.925C272.076 775.528 267.917 765.495 267.917 755.033C267.917 744.572 272.076 734.539 279.478 727.141C286.88 719.744 296.919 715.588 307.387 715.588H622.066C632.534 715.588 642.573 719.744 649.975 727.141C657.377 734.539 661.536 744.572 661.536 755.033C661.536 765.495 657.377 775.528 649.975 782.925C642.573 790.323 632.534 794.479 622.066 794.479Z" fill="#fff"/>
</svg>
