<svg width="866" height="736" viewBox="0 0 866 736" fill="none" xmlns="http://www.w3.org/2000/svg">
<path d="M711.814 735.659H154.186C113.294 735.659 74.0757 721.792 45.1601 697.109C16.2446 672.426 0 638.949 0 604.041L0 165.544C0 157.224 3.87177 149.245 10.7636 143.362C17.6553 137.479 27.0026 134.174 36.7491 134.174H711.814C752.69 134.219 791.877 148.1 820.782 172.774C849.686 197.447 865.947 230.898 866 265.791V604.041C866 638.949 849.755 672.426 820.84 697.109C791.924 721.792 752.706 735.659 711.814 735.659ZM72.6993 196.914V604.041C72.6993 622.128 81.1161 639.474 96.0983 652.263C111.08 665.052 131.401 672.237 152.589 672.237H711.814C732.905 671.973 753.046 664.703 767.962 651.971C782.877 639.238 791.393 622.046 791.703 604.041V265.791C791.393 247.787 782.877 230.594 767.962 217.862C753.046 205.13 732.905 197.86 711.814 197.596L72.6993 196.914Z" fill="#DFE0EB"/>
<path d="M466.154 196.915H36.7491C27.0026 196.915 17.6553 193.61 10.7636 187.727C3.87177 181.844 0 173.865 0 165.545H0V31.37C0 23.0501 3.87177 15.0711 10.7636 9.18805C17.6553 3.30504 27.0026 0 36.7491 0L323.751 0C328.861 0.00901135 333.914 0.922747 338.589 2.68346C343.264 4.44418 347.461 7.0136 350.914 10.2293L493.516 144.404C496.757 147.459 499.261 151.03 500.885 154.912C502.508 158.794 503.22 162.91 502.979 167.027C502.738 171.144 501.549 175.179 499.479 178.904C497.41 182.628 494.502 185.967 490.92 188.731C484.088 193.895 475.279 196.745 466.154 196.744V196.915ZM73.4981 134.175H383.469L308.373 62.5694H73.4981V134.175Z" fill="#DFE0EB"/>
</svg>
