<svg width="997" height="895" viewBox="0 0 997 895" fill="none" xmlns="http://www.w3.org/2000/svg">
<path d="M445.682 893.144C440.157 893.218 434.674 892.182 429.557 890.097C424.44 888.012 419.795 884.921 415.897 881.006C408.062 873.077 403.668 862.381 403.668 851.236C403.668 840.091 408.062 829.395 415.897 821.465L893.147 344.677C899.25 338.593 904.092 331.365 907.396 323.407C910.7 315.45 912.4 306.919 912.4 298.303C912.4 289.688 910.7 281.157 907.396 273.199C904.092 265.241 899.25 258.014 893.147 251.93V251.93L744.908 103.534C732.405 91.5266 715.737 84.8204 698.398 84.8204C681.058 84.8204 664.391 91.5266 651.887 103.534L174.408 580.552C162.124 592.908 155.229 609.62 155.229 627.04C155.229 644.459 162.124 661.171 174.408 673.528V673.528L322.647 821.694C326.648 825.483 329.864 830.023 332.11 835.055C334.357 840.086 335.59 845.511 335.739 851.018C335.887 856.526 334.95 862.009 332.978 867.154C331.007 872.3 328.042 877.007 324.251 881.006C320.459 885.006 315.917 888.22 310.883 890.466C305.849 892.711 300.422 893.943 294.912 894.092C289.402 894.241 283.916 893.303 278.768 891.333C273.62 889.363 268.911 886.399 264.909 882.609L263.306 881.235L114.838 732.84C86.9667 704.673 71.3345 666.656 71.3345 627.04C71.3345 587.424 86.9667 549.406 114.838 521.239L592.775 43.993C606.694 30.0477 623.228 18.9838 641.431 11.4348C659.634 3.88577 679.148 0 698.856 0C718.563 0 738.078 3.88577 756.281 11.4348C774.484 18.9838 791.018 30.0477 804.937 43.993L953.175 192.159C981.241 220.316 997 258.442 997 298.189C997 337.935 981.241 376.061 953.175 404.218L474.78 881.464C467.011 889.056 456.546 893.257 445.682 893.144V893.144Z" fill="#FFFFFF"/>
<path d="M546.494 793.071C535.295 792.947 524.595 788.422 516.708 780.475L215.879 480.937C209.466 472.824 206.262 462.637 206.876 452.317C207.49 441.996 211.879 432.261 219.207 424.964C226.536 417.667 236.292 413.318 246.621 412.745C256.949 412.171 267.128 415.413 275.22 421.853L576.05 721.163C581.826 727.097 585.737 734.593 587.299 742.724C588.86 750.855 588.003 759.265 584.835 766.915C581.666 774.565 576.324 781.119 569.469 785.767C562.614 790.416 554.547 792.955 546.264 793.071H546.494Z" fill="#FFFFFF"/>
<path d="M693.586 893.144H45.416C39.6339 893.571 33.8258 892.801 28.3548 890.883C22.8839 888.964 17.8676 885.938 13.6195 881.995C9.37147 878.051 5.98299 873.273 3.66588 867.961C1.34876 862.649 0.152832 856.916 0.152832 851.121C0.152832 845.326 1.34876 839.593 3.66588 834.281C5.98299 828.969 9.37147 824.192 13.6195 820.248C17.8676 816.304 22.8839 813.278 28.3548 811.36C33.8258 809.442 39.6339 808.672 45.416 809.099H693.586C699.369 808.672 705.177 809.442 710.648 811.36C716.119 813.278 721.135 816.304 725.383 820.248C729.631 824.192 733.019 828.969 735.337 834.281C737.654 839.593 738.85 845.326 738.85 851.121C738.85 856.916 737.654 862.649 735.337 867.961C733.019 873.273 729.631 878.051 725.383 881.995C721.135 885.938 716.119 888.964 710.648 890.883C705.177 892.801 699.369 893.571 693.586 893.144Z" fill="#FFFFFF"/>
</svg>
