<svg width="892" height="892" viewBox="0 0 892 892" fill="none" xmlns="http://www.w3.org/2000/svg">
<path d="M446.069 891.735C357.872 891.735 271.656 865.612 198.323 816.669C124.99 767.726 67.8338 698.161 34.0824 616.772C0.33091 535.382 -8.50001 445.824 8.70633 359.421C25.9127 273.019 68.3835 193.653 130.748 131.36C193.113 69.0676 272.57 26.6457 359.072 9.45916C445.574 -7.72737 535.236 1.09338 616.719 34.806C698.202 68.5185 767.847 125.609 816.847 198.857C865.846 272.106 892 358.223 892 446.318C892 564.45 845.018 677.744 761.39 761.276C677.761 844.807 564.337 891.735 446.069 891.735V891.735ZM446.069 76.5065C372.843 76.5065 301.261 98.1955 240.376 138.831C179.49 179.466 132.036 237.223 104.014 304.797C75.9912 372.371 68.6593 446.728 82.945 518.465C97.2307 590.201 132.492 656.095 184.271 707.814C236.05 759.533 302.02 794.754 373.839 809.023C445.658 823.293 520.101 815.969 587.753 787.979C655.405 759.989 713.228 712.589 753.91 651.774C794.593 590.959 816.307 519.46 816.307 446.318V446.318C816.307 348.238 777.3 254.175 707.867 184.822C638.433 115.469 544.262 76.5065 446.069 76.5065V76.5065Z" fill="#DFE0EB"/>
<path d="M446.068 891.736C436.527 891.776 427.33 888.175 420.357 881.669C304.86 777.177 235.642 631.142 227.928 475.681C220.213 320.219 274.634 168.063 379.22 52.6749C392.59 38.0879 406.371 24.1173 420.357 11.5848C427.808 5.5139 437.292 2.5031 446.885 3.16385C456.477 3.8246 465.458 8.10735 472.004 15.1423C478.549 22.1773 482.169 31.437 482.127 41.041C482.085 50.6449 478.386 59.873 471.779 66.851C371.031 157.657 310.48 284.688 303.423 420.05C296.366 555.411 343.379 688.038 434.139 788.805C446.068 802.502 458.615 815.034 471.779 826.402C477.362 831.566 481.256 838.291 482.955 845.699C484.653 853.107 484.077 860.854 481.301 867.93C478.525 875.006 473.679 881.082 467.394 885.365C461.109 889.649 453.677 891.94 446.068 891.941V891.736Z" fill="#DFE0EB"/>
<path d="M446.069 891.736C438.505 891.691 431.128 889.383 424.889 885.11C418.651 880.837 413.838 874.795 411.071 867.763C408.303 860.731 407.709 853.032 409.365 845.66C411.02 838.288 414.849 831.58 420.358 826.402C521.272 735.576 581.946 608.44 589.043 472.943C596.14 337.447 549.079 204.681 458.205 103.832C446.275 90.6831 433.522 78.1506 420.358 66.2344C413.157 59.5451 408.846 50.3189 408.337 40.5097C407.828 30.7005 411.161 21.0785 417.631 13.6815C424.101 6.2844 433.199 1.69311 442.999 0.879876C452.799 0.0666419 462.531 3.09532 470.134 9.32454C470.734 9.81942 471.285 10.3697 471.78 10.9681C587.278 115.46 656.495 261.495 664.21 416.956C671.924 572.418 617.504 724.574 512.917 839.962C499.753 854.549 485.767 868.314 471.78 881.052C464.928 887.82 455.705 891.652 446.069 891.736V891.736Z" fill="#DFE0EB"/>
<path d="M823.917 619.923H68.2207C63.0298 620.306 57.8156 619.615 52.9041 617.894C47.9926 616.173 43.4892 613.459 39.6756 609.921C35.8619 606.382 32.8199 602.096 30.7397 597.331C28.6596 592.565 27.5859 587.422 27.5859 582.223C27.5859 577.024 28.6596 571.881 30.7397 567.115C32.8199 562.349 35.8619 558.063 39.6756 554.525C43.4892 550.987 47.9926 548.272 52.9041 546.551C57.8156 544.83 63.0298 544.14 68.2207 544.523H823.917C829.108 544.14 834.322 544.83 839.234 546.551C844.145 548.272 848.649 550.987 852.462 554.525C856.276 558.063 859.318 562.349 861.398 567.115C863.478 571.881 864.552 577.024 864.552 582.223C864.552 587.422 863.478 592.565 861.398 597.331C859.318 602.096 856.276 606.382 852.462 609.921C848.649 613.459 844.145 616.173 839.234 617.894C834.322 619.615 829.108 620.306 823.917 619.923V619.923Z" fill="#DFE0EB"/>
<path d="M823.917 348.113H68.2207C63.0298 348.496 57.8156 347.805 52.9041 346.084C47.9926 344.363 43.4892 341.648 39.6756 338.11C35.8619 334.572 32.8199 330.286 30.7397 325.52C28.6596 320.754 27.5859 315.611 27.5859 310.412C27.5859 305.213 28.6596 300.07 30.7397 295.304C32.8199 290.539 35.8619 286.253 39.6756 282.714C43.4892 279.176 47.9926 276.462 52.9041 274.741C57.8156 273.02 63.0298 272.329 68.2207 272.712H823.917C829.108 272.329 834.322 273.02 839.234 274.741C844.145 276.462 848.649 279.176 852.462 282.714C856.276 286.253 859.318 290.539 861.398 295.304C863.478 300.07 864.552 305.213 864.552 310.412C864.552 315.611 863.478 320.754 861.398 325.52C859.318 330.286 856.276 334.572 852.462 338.11C848.649 341.648 844.145 344.363 839.234 346.084C834.322 347.805 829.108 348.496 823.917 348.113Z" fill="#DFE0EB"/>
</svg>
