<svg width="660" height="608" viewBox="0 0 660 608" fill="none" xmlns="http://www.w3.org/2000/svg">
<path d="M519.6 607.175C514.137 607.168 508.799 605.544 504.259 602.507C499.719 599.47 496.181 595.156 494.092 590.11C492.002 585.064 491.455 579.513 492.519 574.156C493.583 568.799 496.21 563.878 500.069 560.013L591.41 469.895L500.52 379.777C495.683 374.531 493.063 367.618 493.208 360.484C493.353 353.351 496.253 346.55 501.299 341.505C506.345 336.459 513.148 333.561 520.283 333.416C527.418 333.271 534.333 335.89 539.58 340.726L650.001 451.121C655.139 456.321 658.02 463.336 658.02 470.646C658.02 477.956 655.139 484.971 650.001 490.172L539.58 599.214C536.956 601.816 533.834 603.862 530.401 605.229C526.968 606.597 523.294 607.259 519.6 607.175V607.175Z" fill="white"/>
<path d="M630.02 496.779H254.441C221.305 497.574 188.345 491.732 157.501 479.599C126.658 467.466 98.554 449.286 74.8444 426.129C51.1348 402.973 32.2987 375.308 19.4451 344.764C6.59142 314.219 -0.0200001 281.413 4.54466e-05 248.275C0.020091 215.137 6.6712 182.339 19.5618 151.81C32.4524 121.281 51.3219 93.6392 75.0595 70.5115C98.7971 47.3838 126.923 29.2378 157.781 17.1418C188.639 5.04577 221.606 -0.755734 254.741 0.0787964H519.6C523.391 -0.201211 527.2 0.303652 530.787 1.56183C534.374 2.82 537.664 4.80445 540.449 7.39111C543.235 9.97778 545.456 13.1111 546.976 16.5951C548.495 20.0792 549.279 23.8391 549.279 27.6399C549.279 31.4407 548.495 35.2006 546.976 38.6846C545.456 42.1687 543.235 45.302 540.449 47.8887C537.664 50.4753 534.374 52.4598 530.787 53.7179C527.2 54.9761 523.391 55.481 519.6 55.201H254.741C228.907 54.4808 203.19 58.9461 179.111 68.3328C155.033 77.7195 133.081 91.8372 114.553 109.851C96.0253 127.865 81.298 149.41 71.2416 173.212C61.1852 197.014 56.0038 222.591 56.0038 248.429C56.0038 274.267 61.1852 299.844 71.2416 323.646C81.298 347.448 96.0253 368.993 114.553 387.007C133.081 405.021 155.033 419.138 179.111 428.525C203.19 437.912 228.907 442.377 254.741 441.657H630.321C634.112 441.377 637.921 441.882 641.508 443.14C645.095 444.398 648.384 446.383 651.17 448.969C653.955 451.556 656.177 454.689 657.697 458.173C659.216 461.657 660 465.417 660 469.218C660 473.019 659.216 476.779 657.697 480.263C656.177 483.747 653.955 486.88 651.17 489.467C648.384 492.053 645.095 494.038 641.508 495.296C637.921 496.554 634.112 497.059 630.321 496.779H630.02Z" fill="white"/>
</svg>
