<svg width="879" height="897" viewBox="0 0 879 897" fill="none" xmlns="http://www.w3.org/2000/svg">
<path d="M530.682 896.59H348.528C338.51 896.481 328.94 892.427 321.894 885.308C314.849 878.19 310.898 868.581 310.898 858.568V858.568V777.977C310.909 761.922 304.687 746.489 293.542 734.926C282.397 723.364 267.198 716.573 251.145 715.985C239.732 715.837 228.499 718.841 218.684 724.664L149.006 765.165C144.694 767.681 139.926 769.319 134.978 769.985C130.029 770.65 124.998 770.33 120.174 769.043C115.349 767.756 110.828 765.528 106.869 762.486C102.911 759.444 99.5941 755.649 97.1099 751.32L5.92949 593.859C3.35036 589.591 1.68763 584.833 1.04693 579.889C0.406233 574.944 0.801575 569.92 2.20784 565.136C3.44444 560.302 5.6364 555.763 8.65464 551.789C11.6729 547.814 15.4564 544.483 19.7823 541.992L89.6666 501.697C96.6642 497.836 102.831 492.634 107.815 486.388C112.798 480.142 116.5 472.975 118.708 465.297C120.917 457.62 121.589 449.582 120.685 441.645C119.782 433.707 117.321 426.026 113.444 419.04C107.926 409.084 99.6765 400.91 89.6666 395.483L19.9891 355.188C15.5834 352.57 11.7426 349.102 8.69001 344.987C5.63741 340.872 3.43397 336.191 2.20784 331.217C0.893595 326.412 0.564114 321.391 1.23917 316.455C1.91422 311.519 3.57989 306.77 6.13625 302.494L97.3167 145.239C99.7809 140.917 103.078 137.127 107.018 134.088C110.958 131.048 115.462 128.82 120.27 127.533C125.077 126.245 130.092 125.923 135.025 126.586C139.958 127.249 144.71 128.883 149.006 131.394L218.891 172.103C228.187 177.666 238.803 180.645 249.639 180.731C260.475 180.816 271.136 178.006 280.52 172.589C289.903 167.173 297.668 159.349 303.009 149.926C308.35 140.503 311.074 129.824 310.898 118.996V38.4053C310.898 28.376 314.884 18.7575 321.98 11.6657C329.076 4.57397 338.7 0.589844 348.735 0.589844L531.096 0.589844C541.186 0.589844 550.862 4.59574 557.997 11.7263C565.131 18.8568 569.139 28.5279 569.139 38.612V119.202C569.15 130.001 572.051 140.601 577.54 149.903C583.03 159.204 590.908 166.869 600.36 172.103C609.64 177.316 620.107 180.055 630.753 180.055C641.399 180.055 651.866 177.316 661.147 172.103L731.031 130.774C739.762 126.112 749.961 125.015 759.485 127.712C769.009 130.41 777.115 136.692 782.1 145.239L873.281 302.907C875.798 307.217 877.437 311.982 878.103 316.928C878.769 321.874 878.448 326.902 877.161 331.724C875.873 336.545 873.643 341.064 870.6 345.02C867.556 348.977 863.759 352.292 859.428 354.774L789.957 395.276C782.94 399.117 776.753 404.309 771.754 410.552C766.755 416.796 763.043 423.967 760.832 431.652C758.622 439.337 757.956 447.384 758.874 455.327C759.792 463.271 762.275 470.954 766.18 477.933C771.666 487.966 779.919 496.214 789.957 501.697L859.635 541.992C868.3 547.084 874.611 555.38 877.203 565.087C879.795 574.793 878.461 585.129 873.488 593.859L782.307 751.527C777.216 760.193 768.899 766.493 759.175 769.049C749.45 771.604 739.109 770.208 730.411 765.165L660.94 723.837C651.66 718.623 641.193 715.885 630.547 715.885C619.9 715.885 609.434 718.623 600.153 723.837C590.825 729.194 583.093 736.938 577.751 746.271C572.409 755.605 569.651 766.192 569.76 776.944V857.534C569.76 867.619 565.751 877.29 558.617 884.42C551.482 891.551 541.806 895.557 531.716 895.557L530.682 896.59ZM385.951 820.752H492.225V778.184C491.975 753.91 498.193 730.007 510.24 708.928C522.286 687.849 539.728 670.354 560.775 658.238C581.822 646.121 605.716 639.821 630.004 639.983C654.292 640.144 678.1 646.763 698.984 659.158L735.787 679.822L788.717 588.693L751.914 568.029C730.892 556.085 713.412 538.788 701.252 517.899C689.092 497.01 682.686 473.274 682.686 449.106C682.686 424.939 689.092 401.203 701.252 380.314C713.412 359.425 730.892 342.128 751.914 330.184L788.717 309.52L735.787 218.391L698.984 239.055C678.036 251.569 654.117 258.249 629.713 258.401C605.308 258.552 581.308 252.17 560.207 239.917C539.105 227.663 521.671 209.986 509.716 188.722C497.761 167.458 491.722 143.382 492.225 118.996V76.4275H386.365V118.996C386.681 143.295 380.504 167.238 368.473 188.355C356.442 209.473 338.992 227 317.923 239.129C296.853 251.258 272.928 257.55 248.614 257.355C224.3 257.161 200.479 250.487 179.607 238.022L142.804 217.357L90.7004 307.867L127.297 328.531C148.372 340.431 165.906 357.712 178.107 378.607C190.308 399.502 196.737 423.261 196.737 447.453C196.737 471.646 190.308 495.404 178.107 516.299C165.906 537.194 148.372 554.475 127.297 566.376L90.4937 587.04L143.631 678.169L180.434 657.505C201.381 644.991 225.3 638.311 249.704 638.159C274.109 638.007 298.109 644.39 319.211 656.643C340.312 668.896 357.746 686.573 369.701 707.838C381.656 729.102 387.695 753.178 387.192 777.564L385.951 820.752Z" fill="#DFE0EB"/>
<path d="M439.708 592.826C411.083 592.826 383.101 584.343 359.3 568.448C335.499 552.554 316.949 529.963 305.995 503.532C295.04 477.101 292.174 448.016 297.759 419.957C303.343 391.898 317.127 366.124 337.368 345.894C357.609 325.665 383.398 311.888 411.473 306.307C439.548 300.725 468.649 303.59 495.095 314.538C521.541 325.486 544.145 344.026 560.048 367.814C575.951 391.601 584.439 419.568 584.439 448.177V448.177C584.439 486.54 569.191 523.332 542.049 550.459C514.906 577.586 478.093 592.826 439.708 592.826V592.826ZM439.708 380.192C426.173 380.192 412.941 384.203 401.687 391.719C390.432 399.235 381.661 409.917 376.481 422.415C371.301 434.913 369.946 448.666 372.586 461.934C375.227 475.202 381.745 487.389 391.316 496.955C400.887 506.521 413.082 513.035 426.357 515.674C439.633 518.314 453.393 516.959 465.898 511.782C478.403 506.605 489.092 497.838 496.612 486.59C504.132 475.342 508.146 462.118 508.146 448.59V448.59C508.146 430.45 500.935 413.052 488.101 400.225C475.266 387.398 457.859 380.192 439.708 380.192V380.192Z" fill="#DFE0EB"/>
</svg>
