<svg width="1222" height="896" viewBox="0 0 1222 896" fill="none" xmlns="http://www.w3.org/2000/svg">
<path d="M1102.23 601.897C1107.34 608.311 1108.75 615.948 1106.18 623.128C1103.6 630.309 1097.24 636.445 1088.49 640.187L630.242 836.187C624.401 838.685 617.761 840.001 611 840.001C604.238 840.001 597.598 838.685 591.758 836.187L133.508 640.187C129.141 638.347 125.312 635.893 122.244 632.964C119.175 630.036 116.927 626.691 115.629 623.123C114.331 619.555 114.008 615.834 114.68 612.174C115.351 608.514 117.003 604.987 119.541 601.797C122.079 598.607 125.452 595.817 129.467 593.587C133.482 591.357 138.059 589.732 142.934 588.804C147.809 587.876 152.886 587.665 157.873 588.182C162.86 588.699 167.658 589.934 171.992 591.817L611 779.585L1050.01 591.817C1058.76 588.075 1069.17 587.035 1078.97 588.926C1088.76 590.816 1097.13 595.482 1102.23 601.897ZM1050.01 423.817L611 611.585L171.987 423.817C167.652 421.907 162.843 420.647 157.84 420.111C152.836 419.575 147.737 419.773 142.838 420.693C137.939 421.614 133.339 423.238 129.303 425.473C125.268 427.707 121.878 430.508 119.33 433.711C116.782 436.914 115.128 440.456 114.462 444.131C113.797 447.807 114.133 451.543 115.453 455.122C116.772 458.702 119.048 462.053 122.148 464.983C125.249 467.912 129.112 470.361 133.513 472.187L591.763 668.187C597.602 670.684 604.24 671.999 611 671.999C617.759 671.999 624.398 670.684 630.237 668.187L1088.49 472.187C1097.17 468.418 1103.46 462.287 1105.99 455.131C1108.52 447.975 1107.09 440.374 1102.01 433.988C1096.93 427.602 1088.61 422.949 1078.87 421.043C1069.13 419.138 1058.75 420.135 1050.01 423.817ZM114.562 280.002C114.563 275.108 116.313 270.299 119.638 266.056C122.963 261.812 127.747 258.282 133.513 255.817L591.763 59.8167C597.602 57.3196 604.24 56.0039 611 56.0039C617.759 56.0039 624.398 57.3196 630.237 59.8167L1088.49 255.817C1094.26 258.283 1099.04 261.813 1102.36 266.057C1105.69 270.3 1107.44 275.108 1107.44 280.002C1107.44 284.895 1105.69 289.703 1102.36 293.947C1099.04 298.19 1094.26 301.721 1088.49 304.187L630.242 500.187C624.401 502.685 617.761 504.001 611 504.001C604.238 504.001 597.598 502.685 591.758 500.187L133.508 304.187C127.743 301.721 122.96 298.19 119.636 293.947C116.312 289.703 114.563 284.895 114.562 280.002ZM228.538 280.002L611 443.585L993.462 280.002L611 116.419L228.538 280.002Z" fill="#DFE0EB"/>
</svg>
