<svg width="841" height="839" viewBox="0 0 841 839" fill="none" xmlns="http://www.w3.org/2000/svg">
<path d="M802.802 838.379H35.577C26.1414 838.379 17.0922 834.631 10.4203 827.959C3.74828 821.287 0 812.238 0 802.802H0V35.577C0 26.1414 3.74828 17.0922 10.4203 10.4203C17.0922 3.74828 26.1414 0 35.577 0C45.0126 0 54.0617 3.74828 60.7337 10.4203C67.4057 17.0922 71.1539 26.1414 71.1539 35.577V767.418H802.802C807.682 767.058 812.583 767.708 817.2 769.328C821.817 770.947 826.05 773.502 829.635 776.832C833.22 780.162 836.08 784.195 838.035 788.68C839.991 793.166 841 798.006 841 802.899C841 807.792 839.991 812.632 838.035 817.117C836.08 821.602 833.22 825.636 829.635 828.966C826.05 832.296 821.817 834.85 817.2 836.47C812.583 838.09 807.682 838.74 802.802 838.379Z" fill="#DFE0EB"/>
<path d="M802.802 389.221C798.139 389.221 793.522 388.299 789.216 386.509C784.911 384.718 781.001 382.095 777.713 378.789C774.425 375.482 771.823 371.559 770.056 367.244C768.289 362.928 767.393 358.306 767.418 353.644V353.644V216.363H630.138C620.702 216.363 611.653 212.615 604.981 205.943C598.309 199.271 594.561 190.222 594.561 180.786C594.561 171.35 598.309 162.301 604.981 155.629C611.653 148.957 620.702 145.209 630.138 145.209H802.802C807.474 145.209 812.1 146.129 816.416 147.917C820.733 149.705 824.655 152.326 827.958 155.629C831.262 158.933 833.883 162.855 835.671 167.171C837.459 171.488 838.379 176.114 838.379 180.786V353.644C838.379 358.316 837.459 362.942 835.671 367.258C833.883 371.575 831.262 375.497 827.958 378.8C824.655 382.104 820.733 384.725 816.416 386.512C812.1 388.3 807.474 389.221 802.802 389.221Z" fill="#DFE0EB"/>
<path d="M525.727 536.748H522.053C516.369 536.175 510.907 534.242 506.128 531.112C501.349 527.982 497.394 523.747 494.597 518.766L390.96 334.887L232.797 515.865C226.388 522.309 217.766 526.071 208.683 526.388C199.6 526.705 190.737 523.553 183.895 517.572C177.052 511.59 172.743 503.229 171.842 494.185C170.941 485.141 173.516 476.094 179.045 468.881L369.304 250.005C373.102 245.786 377.839 242.52 383.133 240.472C388.427 238.425 394.128 237.652 399.776 238.216C405.424 238.781 410.86 240.668 415.643 243.724C420.427 246.779 424.423 250.918 427.31 255.805L530.947 440.458L775.926 157.582C782.168 150.679 790.866 146.496 800.156 145.931C809.446 145.366 818.587 148.464 825.62 154.56C832.652 160.657 837.015 169.266 837.774 178.542C838.533 187.818 835.626 197.022 829.678 204.18L551.83 524.566C548.584 528.323 544.58 531.351 540.082 533.45C535.583 535.549 530.691 536.673 525.727 536.748V536.748Z" fill="#DFE0EB"/>
</svg>
